<?xml version="1.0" encoding="utf-8"?>
<!-- Generator: Adobe Illustrator 19.1.0, SVG Export Plug-In . SVG Version: 6.00 Build 0)  -->
<!DOCTYPE svg PUBLIC "-//W3C//DTD SVG 1.1//EN" "http://www.w3.org/Graphics/SVG/1.1/DTD/svg11.dtd">
<svg version="1.1" xmlns="http://www.w3.org/2000/svg" xmlns:xlink="http://www.w3.org/1999/xlink" x="0px" y="0px"
	 viewBox="0 0 792 300" style="enable-background:new 0 0 792 300;" xml:space="preserve">
<style type="text/css">
	.st0{fill:#FFFFFF;}
</style>
<g id="Background">
</g>
<g id="Guides">
</g>
<g id="Foreground">
	<g>
		<g>
			<path class="st0" d="M237.6,165.6h12.2v7.5H229v-44.3h8.6V165.6z M275,173.1h-8.6v-44.3h8.6V173.1z M310.3,155.2h0.1l10.4-26.3
				h9.3l-19.7,46.7h-0.1L291,128.8h9.3L310.3,155.2z M354.8,136.4v9.7h13.7v7.5h-13.7v12h14.3v7.5h-22.9v-44.3h22.9v7.5H354.8z
				 M397,173.1h-5.1v-44.3h7.6c4,0,8.1,0.1,11.4,2.3c3.4,2.3,5.2,6.2,5.2,10.1c0,3.6-1.5,7.2-4.4,9.5c-3.1,2.5-7.1,2.9-10.9,2.9H397
				V173.1z M397,149.2h3.4c5.7,0,10.5-1.6,10.5-8c0-7.2-6.1-7.7-12-7.7H397V149.2z M434.2,128.8h23.9v4.6h-18.8v13.2h18.2v4.6h-18.2
				v17.4h18.8v4.6h-23.9V128.8z M483.1,173.1H478v-44.3h6.7c8.7,0,16.9,2.2,16.9,12.2c0,6.8-4.5,11.6-11.6,12.2l14.7,19.8h-6.3
				l-13.9-19.4h-1.3V173.1z M483.1,149.3h1.6c5.8,0,11.7-1.1,11.7-7.9c0-7.3-5.6-8-11.7-8h-1.5V149.3z M542.8,137.5
				c-1.8-3.1-4-4.8-7.9-4.8c-4.1,0-7.6,2.8-7.6,6.9c0,3.8,4.1,5.6,7.2,6.9l3.1,1.3c6,2.5,11.1,5.4,11.1,12.4
				c0,7.7-6.5,13.7-14.5,13.7c-7.4,0-12.9-4.6-14.4-11.4l5-1.4c0.7,4.5,4.3,8.2,9.2,8.2c5,0,9.5-3.6,9.5-8.6c0-5.2-4.2-6.9-8.5-8.8
				l-2.8-1.2c-5.4-2.3-10-5-10-11.3c0-6.9,6.1-11.3,12.9-11.3c5.1,0,9.5,2.5,11.9,6.9L542.8,137.5z M612.2,151
				c0,12.7-10.9,22.8-24,22.8c-13.1,0-24-10.1-24-22.8c0-12.7,10.9-22.9,24-22.9C601.4,128.1,612.2,138.4,612.2,151z M569.3,151
				c0,10,8.4,18.3,18.9,18.3c10.4,0,18.9-8.3,18.9-18.3c0-10-8.3-18.3-18.9-18.3C577.7,132.7,569.3,140.9,569.3,151z M632.2,127
				l35.9,36.2v-34.3h5.1v46.2L637.3,139v34.1h-5.1V127z"/>
			<path class="st0" d="M176.6,131.6l6.3-5.5l-6.6-6.5l-5.6,6.2c-1.1-0.9-2.3-1.7-3.6-2.4l3.7-7.5l-8.6-3.5l-2.8,7.8
				c-1.4-0.4-2.8-0.6-4.2-0.8l0.5-8.3h-9.3l0.5,8.3c-1.4,0.2-2.8,0.5-4.2,0.8l-2.8-7.8l-8.6,3.5l3.6,7.5c-1.2,0.7-2.4,1.5-3.6,2.4
				l-5.6-6.2l-6.6,6.5l6.3,5.5c-0.9,1.1-1.7,2.3-2.4,3.5l-7.6-3.6l-3.6,8.5l8,2.7c-0.4,1.4-0.7,2.8-0.8,4.2l-8.4-0.5v9.2l8.4-0.5
				c0.2,1.4,0.5,2.8,0.8,4.2l-8,2.7l3.6,8.5l7.6-3.6c0.7,1.2,1.5,2.4,2.4,3.5L119,176l6.6,6.5l5.6-6.2c1.2,0.9,2.3,1.7,3.6,2.4
				l-3.7,7.5l8.6,3.5l2.8-7.8c1.4,0.4,2.8,0.6,4.2,0.8l-0.5,8.3h9.3l-0.5-8.3c1.4-0.2,2.8-0.5,4.2-0.8l2.8,7.8l8.6-3.5l-3.7-7.5
				c1.2-0.7,2.4-1.5,3.6-2.4l5.6,6.2l6.6-6.5l-6.3-5.5c0.9-1.1,1.7-2.3,2.4-3.5l7.6,3.6l3.6-8.5l-7.9-2.7c0.4-1.4,0.7-2.8,0.8-4.2
				l8.4,0.5v-9.2l-8.4,0.5c-0.2-1.4-0.5-2.8-0.8-4.2l7.9-2.7l-3.6-8.5l-7.6,3.6C178.3,134,177.5,132.8,176.6,131.6z M170.6,151.1
				c0,10.7-8.8,19.3-19.6,19.3c-10.8,0-19.6-8.6-19.6-19.3c0-10.7,8.8-19.3,19.6-19.3C161.8,131.8,170.6,140.4,170.6,151.1z"/>
		</g>
	</g>
</g>
</svg>
