<?xml version="1.0" encoding="utf-8"?>
<!-- Generator: Adobe Illustrator 19.2.0, SVG Export Plug-In . SVG Version: 6.00 Build 0)  -->
<svg version="1.1" id="Layer_1" xmlns="http://www.w3.org/2000/svg" xmlns:xlink="http://www.w3.org/1999/xlink" x="0px" y="0px"
	 viewBox="0 0 23.2 24" style="enable-background:new 0 0 23.2 24;" xml:space="preserve">
<style type="text/css">
	.st0{fill:#021E40;}
</style>
<path id="XMLID_506_" class="st0" d="M22.6,5.2c-0.8,0.4-1.7,0.6-2.6,0.7c0.9-0.6,1.6-1.5,2-2.5c-0.9,0.5-1.8,0.9-2.9,1.1
	c-0.8-0.9-2-1.4-3.3-1.4c-2.5,0-4.5,2-4.5,4.5c0,0.4,0,0.7,0.1,1c-3.8-0.2-7.1-2-9.3-4.7C1.7,4.6,1.5,5.4,1.5,6.2c0,1.6,0.8,3,2,3.8
	c-0.7,0-1.4-0.2-2-0.6c0,0,0,0,0,0.1c0,2.2,1.6,4,3.6,4.5c-0.4,0-0.8,0.1-1.2,0.1c-0.3,0-0.6,0-0.8-0.1c0.5,1.8,2.2,3.1,4.2,3.2
	C5.7,18.3,3.8,19,1.7,19c-0.4,0-0.7,0-1.1,0c2,1.3,4.4,2,6.9,2c8.3,0,12.8-6.9,12.8-12.9c0-0.2,0-0.4,0-0.6
	C21.2,6.9,22,6.1,22.6,5.2z"/>
</svg>
