<?xml version="1.0" encoding="utf-8"?>
<!-- Generator: Adobe Illustrator 19.2.0, SVG Export Plug-In . SVG Version: 6.00 Build 0)  -->
<svg version="1.1" id="Layer_1" xmlns="http://www.w3.org/2000/svg" xmlns:xlink="http://www.w3.org/1999/xlink" x="0px" y="0px"
	 viewBox="0 0 24 24" style="enable-background:new 0 0 24 24;" xml:space="preserve">
<style type="text/css">
	.st0{fill:#021E40;}
</style>
<path id="XMLID_844_" class="st0" d="M22.8,7.3c0,0-0.2-1.5-0.8-2.2c-0.8-0.9-1.7-0.9-2.1-0.9c-3-0.2-8-0.2-8-0.2l0,0
	c0,0-4.7,0-7.7,0.2C3.8,4.3,2.9,4.3,2.1,5.1C1.4,5.8,1.2,7.3,1.2,7.3S1,9.6,1,11.3V13c0,1.8,0.2,3.7,0.2,3.7s0.2,1.5,0.8,2.2
	c0.8,0.9,1.9,0.8,2.3,0.9C6,20,11.8,20,11.8,20s5,0,8-0.2c0.4-0.1,1.3-0.1,2.1-0.9c0.6-0.7,0.8-2.2,0.8-2.2s0.3-2,0.3-3.7v-1.6
	C23,9.6,22.8,7.3,22.8,7.3z M9.7,15V8.4l5.7,3.6L9.7,15z"/>
</svg>
