<?xml version="1.0" encoding="UTF-8" standalone="no"?>
<svg width="263px" height="107px" viewBox="0 0 263 107" version="1.1" xmlns="http://www.w3.org/2000/svg" xmlns:xlink="http://www.w3.org/1999/xlink">
    <!-- Generator: Sketch 3.6.1 (26313) - http://www.bohemiancoding.com/sketch -->
    <title>Slice 1</title>
    <desc>Created with Sketch.</desc>
    <defs>
        <path id="path-1" d="M165.782063,40.7924695 L172.539993,40.7924695 L172.539993,43.2051332 C173.781274,42.0035934 174.882692,41.1808765 175.843974,40.7369827 C176.824651,40.2751819 177.986166,40.0436509 179.327972,40.0436509 C181.109854,40.0436509 182.972048,40.5801066 184.914553,41.6522615 L181.820913,47.3646199 C180.539204,46.5146642 179.287543,46.0889296 178.066751,46.0889296 C174.381973,46.0889296 172.539993,48.6589739 172.539993,53.7983058 L172.539993,67.8023987 L165.782063,67.8023987 L165.782063,40.7924695 L165.782063,40.7924695 Z"></path>
    </defs>
    <g id="Page-1" stroke="none" stroke-width="1" fill="none" fill-rule="evenodd">
        <g id="Group-3" transform="translate(78.542945, 25.500000)">
            <g id="Clip-2" transform="translate(0.000000, 0.000000)"></g>
            <g id="Fill-1-Clipped" transform="translate(0.000000, 14.000000)" fill="#FFFFFF">
                <path d="M24.1483939,2.4572367 L24.1483939,10.748719 C22.6060811,9.0112279 21.2246651,7.8187677 20.0035992,7.1715907 C18.8022015,6.50575 17.3904636,6.1730819 15.7686587,6.1730819 C13.2254544,6.1730819 11.1130378,6.9960509 9.4311357,8.6412323 C7.74923357,10.2866659 6.90814593,12.3479978 6.90814593,14.8252279 C6.90814593,17.3584491 7.71891181,19.4381925 9.34098989,21.0647102 C10.9827362,22.6917323 13.0752114,23.5051173 15.6184157,23.5051173 C17.2402206,23.5051173 18.6716266,23.181781 19.9134534,22.5343518 C21.114851,21.9060907 22.5265889,20.6858872 24.1483939,18.8737412 L24.1483939,27.1102412 C21.4049566,28.4225022 18.6617926,29.0790111 15.9186286,29.0790111 C11.3933093,29.0790111 7.60882466,27.7296748 4.56544777,25.0302456 C1.52152454,22.3126571 -2.73169095e-05,18.9388119 -2.73169095e-05,14.908458 C-2.73169095e-05,10.8783562 1.54173905,7.4765155 4.62554497,4.7034403 C7.70880454,1.930365 11.4932892,0.5437013 15.9787257,0.5437013 C18.8620255,0.5437013 21.5849751,1.1815465 24.1483939,2.4572367" id="Fill-1"></path>
            </g>
        </g>
        <path d="M109.844545,54.2142796 C109.844545,56.8029876 110.595486,58.9102221 112.097097,60.5367398 C113.638863,62.1826779 115.581096,63.0048903 117.924067,63.0048903 C120.426842,63.0048903 122.449113,62.2104212 123.991152,60.6199699 C125.532646,58.9747885 126.303802,56.8859655 126.303802,54.3529965 C126.303802,51.8202796 125.532646,49.7314566 123.991152,48.0857708 C122.449113,46.4771602 120.447057,45.6731071 117.983891,45.6731071 C115.660861,45.6731071 113.719175,46.4867442 112.157194,48.1135142 C110.615155,49.7592 109.844545,51.7925363 109.844545,54.2142796 L109.844545,54.2142796 L109.844545,54.2142796 Z M125.883395,40.7925451 L132.671374,40.7925451 L132.671374,67.8024743 L125.883395,67.8024743 L125.883395,64.9739124 C123.099802,67.3772442 120.106142,68.5790363 116.902688,68.5790363 C112.857873,68.5790363 109.514283,67.2294478 106.871099,64.5300186 C104.247583,61.7756071 102.936371,58.3371956 102.936371,54.2142796 C102.936371,50.1655142 104.247583,46.7919212 106.871099,44.092492 C109.493795,41.3935673 112.777561,40.0437265 116.722669,40.0437265 C120.126356,40.0437265 123.180113,41.3380805 125.883395,43.9260319 L125.883395,40.7925451 L125.883395,40.7925451 Z" id="Fill-4" fill="#FFFFFF"></path>
        <path d="M157.876686,54.4637934 C157.876686,51.8755898 157.115637,49.7683553 155.594358,48.1413332 C154.052046,46.4958996 152.11036,45.6731827 149.767388,45.6731827 C147.284554,45.6731827 145.271845,46.4681562 143.730078,48.0581031 C142.188039,49.64805 141.417702,51.7371252 141.417702,54.3250765 C141.417702,56.8582978 142.188039,58.9471208 143.730078,60.5925544 C145.25163,62.2009128 147.25396,63.0049659 149.737067,63.0049659 C152.079765,63.0049659 154.012436,62.1918332 155.533988,60.5645588 C157.095969,58.9380412 157.876686,56.9042004 157.876686,54.4637934 L157.876686,54.4637934 L157.876686,54.4637934 Z M141.80806,82.4999748 L135.05013,82.4999748 L135.05013,40.7923686 L141.80806,40.7923686 L141.80806,43.731904 C144.470913,41.2733376 147.494621,40.0438022 150.87864,40.0438022 C154.90324,40.0438022 158.217055,41.4120544 160.820083,44.1480544 C163.463267,46.8656429 164.784859,50.295227 164.784859,54.4363022 C164.784859,58.4848155 163.473101,61.8589128 160.850405,64.5578376 C158.24683,67.2386031 154.963611,68.5791119 150.998835,68.5791119 C147.57466,68.5791119 144.511069,67.3127535 141.80806,64.7797845 L141.80806,82.4999748 L141.80806,82.4999748 Z" id="Fill-6" fill="#FFFFFF"></path>
        <g id="Fill-8">
            <use fill="#FFFFFF" fill-rule="evenodd" xlink:href="#path-1"></use>
            <use fill="none" xlink:href="#path-1"></use>
        </g>
        <g id="Fill-10-Clipped" transform="translate(184.542945, 25.500000)" fill="#FFFFFF">
            <path d="M8.23576417,42.3025752 L1.47810734,42.3025752 L1.47810734,15.292646 L8.23576417,15.292646 L8.23576417,42.3025752 L8.23576417,42.3025752 Z M0.457001177,4.06137611 C0.457001177,2.97080973 0.887242569,2.02803982 1.74827156,1.23281416 C2.60930011,0.43809292 3.64051406,0.0403539823 4.84218443,0.0403539823 C6.06325096,0.0403539823 7.10457128,0.43809292 7.96560027,1.23281416 C8.82662926,2.00937611 9.25714321,2.96173009 9.25714321,4.08911947 C9.25714321,5.21701327 8.82662926,6.1784469 7.96560027,6.97316814 C7.12451256,7.76814159 6.0932997,8.16562832 4.87196061,8.16562832 C3.65034787,8.16562832 2.60930011,7.76814159 1.74827156,6.97316814 C0.887242569,6.1784469 0.457001177,5.20793363 0.457001177,4.06137611 L0.457001177,4.06137611 L0.457001177,4.06137611 Z" id="Fill-10"></path>
        </g>
        <g id="Fill-12-Clipped" transform="translate(192.542945, 40.500000)" fill="#FFFFFF">
            <path d="M13.5763595,21.4235044 L30.9668506,21.4235044 L30.9668506,27.3025752 L0.180693276,27.3025752 L19.1331648,6.1159779 L4.2052943,6.1159779 L4.2052943,0.2923938 L32.4987823,0.2923938 L13.5763595,21.4235044 L13.5763595,21.4235044 Z" id="Fill-12"></path>
        </g>
        <g id="Fill-4-Clipped" transform="translate(222.542945, 39.500000)" fill="#FFFFFF">
            <path d="M7.83534208,14.7142796 C7.83534208,17.3029876 8.58628358,19.4102221 10.087894,21.0367398 C11.6296607,22.6826779 13.5718936,23.5048903 15.9148643,23.5048903 C18.41764,23.5048903 20.4399106,22.7104212 21.9819498,21.1199699 C23.5234428,19.4747885 24.2945992,17.3859655 24.2945992,14.8529965 C24.2945992,12.3202796 23.5234428,10.2314566 21.9819498,8.5857708 C20.4399106,6.9771602 18.4378538,6.1731071 15.9746882,6.1731071 C13.6516587,6.1731071 11.7099731,6.9867442 10.1479915,8.6135142 C8.6059523,10.2592 7.83534208,12.2925363 7.83534208,14.7142796 L7.83534208,14.7142796 L7.83534208,14.7142796 Z M23.8741927,1.2925451 L30.662171,1.2925451 L30.662171,28.3024743 L23.8741927,28.3024743 L23.8741927,25.4739124 C21.0905995,27.8772442 18.0969388,29.0790363 14.8934853,29.0790363 C10.8486704,29.0790363 7.50508071,27.7294478 4.86189628,25.0300186 C2.23838056,22.2756071 0.927168902,18.8371956 0.927168902,14.7142796 C0.927168902,10.6655142 2.23838056,7.2919212 4.86189628,4.592492 C7.48459323,1.8935673 10.7683591,0.5437265 14.7134665,0.5437265 C18.1171537,0.5437265 21.1709108,1.8380805 23.8741927,4.4260319 L23.8741927,1.2925451 L23.8741927,1.2925451 Z" id="Fill-4"></path>
        </g>
        <g id="capriza-c-closed" transform="translate(8.000000, 21.000000)" fill="#FFFFFF">
            <path d="M64.6855966,7.21631208 L64.6855966,13.9372 C60.1382329,12.1233471 54.8951106,11.2135596 48.9514806,11.2135596 C39.5366566,11.2135596 31.4929281,13.3211385 24.8202951,17.5343891 C18.1471871,21.7481164 14.8108707,26.8282399 14.8108707,32.7738058 C14.8108707,38.0999725 18.0175339,42.6946852 24.4318102,46.5588978 C30.8451366,50.4235872 38.4538379,52.3566472 47.2569642,52.3566472 C54.2306968,52.3566472 60.0370748,51.3953623 64.6855966,49.4794681 L64.6855966,57.7290661 C64.6855966,61.7148697 61.4670604,64.9453782 57.4976749,64.9453782 L7.18744683,64.9453782 C3.21758636,64.9453782 0,61.7148697 0,57.7290661 L0,7.21631208 C0,3.23098525 3.21758636,0 7.18744683,0 L57.4976749,0 C61.4670604,0 64.6855966,3.23098525 64.6855966,7.21631208 Z M36.4150042,32.2435733 C36.4150042,40.5069992 41.6500528,44.6968852 51.9752993,44.6968852 C57.3908177,44.6968852 61.7106946,43.9072584 64.8138252,42.3499387 L64.9453782,42.2841365 L64.9453782,29.1279804 L64.7041185,29.1313182 C64.5388462,29.1341791 64.4367383,29.1356096 64.3327307,29.1356096 C62.7464962,29.1356096 60.8534631,28.8833677 58.7020733,28.3855595 C59.0815347,27.1057537 59.2738775,26.0171558 59.2738775,25.1474218 C59.2738775,23.2835019 58.2675211,21.7214141 56.2828282,20.5040726 C54.3342295,19.3100958 51.875566,18.7045245 48.9738018,18.7045245 C40.6403718,18.7045245 36.4150042,23.2596606 36.4150042,32.2435733 Z" id="Fill-6"></path>
        </g>
    </g>
</svg>