<?xml version="1.0" encoding="utf-8"?>
<!-- Generator: Adobe Illustrator 19.2.1, SVG Export Plug-In . SVG Version: 6.00 Build 0)  -->
<svg version="1.1" id="Layer_1" xmlns="http://www.w3.org/2000/svg" xmlns:xlink="http://www.w3.org/1999/xlink" x="0px" y="0px"
	 viewBox="0 0 113.4 113.4" style="enable-background:new 0 0 113.4 113.4;" xml:space="preserve">
<style type="text/css">
	.st0{fill:none;}
	.st1{fill:#F0F1F2;}
</style>
<g>
	<rect x="0" class="st0" width="113.4" height="113.4"/>
	<g>
		<g>
			<path class="st1" d="M79.7,67.4c-0.8,0-1.6-0.5-1.9-1.4c-0.3-1,0.2-2.2,1.3-2.5c3.8-1.2,6.2-4.5,6.2-8.4c0-4.9-4-8.9-8.9-8.9
				c-0.3,0-0.7,0-1.2,0.1l-1.9,0.3l-0.3-1.9c-1.2-8.3-8.4-14.5-16.7-14.5c-6.9,0-13.1,4.1-15.7,10.5L40.2,42l-1.3,0
				c-6,0.1-10.8,5.1-10.8,11c0,4.4,2.5,8.3,6.4,10.1c1,0.5,1.4,1.6,1,2.6c-0.5,1-1.6,1.4-2.6,1c-5.3-2.4-8.8-7.8-8.8-13.7
				c0-7.7,5.9-14.1,13.4-14.9c3.5-7.2,10.7-11.8,18.8-11.8c9.7,0,18.1,6.8,20.3,16.1c7,0.1,12.6,5.8,12.6,12.8
				c0,5.5-3.6,10.4-8.9,12.1C80.1,67.4,79.9,67.4,79.7,67.4z"/>
			<path class="st1" d="M49.6,68.3C49.6,68.3,49.6,68.3,49.6,68.3C49.6,68.3,49.6,68.3,49.6,68.3L49.6,68.3L49.6,68.3L49.6,68.3
				C49.6,68.3,49.6,68.3,49.6,68.3L49.6,68.3L49.6,68.3C49.6,68.3,49.6,68.3,49.6,68.3L49.6,68.3L49.6,68.3L49.6,68.3
				C49.6,68.3,49.6,68.3,49.6,68.3C49.6,68.3,49.6,68.3,49.6,68.3L49.6,68.3L49.6,68.3C49.6,68.3,49.6,68.3,49.6,68.3L49.6,68.3
				C49.5,68.3,49.5,68.3,49.6,68.3C49.5,68.3,49.5,68.3,49.6,68.3L49.6,68.3C49.5,68.3,49.5,68.3,49.6,68.3L49.6,68.3
				C49.5,68.3,49.5,68.3,49.6,68.3C49.5,68.3,49.5,68.3,49.6,68.3C49.5,68.3,49.5,68.3,49.6,68.3L49.6,68.3
				C49.5,68.3,49.5,68.3,49.6,68.3C49.5,68.3,49.5,68.3,49.6,68.3C49.5,68.3,49.5,68.3,49.6,68.3L49.6,68.3
				C49.5,68.3,49.5,68.3,49.6,68.3L49.6,68.3c-0.1,0-0.1,0-0.1,0h0h0c0,0,0,0,0,0c0,0,0,0,0,0h0h0c0,0,0,0,0,0c0,0,0,0,0,0
				c0,0,0,0,0,0h0h0h0c0,0,0,0,0,0h0h0h0h0c0,0,0,0,0,0h0h0h0h0c0,0,0,0,0,0c-0.9,0-1.6-0.7-1.6-1.5V49.4h1.3c0,0,0,0,0,0
				c0.2,0,0.3-0.1,0.3-0.3c0-0.1-0.1-0.3-0.2-0.3l-6.4-4.4c-0.1-0.1-0.3-0.1-0.4,0l-6.4,4.4C36,48.9,36,49,36,49.2
				c0,0.1,0.2,0.2,0.3,0.2h1.3l0,17.4c0,1.2,1,2.2,2.2,2.2c0,0,0,0,0,0h9.5c0,0,0,0,0,0c0.1,0,0.2,0,0.2-0.1c0,0,0,0,0,0
				c0,0,0,0,0,0s0,0,0,0l0,0l0,0l0,0l0,0l0,0c0,0,0,0,0,0c0,0,0,0,0,0c0,0,0,0,0,0l0,0c0,0,0,0,0,0c0.1-0.1,0.1-0.1,0.1-0.2v0v0v0v0
				v0v0v0v0C49.8,68.5,49.7,68.4,49.6,68.3z"/>
			<path class="st1" d="M63.4,68.3C63.4,68.3,63.4,68.3,63.4,68.3C63.4,68.3,63.4,68.3,63.4,68.3L63.4,68.3
				C63.4,68.3,63.4,68.3,63.4,68.3L63.4,68.3L63.4,68.3L63.4,68.3L63.4,68.3C63.4,68.3,63.4,68.3,63.4,68.3L63.4,68.3L63.4,68.3
				C63.4,68.3,63.4,68.3,63.4,68.3C63.4,68.3,63.4,68.3,63.4,68.3L63.4,68.3L63.4,68.3L63.4,68.3L63.4,68.3L63.4,68.3
				C63.4,68.3,63.4,68.3,63.4,68.3C63.4,68.3,63.4,68.3,63.4,68.3L63.4,68.3L63.4,68.3C63.4,68.3,63.4,68.3,63.4,68.3
				C63.4,68.3,63.4,68.3,63.4,68.3C63.3,68.3,63.3,68.3,63.4,68.3C63.3,68.3,63.3,68.3,63.4,68.3C63.3,68.3,63.3,68.3,63.4,68.3
				C63.3,68.3,63.3,68.3,63.4,68.3C63.3,68.3,63.3,68.3,63.4,68.3C63.3,68.3,63.3,68.3,63.4,68.3C63.3,68.3,63.3,68.3,63.4,68.3
				L63.4,68.3L63.4,68.3c-0.1,0-0.1,0-0.1,0h0c0,0,0,0,0,0c0,0,0,0,0,0h0h0h0l0,0c0,0,0,0,0,0c0,0,0,0,0,0h0c0,0,0,0,0,0h0
				c0,0,0,0,0,0s0,0,0,0h0h0h0c0,0,0,0,0,0h0h0h0h0c0,0,0,0,0,0c-0.9,0-1.6-0.7-1.6-1.5V53.3H63c0,0,0,0,0,0c0.2,0,0.3-0.1,0.3-0.3
				c0-0.1-0.1-0.3-0.2-0.3l-6.4-4.4c-0.1-0.1-0.3-0.1-0.4,0l-6.4,4.4c-0.1,0.1-0.2,0.2-0.1,0.4c0,0.1,0.2,0.2,0.3,0.2h1.3l0,13.5
				c0,1.2,1,2.2,2.2,2.2c0,0,0,0,0,0h9.5c0,0,0,0,0,0c0.1,0,0.2,0,0.2-0.1c0,0,0,0,0,0c0,0,0,0,0,0c0,0,0,0,0,0c0,0,0,0,0,0l0,0l0,0
				c0,0,0,0,0,0l0,0c0,0,0,0,0,0c0,0,0,0,0,0c0,0,0,0,0,0c0,0,0,0,0,0c0,0,0,0,0,0c0.1-0.1,0.1-0.1,0.1-0.2v0v0v0v0v0v0v0v0
				C63.6,68.5,63.5,68.4,63.4,68.3z"/>
			<path class="st1" d="M77.2,68.3L77.2,68.3C77.2,68.3,77.2,68.3,77.2,68.3L77.2,68.3C77.2,68.3,77.2,68.3,77.2,68.3L77.2,68.3
				C77.2,68.3,77.2,68.3,77.2,68.3L77.2,68.3L77.2,68.3C77.2,68.3,77.2,68.3,77.2,68.3C77.2,68.3,77.2,68.3,77.2,68.3L77.2,68.3
				L77.2,68.3C77.2,68.3,77.2,68.3,77.2,68.3C77.2,68.3,77.2,68.3,77.2,68.3L77.2,68.3C77.2,68.3,77.2,68.3,77.2,68.3
				C77.2,68.3,77.2,68.3,77.2,68.3L77.2,68.3C77.2,68.3,77.2,68.3,77.2,68.3C77.2,68.3,77.2,68.3,77.2,68.3L77.2,68.3
				C77.2,68.3,77.2,68.3,77.2,68.3C77.2,68.3,77.2,68.3,77.2,68.3C77.2,68.3,77.2,68.3,77.2,68.3C77.2,68.3,77.2,68.3,77.2,68.3
				L77.2,68.3C77.2,68.3,77.2,68.3,77.2,68.3L77.2,68.3C77.2,68.3,77.2,68.3,77.2,68.3C77.2,68.3,77.2,68.3,77.2,68.3
				C77.2,68.3,77.2,68.3,77.2,68.3C77.2,68.3,77.2,68.3,77.2,68.3L77.2,68.3c-0.1,0-0.1,0-0.1,0h0c0,0,0,0,0,0c0,0,0,0,0,0h0h0h0
				c0,0,0,0,0,0c0,0,0,0,0,0c0,0,0,0,0,0h0h0h0c0,0,0,0,0,0h0c0,0,0,0,0,0h0h0h0h0h0h0h0h0c-0.9,0-1.6-0.7-1.6-1.5v-9.6h1.3
				c0,0,0,0,0,0c0.2,0,0.3-0.1,0.3-0.3c0-0.1-0.1-0.3-0.2-0.3l-6.4-4.4c-0.1-0.1-0.3-0.1-0.4,0l-6.4,4.4c-0.1,0.1-0.2,0.2-0.1,0.4
				c0,0.1,0.2,0.2,0.3,0.2h1.3l0,9.6c0,1.2,1,2.2,2.2,2.2c0,0,0,0,0,0H77c0,0,0,0,0,0c0.1,0,0.2,0,0.2-0.1l0,0c0,0,0,0,0,0
				c0,0,0,0,0,0l0,0l0,0l0,0l0,0l0,0l0,0c0,0,0,0,0,0c0,0,0,0,0,0l0,0c0,0,0,0,0,0c0.1-0.1,0.1-0.1,0.1-0.2v0v0v0v0v0v0v0v0
				C77.4,68.5,77.3,68.4,77.2,68.3z"/>
		</g>
		<g>
			<path class="st1" d="M40.8,77.6c-0.3-0.3-0.7-0.6-1.2-0.8c-0.5-0.2-1-0.3-1.7-0.3c-0.6,0-1.2,0.1-1.7,0.3
				c-0.5,0.2-0.9,0.5-1.2,0.8c-0.3,0.4-0.6,0.8-0.7,1.2c-0.2,0.5-0.2,1-0.2,1.5c0,0.4,0,0.8,0.1,1.2c0.1,0.4,0.2,0.7,0.4,1.1
				c0.2,0.3,0.4,0.6,0.7,0.8c0.3,0.2,0.7,0.4,1.1,0.6c0.4,0.1,0.9,0.2,1.5,0.2c0.6,0,1.1-0.1,1.5-0.2c0.4-0.1,0.8-0.3,1.1-0.6
				c0.3-0.2,0.5-0.5,0.7-0.8c0.2-0.3,0.3-0.7,0.4-1.1c0.1-0.4,0.1-0.8,0.1-1.2c0-0.5-0.1-1.1-0.2-1.5C41.3,78.4,41.1,78,40.8,77.6z
				 M39.8,81.3c-0.1,0.3-0.2,0.6-0.3,0.8c-0.2,0.2-0.4,0.4-0.6,0.6c-0.3,0.1-0.6,0.2-0.9,0.2c-0.3,0-0.6-0.1-0.9-0.2
				c-0.3-0.1-0.5-0.3-0.6-0.6c-0.2-0.2-0.3-0.5-0.3-0.8c-0.1-0.3-0.1-0.6-0.1-1c0-0.4,0-0.7,0.1-1c0.1-0.3,0.2-0.6,0.4-0.8
				c0.2-0.2,0.4-0.4,0.6-0.6c0.2-0.1,0.5-0.2,0.9-0.2h0c0.3,0,0.6,0.1,0.9,0.2c0.2,0.1,0.5,0.3,0.6,0.6c0.2,0.2,0.3,0.5,0.4,0.8
				c0.1,0.3,0.1,0.6,0.1,1C39.9,80.7,39.9,81,39.8,81.3z"/>
			<path class="st1" d="M46.5,84.1c0.3-0.1,0.6-0.3,0.8-0.4c0.2-0.2,0.5-0.4,0.6-0.7l0-0.1h0.2l0,0.2v0.3c0,0.2,0,0.4,0.1,0.5
				c0.1,0.1,0.1,0.2,0.3,0.3c0.1,0.1,0.3,0.1,0.5,0.1c0.2,0,0.4,0,0.5-0.1c0.1-0.1,0.2-0.2,0.3-0.3c0.1-0.1,0.1-0.3,0.1-0.5v-5.9
				c0-0.2,0-0.3-0.1-0.5c-0.1-0.1-0.1-0.2-0.3-0.3c-0.1-0.1-0.3-0.1-0.6-0.1c-0.2,0-0.4,0-0.6,0.1c-0.1,0.1-0.2,0.2-0.3,0.3
				c-0.1,0.1-0.1,0.3-0.1,0.5v3.5c0,0.3-0.1,0.6-0.2,0.8c-0.1,0.2-0.2,0.4-0.4,0.6c-0.2,0.2-0.4,0.3-0.6,0.4
				c-0.2,0.1-0.4,0.1-0.6,0.1c-0.3,0-0.6-0.1-0.8-0.2c-0.2-0.1-0.4-0.3-0.5-0.6c-0.1-0.2-0.2-0.5-0.2-0.8v-3.7c0-0.2,0-0.3-0.1-0.5
				c-0.1-0.1-0.1-0.2-0.3-0.3c-0.1-0.1-0.3-0.1-0.6-0.1c-0.2,0-0.4,0-0.6,0.1c-0.1,0.1-0.2,0.2-0.3,0.3c-0.1,0.1-0.1,0.3-0.1,0.5
				v4.2c0,0.5,0.1,1,0.2,1.3c0.1,0.3,0.3,0.6,0.6,0.8c0.2,0.2,0.5,0.3,0.8,0.4c0.3,0.1,0.6,0.1,0.9,0.1h0
				C45.9,84.2,46.2,84.2,46.5,84.1z"/>
			<path class="st1" d="M32.4,73.7c-0.1-0.1-0.3-0.1-0.5-0.1c-0.2,0-0.4,0-0.5,0.1c-0.1,0.1-0.2,0.2-0.3,0.3
				C31,74.1,31,74.3,31,74.5v8.8c0,0.2,0,0.4,0.1,0.5c0.1,0.1,0.2,0.2,0.3,0.3c0.1,0.1,0.3,0.1,0.5,0.1c0.2,0,0.4,0,0.5-0.1
				c0.1-0.1,0.2-0.2,0.3-0.3c0.1-0.1,0.1-0.3,0.1-0.5v-8.8c0-0.2,0-0.4-0.1-0.5C32.6,73.9,32.5,73.8,32.4,73.7z"/>
			<path class="st1" d="M92.7,77.1c0-0.1-0.1-0.2-0.2-0.3c-0.1-0.1-0.2-0.2-0.3-0.2c-0.1-0.1-0.3-0.1-0.5-0.1c-0.2,0-0.3,0-0.4,0.1
				c-0.1,0.1-0.2,0.2-0.3,0.3c-0.1,0.1-0.1,0.3-0.2,0.5l-1.3,5h-0.2l-0.1-0.1l-1.4-5c-0.1-0.2-0.2-0.4-0.3-0.5
				c-0.2-0.1-0.4-0.2-0.6-0.2c-0.2,0-0.3,0-0.4,0.1c-0.1,0.1-0.2,0.2-0.3,0.3C86.1,77,86,77.2,86,77.4c0,0.1,0,0.1,0,0.2
				c0,0.1,0,0.2,0.1,0.3c0,0.1,0.1,0.3,0.1,0.4l2.2,6.4l0,0c-0.1,0.2-0.1,0.4-0.2,0.5c-0.1,0.1-0.2,0.2-0.3,0.2c-0.1,0-0.2,0-0.3,0
				l-0.1,0h-0.2c-0.2,0-0.3,0-0.4,0.1c-0.1,0.1-0.2,0.1-0.3,0.2c-0.1,0.1-0.1,0.2-0.1,0.4c0,0.1,0,0.3,0.1,0.4
				c0.1,0.1,0.2,0.2,0.4,0.3c0.2,0.1,0.4,0.1,0.7,0.1c0.3,0,0.6,0,0.8-0.1c0.2-0.1,0.4-0.2,0.6-0.4c0.2-0.2,0.3-0.4,0.5-0.7
				c0.1-0.3,0.3-0.6,0.4-0.9l2.5-7c0.1-0.1,0.1-0.3,0.1-0.4c0-0.1,0-0.2,0-0.3C92.7,77.3,92.7,77.2,92.7,77.1z"/>
			<path class="st1" d="M78.9,83.1c0-0.1-0.1-0.2-0.1-0.4c0-0.1,0-0.3,0-0.6v-3.6c0-0.4-0.1-0.7-0.2-0.9c-0.2-0.3-0.4-0.5-0.7-0.6
				c-0.3-0.2-0.6-0.3-1.1-0.4c-0.4-0.1-0.9-0.1-1.4-0.1c-0.1,0-0.1,0-0.2,0l-0.1,0c-0.2,0-0.4,0-0.6,0l-0.1,0
				c-0.2,0-0.4,0.1-0.5,0.1c-0.4,0.1-0.8,0.3-1,0.4c-0.3,0.2-0.5,0.4-0.6,0.6c-0.1,0.2-0.2,0.4-0.2,0.6c0,0.1,0,0.2,0.1,0.3
				c0.1,0.1,0.1,0.2,0.3,0.2c0.1,0.1,0.3,0.1,0.4,0.1c0.1,0,0.3,0,0.4-0.1c0.1-0.1,0.2-0.2,0.3-0.3c0.1-0.1,0.3-0.2,0.4-0.4
				c0.2-0.1,0.3-0.2,0.6-0.3c0.1,0,0.2-0.1,0.4-0.1c0,0,0.1,0,0.1,0l0,0c0.1,0,0.2,0,0.4,0c0.3,0,0.5,0,0.7,0.1
				c0.2,0.1,0.4,0.2,0.6,0.3c0.2,0.2,0.2,0.4,0.2,0.6c0,0.2-0.1,0.4-0.2,0.6c-0.1,0.1-0.2,0.2-0.4,0.3c-0.1,0-0.3,0.1-0.5,0.1
				l-1.3,0.1c-0.4,0-0.8,0.1-1.1,0.2c-0.3,0.1-0.7,0.2-0.9,0.4c-0.3,0.2-0.5,0.4-0.6,0.7c-0.1,0.3-0.2,0.6-0.2,1
				c0,0.3,0.1,0.6,0.2,0.8c0.1,0.3,0.3,0.5,0.5,0.6c0.2,0.2,0.5,0.3,0.7,0.4c0.3,0.1,0.6,0.1,0.8,0.1h0c0.4,0,0.7,0,1-0.1
				c0.1,0,0.1,0,0.2,0c0,0,0.1,0,0.1,0l0.1,0c0,0,0.1,0,0.1,0c0.2-0.1,0.3-0.1,0.4-0.2c0.3-0.2,0.6-0.4,0.8-0.7l0.2-0.3l0,0.4
				c0,0.2,0,0.4,0.1,0.6c0.1,0.2,0.2,0.3,0.3,0.4s0.4,0.2,0.7,0.2c0.2,0,0.3,0,0.4-0.1c0.1-0.1,0.2-0.1,0.3-0.2
				c0.1-0.1,0.1-0.2,0.1-0.3c0-0.1,0-0.1,0-0.2L78.9,83.1z M76.9,81.4c0,0.2,0,0.4-0.1,0.6c-0.1,0.2-0.2,0.4-0.4,0.5
				c-0.2,0.2-0.4,0.3-0.6,0.4c-0.1,0-0.2,0.1-0.4,0.1l-0.1,0c-0.1,0-0.3,0-0.4,0c-0.3,0-0.5,0-0.7-0.1c-0.2-0.1-0.4-0.2-0.5-0.4
				c-0.1-0.2-0.2-0.3-0.2-0.5c0-0.2,0.1-0.5,0.2-0.6c0.1-0.2,0.3-0.3,0.5-0.4c0.2-0.1,0.5-0.2,0.8-0.2l0.8-0.1c0.1,0,0.2,0,0.3-0.1
				c0.1,0,0.2-0.1,0.3-0.1c0.1,0,0.2-0.1,0.2-0.1l0.3-0.2V81.4z"/>
			<path class="st1" d="M24.5,75.4c0.4-0.2,0.7-0.3,1.1-0.3c0.4,0,0.7,0.1,1,0.2c0.3,0.1,0.5,0.2,0.6,0.4c0.2,0.2,0.3,0.3,0.4,0.5
				c0.1,0.2,0.2,0.3,0.3,0.5c0.1,0.1,0.2,0.2,0.3,0.3c0.1,0.1,0.3,0.1,0.5,0.1c0.3,0,0.6-0.1,0.7-0.2c0.2-0.2,0.2-0.4,0.2-0.7
				c0-0.2-0.1-0.4-0.2-0.6c-0.1-0.2-0.3-0.5-0.5-0.7c-0.2-0.2-0.5-0.4-0.8-0.6c-0.3-0.2-0.7-0.4-1.2-0.5c-0.4-0.1-0.9-0.2-1.5-0.2
				c-0.7,0-1.3,0.1-1.8,0.3c-0.5,0.2-1,0.4-1.4,0.8c-0.4,0.3-0.7,0.7-1,1.2c-0.3,0.5-0.5,1-0.6,1.5c-0.1,0.5-0.2,1.1-0.2,1.7
				c0,1.2,0.2,2.2,0.6,3c0.4,0.8,1,1.4,1.7,1.8c0.8,0.4,1.7,0.6,2.8,0.6c0.6,0,1.1-0.1,1.6-0.3c0.5-0.2,0.9-0.4,1.3-0.7
				c0.4-0.3,0.7-0.6,0.9-0.9c0.2-0.3,0.3-0.7,0.3-1c0-0.2-0.1-0.3-0.1-0.4c-0.1-0.1-0.2-0.2-0.4-0.3c-0.2-0.1-0.3-0.1-0.5-0.1
				c-0.2,0-0.3,0-0.4,0.1c-0.1,0.1-0.2,0.2-0.3,0.3c-0.1,0.2-0.2,0.3-0.4,0.5c-0.1,0.2-0.3,0.3-0.4,0.5c-0.2,0.2-0.4,0.3-0.6,0.4
				c-0.2,0.1-0.5,0.2-0.9,0.2c-0.5,0-1-0.1-1.4-0.3c-0.4-0.2-0.7-0.5-0.9-0.8c-0.2-0.3-0.4-0.8-0.5-1.2c-0.1-0.4-0.2-0.9-0.2-1.4
				c0-0.6,0.1-1.1,0.2-1.6c0.2-0.5,0.4-0.9,0.6-1.2C23.9,75.8,24.2,75.6,24.5,75.4z"/>
			<path class="st1" d="M58.4,74.5c0-0.2,0-0.4-0.1-0.5c-0.1-0.1-0.2-0.2-0.3-0.3c-0.3-0.1-0.7-0.1-1,0c-0.1,0.1-0.2,0.2-0.3,0.3
				c-0.1,0.1-0.1,0.3-0.1,0.5v3.1h-0.2l-0.1-0.1c-0.2-0.3-0.5-0.6-0.8-0.7c-0.1,0-0.2-0.1-0.3-0.1c0,0,0,0-0.1,0l0,0
				c-0.1,0-0.1,0-0.2-0.1l0,0c0,0-0.1,0-0.1,0l-0.1,0c-0.1,0-0.2,0-0.3,0c-0.4,0-0.8,0.1-1.2,0.2c-0.3,0.1-0.6,0.3-0.9,0.6
				c-0.3,0.2-0.5,0.5-0.6,0.8c-0.2,0.3-0.3,0.7-0.4,1c-0.1,0.4-0.1,0.8-0.1,1.2c0,0.7,0.1,1.3,0.3,1.8c0.2,0.5,0.4,0.9,0.7,1.2
				c0.3,0.3,0.6,0.6,1,0.7c0.4,0.2,0.8,0.2,1.2,0.2c0.2,0,0.3,0,0.5,0c0.2,0,0.3-0.1,0.5-0.1c0.3-0.1,0.5-0.2,0.7-0.4
				c0.2-0.2,0.4-0.4,0.5-0.7l0-0.1h0.3l0,0.2v0.3c0,0.3,0.1,0.5,0.2,0.7c0.1,0.1,0.3,0.2,0.6,0.2c0.3,0,0.5-0.1,0.6-0.2
				c0.1-0.1,0.2-0.4,0.2-0.7L58.4,74.5L58.4,74.5z M56.6,81.3c-0.1,0.3-0.2,0.6-0.3,0.8c-0.1,0.2-0.3,0.4-0.6,0.6
				c-0.1,0-0.1,0.1-0.2,0.1c0,0,0,0-0.1,0l0,0c0,0-0.1,0-0.1,0c0,0,0,0-0.1,0l0,0c-0.1,0-0.1,0-0.1,0c0,0-0.1,0-0.1,0l-0.1,0
				c0,0-0.1,0-0.1,0c-0.3,0-0.6-0.1-0.8-0.2c-0.2-0.1-0.4-0.3-0.6-0.6c-0.1-0.2-0.3-0.5-0.3-0.8c-0.1-0.3-0.1-0.6-0.1-0.9
				c0-0.2,0-0.4,0-0.7c0-0.2,0.1-0.4,0.2-0.7c0.1-0.2,0.2-0.4,0.3-0.6c0.1-0.2,0.3-0.3,0.5-0.4c0.2-0.1,0.5-0.2,0.8-0.2h0
				c0,0,0.1,0,0.1,0l0.1,0c0,0,0.1,0,0.1,0c0,0,0.1,0,0.1,0l0.1,0c0,0,0,0,0.1,0c0,0,0.1,0,0.1,0l0,0c0,0,0,0,0.1,0
				c0.1,0,0.1,0.1,0.2,0.1c0.2,0.2,0.4,0.4,0.6,0.6c0.1,0.2,0.2,0.5,0.3,0.8c0.1,0.3,0.1,0.6,0.1,0.9C56.6,80.7,56.6,81,56.6,81.3z"
				/>
			<path class="st1" d="M85,77.9c0.1-0.1,0.1-0.3,0.1-0.6c0-0.2,0-0.3-0.1-0.5c-0.1-0.1-0.2-0.2-0.4-0.3c-0.2-0.1-0.3-0.1-0.5-0.1
				c-0.2,0-0.4,0.1-0.6,0.1s-0.3,0.2-0.5,0.4c-0.1,0.2-0.2,0.3-0.3,0.5c-0.1,0.2-0.2,0.4-0.2,0.6l0,0.1h-0.3l0-0.2v-0.8
				c0-0.2,0-0.3-0.1-0.5c-0.1-0.1-0.2-0.2-0.3-0.3c-0.1-0.1-0.3-0.1-0.4-0.1c-0.2,0-0.3,0-0.4,0.1c-0.1,0.1-0.2,0.2-0.3,0.3
				c-0.1,0.1-0.1,0.3-0.1,0.5v6c0,0.2,0,0.3,0.1,0.5c0.1,0.1,0.1,0.2,0.3,0.3c0.1,0.1,0.3,0.1,0.6,0.1c0.2,0,0.4,0,0.6-0.1
				c0.1-0.1,0.2-0.2,0.3-0.3c0.1-0.1,0.1-0.3,0.1-0.5v-2.5c0-0.6,0.1-1.1,0.2-1.5c0.1-0.4,0.3-0.7,0.5-0.8c0.2-0.2,0.5-0.3,0.8-0.3
				l0.4,0c0.2,0,0.3,0,0.4-0.1C84.8,78.1,85,78.1,85,77.9z"/>
			<path class="st1" d="M69.6,77c-0.2-0.2-0.5-0.3-0.8-0.4c-0.3-0.1-0.6-0.1-0.9-0.1c-0.4,0-0.8,0.1-1.1,0.2
				c-0.3,0.1-0.6,0.3-0.8,0.5c-0.2,0.2-0.5,0.4-0.6,0.7l0,0.1h-0.2l0-0.2v-0.3c0-0.2,0-0.4-0.1-0.5c-0.1-0.1-0.1-0.2-0.3-0.3
				c-0.1-0.1-0.3-0.1-0.5-0.1c-0.2,0-0.4,0-0.5,0.1c-0.1,0.1-0.2,0.2-0.3,0.3c-0.1,0.1-0.1,0.3-0.1,0.5v5.9c0,0.2,0,0.3,0.1,0.5
				c0.1,0.1,0.1,0.2,0.3,0.3c0.1,0.1,0.3,0.1,0.6,0.1c0.2,0,0.4,0,0.6-0.1c0.1-0.1,0.2-0.2,0.3-0.3c0.1-0.1,0.1-0.3,0.1-0.5v-3.5
				c0-0.3,0.1-0.6,0.2-0.8c0.1-0.2,0.2-0.4,0.4-0.6c0.2-0.2,0.4-0.3,0.6-0.4c0.2-0.1,0.4-0.1,0.6-0.1c0.3,0,0.6,0.1,0.8,0.2
				c0.2,0.1,0.4,0.3,0.5,0.6c0.1,0.2,0.2,0.5,0.2,0.8v3.7c0,0.2,0,0.3,0.1,0.5c0.1,0.1,0.1,0.2,0.3,0.3c0.1,0.1,0.3,0.1,0.6,0.1
				c0.2,0,0.4,0,0.6-0.1c0.1-0.1,0.2-0.2,0.3-0.3c0.1-0.1,0.1-0.3,0.1-0.5v-4.2c0-0.5-0.1-1-0.2-1.3C70.1,77.5,69.9,77.2,69.6,77z"
				/>
			<path class="st1" d="M61.5,76.6c-0.1-0.1-0.3-0.1-0.6-0.1c-0.2,0-0.4,0-0.6,0.1c-0.1,0.1-0.2,0.2-0.3,0.3
				C60,77.1,60,77.2,60,77.4v5.9c0,0.2,0,0.3,0.1,0.5c0.1,0.1,0.1,0.2,0.3,0.3c0.1,0.1,0.3,0.1,0.6,0.1c0.2,0,0.4,0,0.6-0.1
				c0.1-0.1,0.2-0.2,0.3-0.3c0.1-0.1,0.1-0.3,0.1-0.5v-5.9c0-0.2,0-0.3-0.1-0.5C61.7,76.8,61.6,76.7,61.5,76.6z"/>
			<path class="st1" d="M61.4,73.7c-0.1-0.1-0.3-0.1-0.5-0.1c-0.2,0-0.3,0-0.5,0.1c-0.1,0.1-0.3,0.2-0.3,0.3
				C60,74.2,60,74.3,60,74.5c0,0.2,0,0.3,0.1,0.5c0.1,0.1,0.2,0.3,0.3,0.3c0.1,0.1,0.3,0.1,0.5,0.1c0.2,0,0.3,0,0.5-0.1
				c0.1-0.1,0.3-0.2,0.3-0.3c0.1-0.1,0.1-0.3,0.1-0.5c0-0.2,0-0.3-0.1-0.5C61.6,73.9,61.5,73.8,61.4,73.7z"/>
		</g>
	</g>
</g>
</svg>
