<svg xmlns="http://www.w3.org/2000/svg" viewBox="0 0 113.4 113.4" enable-background="new 0 0 113.4 113.4"><style type="text/css">.st0{fill:none;} .st1{fill:#F0F1F2;}</style><path class="st0" d="M0 0h113.4v113.4H0z"/><path class="st1" d="M79.7 67.4c-.8 0-1.6-.5-1.9-1.4-.3-1 .2-2.2 1.3-2.5 3.8-1.2 6.2-4.5 6.2-8.4 0-4.9-4-8.9-8.9-8.9-.3 0-.7 0-1.2.1l-1.9.3-.3-1.9c-1.2-8.3-8.4-14.5-16.7-14.5-6.9 0-13.1 4.1-15.7 10.5l-.4 1.3h-1.3c-6 .1-10.8 5.1-10.8 11 0 4.4 2.5 8.3 6.4 10.1 1 .5 1.4 1.6 1 2.6-.5 1-1.6 1.4-2.6 1-5.3-2.4-8.8-7.8-8.8-13.7 0-7.7 5.9-14.1 13.4-14.9 3.5-7.2 10.7-11.8 18.8-11.8 9.7 0 18.1 6.8 20.3 16.1 7 .1 12.6 5.8 12.6 12.8 0 5.5-3.6 10.4-8.9 12.1-.2.1-.4.1-.6.1zM49.6 68.3c-.1 0-.1 0 0 0-.1 0-.1 0 0 0-.1 0-.1 0 0 0-.1 0-.1 0 0 0-.1 0-.1 0 0 0-.1 0-.1 0 0 0-.1 0-.1 0 0 0-.1 0-.1 0 0 0-.1 0-.1 0 0 0-.1 0-.1 0 0 0h-.1c-.9 0-1.6-.7-1.6-1.5V49.4h1.3c.2 0 .3-.1.3-.3 0-.1-.1-.3-.2-.3l-6.4-4.4c-.1-.1-.3-.1-.4 0l-6.4 4.4c-.1.1-.1.2-.1.4 0 .1.2.2.3.2h1.3v17.4c0 1.2 1 2.2 2.2 2.2h9.5c.1 0 .2 0 .2-.1.1-.1.1-.1.1-.2.2-.2.1-.3 0-.4zM63.4 68.3c-.1 0-.1 0 0 0-.1 0-.1 0 0 0-.1 0-.1 0 0 0-.1 0-.1 0 0 0-.1 0-.1 0 0 0-.1 0-.1 0 0 0-.1 0-.1 0 0 0h-.1c-.9 0-1.6-.7-1.6-1.5V53.3H63c.2 0 .3-.1.3-.3 0-.1-.1-.3-.2-.3l-6.4-4.4c-.1-.1-.3-.1-.4 0l-6.4 4.4c-.1.1-.2.2-.1.4 0 .1.2.2.3.2h1.3v13.5c0 1.2 1 2.2 2.2 2.2h9.5c.1 0 .2 0 .2-.1.1-.1.1-.1.1-.2.2-.2.1-.3 0-.4zM77.2 68.3h-.1c-.9 0-1.6-.7-1.6-1.5v-9.6h1.3c.2 0 .3-.1.3-.3 0-.1-.1-.3-.2-.3l-6.4-4.4c-.1-.1-.3-.1-.4 0l-6.4 4.4c-.1.1-.2.2-.1.4 0 .1.2.2.3.2h1.3v9.6c0 1.2 1 2.2 2.2 2.2H77c.1 0 .2 0 .2-.1.1-.1.1-.1.1-.2.1-.2 0-.3-.1-.4zM40.8 77.6c-.3-.3-.7-.6-1.2-.8-.5-.2-1-.3-1.7-.3-.6 0-1.2.1-1.7.3-.5.2-.9.5-1.2.8-.3.4-.6.8-.7 1.2-.2.5-.2 1-.2 1.5 0 .4 0 .8.1 1.2.1.4.2.7.4 1.1.2.3.4.6.7.8.3.2.7.4 1.1.6.4.1.9.2 1.5.2s1.1-.1 1.5-.2c.4-.1.8-.3 1.1-.6.3-.2.5-.5.7-.8.2-.3.3-.7.4-1.1.1-.4.1-.8.1-1.2 0-.5-.1-1.1-.2-1.5-.2-.4-.4-.8-.7-1.2zm-1 3.7c-.1.3-.2.6-.3.8l-.6.6c-.3.1-.6.2-.9.2-.3 0-.6-.1-.9-.2-.3-.1-.5-.3-.6-.6-.2-.2-.3-.5-.3-.8-.1-.3-.1-.6-.1-1s0-.7.1-1c.1-.3.2-.6.4-.8l.6-.6c.2-.1.5-.2.9-.2.3 0 .6.1.9.2.2.1.5.3.6.6.2.2.3.5.4.8.1.3.1.6.1 1-.2.4-.2.7-.3 1zM46.5 84.1c.3-.1.6-.3.8-.4.2-.2.5-.4.6-.7v-.1h.2v.5c0 .2 0 .4.1.5.1.1.1.2.3.3.1.1.3.1.5.1s.4 0 .5-.1l.3-.3c.1-.1.1-.3.1-.5v-5.9c0-.2 0-.3-.1-.5-.1-.1-.1-.2-.3-.3-.1-.1-.3-.1-.6-.1-.2 0-.4 0-.6.1l-.3.3c-.1.1-.1.3-.1.5V81c0 .3-.1.6-.2.8-.1.2-.2.4-.4.6-.2.2-.4.3-.6.4-.2.1-.4.1-.6.1-.3 0-.6-.1-.8-.2-.2-.1-.4-.3-.5-.6-.1-.2-.2-.5-.2-.8v-3.7c0-.2 0-.3-.1-.5-.1-.1-.1-.2-.3-.3-.1-.1-.3-.1-.6-.1-.2 0-.4 0-.6.1l-.3.3c-.1.1-.1.3-.1.5v4.2c0 .5.1 1 .2 1.3.1.3.3.6.6.8.2.2.5.3.8.4.3.1.6.1.9.1.8-.2 1.1-.2 1.4-.3zM32.4 73.7c-.1-.1-.3-.1-.5-.1s-.4 0-.5.1l-.3.3c-.1.1-.1.3-.1.5v8.8c0 .2 0 .4.1.5l.3.3c.1.1.3.1.5.1s.4 0 .5-.1l.3-.3c.1-.1.1-.3.1-.5v-8.8c0-.2 0-.4-.1-.5l-.3-.3zM92.7 77.1c0-.1-.1-.2-.2-.3-.1-.1-.2-.2-.3-.2-.1-.1-.3-.1-.5-.1s-.3 0-.4.1l-.3.3c-.1.1-.1.3-.2.5l-1.3 5h-.2l-.1-.1-1.4-5c-.1-.2-.2-.4-.3-.5-.2-.1-.4-.2-.6-.2-.2 0-.3 0-.4.1l-.3.3c-.1 0-.2.2-.2.4v.2c0 .1 0 .2.1.3 0 .1.1.3.1.4l2.2 6.4c-.1.2-.1.4-.2.5-.1.1-.2.2-.3.2H87.3c-.2 0-.3 0-.4.1-.1.1-.2.1-.3.2-.1.1-.1.2-.1.4 0 .1 0 .3.1.4.1.1.2.2.4.3.2.1.4.1.7.1.3 0 .6 0 .8-.1.2-.1.4-.2.6-.4.2-.2.3-.4.5-.7.1-.3.3-.6.4-.9l2.5-7c.1-.1.1-.3.1-.4v-.3c.1.2.1.1.1 0zM78.9 83.1c0-.1-.1-.2-.1-.4v-4.2c0-.4-.1-.7-.2-.9-.2-.3-.4-.5-.7-.6-.3-.2-.6-.3-1.1-.4-.4-.1-.9-.1-1.4-.1h-1c-.2 0-.4.1-.5.1-.4.1-.8.3-1 .4-.3.2-.5.4-.6.6-.1.2-.2.4-.2.6 0 .1 0 .2.1.3.1.1.1.2.3.2.1.1.3.1.4.1.1 0 .3 0 .4-.1l.3-.3c.1-.1.3-.2.4-.4.2-.1.3-.2.6-.3.1 0 .2-.1.4-.1h.5c.3 0 .5 0 .7.1l.6.3c.2.2.2.4.2.6 0 .2-.1.4-.2.6-.1.1-.2.2-.4.3-.1 0-.3.1-.5.1l-1.3.1c-.4 0-.8.1-1.1.2-.3.1-.7.2-.9.4-.3.2-.5.4-.6.7-.1.3-.2.6-.2 1 0 .3.1.6.2.8.1.3.3.5.5.6.2.2.5.3.7.4.3.1.6.1.8.1.4 0 .7 0 1-.1h.5c.2-.1.3-.1.4-.2.3-.2.6-.4.8-.7l.2-.3v.4c0 .2 0 .4.1.6.1.2.2.3.3.4s.4.2.7.2c.2 0 .3 0 .4-.1.1-.1.2-.1.3-.2.1-.1.1-.2.1-.3v-.2l.1-.3zm-2-1.7c0 .2 0 .4-.1.6-.1.2-.2.4-.4.5-.2.2-.4.3-.6.4-.1 0-.2.1-.4.1h-.5c-.3 0-.5 0-.7-.1-.2-.1-.4-.2-.5-.4-.1-.2-.2-.3-.2-.5s.1-.5.2-.6c.1-.2.3-.3.5-.4.2-.1.5-.2.8-.2l.8-.1c.1 0 .2 0 .3-.1.1 0 .2-.1.3-.1.1 0 .2-.1.2-.1l.3-.2v1.2zM24.5 75.4c.4-.2.7-.3 1.1-.3.4 0 .7.1 1 .2.3.1.5.2.6.4.2.2.3.3.4.5.1.2.2.3.3.5l.3.3c.1.1.3.1.5.1.3 0 .6-.1.7-.2.2-.2.2-.4.2-.7 0-.2-.1-.4-.2-.6-.1-.2-.3-.5-.5-.7-.2-.2-.5-.4-.8-.6-.3-.2-.7-.4-1.2-.5-.4-.1-.9-.2-1.5-.2-.7 0-1.3.1-1.8.3-.5.2-1 .4-1.4.8-.4.3-.7.7-1 1.2-.3.5-.5 1-.6 1.5-.1.5-.2 1.1-.2 1.7 0 1.2.2 2.2.6 3 .4.8 1 1.4 1.7 1.8.8.4 1.7.6 2.8.6.6 0 1.1-.1 1.6-.3.5-.2.9-.4 1.3-.7.4-.3.7-.6.9-.9.2-.3.3-.7.3-1 0-.2-.1-.3-.1-.4-.1-.1-.2-.2-.4-.3-.2-.1-.3-.1-.5-.1s-.3 0-.4.1l-.3.3c-.1.2-.2.3-.4.5-.1.2-.3.3-.4.5-.2.2-.4.3-.6.4-.2.1-.5.2-.9.2-.5 0-1-.1-1.4-.3-.4-.2-.7-.5-.9-.8-.2-.3-.4-.8-.5-1.2-.1-.4-.2-.9-.2-1.4 0-.6.1-1.1.2-1.6.2-.5.4-.9.6-1.2.5-.5.8-.7 1.1-.9zM58.4 74.5c0-.2 0-.4-.1-.5l-.3-.3c-.3-.1-.7-.1-1 0l-.3.3c-.1.1-.1.3-.1.5v3.1h-.2l-.1-.1c-.2-.3-.5-.6-.8-.7-.1 0-.2-.1-.3-.1h-.1c-.1 0-.1 0-.2-.1h-.5c-.4 0-.8.1-1.2.2-.3.1-.6.3-.9.6-.3.2-.5.5-.6.8-.2.3-.3.7-.4 1-.1.4-.1.8-.1 1.2 0 .7.1 1.3.3 1.8.2.5.4.9.7 1.2.3.3.6.6 1 .7.4.2.8.2 1.2.2h.5c.2 0 .3-.1.5-.1.3-.1.5-.2.7-.4.2-.2.4-.4.5-.7V83h.3v.5c0 .3.1.5.2.7.1.1.3.2.6.2s.5-.1.6-.2c.1-.1.2-.4.2-.7l-.1-9zm-1.8 6.8c-.1.3-.2.6-.3.8-.1.2-.3.4-.6.6-.1 0-.1.1-.2.1h-.7c-.3 0-.6-.1-.8-.2-.2-.1-.4-.3-.6-.6-.1-.2-.3-.5-.3-.8-.1-.3-.1-.6-.1-.9v-.7c0-.2.1-.4.2-.7l.3-.6c.1-.2.3-.3.5-.4.2-.1.5-.2.8-.2H55.6c.1 0 .1.1.2.1l.6.6c.1.2.2.5.3.8.1.3.1.6.1.9-.2.6-.2.9-.2 1.2zM85 77.9c.1-.1.1-.3.1-.6 0-.2 0-.3-.1-.5-.1-.1-.2-.2-.4-.3-.2-.1-.3-.1-.5-.1s-.4.1-.6.1-.3.2-.5.4c-.1.2-.2.3-.3.5-.1.2-.2.4-.2.6v.1h-.3v-1c0-.2 0-.3-.1-.5l-.3-.3c-.1-.1-.3-.1-.4-.1-.2 0-.3 0-.4.1l-.3.3c-.1.1-.1.3-.1.5v6c0 .2 0 .3.1.5.1.1.1.2.3.3.1.1.3.1.6.1.2 0 .4 0 .6-.1l.3-.3c.1-.1.1-.3.1-.5v-2.5c0-.6.1-1.1.2-1.5.1-.4.3-.7.5-.8.2-.2.5-.3.8-.3h.4c.2 0 .3 0 .4-.1-.1.2.1.2.1 0zM69.6 77c-.2-.2-.5-.3-.8-.4-.3-.1-.6-.1-.9-.1-.4 0-.8.1-1.1.2-.3.1-.6.3-.8.5-.2.2-.5.4-.6.7v.1h-.2v-.5c0-.2 0-.4-.1-.5-.1-.1-.1-.2-.3-.3-.1-.1-.3-.1-.5-.1s-.4 0-.5.1l-.3.3c-.1.1-.1.3-.1.5v5.9c0 .2 0 .3.1.5.1.1.1.2.3.3.1.1.3.1.6.1.2 0 .4 0 .6-.1l.3-.3c.1-.1.1-.3.1-.5v-3.5c0-.3.1-.6.2-.8.1-.2.2-.4.4-.6.2-.2.4-.3.6-.4.2-.1.4-.1.6-.1.3 0 .6.1.8.2.2.1.4.3.5.6.1.2.2.5.2.8v3.7c0 .2 0 .3.1.5.1.1.1.2.3.3.1.1.3.1.6.1.2 0 .4 0 .6-.1l.3-.3c.1-.1.1-.3.1-.5v-4.2c0-.5-.1-1-.2-1.3-.4-.3-.6-.6-.9-.8zM61.5 76.6c-.1-.1-.3-.1-.6-.1-.2 0-.4 0-.6.1l-.3.3v6.4c0 .2 0 .3.1.5.1.1.1.2.3.3.1.1.3.1.6.1.2 0 .4 0 .6-.1l.3-.3c.1-.1.1-.3.1-.5v-5.9c0-.2 0-.3-.1-.5-.2-.1-.3-.2-.4-.3zM61.4 73.7c-.1-.1-.3-.1-.5-.1s-.3 0-.5.1c-.1.1-.3.2-.3.3-.1.2-.1.3-.1.5s0 .3.1.5c.1.1.2.3.3.3.1.1.3.1.5.1s.3 0 .5-.1c.1-.1.3-.2.3-.3.1-.1.1-.3.1-.5s0-.3-.1-.5l-.3-.3z"/></svg>