<svg xmlns="http://www.w3.org/2000/svg" viewBox="0 0 113.4 113.4" enable-background="new 0 0 113.4 113.4"><style type="text/css">.st0{fill:#F0F1F2;} .st1{fill:none;}</style><path class="st0" d="M37.9 46.2s-9.7 3.5-15 6.2c1-2.8 2-5.6 2.6-7.7.7-2.1 1.1-3.6 1.1-3.6-1.3 1.4-2.3 1.6-2.3 1.6l-2.9 10.2c-.2.1-.3.2-.4.2-1.3.7-2.9 1.7-3.6 2.9-1.2 1.9.3 3.2.3 3.2s-.8-1 .8-2.4c.4-.4 1.2-1.1 2.4-2l-1.6 5.5.7.3c.7-2.1 1.6-4.5 2.4-6.9.7-.5 4.2-2.5 5.4-3.1 5.9-2.7 10.1-4.4 10.1-4.4zM18.7 62.6l.5.3-3.2 9.2zM17.3 55.8S15 57.5 16 60c.9 2.5 6.4 4.2 8.8 4.8 3.1.7 11.1 2.2 25.2 2.3 20.6.2 36.7-.9 47.7-3.8 0 0-9.4 2.5-36.5 2.5-17 .2-27.2-.7-34.3-2.4-3.1-.8-5.4-1.4-7.4-2.4-3-1.5-3.5-3.4-2.2-5.2zM51.5 55.9c-.3-.2-.6-.4-1-.5-.4-.1-.7-.1-1-.1-.7 0-1.2.1-1.7.4-.5.3-.9.7-1.2 1.2 0-.5 0-1 .1-1.5-.2 0-.3 0-.4.1H46c-.2 0-.5 0-.8-.1.1.5.1 1.1.1 1.7v5.3c0 .6-.1 1.2-.1 1.6h1.6c-.1-.5-.1-1-.1-1.6v-3.3c0-1 .2-1.7.6-2.2.4-.5 1-.8 1.9-.8.6 0 1.1.2 1.5.7.4.5.5 1.2.5 2.1v3.2c0 .7-.1 1.3-.1 2h1.6V58.4c0-.6-.1-1.2-.3-1.6-.4-.3-.7-.6-.9-.9zM58.6 59.6c-.3-.2-.7-.3-1-.4-.4-.1-.7-.2-1-.3-.3-.1-.6-.3-.8-.5-.2-.2-.3-.5-.3-.9 0-.3 0-.5.1-.7.1-.2.2-.4.4-.5.1-.1.3-.2.5-.3h.5c.4 0 .8.1 1 .3.3.2.5.5.6.8h.2c0-.1.1-.4.2-.6.1-.3.2-.5.3-.7l-.9-.3c-.3-.1-.7-.2-1.1-.2-.5 0-.9.1-1.3.2s-.7.3-1 .6c-.3.2-.5.5-.6.9-.1.3-.2.7-.2 1.1 0 .5.1.9.3 1.2.2.3.5.5.8.7.3.2.7.3 1 .4.4.1.7.2 1 .3.3.1.6.3.8.5.2.2.3.5.3.9 0 .3 0 .5-.1.7-.1.2-.2.4-.4.5l-.6.3c-.2.1-.4.1-.7.1-.3 0-.5 0-.7-.1l-.6-.3c-.2-.1-.3-.3-.5-.4-.1-.1-.2-.3-.3-.4h-.2c0 .2 0 .4-.1.7-.1.3-.2.5-.2.7.3.1.6.3 1 .4.4.1.9.2 1.4.2.5 0 1-.1 1.4-.2.4-.2.8-.4 1-.6.3-.3.5-.6.7-.9.2-.3.2-.7.2-1 0-.5-.1-.9-.3-1.2-.2-.6-.5-.8-.8-1zM67.9 55.9c-.3-.2-.6-.4-1-.5-.4-.1-.7-.1-1-.1-.7 0-1.2.1-1.7.4-.5.3-.9.7-1.2 1.2v-5.5c0-.4.1-1.1.1-1.1s-.6.7-1.6.7v12.3c0 .4 0 .8-.1 1.1H63c0-.3 0-.6-.1-1V59.5c0-1 .2-1.7.6-2.2.4-.5 1-.8 1.9-.8.6 0 1.1.2 1.5.7.4.5.5 1.2.5 2.1v3.2c0 .7-.1 1.3-.1 2h1.6V58.8c0-.6-.1-1.2-.3-1.6-.2-.7-.4-1-.7-1.3zM77.9 56.3c-.4-.4-.9-.6-1.4-.8-.5-.2-1.1-.2-1.6-.2s-1.1.1-1.6.2c-.5.2-1 .4-1.4.8-.4.4-.8.8-1 1.4-.3.6-.4 1.3-.4 2.1s.1 1.5.4 2.1c.3.6.6 1.1 1 1.4.4.4.9.6 1.4.8.5.1 1.1.2 1.6.2s1.1-.1 1.6-.2 1-.4 1.4-.8c.4-.4.8-.8 1-1.4.3-.6.4-1.3.4-2.1s-.1-1.5-.4-2.1c-.2-.5-.5-1-1-1.4zm-.3 5.1c-.1.5-.2.9-.5 1.3-.2.4-.5.7-.9.9-.4.2-.8.3-1.4.3-.5 0-1-.1-1.4-.3-.4-.2-.7-.5-.9-.9-.2-.4-.4-.8-.5-1.3-.1-.5-.1-1-.1-1.5s0-1 .1-1.5.2-.9.5-1.3c.2-.4.5-.7.9-.9.4-.2.8-.3 1.4-.3.5 0 1 .1 1.4.3.4.2.7.5.9.9.2.4.4.8.5 1.3.1.5.1 1 .1 1.5.1.5 0 1-.1 1.5zM88.7 57.7c-.3-.6-.6-1.1-1-1.4-.4-.4-.9-.6-1.4-.8-.5-.2-1.1-.2-1.6-.2s-1.1.1-1.6.2c-.5.2-1 .4-1.4.8-.4.4-.8.8-1 1.4-.3.6-.4 1.3-.4 2.1s.1 1.5.4 2.1c.3.6.6 1.1 1 1.4.4.4.9.6 1.4.8.5.1 1.1.2 1.6.2s1.1-.1 1.6-.2 1-.4 1.4-.8c.4-.4.8-.8 1-1.4.3-.6.4-1.3.4-2.1s-.1-1.5-.4-2.1zm-1.3 3.7c-.1.5-.2.9-.5 1.3-.2.4-.5.7-.9.9-.4.2-.8.3-1.4.3-.5 0-1-.1-1.4-.3-.4-.2-.7-.5-.9-.9-.2-.4-.4-.8-.5-1.3-.1-.5-.1-1-.1-1.5s0-1 .1-1.5.2-.9.5-1.3c.2-.4.5-.7.9-.9.4-.2.8-.3 1.4-.3.5 0 1 .1 1.4.3.4.2.7.5.9.9.2.4.4.8.5 1.3.1.5.1 1 .1 1.5s0 1-.1 1.5zM43.5 62.8c-.2.2-.4.3-.7.4-.2.1-.5.2-.7.3-.2.1-.5.1-.7.1-.5 0-.9-.1-1.3-.3-.4-.2-.7-.4-1-.7-.4-.6-.6-1.2-.7-1.7 6.9-1.8 5.4-4 5.3-4.2l-.1-.1c-.3-.3-.6-.6-1-.8-.4-.3-1.1-.4-1.8-.4-2.5 0-3.9 1.8-4.1 3.1-.2 1.1-.1 1.6 0 2.2v.1s0 .3.1.6c.2.6.6 1.3 1.2 1.8.4.4.8.7 1.4.8.5.2 1.1.3 1.7.3.6 0 1.1-.1 1.6-.3.5-.2 1-.4 1.3-.7l.1-.9-.1-.1c-.1.2-.3.4-.5.5zm-5.2-3.1c0-.2.1-.7.1-.7.3-1.8.8-2.3.9-2.3l.1-.1c.2-.2.5-.4.9-.5 0 0 .9-.3 1.6 0 .8.3 1.3 1.1.4 2.2 0 0-.8.8-1.9 1.2l-1.7.7c-.1.1-.2.1-.4.2v-.7zM34.8 61.5c-.2-.2-.4-.5-.6-.7-1-1.2-2-2.3-3-3.4-.1-.1-.1-.1-.1-.2.5-.4 1.1-.9 1.3-1.2l1.5-1.5c.5-.5 1.1-1 1.6-1.5s1-.9 1.4-1.3c-.1 0-.3 0-.4.1h-.8c-.1 0-.2 0-.4-.1-.4.5-.9 1-1.3 1.5-.5.5-.9 1-1.4 1.5-.5.5-.9 1-1.4 1.4-.5.5-.9.9-1.3 1.2-.1.1-.2.2-.3.2V54c0-.8.1-3.1.1-3.1l-.8.6c-.4.3-.9.5-.9.5 0 .8 0 1.3.1 2.1v8c0 .5 0 1-.1 1.4h.1c.6.1 1.1.2 1.7.3 0-.6-.1-1.2-.1-1.8v-4c0-.1 0-.1.1-.1 0 0 .1 0 .2.1.2.2.5.5.9 1s.9 1 1.4 1.6c.5.6 1 1.2 1.6 1.9.5.6 1 1.2 1.5 1.7h2.1c-.7-.8-1.5-1.6-2.2-2.5l-.5-.2zM88.8 55.3v-.8h-.3v-.1h.7v.1H89v.8h-.2zM90.2 55.3v-.8l-.3.8-.3-.8v.8h-.1v-.9h.2l.3.7.3-.7h.2v.9h-.3z"/><path class="st1" d="M0 0h113.4v113.4H0z"/></svg>