<svg xmlns="http://www.w3.org/2000/svg" viewBox="0 0 113.4 113.4" enable-background="new 0 0 113.4 113.4"><style type="text/css">.st0{fill:none;} .st1{fill:#F0F1F2;}</style><path class="st0" d="M0 0h113.4v113.4H0z"/><g id="Klarna"><path class="st1" d="M38.3 46.1h-3.4c-.2 0-.5.2-.5.4v20.1c0 .2.2.5.5.5h3.4c.2 0 .4-.2.4-.5V46.5c0-.3-.2-.4-.4-.4zm36.1 5.1c-1.8 0-3 .4-4.4 1.4l-.2.1v-.9c0-.2-.2-.4-.4-.4h-3.1c-.2 0-.4.2-.4.4v14.7c0 .2.2.5.5.5h3.4c.2 0 .4-.2.4-.5v-11h.1c1-.5 1.9-.9 2.7-.9 1.9 0 2.2.8 2.2 2.7v9.2c0 .2.2.5.4.5H79c.2 0 .5-.2.5-.5v-9.2c-.3-4.2-1.7-6.1-5.1-6.1zM92 52.5c-1.1-.8-2.6-1.3-4.7-1.3-1.8 0-3.7.3-4.8.6-.3.1-.4.2-.4.5v2.2c0 .3.1.4.4.4h.1c.8-.1 2.8-.2 4.6-.2 1.3 0 2.2.3 2.2 2v1.1h-1.6c-2.4 0-4 .4-5.1 1.1-1.1.7-1.6 1.9-1.6 3.5v.3c0 4 2.9 4.6 4.6 4.6 1.5 0 2.6-.4 3.8-1.2l.2-.1v.7c0 .2.2.4.4.4h3.1c.2 0 .4-.2.4-.4v-9.9c0-2-.5-3.4-1.6-4.3zm-2.5 11c-.9.5-1.7.7-2.4.7-1.2 0-1.9-.2-1.9-1.5v-.3c0-1.6.7-2.1 2.6-2.1h1.7v3.2zM63.8 51.2c-1.3 0-2.7.5-3.7 1.3l-.2.2v-.8c0-.2-.2-.4-.4-.4h-3.3c-.2 0-.4.2-.4.4v14.7c0 .2.2.5.5.5h3.4c.2 0 .4-.2.4-.5V55.7h.1c1.2-.7 2.4-1 3.6-1h.2c.2 0 .3-.2.3-.4v-2.6c-.1-.3-.3-.5-.5-.5zm-12.3 1.3c-1.1-.8-2.6-1.3-4.7-1.3-1.8 0-3.7.3-4.8.6-.3.1-.4.2-.4.5v2.2c0 .3.1.4.4.4h.1c.8-.1 2.8-.2 4.6-.2 1.3 0 2.2.3 2.2 2v1.1h-1.6c-2.4 0-4 .4-5.1 1.1-1.1.7-1.6 1.9-1.6 3.5v.3c0 4 2.9 4.6 4.6 4.6 1.5 0 2.6-.4 3.8-1.2l.2-.1v.7c0 .2.2.4.4.4h3.1c.2 0 .4-.2.4-.4v-9.9c.1-2-.4-3.4-1.6-4.3zm-2.4 11c-.9.5-1.7.7-2.4.7-1.2 0-1.9-.2-1.9-1.5v-.3c0-1.6.7-2.1 2.6-2.1h1.7v3.2zM95.5 53c-.6 0-1.1-.5-1.1-1.1 0-.6.5-1.1 1.1-1.1.6 0 1.1.5 1.1 1.1-.1.6-.5 1.1-1.1 1.1zm0-2c-.5 0-.9.4-.9.9s.4.9.9.9.9-.4.9-.9-.4-.9-.9-.9zm.4 1.6h-.1l-.4-.6h-.2v.5s0 .1-.1.1H95s-.1 0-.1-.1v-1.2c0-.1 0-.1.1-.1h.3c.3 0 .5.1.5.4 0 .2-.1.3-.3.4l.4.6c.1-.1.1-.1 0 0 .1-.1.1 0 0 0zm-.2-1c0-.2-.1-.2-.3-.2h-.2v.4h.2c.2 0 .3 0 .3-.2zM22.6 55.9c3.5 0 6.8-2 8.5-5 .9-1.5 1.3-3.2 1.3-4.9-1.7 0-3.4.5-4.9 1.3-3 1.9-4.9 5.1-4.9 8.6zM20.9 46.1h-2.8c-.7 0-1.2.6-1.2 1.2v19.3c0 .2.2.5.5.5h2.8c.7 0 1.2-.6 1.2-1.2V46.5c0-.3-.2-.4-.5-.4zM22.6 57.2c0 3.5 2 6.8 5 8.5 1.5.9 3.2 1.3 4.9 1.3 0-1.7-.5-3.4-1.3-4.9-1.8-3-5.1-4.9-8.6-4.9z"/></g></svg>