<svg xmlns="http://www.w3.org/2000/svg" viewBox="0 0 113.4 113.4" enable-background="new 0 0 113.4 113.4"><style type="text/css">.st0{fill:#F0F1F2;} .st1{fill:none;}</style><path class="st0" d="M20.1 87.3h2.1v1.3h-3.6V81h1.5v6.3zm6.4 1.3H25V81h1.5v7.6zm6.1-3.1l1.8-4.5H36l-3.4 8-3.3-8h1.6l1.7 4.5zm7.6-3.2V84h2.3v1.3h-2.3v2.1h2.5v1.3h-3.9V81h3.9v1.3h-2.5zm7.2 6.3h-.9V81h1.3c.7 0 1.4 0 2 .4.6.4.9 1.1.9 1.7 0 .6-.3 1.2-.8 1.6-.5.4-1.2.5-1.9.5h-.7v3.4zm0-4.1h.6c1 0 1.8-.3 1.8-1.4 0-1.2-1-1.3-2.1-1.3h-.3v2.7zm6.4-3.5h4.1v.8h-3.2V84h3.1v.8h-3.1v3h3.2v.8h-4.1V81zm8.4 7.6h-.9V81h1.1c1.5 0 2.9.4 2.9 2.1 0 1.2-.8 2-2 2.1l2.5 3.4h-1.1l-2.4-3.3h-.2l.1 3.3zm0-4.1h.3c1 0 2-.2 2-1.4 0-1.3-1-1.4-2-1.4h-.3v2.8zm10.2-2c-.3-.5-.7-.8-1.4-.8s-1.3.5-1.3 1.2.7 1 1.2 1.2l.5.2c1 .4 1.9.9 1.9 2.1 0 1.3-1.1 2.3-2.5 2.3-1.3 0-2.2-.8-2.5-2l.9-.2c.1.8.7 1.4 1.6 1.4.9 0 1.6-.6 1.6-1.5s-.7-1.2-1.5-1.5l-.5-.2c-.9-.4-1.7-.9-1.7-1.9 0-1.2 1-1.9 2.2-1.9.9 0 1.6.4 2 1.2l-.5.4zm11.9 2.3c0 2.2-1.9 3.9-4.1 3.9-2.2 0-4.1-1.7-4.1-3.9s1.9-3.9 4.1-3.9c2.3 0 4.1 1.7 4.1 3.9zm-7.3 0c0 1.7 1.4 3.1 3.2 3.1 1.8 0 3.2-1.4 3.2-3.1 0-1.7-1.4-3.1-3.2-3.1-1.8-.1-3.2 1.3-3.2 3.1zm10.7-4.1l6.2 6.2V81h.9v7.9l-6.2-6.2v5.8h-.9v-7.8zM72.3 36.9l3.8-3.4-4-4-3.4 3.8c-.7-.5-1.4-1-2.2-1.5l2.3-4.6-5.2-2.1-1.7 4.8c-.9-.2-1.7-.4-2.6-.5l.3-5.1h-5.7l.3 5.1c-.9.1-1.7.3-2.6.5L50 25.2l-5.2 2.1 2.2 4.6c-.7.4-1.5.9-2.2 1.5l-3.4-3.8-4 4 3.8 3.4-1.5 2.1-4.7-2.3-2.2 5.2 4.9 1.6c-.2.9-.4 1.7-.5 2.6l-5.1-.3v5.6l5.1-.3c.1.9.3 1.7.5 2.6l-4.9 1.6 2.2 5.2 4.6-2.2c.4.7.9 1.5 1.5 2.1l-3.9 3.4 4 4 3.4-3.8c.7.5 1.4 1 2.2 1.5l-2.3 4.6 5.2 2.1 1.7-4.8c.9.2 1.7.4 2.6.5l-.3 5.1h5.7l-.2-5.1c.9-.1 1.7-.3 2.6-.5l1.7 4.8 5.2-2.1-2.3-4.6c.7-.4 1.5-.9 2.2-1.5l3.4 3.8 4-4-3.8-3.4 1.5-2.1 4.6 2.2 2.2-5.2-4.8-1.6c.2-.9.4-1.7.5-2.6l5.1.3V46l-5.1.3c-.1-.9-.3-1.7-.5-2.6l4.8-1.6-2.2-5.2-4.6 2.2c-.3-.8-.8-1.5-1.4-2.2zm-3.6 11.9c0 6.5-5.4 11.8-11.9 11.8s-11.9-5.2-11.9-11.8S50.1 37 56.7 37s12 5.2 12 11.8z"/><path class="st1" d="M0 0h113.4v113.4H0z"/></svg>