<svg xmlns="http://www.w3.org/2000/svg" viewBox="300 -100 750 750" height="300" width="500"><defs><clipPath><path d="M0 743h989V0H0z"/></clipPath><clipPath id="a"><path d="M0 635.328h989V0H0z"/></clipPath></defs><path d="M314.128 240.427c-.51-51.718-41.926-93.645-93.643-93.645-51.718 0-93.644 41.926-93.644 93.645 0 45.215 32.043 82.942 74.398 91.478 14.167 2.853 16.124-33.214 12.245-57.132-.068-.004-4.273-.247-5.678-.304-2.908-.12-5.656 3.208-7.435 3.856-3.03 1.102-3.603-1.913-5.792-1.913-1.916 0-4.486 2.98-11.56 1.638-7.15-1.357-9.466-7.826-9.466-7.826l-2.148-1.13c-7.298-1.82-7.694-9.794-7.742-10.25-.414-3.9 6.4-6.847 4.483-8.062-8.264-5.235-5.598-9.355-5.52-9.567 1.054-2.777 5.062-8.775 3.592-9.71-4.05-2.584 2.6-17.602 8.447-21.777.888-4.755 6.012-12.532 10.968-14.174-.273-5.393 7.266-8.45 7.266-8.45 5.28-1.698 1.58-6.062 11.7-5.37 2.37.162 2.3-2.526 8.173-2.66 1.702-.037 3.568-1.362 8.766-1.362 9.12-.4 8.7 5.768 11.754 4.72 3.856-1.324 16.7 4.983 18.032 17.95 5.77-.446 20.908 16.226 20.466 28.528 9.952 11.18-3.614 21.766-4.155 23.815.388 1.16 2.39 6.24 1.592 10.176-.938 4.61-6.776 9.638-7.015 9.81-4.096 2.946-7.123 6.277-11.993 5.362-5.03-.94-4.075-5.574-5.57-6.7-3.233 2.875-8.098 5.313-14.326 4.81-.734-.124-3.44-.4-3.79-.436-2.986 17.61-2.563 56.957 9.91 56.938 37.613-5.747 78.185-41.966 77.688-92.257m-194.88 0c0-49.86 38.962-93.402 88.1-96.27-70.442-6.5-115.222 43.515-115.222 96.27 0 52.75 45.825 103.75 115.223 96.267-49.14-2.868-88.103-46.41-88.103-96.267m114.376-96.27c49.138 2.868 88.1 46.41 88.1 96.27 0 49.856-38.962 93.4-88.102 96.267 71.188 6.263 115.223-43.516 115.223-96.267 0-52.755-43.862-102.422-115.22-96.27m546.638 104.22h-30.6v-.387c0-6.964 1.38-12.284 4.146-15.96 2.765-3.68 6.645-5.517 11.65-5.517 5.13 0 9.012 1.936 11.647 5.805 1.184 1.808 2.005 3.806 2.467 5.998.46 2.196.69 5.162.69 8.9zM-56.7-273.364c-2.172-6.9-5.563-12.673-10.167-17.317-3.292-3.352-7.502-5.93-12.637-7.74-5.133-1.805-10.662-2.708-16.585-2.708-6.71 0-12.635 1.097-17.767 3.29-5.135 2.195-9.807 5.546-14.02 10.06-4.475 4.904-7.7 10.45-9.673 16.64-1.975 6.19-2.962 13.737-2.962 22.636 0 7.74 1.117 14.77 3.357 21.09 2.235 6.322 5.43 11.708 9.576 16.156 4.146 4.45 9.18 7.903 15.104 10.352 5.92 2.45 12.5 3.676 19.743 3.676 13.037 0 24.983-4 35.84-11.998 1.588-1.053 1.8-2.63.718-4.072-1.795-2.705-4.76-7.175-6.725-10.14-1.665-2.65-3.306-1.96-4.657-.987-7.355 5.232-15.023 7.85-23.005 7.85-6.845 0-12.11-2.062-15.793-6.193-3.687-4.126-5.528-10.062-5.528-17.8v-.774h54.4c4.685 0 4.037-5.997 4.037-5.997 0-10.45-1.084-19.12-3.257-26.022M768.52-6.352c0-6.963 1.382-12.283 4.147-15.96 2.764-3.678 6.645-5.516 11.65-5.516 5.13 0 9.01 1.936 11.648 5.805 1.182 1.808 2.005 3.806 2.466 5.998.46 2.196.693 5.162.693 8.9v1.16H768.52zm-50.625 20.026c4.688 0 4.04-5.997 4.04-5.997 0-10.45-1.086-19.122-3.256-26.022-2.174-6.9-5.564-12.675-10.17-17.32-3.29-3.35-7.5-5.93-12.635-7.738-5.133-1.805-10.66-2.71-16.584-2.71-6.713 0-12.635 1.098-17.767 3.29-5.134 2.196-9.81 5.548-14.018 10.062-4.478 4.902-7.7 10.447-9.675 16.638-1.974 6.192-2.962 13.738-2.962 22.637 0 7.74 1.118 14.77 3.358 21.09 2.237 6.322 5.428 11.707 9.575 16.155 4.148 4.45 9.18 7.904 15.105 10.352 5.922 2.45 12.502 3.677 19.742 3.677 13.038 0 24.985-4 35.84-12 1.59-1.053 1.8-2.63.717-4.072-1.793-2.705-4.76-7.174-6.726-10.14-1.662-2.65-3.306-1.96-4.654-.986-7.356 5.232-15.024 7.848-23.006 7.848-6.844 0-12.11-2.06-15.793-6.19-3.687-4.127-5.53-10.063-5.53-17.802v-.774zM552.61-65.662c-4.61 0-8.36-1.092-11.255-3.287-2.895-2.19-4.343-5.805-4.343-10.834 0-4.647 1.383-8.257 4.146-10.837 2.765-2.58 6.645-3.87 11.65-3.87 5 0 8.914 1.29 11.746 3.87 2.83 2.58 4.245 6.19 4.245 10.836 0 9.415-5.4 14.12-16.19 14.12m44.422-27.86c3.683 0 6.974-.58 9.872-1.74 2.065-.83 4.133-2.02 6.2-3.572 1.712-1.162 1.906-3.168.603-4.842-1.82-2.707-4.59-6.83-6.613-9.836-1.497-2.478-2.765-3.218-5.438-1.482-2.223 1.614-4.587 2.935-7.093 3.963-3.62 1.486-7.274 2.225-10.957 2.225-1.71 0-3.523-.193-5.428-.58-1.91-.387-4.245-.9-7.01-1.548-3.686-.9-6.91-1.548-9.675-1.935-2.762-.388-5.596-.58-8.49-.58-6.45 0-12.307.807-17.57 2.42-5.267 1.614-9.742 3.868-13.426 6.77-3.685 2.902-6.548 6.42-8.587 10.544-2.042 4.13-3.06 8.707-3.06 13.738 0 14.704 7.237 23.865 21.716 27.475-4.213 1.033-7.535 2.194-9.97 3.482-2.437 1.29-4.277 2.644-5.527 4.06-1.253 1.424-2.075 2.905-2.47 4.452-.394 1.55-.592 3.097-.592 4.643 0 3.358.69 6.13 2.073 8.322 1.383 2.193 3.26 3.74 5.628 4.642 4.607 1.934 12.7 2.967 24.284 3.096l11.254.194c5.262.13 9.674.998 13.228 2.61 3.553 1.615 5.33 4.675 5.33 9.19 0 2.064-.592 3.968-1.777 5.71-1.185 1.74-2.765 3.193-4.738 4.35-2.107 1.29-4.542 2.162-7.307 2.614-2.762.45-5.857.677-9.28.677-6.185 0-10.89-1.033-14.114-3.097-3.227-2.063-4.84-5.096-4.84-9.092 0-1.42.067-2.548.2-3.386.13-.84.46-3.31-1.957-3h-21.537c-.53 1.032-1.057 2.29-1.58 3.774-.528 1.48-.79 3.578-.79 6.288 0 6.707 2.764 12.577 8.29 17.606 4.607 4.127 10.333 6.933 17.178 8.417 6.842 1.48 13.886 2.225 21.126 2.225 7.896 0 15.397-.968 22.507-2.902 7.106-1.934 12.897-5.224 17.373-9.868 5.395-5.678 8.094-12.512 8.094-20.51 0-8.77-2.896-15.797-8.686-21.088-3.555-3.222-7.635-5.48-12.242-6.773C590.118-3.29 583.998-4 576.366-4.13L562.15-4.32c-2.897 0-4.345-.775-4.345-2.324 0-1.417.89-2.738 2.666-3.967 1.777-1.223 4.374-2.61 7.798-4.16 1.054.132 1.778.196 2.174.196h1.777c5.396 0 10.366-.74 14.905-2.226 4.543-1.48 8.49-3.513 11.847-6.093 3.358-2.58 5.954-5.676 7.798-9.29 1.843-3.608 2.764-7.545 2.764-11.8 0-3.354-.493-6.32-1.48-8.9s-2.468-5.032-4.443-7.354c.79.13 1.81.26 3.06.386 1.25.13 2.535.194 3.852.194M485.552-.842c-1.975 2.197-4.148 3.87-6.516 5.032-2.37 1.16-4.806 1.74-7.306 1.74-3.424 0-6.218-1.19-8.39-3.578-2.173-2.386-3.256-5.513-3.256-9.384 0-5.932 1.806-9.93 5.428-11.996 3.618-2.062 10.035-3.097 19.25-3.097h1.185zm85.174-27.377c-1.253-1.483-2.205-3.063-2.863-4.74-.66-1.675-1.055-3.515-1.184-5.514-.134-1.998-.2-4.355-.2-7.064l.594-33.278v-6.773c0-1.804-.1-3.35-.296-4.642-.2-1.287-.396-2.418-.593-3.386-.198-.967-.494-1.964-.888-2.998-1.976-5.545-5.76-9.802-11.353-12.77-5.595-2.966-12.668-4.45-21.223-4.45-4.607 0-9.116.453-13.524 1.354-4.41.904-9.115 2.39-14.116 4.45-3.553 1.42-6.515 2.71-8.885 3.87-1.377.675-2.798 1.437-4.263 2.286-2.403 1.49-2.144 3.297-1.475 4.88 2.03 3.354 5.365 8.858 7.494 12.368 1.55 2.39 3.373 2.188 5.382 1.167 4.276-2.59 8.347-4.656 12.212-6.19 4.867-1.936 9.41-2.904 13.623-2.904 4.867 0 8.06 1.065 9.575 3.194 1.51 2.13 2.27 5.967 2.27 11.512v4.06c-1.056-.124-2.04-.192-2.96-.192h-2.962c-16.19 0-28.332 2.743-36.426 8.223-8.095 5.486-12.142 14.096-12.142 25.83 0 9.933 2.962 17.578 8.883 22.928 5.925 5.353 14.544 8.032 25.865 8.032 8.422 0 15.202-1.81 20.335-5.42 1.05-.643 2.072-1.417 3.06-2.32.987-.902 2.006-1.87 3.06-2.9 1.316 2.58 3.258 4.9 5.824 6.963 1.51 1.215 3.12 2.263 4.774 3.242 2.582 1.533 4.393.97 6.396-1.223 2.72-2.985 6.794-7.51 9.09-10.426.956-1.21 1.5-2.89-.217-4.32-1.158-.965-2.098-1.936-2.867-2.847m-90.048.15c-.385-1.678-2.072-1.75-3.187-1.457-1.136.3-2.108.54-2.912.727-1.382.322-2.666.483-3.85.483-4.61 0-7.668-1.063-9.18-3.192-1.516-2.128-2.27-6.352-2.27-12.673v-49.725h16.978l5.382-14.27c.962-2.734-.707-3.53-2.186-3.53h-20.175c0-5.03.13-10.16.394-15.38.16-3.194.372-6.254.632-9.183.488-4.804-2.9-4.454-5.032-4.06-7.868 1.93-21.264 5.212-21.264 5.212-.527 3.742-.824 7.352-.888 10.833-.068 3.484-.1 7.677-.1 12.577H422.95v17.8h10.07v53.79c0 2.32.03 4.225.098 5.706.064 1.485.13 2.743.197 3.773.065 1.034.23 2.002.493 2.905.263.902.593 1.87.988 2.9 1.58 4.388 4.836 7.902 9.772 10.544 4.935 2.643 10.76 3.968 17.473 3.968 6.386 0 12.94-1.247 19.66-3.733.984-.418 1.69-1.12 1.447-2.633-.628-2.888-1.812-8.347-2.47-11.383m-81.22-126.978c-4.61 0-8.523 1.55-11.748 4.643-3.228 3.097-4.837 6.903-4.837 11.416 0 4.517 1.58 8.32 4.737 11.417 3.16 3.096 6.975 4.643 11.45 4.643 4.606 0 8.49-1.547 11.65-4.643 3.158-3.097 4.738-6.9 4.738-11.416 0-4.512-1.548-8.318-4.64-11.415-3.093-3.094-6.88-4.643-11.35-4.643m10.354 41.398c-5.012.78-16.315 2.513-21.406 3.29-2.427.425-2.574 1.17-2.574 2.73v92.295c0 2.13 1.273 2.69 2.813 2.69h21.317c1.848 0 2.328-.507 2.328-2.538v-96.307c0-2.383-.83-2.416-2.478-2.16m-33.703.007c-1.252-.258-2.864-.387-4.837-.387-5.004 0-9.48 1.42-13.426 4.256-3.95 2.84-7.373 6.128-10.266 9.87-.394-5.29-1.776-9.995-4.146-14.126l-23.69 6.192c1.053 2.838 1.94 6.71 2.665 11.61.72 4.903 1.083 10.707 1.083 17.412v63.282c0 1.327.668 2.89 2.818 2.89h20.716c1.693 0 2.925-.492 2.925-2.89v-67.152c4.87-5.545 10.267-8.32 16.19-8.32 1.368 0 2.717.025 4.05.325 2.438.364 3.976.75 4.837-2.096 1.345-4.195 3.52-10.98 4.847-15.13 1.174-3.706-.647-4.936-3.765-5.737m-160.57-33.472h-22.52c-2.64 0-3.033.783-3.033 3.07v49.17H150.5v-49.17c0-2.838-1.33-3.17-3.98-3.07h-20.163c-2.894 0-3.3.95-3.3 3.17v128.21c0 2.365 1.107 3.09 2.547 3.09h21.92c1.61 0 2.976-.358 2.976-2.99v-56.99h39.487v56.94c0 2.095 1.38 3.04 3.083 3.04h22.272c1.867 0 2.68-1.043 2.68-2.89v-128.61c0-2.454-.83-2.97-2.482-2.97m-101.373 35.407H92.414c-2.372 0-2.862.375-3.477 2.486C85.634-98.967 74.514-64.5 74.514-64.5c-.79 2.324-1.55 4.777-2.27 7.355-.725 2.58-1.284 4.71-1.678 6.385-.267 1.16-.593 2.643-.988 4.448-.395 1.81-.76 3.516-1.086 5.128-.33 1.614-.592 3.03-.79 4.256-.197 1.228-.295 1.905-.295 2.032l-5.33-20.51-16.722-55.046c-.683-2.182-2.128-2.62-3.94-2.45l-20.773 2.377c-2.492.286-2.862 1.563-2.2 3.24 5.52 16.137 32.38 94.64 32.38 94.64h6.714c-.66 1.417-1.185 2.642-1.58 3.677-.396 1.03-.79 1.965-1.185 2.805-.395.837-.823 1.644-1.283 2.418-.462.774-1.02 1.674-1.678 2.71-2.24 3.48-4.738 6.19-7.503 8.126-1.974 1.418-4.476 2.676-7.502 3.774-1.934.697-3.84 1.333-5.72 1.9-2.08.718-2.387 2.38-1.534 3.96 1.787 3.35 4.613 8.646 6.222 11.665.893 1.787 2.663 2.153 4.29 1.808 3.496-.648 6.852-1.546 10.07-2.695 4.145-1.485 7.928-3.453 11.352-5.903 1.84-1.29 3.554-2.838 5.133-4.643 1.58-1.808 3.125-3.967 4.64-6.48 1.51-2.516 3.06-5.55 4.64-9.094 1.578-3.55 3.223-7.71 4.934-12.48 0 0 29.547-80.945 35.635-97.627 1-2.824-.54-2.984-2.298-2.984M8.125-144.18c-.3-2.358-1.17-2.935-3.576-2.935h-28.892c-1.716 0-3.114.448-3.78 3.015-3.62 13.016-17.72 63.736-17.72 63.736-2.108 7.87-3.752 15.158-4.937 21.864-.264-1.674-.56-3.29-.886-4.837-.33-1.55-.66-3.126-.988-4.74-.33-1.612-.725-3.353-1.184-5.226-.464-1.867-1.022-4.028-1.678-6.48 0 0-13.735-51.477-17.188-64.41-.938-2.89-2.563-2.922-4.457-2.922h-28.943c-2.322 0-2.872 1.266-3.018 3.125-1.738 18.198-10.53 110.333-12.246 128.304-.186 2.248 1.114 2.992 3.323 3.04h20.166c2.127 0 3.548-.44 3.86-2.888l4.543-67.345c.26-4.126.458-8.19.592-12.19.26-3.737.396-7.477.396-11.22.655 3.612 1.51 7.483 2.564 11.607 1.053 4.258 2.04 8.064 2.964 11.416l18.748 67.743c.61 1.982 1.5 2.88 3.65 2.88h17.206c2.773-.102 3.46-.426 4.258-2.792 3.967-13.426 20.893-70.73 20.893-70.73 1.185-4.128 2.138-7.645 2.864-10.547.723-2.902 1.48-6.29 2.27-10.157 0 3.612.1 7.19.297 10.738.197 3.55.426 7.45.69 11.704 0 0 4.25 56.925 4.963 69.393.128 2.235 1.272 2.39 2.89 2.39h21.67c1.388 0 2.646-.642 2.396-2.893-1.964-17.63-10.09-110.854-11.71-128.642" fill="#fff" fill-rule="evenodd" clip-path="url(#a)"/></svg>