<svg xmlns="http://www.w3.org/2000/svg" viewBox="300 -100 750 750" height="300" width="500"><defs><clipPath><path d="M0 743h989V0H0z"/></clipPath><clipPath id="a"><path d="M0 635.328h989V0H0z"/></clipPath></defs><path d="M314.127 240.43c-.51-51.732-41.936-93.668-93.666-93.668s-93.666 41.934-93.666 93.667c0 45.225 32.05 82.96 74.413 91.5 14.174 2.853 16.13-33.223 12.25-57.147-.067-.004-4.274-.246-5.68-.304-2.907-.12-5.656 3.21-7.436 3.857-3.028 1.104-3.603-1.912-5.792-1.912-1.915 0-4.486 2.98-11.56 1.64-7.154-1.36-9.47-7.83-9.47-7.83l-2.15-1.132c-7.3-1.818-7.695-9.796-7.743-10.25-.413-3.9 6.403-6.85 4.484-8.067-8.265-5.234-5.598-9.356-5.52-9.568 1.052-2.776 5.063-8.776 3.592-9.712-4.053-2.584 2.6-17.605 8.45-21.78.888-4.757 6.013-12.534 10.97-14.178-.273-5.395 7.267-8.454 7.267-8.454 5.28-1.697 1.582-6.062 11.705-5.37 2.368.16 2.298-2.527 8.174-2.66 1.7-.038 3.565-1.363 8.765-1.363 9.123-.4 8.702 5.77 11.756 4.72 3.86-1.322 16.708 4.988 18.04 17.957 5.77-.448 20.912 16.227 20.47 28.533 9.954 11.183-3.614 21.774-4.157 23.822.387 1.16 2.392 6.24 1.592 10.178-.937 4.61-6.777 9.64-7.016 9.813-4.098 2.944-7.126 6.276-11.997 5.36-5.03-.94-4.074-5.573-5.57-6.7-3.234 2.875-8.1 5.314-14.33 4.81-.733-.123-3.442-.4-3.793-.435-2.987 17.613-2.563 56.97 9.915 56.952 37.62-5.747 78.204-41.976 77.706-92.28m-194.928 0c0-49.872 38.97-93.426 88.12-96.293-70.458-6.5-115.25 43.525-115.25 96.293 0 52.764 45.837 103.773 115.254 96.29-49.153-2.866-88.125-46.422-88.125-96.29m114.4-96.294c49.15 2.866 88.12 46.42 88.12 96.293 0 49.865-38.97 93.42-88.12 96.29 71.202 6.266 115.248-43.527 115.248-96.29 0-52.77-43.874-102.45-115.25-96.294M780.37 248.38h-30.607v-.386c0-6.966 1.382-12.288 4.147-15.965 2.765-3.68 6.647-5.518 11.653-5.518 5.134 0 9.014 1.936 11.65 5.806 1.184 1.808 2.005 3.807 2.466 6 .46 2.196.693 5.163.693 8.902zM414.38 851.99c-2.173-6.902-5.564-12.678-10.17-17.323-3.292-3.352-7.503-5.933-12.64-7.74-5.132-1.807-10.663-2.71-16.586-2.71-6.714 0-12.64 1.097-17.773 3.29-5.136 2.196-9.81 5.547-14.023 10.064-4.477 4.904-7.7 10.45-9.676 16.643-1.976 6.192-2.962 13.74-2.962 22.64 0 7.743 1.117 14.775 3.357 21.097 2.235 6.323 5.43 11.71 9.578 16.16 4.146 4.45 9.182 7.904 15.106 10.354 5.924 2.45 12.507 3.678 19.75 3.678 13.04 0 24.99-4 35.848-12 1.59-1.053 1.8-2.632.72-4.075-1.798-2.706-4.764-7.176-6.73-10.142-1.666-2.65-3.306-1.96-4.657-.986-7.357 5.233-15.027 7.85-23.01 7.85-6.847 0-12.115-2.06-15.798-6.193-3.688-4.125-5.53-10.063-5.53-17.804v-.773h54.414c4.69 0 4.04-6 4.04-6 0-10.454-1.083-19.127-3.256-26.03m394.745 12.675c0-6.967 1.38-12.288 4.146-15.965 2.765-3.68 6.647-5.518 11.653-5.518 5.133 0 9.013 1.936 11.65 5.807 1.183 1.808 2.005 3.807 2.467 6 .46 2.196.693 5.163.693 8.9v1.16h-30.613zm-50.715 20.035c4.69 0 4.04-6 4.04-6 0-10.453-1.085-19.127-3.256-26.03-2.174-6.9-5.565-12.677-10.172-17.322-3.293-3.35-7.504-5.932-12.64-7.74-5.133-1.806-10.662-2.71-16.586-2.71-6.716 0-12.64 1.098-17.774 3.29-5.133 2.197-9.81 5.548-14.02 10.065-4.48 4.904-7.702 10.45-9.678 16.643-1.974 6.193-2.963 13.74-2.963 22.642 0 7.742 1.12 14.774 3.36 21.096 2.236 6.323 5.427 11.71 9.576 16.16 4.147 4.45 9.183 7.904 15.107 10.354 5.925 2.45 12.506 3.677 19.746 3.677 13.043 0 24.994-4 35.85-12 1.592-1.053 1.8-2.632.718-4.075-1.793-2.706-4.76-7.176-6.728-10.142-1.662-2.65-3.306-1.96-4.653-.987-7.36 5.233-15.03 7.85-23.013 7.85-6.846 0-12.114-2.06-15.798-6.193-3.688-4.126-5.53-10.064-5.53-17.805v-.773zm-151.843-45.486c-4.61 0-8.36-1.094-11.258-3.29-2.896-2.192-4.344-5.806-4.344-10.837 0-4.647 1.383-8.257 4.147-10.84 2.765-2.58 6.647-3.87 11.653-3.87 5 0 8.916 1.293 11.747 3.87 2.832 2.583 4.248 6.193 4.248 10.84 0 9.42-5.4 14.125-16.192 14.125m44.433-27.87c3.686 0 6.978-.58 9.876-1.74 2.067-.828 4.134-2.02 6.2-3.572 1.714-1.16 1.907-3.168.604-4.843l-6.613-9.837c-1.5-2.48-2.767-3.22-5.44-1.483-2.224 1.613-4.587 2.936-7.093 3.964-3.624 1.485-7.278 2.227-10.96 2.227-1.714 0-3.526-.194-5.43-.58-1.912-.387-4.248-.902-7.014-1.55-3.686-.9-6.91-1.547-9.676-1.933-2.763-.39-5.598-.583-8.49-.583-6.454 0-12.313.808-17.577 2.42-5.267 1.616-9.744 3.87-13.43 6.773-3.685 2.903-6.55 6.422-8.59 10.547-2.04 4.133-3.06 8.71-3.06 13.74 0 14.708 7.24 23.87 21.724 27.48-4.213 1.036-7.537 2.197-9.973 3.485-2.438 1.29-4.278 2.645-5.528 4.062-1.254 1.423-2.075 2.904-2.47 4.453-.394 1.547-.592 3.096-.592 4.643 0 3.36.69 6.13 2.074 8.324 1.382 2.195 3.26 3.743 5.626 4.644 4.61 1.933 12.707 2.968 24.294 3.097l11.253.195c5.268.13 9.68 1 13.234 2.61 3.554 1.617 5.334 4.677 5.334 9.193 0 2.067-.595 3.97-1.78 5.71-1.187 1.745-2.766 3.197-4.74 4.356-2.106 1.29-4.54 2.16-7.306 2.613-2.762.45-5.858.677-9.28.677-6.19 0-10.896-1.034-14.12-3.098-3.226-2.063-4.84-5.097-4.84-9.094 0-1.42.067-2.547.2-3.387.13-.84.46-3.31-1.957-3h-21.543c-.53 1.03-1.057 2.29-1.58 3.773-.53 1.482-.792 3.58-.792 6.29 0 6.707 2.766 12.58 8.294 17.61 4.606 4.13 10.333 6.934 17.18 8.42 6.845 1.48 13.89 2.226 21.132 2.226 7.9 0 15.402-.97 22.514-2.905 7.107-1.933 12.9-5.227 17.378-9.87 5.394-5.68 8.093-12.516 8.093-20.516 0-8.775-2.895-15.8-8.686-21.095-3.556-3.222-7.637-5.482-12.245-6.773-4.61-1.29-10.73-2-18.365-2.128l-14.217-.193c-2.898 0-4.347-.773-4.347-2.323 0-1.42.892-2.74 2.668-3.97 1.778-1.224 4.376-2.613 7.8-4.16 1.053.13 1.778.195 2.173.195h1.78c5.396 0 10.368-.743 14.906-2.227 4.547-1.482 8.494-3.514 11.85-6.096 3.36-2.58 5.957-5.678 7.8-9.294 1.845-3.608 2.766-7.547 2.766-11.803 0-3.353-.493-6.32-1.48-8.9-.986-2.58-2.47-5.034-4.445-7.357.79.13 1.81.26 3.06.387 1.252.13 2.535.193 3.855.193M721.098 561.84c-1.976 2.197-4.15 3.87-6.517 5.033-2.37 1.16-4.807 1.74-7.306 1.74-3.427 0-6.22-1.19-8.395-3.58-2.174-2.386-3.257-5.515-3.257-9.386 0-5.933 1.807-9.933 5.43-12 3.618-2.062 10.037-3.097 19.253-3.097h1.187zm85.234-27.377c-1.253-1.484-2.205-3.064-2.864-4.742-.658-1.674-1.053-3.514-1.184-5.514-.133-2-.2-4.356-.2-7.067l.595-33.286v-6.773c0-1.806-.1-3.353-.297-4.645-.2-1.288-.396-2.418-.593-3.386-.198-.97-.494-1.967-.888-3-1.978-5.548-5.76-9.805-11.358-12.774-5.596-2.966-12.67-4.45-21.226-4.45-4.61 0-9.12.452-13.53 1.354-4.413.904-9.117 2.39-14.12 4.453-3.553 1.42-6.516 2.71-8.886 3.867-1.378.677-2.8 1.44-4.264 2.29-2.404 1.492-2.147 3.297-1.476 4.88 2.032 3.356 5.366 8.86 7.496 12.372 1.55 2.39 3.373 2.187 5.382 1.167 4.278-2.592 8.35-4.657 12.214-6.192 4.87-1.936 9.413-2.904 13.626-2.904 4.87 0 8.064 1.067 9.58 3.195 1.51 2.128 2.27 5.967 2.27 11.513v4.063c-1.056-.125-2.042-.193-2.962-.193h-2.962c-16.194 0-28.34 2.744-36.435 8.226-8.096 5.485-12.146 14.097-12.146 25.835 0 9.934 2.964 17.582 8.887 22.934 5.928 5.35 14.548 8.03 25.873 8.03 8.427 0 15.207-1.81 20.34-5.42 1.052-.645 2.073-1.42 3.06-2.323.99-.902 2.01-1.87 3.064-2.902 1.316 2.582 3.26 4.904 5.827 6.967 1.51 1.216 3.12 2.264 4.773 3.244 2.584 1.533 4.396.97 6.4-1.224 2.72-2.987 6.795-7.512 9.093-10.427.955-1.213 1.5-2.893-.218-4.322-1.16-.966-2.1-1.936-2.867-2.848m-90.072.146c-.387-1.675-2.073-1.745-3.19-1.452-1.137.297-2.11.54-2.913.725-1.382.324-2.666.486-3.853.486-4.608 0-7.666-1.065-9.18-3.195-1.516-2.13-2.272-6.356-2.272-12.68V468.76h16.984l5.382-14.275c.96-2.733-.707-3.53-2.187-3.53h-20.18c0-5.03.13-10.16.394-15.386.16-3.193.37-6.254.63-9.184.487-4.804-2.9-4.453-5.034-4.06l-21.27 5.214c-.526 3.742-.823 7.353-.887 10.836-.068 3.484-.1 7.68-.1 12.58h-10.072v17.803h10.072v53.802c0 2.323.03 4.227.1 5.707.063 1.485.128 2.745.196 3.775.067 1.033.23 2 .493 2.904.262.9.593 1.87.986 2.9 1.58 4.39 4.84 7.904 9.776 10.547 4.936 2.644 10.763 3.97 17.477 3.97 6.386 0 12.942-1.248 19.663-3.734.984-.42 1.69-1.12 1.447-2.634l-2.467-11.387M635.02 407.605c-4.61 0-8.525 1.55-11.75 4.644-3.227 3.096-4.837 6.903-4.837 11.418 0 4.516 1.58 8.32 4.738 11.417 3.16 3.097 6.98 4.644 11.455 4.644 4.608 0 8.493-1.548 11.653-4.645 3.16-3.097 4.74-6.9 4.74-11.42 0-4.515-1.548-8.32-4.64-11.42-3.095-3.092-6.88-4.643-11.356-4.643m10.357 41.408c-5.014.782-16.32 2.514-21.41 3.294-2.428.422-2.575 1.166-2.575 2.73v92.316c0 2.13 1.272 2.69 2.814 2.69h21.32c1.848 0 2.328-.506 2.328-2.537V451.17c0-2.38-.83-2.413-2.48-2.16m-33.71.008c-1.253-.257-2.863-.386-4.837-.386-5.004 0-9.48 1.42-13.428 4.257-3.95 2.84-7.373 6.128-10.27 9.87-.393-5.29-1.775-9.998-4.146-14.13l-23.696 6.194c1.054 2.84 1.942 6.71 2.667 11.613.72 4.904 1.084 10.71 1.084 17.416v63.297c0 1.328.67 2.89 2.82 2.89h20.72c1.694 0 2.926-.49 2.926-2.89v-67.167c4.867-5.546 10.267-8.32 16.192-8.32 1.368 0 2.717.023 4.05.323 2.44.364 3.978.75 4.84-2.097 1.345-4.197 3.52-10.984 4.847-15.134 1.174-3.707-.646-4.938-3.765-5.74m-160.61-33.48h-22.533c-2.64 0-3.032.784-3.032 3.073v49.18H386v-49.18c0-2.84-1.335-3.174-3.98-3.073h-20.173c-2.894 0-3.302.95-3.302 3.17V546.95c0 2.367 1.107 3.093 2.547 3.093h21.928c1.61 0 2.976-.36 2.976-2.992v-57.003h39.496v56.955c0 2.096 1.38 3.04 3.084 3.04h22.276c1.866 0 2.68-1.043 2.68-2.89V418.51c0-2.453-.827-2.97-2.48-2.97m-101.4 35.417h-21.76c-2.37 0-2.86.373-3.476 2.487-3.304 10.257-14.427 44.733-14.427 44.733-.79 2.324-1.55 4.777-2.27 7.356-.726 2.58-1.285 4.71-1.68 6.386-.268 1.16-.593 2.643-.988 4.45-.394 1.808-.76 3.516-1.086 5.128-.33 1.616-.592 3.033-.79 4.26-.197 1.225-.296 1.905-.296 2.03l-5.333-20.514-16.724-55.06c-.683-2.182-2.128-2.62-3.94-2.453-5.18.596-15.543 1.782-20.78 2.38-2.493.288-2.863 1.565-2.2 3.244 5.52 16.14 32.387 94.662 32.387 94.662h6.716c-.662 1.42-1.187 2.644-1.58 3.68-.396 1.03-.79 1.964-1.187 2.804-.396.837-.824 1.645-1.284 2.42-.462.772-1.02 1.673-1.68 2.71-2.237 3.48-4.737 6.19-7.502 8.127-1.976 1.418-4.48 2.676-7.507 3.774-1.933.7-3.84 1.334-5.72 1.903-2.08.718-2.387 2.38-1.533 3.96 1.786 3.35 4.613 8.648 6.22 11.667.894 1.79 2.665 2.156 4.294 1.81 3.494-.646 6.854-1.546 10.07-2.693 4.146-1.486 7.93-3.453 11.356-5.906 1.84-1.287 3.554-2.837 5.133-4.642 1.58-1.81 3.127-3.968 4.64-6.483 1.513-2.516 3.062-5.55 4.642-9.096 1.578-3.55 3.223-7.71 4.935-12.483 0 0 29.552-80.966 35.64-97.653 1.003-2.823-.54-2.983-2.297-2.983m-106.066-32.48c-.302-2.36-1.174-2.935-3.58-2.935h-28.888c-1.718 0-3.116.448-3.783 3.016l-17.723 63.75c-2.107 7.868-3.752 15.16-4.937 21.865-.267-1.673-.56-3.29-.888-4.837-.33-1.55-.66-3.127-.987-4.74-.33-1.615-.725-3.355-1.184-5.228-.463-1.867-1.022-4.03-1.68-6.48 0 0-13.736-51.493-17.19-64.43-.94-2.89-2.565-2.92-4.46-2.92h-28.95c-2.32 0-2.87 1.268-3.017 3.125L114.063 547c-.186 2.25 1.115 2.993 3.324 3.04h20.17c2.13 0 3.55-.44 3.86-2.89l4.545-67.36c.26-4.128.46-8.192.592-12.193.26-3.74.396-7.48.396-11.223.653 3.614 1.51 7.484 2.564 11.61 1.053 4.258 2.04 8.066 2.964 11.418l18.753 67.76c.615 1.984 1.503 2.88 3.655 2.88h17.21c2.772-.1 3.46-.424 4.257-2.79 3.97-13.43 20.9-70.75 20.9-70.75 1.187-4.128 2.14-7.645 2.864-10.547.723-2.904 1.48-6.293 2.27-10.16 0 3.614.1 7.192.297 10.74.197 3.55.427 7.45.693 11.707 0 0 4.25 56.94 4.96 69.41.13 2.235 1.274 2.39 2.894 2.39h21.674c1.387 0 2.647-.64 2.396-2.892-1.962-17.635-10.093-110.88-11.712-128.673" fill="#fff" fill-rule="evenodd" clip-path="url(#a)"/></svg>