<svg width="156" height="156" viewBox="0 0 13 13" shape-rendering="crispEdges" aria-hidden="true" xmlns="http://www.w3.org/2000/svg">
  <rect width="1" height="1" x="11" fill="#aaa"/>
  <rect width="1" height="1" x="12" fill="#e6e6e6"/>
  <rect width="1" height="1" x="10" y="1" fill="#b3b3b3"/>
  <rect width="1" height="1" x="11" y="1" fill="#fff"/>
  <rect width="1" height="1" x="3" y="2" fill="#ddd"/>
  <rect width="1" height="1" x="4" y="2" fill="#fff"/>
  <rect width="1" height="1" x="5" y="2" fill="#e6e6e6"/>
  <rect width="1" height="1" x="7" y="2" fill="#e6e6e6"/>
  <rect width="1" height="1" x="9" y="2" fill="#ddd"/>
  <rect width="1" height="1" x="10" y="2" fill="#fff"/>
  <rect width="1" height="1" x="2" y="3" fill="#ddd"/>
  <rect width="1" height="1" x="3" y="3" fill="#fff"/>
  <rect width="1" height="1" x="4" y="3" fill="#fff"/>
  <rect width="1" height="1" x="5" y="3" fill="#fff"/>
  <rect width="1" height="1" x="6" y="3" fill="#fff"/>
  <rect width="1" height="1" x="7" y="3" fill="#fff"/>
  <rect width="1" height="1" x="8" y="3" fill="#fff"/>
  <rect width="1" height="1" x="9" y="3" fill="#fff"/>
  <rect width="1" height="1" x="1" y="4" fill="#ddd"/>
  <rect width="1" height="1" x="2" y="4" fill="#e6e6e6"/>
  <rect width="1" height="1" x="3" y="4" fill="#fff"/>
  <rect width="1" height="1" x="4" y="4" fill="#fff"/>
  <rect width="1" height="1" x="5" y="4" fill="#fff"/>
  <rect width="1" height="1" x="6" y="4" fill="#fff"/>
  <rect width="1" height="1" x="7" y="4" fill="#fff"/>
  <rect width="1" height="1" x="8" y="4" fill="#fff"/>
  <rect width="1" height="1" x="9" y="4" fill="#fff"/>
  <rect width="1" height="1" y="5" fill="#ddd"/>
  <rect width="1" height="1" x="1" y="5" fill="#e6e6e6"/>
  <rect width="1" height="1" x="2" y="5" fill="#fff"/>
  <rect width="1" height="1" x="3" y="5" fill="#fff"/>
  <rect width="1" height="1" x="4" y="5" fill="#fff"/>
  <rect width="1" height="1" x="5" y="5" fill="#fff"/>
  <rect width="1" height="1" x="6" y="5" fill="#ccc" fill-opacity="0.3"/>
  <rect width="1" height="1" x="7" y="5" fill="#ddd" fill-opacity="0.9"/>
  <rect width="1" height="1" x="8" y="5" fill="#fff"/>
  <rect width="1" height="1" x="9" y="5" fill="#fff"/>
  <rect width="1" height="1" x="10" y="5" fill="#e6e6e6"/>
  <rect width="1" height="1" y="6" fill="#fff"/>
  <rect width="1" height="1" x="1" y="6" fill="#fff"/>
  <rect width="1" height="1" x="2" y="6" fill="#fff"/>
  <rect width="1" height="1" x="3" y="6" fill="#fff"/>
  <rect width="1" height="1" x="4" y="6" fill="#fff"/>
  <rect width="1" height="1" x="5" y="6" fill="#fff"/>
  <rect width="1" height="1" x="6" y="6" fill="#ccc" fill-opacity="0.3"/>
  <rect width="1" height="1" x="7" y="6" fill="#ccc" fill-opacity="0.3"/>
  <rect width="1" height="1" x="8" y="6" fill="#fff"/>
  <rect width="1" height="1" x="9" y="6" fill="#fff"/>
  <rect width="1" height="1" y="7" fill="#fff"/>
  <rect width="1" height="1" x="1" y="7" fill="#fff"/>
  <rect width="1" height="1" x="2" y="7" fill="#fff"/>
  <rect width="1" height="1" x="3" y="7" fill="#fff"/>
  <rect width="1" height="1" x="4" y="7" fill="#fff"/>
  <rect width="1" height="1" x="5" y="7" fill="#fff"/>
  <rect width="1" height="1" x="6" y="7" fill="#fff"/>
  <rect width="1" height="1" x="7" y="7" fill="#fff"/>
  <rect width="1" height="1" x="8" y="7" fill="#fff"/>
  <rect width="1" height="1" x="9" y="7" fill="#fff"/>
  <rect width="1" height="1" y="8" fill="#fff"/>
  <rect width="1" height="1" x="1" y="8" fill="#fff"/>
  <rect width="1" height="1" x="2" y="8" fill="#fff"/>
  <rect width="1" height="1" x="3" y="8" fill="#fff"/>
  <rect width="1" height="1" x="4" y="8" fill="#fff"/>
  <rect width="1" height="1" x="5" y="8" fill="#fff"/>
  <rect width="1" height="1" x="6" y="8" fill="#fff"/>
  <rect width="1" height="1" x="7" y="8" fill="#fff"/>
  <rect width="1" height="1" x="8" y="8" fill="#fff"/>
  <rect width="1" height="1" x="9" y="8" fill="#fff"/>
  <rect width="1" height="1" x="10" y="8" fill="#ddd"/>
  <rect width="1" height="1" y="9" fill="#fff"/>
  <rect width="1" height="1" x="1" y="9" fill="#fff"/>
  <rect width="1" height="1" x="2" y="9" fill="#fff"/>
  <rect width="1" height="1" x="3" y="9" fill="#fff"/>
  <rect width="1" height="1" x="4" y="9" fill="#fff"/>
  <rect width="1" height="1" x="5" y="9" fill="#fff"/>
  <rect width="1" height="1" x="6" y="9" fill="#fff"/>
  <rect width="1" height="1" x="7" y="9" fill="#fff"/>
  <rect width="1" height="1" x="8" y="9" fill="#fff"/>
  <rect width="1" height="1" x="9" y="9" fill="#fff"/>
  <rect width="1" height="1" x="10" y="9" fill="#fff"/>
  <rect width="1" height="1" y="10" fill="#fff"/>
  <rect width="1" height="1" x="1" y="10" fill="#fff"/>
  <rect width="1" height="1" x="2" y="10" fill="#fff"/>
  <rect width="1" height="1" x="3" y="10" fill="#fff"/>
  <rect width="1" height="1" x="4" y="10" fill="#fff"/>
  <rect width="1" height="1" x="5" y="10" fill="#fff"/>
  <rect width="1" height="1" x="6" y="10" fill="#ddd"/>
  <rect width="1" height="1" x="8" y="10" fill="#fff"/>
  <rect width="1" height="1" x="9" y="10" fill="#fff"/>
  <rect width="1" height="1" x="10" y="10" fill="#fff"/>
  <rect width="1" height="1" y="11" fill="#fff"/>
  <rect width="1" height="1" x="1" y="11" fill="#fff"/>
  <rect width="1" height="1" x="2" y="11" fill="#fff"/>
  <rect width="1" height="1" x="3" y="11" fill="#fff"/>
  <rect width="1" height="1" x="4" y="11" fill="#fff"/>
  <rect width="1" height="1" x="5" y="11" fill="#fff"/>
  <rect width="1" height="1" x="6" y="11" fill="#fff"/>
  <rect width="1" height="1" x="7" y="11" fill="#ddd"/>
  <rect width="1" height="1" y="12" fill="#fff"/>
  <rect width="1" height="1" x="1" y="12" fill="#fff"/>
  <rect width="1" height="1" x="2" y="12" fill="#fff"/>
  <rect width="1" height="1" x="3" y="12" fill="#fff"/>
  <rect width="1" height="1" x="4" y="12" fill="#fff"/>
  <rect width="1" height="1" x="5" y="12" fill="#fff"/>
  <rect width="1" height="1" x="6" y="12" fill="#fff"/>
  <rect width="1" height="1" x="7" y="12" fill="#fff"/>
  <rect width="1" height="1" x="8" y="12" fill="#ddd"/>
  <image src="/img/ponyfoo.png" alt="Pony Foo"/>
</svg>
