<?xml version="1.0" encoding="utf-8"?>
<!-- Generator: Adobe Illustrator 19.2.1, SVG Export Plug-In . SVG Version: 6.00 Build 0)  -->
<svg version="1.1" id="Layer_1" xmlns="http://www.w3.org/2000/svg" xmlns:xlink="http://www.w3.org/1999/xlink" x="0px" y="0px"
	 viewBox="0 0 850.4 425.2" style="enable-background:new 0 0 850.4 425.2;" xml:space="preserve">
<style type="text/css">
	.st0{fill-rule:evenodd;clip-rule:evenodd;fill:#FFFFFF;}
	.st1{fill:#FFFFFF;}
</style>
<g>
	<path class="st0" d="M722.8,92.4H517.7c-38.2,0-69.1,30.9-69.1,69.1v66.6c0,38.1,30.9,69.1,69.1,69.1h53.1l48.7,34.6l48.6-34.6
		h54.7c38.1,0,69.1-30.9,69.1-69.1v-66.6C791.9,123.3,761,92.4,722.8,92.4z M635.7,246.6h-18v-61.9c0-7.1-2-12.8-6.1-17.1
		c-4-4.3-9.4-6.5-15.9-6.5c-6.5,0-11.9,2.2-15.9,6.5c-4.1,4.3-6.1,10-6.1,17.1v61.9h-18v-61.9c0-7.1-2.1-12.8-6.2-17.1
		c-4.1-4.3-9.5-6.5-16-6.5c-6.6,0-11.9,2.2-16,6.5c-4,4.3-6,10-6,17.1v61.9h-18.1V188c0-13.8,3.6-24.6,10.8-32.6
		c7.2-8,17-12,29.2-12c6.3,0,12,1.3,17.4,4c5.3,2.7,9.9,6.5,13.7,11.6c4-5.2,8.6-9,13.8-11.7c5.2-2.6,11-3.9,17.3-3.9
		c12.1,0,21.8,4,29,12c7.3,8,10.9,18.9,10.9,32.6V246.6z M725.1,236c-9.1,8.4-20.3,12.6-33.5,12.6c-4.5,0-8.9-0.6-13.3-1.8
		c-4.4-1.2-8.5-3-12.3-5.3c-8.1-5-14.4-11.4-18.9-19.4c-4.5-8-6.7-16.7-6.7-26.3c0-7,1.3-13.7,3.9-20c2.6-6.3,6.3-12,11.2-17.1
		c4.9-5,10.4-8.8,16.7-11.4c6.2-2.6,12.8-4,19.7-4c10.3,0,19.4,2.7,27.5,8.1c8.1,5.4,14.6,13.3,19.7,23.6l-66.4,36.7l-7.6-13.7
		l49.3-27.5c-3-3.4-6.5-5.9-10.2-7.6c-3.8-1.7-7.9-2.6-12.4-2.6c-9.1,0-16.7,3.4-23,10.2c-6.2,6.8-9.3,15.2-9.3,25.1
		c0,9.9,3.1,18.3,9.4,25.1c6.2,6.8,13.9,10.2,22.9,10.2c8.6,0,15.8-2.9,21.6-8.5c5.8-5.7,9.4-13.5,10.9-23.4l18.5,2.8
		C740.1,216.2,734.3,227.6,725.1,236z"/>
	<g>
		<path class="st1" d="M200.9,145.1v58.7c0,13.8-3.6,24.7-10.9,32.7c-7.3,8-17,12-29.2,12c-6.4,0-12.2-1.3-17.5-4
			c-5.3-2.7-9.9-6.5-13.7-11.7c-4.1,5.2-8.7,9.1-14,11.7c-5.2,2.6-11,3.9-17.2,3.9c-12.2,0-22-4-29.3-12.1
			c-7.3-8-10.9-18.9-10.9-32.7v-58.7h18.1V207c0,7.2,2,13,6.1,17.3c4,4.4,9.4,6.6,16,6.6c6.6,0,11.9-2.2,16.1-6.6
			c4.1-4.4,6.2-10.2,6.2-17.3v-61.9h18V207c0,7.2,2,13,6.1,17.3c4,4.4,9.4,6.6,16,6.6c6.5,0,11.8-2.2,15.9-6.6
			c4.1-4.4,6.2-10.2,6.2-17.3v-61.9H200.9z"/>
		<path class="st1" d="M289.5,246.7V196c0-10.6-3-19.2-9-25.8c-6-6.6-13.8-9.9-23.4-9.9c-9.5,0-17.3,3.3-23.5,9.8
			c-6.1,6.5-9.2,14.9-9.2,25.2c0,10.5,3.1,19.1,9.4,25.8c6.3,6.7,14.3,10,24,10c4.4,0,8.7-0.8,12.9-2.3c4.2-1.5,8.4-3.9,12.6-7v19.6
			c-4.1,2.3-8.5,4.1-13.1,5.2c-4.6,1.1-9.4,1.7-14.4,1.7c-4.8,0-9.6-0.7-14.4-2.2c-4.8-1.5-9.1-3.6-12.9-6.3
			c-7.3-5-12.9-11.3-16.8-18.9c-3.9-7.6-5.8-16-5.8-25.2c0-15.2,4.8-27.7,14.4-37.6c9.6-9.9,21.8-14.9,36.6-14.9
			c9.7,0,18.6,2.5,26.7,7.4c8.1,4.9,14.3,11.6,18.6,20.2c2,3.9,3.4,8.1,4.3,12.7c0.9,4.6,1.3,11.4,1.3,20.6v42.7H289.5z"/>
		<path class="st1" d="M318.4,246.7V98.4h18.2v148.3H318.4z"/>
		<path class="st1" d="M348.9,246.7V98.4h18.2v83.6h8.1c5.2,0,9.4-1.1,12.7-3.2c3.3-2.1,6.8-6.3,10.6-12.6l12.9-21h21.2l-14.9,24.1
			c-2.6,4.3-5.2,7.9-7.8,10.8c-2.6,2.8-5,4.8-7.3,6c8.4,1.6,14.5,5,18.5,10.3c4,5.3,6,12.8,6,22.4v28h-18.3V221
			c0-7.3-1.6-12.7-4.8-16.1c-3.2-3.4-8.3-5.1-15.3-5.1h-21.6v46.9H348.9z"/>
	</g>
</g>
</svg>
