<svg xmlns="http://www.w3.org/2000/svg" viewBox="0 0 113.4 113.4" enable-background="new 0 0 113.4 113.4"><style type="text/css">.st0{fill:#F0F1F2;} .st1{fill:none;}</style><path class="st0" d="M84.5 46.9l9.8-14.5s-4.1-.7-6.2 1.2c-1.3 1.2-2.7 3.3-2.7 3.3l-3.6 5.2c-.2.3-.4.6-.8.6s-.6-.3-.8-.6L76.6 37s-1.5-2.2-2.7-3.3c-2-1.9-6.2-1.2-6.2-1.2L77.5 47l-9.7 14.4s4.3.6 6.3-1.3c1.3-1.2 2.6-3.1 2.6-3.1l3.6-5.2c.2-.3.4-.6.8-.6s.6.3.8.6l3.6 5.2s1.3 1.9 2.7 3.1c2 1.9 6.3 1.3 6.3 1.3l-10-14.5zM65.3 37s-.5.8-1.6 1.3c-.7.4-1.4.6-2.1 1.1-1.2.6-1.5 1.2-1.5 2.2v19.7s2 .2 3.2-.4c1.6-.8 2-1.6 2-5.3V37zm-12-3.3c-1.2 1.1-1.6 2.8-1.6 2.8l-4 15.6-3.4-12.7c-.4-1.3-.9-3-1.8-4.1-1.1-1.5-3.6-1.6-3.8-1.6-.2 0-2.7.1-3.8 1.5-.9 1.1-1.5 2.8-1.8 4.1L29.7 52l-4.1-15.6s-.4-1.8-1.6-2.8c-2-1.8-4.9-1.3-4.9-1.3l7.7 29.1s2.5.2 3.8-.5c1.7-.8 2.5-1.5 3.4-5.5.9-3.5 3.4-13.9 3.7-14.6.1-.4.3-1.3.9-1.3.6 0 .8.9.9 1.3.2.8 2.7 11.1 3.7 14.6 1.1 3.9 1.8 4.6 3.4 5.5 1.3.6 3.8.5 3.8.5l7.8-29.1s-3-.4-4.9 1.4m8.8-.9c-1.5.8-2 2.1-2 5.8 0 0 .8-.8 1.9-1.1.8-.3 1.5-.8 1.9-1.1 1.3-.9 1.5-2.1 1.5-4.1-.1 0-2.1-.1-3.3.5"/><path class="st0" d="M89.1 70.8c-.5 0-.9.1-1.3.3s-.6.4-.8.8c-.2.3-.4.7-.5 1.1-.1.4-.1.8-.1 1.2 0 .4.1.9.1 1.3.1.4.3.8.6 1.1.2.3.6.6.9.7.4.1.8.3 1.2.3.5 0 .9-.1 1.3-.3.4-.2.6-.4.9-.8.2-.3.4-.7.6-1.1.1-.4.1-.8.1-1.3s-.1-.9-.1-1.3c-.1-.4-.3-.8-.6-1.1-.2-.3-.6-.6-.9-.8-.4 0-.9-.1-1.4-.1m3.5-.3v7.9c0 .2-.1.4-.1.7-.1.3-.1.5-.3.8-.1.3-.4.5-.6.7-.2.2-.6.4-1 .5-.4.1-.8.2-1.4.1-.4 0-.8 0-1.2-.1-.4-.1-.7-.2-1-.4-.3-.2-.5-.4-.6-.8-.1-.3-.3-.7-.3-1.1h.6c0 .4.1.6.3.9.1.2.4.4.6.6.2.1.5.3.8.4.3.1.6.1.9.1.4 0 .8-.1 1.1-.1.3-.1.6-.3.8-.4.2-.1.4-.4.5-.6l.3-.6s.1-.4.1-.6v-2.2c-.3.6-.6 1.1-1.1 1.3-.5.3-1.1.4-1.7.4-.6 0-1.1-.1-1.5-.3-.4-.2-.8-.5-1.1-.8-.3-.4-.5-.8-.6-1.2-.1-.5-.2-1-.2-1.5s.1-1 .2-1.5.4-.9.6-1.2c.3-.4.6-.6 1.1-.8.4-.2.9-.3 1.5-.3.3 0 .6 0 .9.1.3.1.6.2.8.4.2.1.5.4.6.6.2.2.4.5.4.8v-1.6c0-.2.6-.2.6-.2zm-14.3 0h.6v1.7c.1-.3.2-.6.4-.8l.6-.6c.2-.1.5-.3.8-.4.3-.1.6-.1.9-.1.4 0 .8.1 1.2.1.3.1.6.3.8.4.2.2.4.4.5.6.1.2.2.5.2.7.1.2.1.5.1.7V78.2h-.6v-4.9c0-.2 0-.4-.1-.8 0-.3-.1-.6-.3-.8-.1-.3-.4-.5-.7-.7-.3-.2-.7-.3-1.3-.3-.4 0-.8.1-1.2.2-.4.1-.6.4-.9.7-.2.3-.4.6-.6 1.1-.1.4-.2.8-.2 1.3v4.2H78v-7.9h.3zm-2.5 0h.6v7.8h-.6v-7.8zm0-3.1h.6V69h-.6v-1.6zM72 72.2c.1-.3.3-.5.4-.7.2-.2.4-.4.7-.6.3-.1.6-.3.9-.4.4-.1.7-.1 1.1-.1v.6c-.3 0-.6 0-1.1.1-.4.1-.8.4-1.1.7l-.4.4c-.1.1-.2.3-.3.5-.1.1-.1.4-.1.6 0 .2-.1.5-.1.8v4.3h-.6v-7.9h.6v1.7zM69.5 74c0-.4-.1-.8-.2-1.2-.1-.4-.3-.7-.6-1-.2-.3-.6-.5-.9-.7-.4-.1-.8-.3-1.2-.3s-.8.1-1.2.3c-.4.2-.6.4-.9.7-.2.3-.4.6-.6 1.1-.1.4-.2.8-.3 1.1h5.9zm-5.7.5c0 .4 0 .9.1 1.3s.3.8.6 1.1c.2.4.6.6.9.8.4.2.8.3 1.3.3.8 0 1.3-.2 1.8-.6.5-.4.8-1 1-1.7h.5c-.1.9-.5 1.6-1.1 2.1-.6.5-1.3.7-2.2.7-.6 0-1.1-.1-1.5-.3-.4-.2-.8-.5-1.1-.8-.3-.4-.5-.8-.6-1.3-.1-.5-.2-1-.2-1.5 0-.6.1-1.1.2-1.5.1-.5.4-1 .6-1.3.3-.4.6-.7 1.1-1 .4-.2 1-.4 1.5-.4.6 0 1.1.1 1.5.4.4.2.8.5 1.1.9.3.4.5.8.6 1.3.1.5.1 1.1.1 1.6l-6.2-.1zm-2.2-.5c0-.4-.1-.8-.2-1.2-.1-.4-.3-.7-.6-1-.2-.3-.6-.5-.9-.7-.3-.2-.7-.3-1.1-.3-.4 0-.8.1-1.2.3s-.6.4-.9.7c-.2.3-.4.6-.6 1.1-.1.4-.2.8-.3 1.1h5.8zm-5.7.5c0 .4 0 .9.1 1.3s.3.8.6 1.1c.2.4.6.6.9.8.4.2.8.3 1.3.3.8 0 1.3-.2 1.8-.6.5-.4.8-1 1-1.7h.6c-.1.9-.5 1.6-1.1 2.1-.6.5-1.3.7-2.2.7-.6 0-1.1-.1-1.5-.3-.4-.2-.8-.5-1.1-.8-.3-.4-.5-.8-.6-1.3-.1-.5-.2-1-.2-1.5 0-.6.1-1.1.2-1.5.1-.5.4-1 .6-1.3.3-.4.6-.7 1.1-1 .4-.2 1-.4 1.5-.4.6 0 1.1.1 1.5.4.4.2.8.5 1.1.9.3.4.5.8.6 1.3.1.5.1 1.1.1 1.6l-6.3-.1zm-8.1-4h.6v1.7c.1-.3.2-.6.4-.8l.6-.6c.2-.1.5-.3.8-.4.3-.1.6-.1.9-.1.4 0 .8.1 1.2.1.3.1.6.3.8.4.2.2.4.4.5.6.1.2.2.5.2.7.1.2.1.5.1.7V78.2h-.6v-4.9c0-.2 0-.4-.1-.8 0-.3-.1-.6-.3-.8-.1-.3-.4-.5-.7-.7-.3-.2-.7-.3-1.3-.3-.4 0-.8.1-1.2.2-.4.1-.6.4-.9.7-.2.3-.4.6-.6 1.1-.1.4-.2.8-.2 1.3v4.2h-.6v-7.9h.4zm-2.4 0h.6v7.8h-.6v-7.8zm0-3.1h.6V69h-.6v-1.6zm-5.3 3.4c-.5 0-.9.1-1.3.3s-.6.4-.8.8c-.2.3-.4.7-.5 1.1-.1.4-.1.8-.1 1.2 0 .4.1.9.1 1.3.1.4.3.8.6 1.1.2.3.6.6.9.7s.8.3 1.2.3c.5 0 .9-.1 1.3-.3s.6-.4.9-.8c.2-.3.4-.7.6-1.1.1-.4.1-.8.1-1.3s-.1-.8-.1-1.3c-.1-.4-.3-.8-.6-1.1-.2-.3-.6-.6-.9-.8-.5 0-1-.1-1.4-.1m3.5-.3v7.9c0 .2-.1.4-.1.7-.1.3-.1.5-.3.8-.1.3-.4.5-.6.7-.2.2-.6.4-1 .5-.4.1-.8.2-1.4.1-.4 0-.8 0-1.2-.1-.4-.1-.7-.2-1-.4-.3-.2-.5-.4-.6-.8-.1-.3-.3-.7-.3-1.1h.6c0 .4.1.6.3.9.1.2.4.4.6.6.2.1.5.3.8.4.3.1.6.1.9.1.4 0 .8-.1 1.2-.1.3-.1.6-.3.8-.4.2-.1.4-.4.5-.6l.3-.6c.1-.2.1-.4.1-.6v-2.2c-.3.6-.6 1.1-1.1 1.3-.5.3-1.1.4-1.7.4-.6 0-1.1-.1-1.5-.3-.4-.2-.8-.5-1.1-.8-.3-.4-.5-.8-.6-1.2-.1-.5-.2-1-.2-1.5s.1-1 .2-1.5.4-.9.6-1.2c.3-.4.6-.6 1.1-.8.4-.2.9-.3 1.5-.3.3 0 .6 0 .9.1.3.1.6.2.8.4.2.1.5.4.6.6.2.2.4.5.4.8v-1.6c0-.2.5-.2.5-.2zm-14.4 0h.6v1.7c.1-.3.2-.6.4-.8l.6-.6c.2-.1.5-.3.8-.4.3-.1.6-.1.9-.1.4 0 .8.1 1.2.1.3.1.6.3.8.4.2.2.4.4.5.6.1.2.2.5.2.7.1.2.1.5.1.7V78.2h-.6v-4.9c0-.2 0-.4-.1-.8 0-.3-.1-.6-.3-.8-.1-.3-.4-.5-.7-.7-.3-.2-.7-.3-1.3-.3-.4 0-.8.1-1.2.2-.4.1-.6.4-.9.7-.2.3-.4.6-.6 1.1-.1.4-.2.8-.2 1.3v4.2h-.6v-7.9h.4zm-1 7.3v.6h-7.4v-11h7.3v.6h-6.7v4.4h6.3v.6h-6.3v4.8h6.8z"/><path class="st1" d="M0 0h113.4v113.4H0z"/></svg>