<?xml version="1.0" encoding="utf-8"?>
<!-- Generator: Adobe Illustrator 19.2.1, SVG Export Plug-In . SVG Version: 6.00 Build 0)  -->
<svg version="1.1" id="Layer_1" xmlns="http://www.w3.org/2000/svg" xmlns:xlink="http://www.w3.org/1999/xlink" x="0px" y="0px"
	 viewBox="0 0 113.4 113.4" style="enable-background:new 0 0 113.4 113.4;" xml:space="preserve">
<style type="text/css">
	.st0{fill:#F0F1F2;}
	.st1{fill:none;}
</style>
<g>
	<g>
		<path class="st0" d="M84.5,46.9l9.8-14.5c0,0-4.1-0.7-6.2,1.2c-1.3,1.2-2.7,3.3-2.7,3.3l-3.6,5.2c-0.2,0.3-0.4,0.6-0.8,0.6
			c-0.4,0-0.6-0.3-0.8-0.6L76.6,37c0,0-1.5-2.2-2.7-3.3c-2-1.9-6.2-1.2-6.2-1.2l9.8,14.5l-9.7,14.4c0,0,4.3,0.6,6.3-1.3
			c1.3-1.2,2.6-3.1,2.6-3.1l3.6-5.2c0.2-0.3,0.4-0.6,0.8-0.6c0.4,0,0.6,0.3,0.8,0.6l3.6,5.2c0,0,1.3,1.9,2.7,3.1
			c2,1.9,6.3,1.3,6.3,1.3L84.5,46.9z M65.3,37c0,0-0.5,0.8-1.6,1.3c-0.7,0.4-1.4,0.6-2.1,1.1c-1.2,0.6-1.5,1.2-1.5,2.2v19.7
			c0,0,2,0.2,3.2-0.4c1.6-0.8,2-1.6,2-5.3V37z M53.3,33.7c-1.2,1.1-1.6,2.8-1.6,2.8l-4,15.6l-3.4-12.7c-0.4-1.3-0.9-3-1.8-4.1
			c-1.1-1.5-3.6-1.6-3.8-1.6c-0.2,0-2.7,0.1-3.8,1.5c-0.9,1.1-1.5,2.8-1.8,4.1L29.7,52l-4.1-15.6c0,0-0.4-1.8-1.6-2.8
			c-2-1.8-4.9-1.3-4.9-1.3l7.7,29.1c0,0,2.5,0.2,3.8-0.5c1.7-0.8,2.5-1.5,3.4-5.5c0.9-3.5,3.4-13.9,3.7-14.6
			c0.1-0.4,0.3-1.3,0.9-1.3c0.6,0,0.8,0.9,0.9,1.3c0.2,0.8,2.7,11.1,3.7,14.6c1.1,3.9,1.8,4.6,3.4,5.5c1.3,0.6,3.8,0.5,3.8,0.5
			l7.8-29.1C58.2,32.3,55.2,31.9,53.3,33.7 M62.1,32.8c-1.5,0.8-2,2.1-2,5.8c0,0,0.8-0.8,1.9-1.1c0.8-0.3,1.5-0.8,1.9-1.1
			c1.3-0.9,1.5-2.1,1.5-4.1C65.3,32.3,63.3,32.2,62.1,32.8"/>
		<path class="st0" d="M89.1,70.8c-0.5,0-0.9,0.1-1.3,0.3s-0.6,0.4-0.8,0.8c-0.2,0.3-0.4,0.7-0.5,1.1c-0.1,0.4-0.1,0.8-0.1,1.2
			c0,0.4,0.1,0.9,0.1,1.3c0.1,0.4,0.3,0.8,0.6,1.1c0.2,0.3,0.6,0.6,0.9,0.7c0.4,0.1,0.8,0.3,1.2,0.3c0.5,0,0.9-0.1,1.3-0.3
			c0.4-0.2,0.6-0.4,0.9-0.8c0.2-0.3,0.4-0.7,0.6-1.1c0.1-0.4,0.1-0.8,0.1-1.3S92,73.2,92,72.8c-0.1-0.4-0.3-0.8-0.6-1.1
			c-0.2-0.3-0.6-0.6-0.9-0.8C90.1,70.9,89.6,70.8,89.1,70.8 M92.6,70.5v7.4c0,0.1,0,0.3,0,0.5c0,0.2-0.1,0.4-0.1,0.7
			c-0.1,0.3-0.1,0.5-0.3,0.8c-0.1,0.3-0.4,0.5-0.6,0.7c-0.2,0.2-0.6,0.4-1,0.5c-0.4,0.1-0.8,0.2-1.4,0.1c-0.4,0-0.8,0-1.2-0.1
			c-0.4-0.1-0.7-0.2-1-0.4c-0.3-0.2-0.5-0.4-0.6-0.8c-0.1-0.3-0.3-0.7-0.3-1.1h0.6c0,0.4,0.1,0.6,0.3,0.9c0.1,0.2,0.4,0.4,0.6,0.6
			c0.2,0.1,0.5,0.3,0.8,0.4c0.3,0.1,0.6,0.1,0.9,0.1c0.4,0,0.8-0.1,1.1-0.1c0.3-0.1,0.6-0.3,0.8-0.4c0.2-0.1,0.4-0.4,0.5-0.6
			c0.1-0.2,0.2-0.4,0.3-0.6s0.1-0.4,0.1-0.6s0-0.3,0-0.4v-1.8l0,0c-0.3,0.6-0.6,1.1-1.1,1.3c-0.5,0.3-1.1,0.4-1.7,0.4
			c-0.6,0-1.1-0.1-1.5-0.3c-0.4-0.2-0.8-0.5-1.1-0.8c-0.3-0.4-0.5-0.8-0.6-1.2c-0.1-0.5-0.2-1-0.2-1.5c0-0.5,0.1-1,0.2-1.5
			s0.4-0.9,0.6-1.2c0.3-0.4,0.6-0.6,1.1-0.8c0.4-0.2,0.9-0.3,1.5-0.3c0.3,0,0.6,0,0.9,0.1c0.3,0.1,0.6,0.2,0.8,0.4
			c0.2,0.1,0.5,0.4,0.6,0.6c0.2,0.2,0.4,0.5,0.4,0.8l0,0v-1.6C92,70.5,92.6,70.5,92.6,70.5z M78.3,70.5h0.6v1.7l0,0
			c0.1-0.3,0.2-0.6,0.4-0.8c0.2-0.2,0.4-0.4,0.6-0.6c0.2-0.1,0.5-0.3,0.8-0.4c0.3-0.1,0.6-0.1,0.9-0.1c0.4,0,0.8,0.1,1.2,0.1
			c0.3,0.1,0.6,0.3,0.8,0.4c0.2,0.2,0.4,0.4,0.5,0.6c0.1,0.2,0.2,0.5,0.2,0.7c0.1,0.2,0.1,0.5,0.1,0.7c0,0.2,0,0.4,0,0.6v4.8h-0.6
			v-4.9c0-0.2,0-0.4-0.1-0.8c0-0.3-0.1-0.6-0.3-0.8c-0.1-0.3-0.4-0.5-0.7-0.7c-0.3-0.2-0.7-0.3-1.3-0.3c-0.4,0-0.8,0.1-1.2,0.2
			c-0.4,0.1-0.6,0.4-0.9,0.7c-0.2,0.3-0.4,0.6-0.6,1.1c-0.1,0.4-0.2,0.8-0.2,1.3v4.2H78v-7.9H78.3z M75.8,70.5h0.6v7.8h-0.6V70.5z
			 M75.8,67.4h0.6V69h-0.6V67.4z M72,72.2L72,72.2c0.1-0.3,0.3-0.5,0.4-0.7c0.2-0.2,0.4-0.4,0.7-0.6c0.3-0.1,0.6-0.3,0.9-0.4
			c0.4-0.1,0.7-0.1,1.1-0.1V71c-0.3,0-0.6,0-1.1,0.1c-0.4,0.1-0.8,0.4-1.1,0.7c-0.1,0.1-0.3,0.3-0.4,0.4c-0.1,0.1-0.2,0.3-0.3,0.5
			c-0.1,0.1-0.1,0.4-0.1,0.6c0,0.2-0.1,0.5-0.1,0.8v4.3h-0.6v-7.9H72V72.2z M69.5,74c0-0.4-0.1-0.8-0.2-1.2c-0.1-0.4-0.3-0.7-0.6-1
			c-0.2-0.3-0.6-0.5-0.9-0.7c-0.4-0.1-0.8-0.3-1.2-0.3s-0.8,0.1-1.2,0.3c-0.4,0.2-0.6,0.4-0.9,0.7c-0.2,0.3-0.4,0.6-0.6,1.1
			c-0.1,0.4-0.2,0.8-0.3,1.1H69.5L69.5,74z M63.8,74.5c0,0.4,0,0.9,0.1,1.3c0.1,0.4,0.3,0.8,0.6,1.1c0.2,0.4,0.6,0.6,0.9,0.8
			c0.4,0.2,0.8,0.3,1.3,0.3c0.8,0,1.3-0.2,1.8-0.6c0.5-0.4,0.8-1,1-1.7H70c-0.1,0.9-0.5,1.6-1.1,2.1c-0.6,0.5-1.3,0.7-2.2,0.7
			c-0.6,0-1.1-0.1-1.5-0.3c-0.4-0.2-0.8-0.5-1.1-0.8c-0.3-0.4-0.5-0.8-0.6-1.3c-0.1-0.5-0.2-1-0.2-1.5c0-0.6,0.1-1.1,0.2-1.5
			c0.1-0.5,0.4-1,0.6-1.3c0.3-0.4,0.6-0.7,1.1-1c0.4-0.2,1-0.4,1.5-0.4c0.6,0,1.1,0.1,1.5,0.4c0.4,0.2,0.8,0.5,1.1,0.9
			c0.3,0.4,0.5,0.8,0.6,1.3c0.1,0.5,0.1,1.1,0.1,1.6L63.8,74.5L63.8,74.5z M61.6,74c0-0.4-0.1-0.8-0.2-1.2c-0.1-0.4-0.3-0.7-0.6-1
			c-0.2-0.3-0.6-0.5-0.9-0.7c-0.3-0.2-0.7-0.3-1.1-0.3c-0.4,0-0.8,0.1-1.2,0.3s-0.6,0.4-0.9,0.7c-0.2,0.3-0.4,0.6-0.6,1.1
			c-0.1,0.4-0.2,0.8-0.3,1.1H61.6L61.6,74z M55.9,74.5c0,0.4,0,0.9,0.1,1.3c0.1,0.4,0.3,0.8,0.6,1.1c0.2,0.4,0.6,0.6,0.9,0.8
			c0.4,0.2,0.8,0.3,1.3,0.3c0.8,0,1.3-0.2,1.8-0.6c0.5-0.4,0.8-1,1-1.7h0.6c-0.1,0.9-0.5,1.6-1.1,2.1c-0.6,0.5-1.3,0.7-2.2,0.7
			c-0.6,0-1.1-0.1-1.5-0.3c-0.4-0.2-0.8-0.5-1.1-0.8c-0.3-0.4-0.5-0.8-0.6-1.3c-0.1-0.5-0.2-1-0.2-1.5c0-0.6,0.1-1.1,0.2-1.5
			c0.1-0.5,0.4-1,0.6-1.3c0.3-0.4,0.6-0.7,1.1-1c0.4-0.2,1-0.4,1.5-0.4c0.6,0,1.1,0.1,1.5,0.4c0.4,0.2,0.8,0.5,1.1,0.9
			c0.3,0.4,0.5,0.8,0.6,1.3c0.1,0.5,0.1,1.1,0.1,1.6L55.9,74.5L55.9,74.5z M47.8,70.5h0.6v1.7l0,0c0.1-0.3,0.2-0.6,0.4-0.8
			c0.2-0.2,0.4-0.4,0.6-0.6c0.2-0.1,0.5-0.3,0.8-0.4c0.3-0.1,0.6-0.1,0.9-0.1c0.4,0,0.8,0.1,1.2,0.1c0.3,0.1,0.6,0.3,0.8,0.4
			c0.2,0.2,0.4,0.4,0.5,0.6c0.1,0.2,0.2,0.5,0.2,0.7c0.1,0.2,0.1,0.5,0.1,0.7c0,0.2,0,0.4,0,0.6v4.8h-0.6v-4.9c0-0.2,0-0.4-0.1-0.8
			c0-0.3-0.1-0.6-0.3-0.8c-0.1-0.3-0.4-0.5-0.7-0.7c-0.3-0.2-0.7-0.3-1.3-0.3c-0.4,0-0.8,0.1-1.2,0.2c-0.4,0.1-0.6,0.4-0.9,0.7
			c-0.2,0.3-0.4,0.6-0.6,1.1c-0.1,0.4-0.2,0.8-0.2,1.3v4.2h-0.6v-7.9H47.8z M45.4,70.5h0.6v7.8h-0.6V70.5z M45.4,67.4h0.6V69h-0.6
			V67.4z M40.1,70.8c-0.5,0-0.9,0.1-1.3,0.3s-0.6,0.4-0.8,0.8c-0.2,0.3-0.4,0.7-0.5,1.1c-0.1,0.4-0.1,0.8-0.1,1.2
			c0,0.4,0.1,0.9,0.1,1.3c0.1,0.4,0.3,0.8,0.6,1.1c0.2,0.3,0.6,0.6,0.9,0.7s0.8,0.3,1.2,0.3c0.5,0,0.9-0.1,1.3-0.3s0.6-0.4,0.9-0.8
			c0.2-0.3,0.4-0.7,0.6-1.1c0.1-0.4,0.1-0.8,0.1-1.3s-0.1-0.8-0.1-1.3c-0.1-0.4-0.3-0.8-0.6-1.1c-0.2-0.3-0.6-0.6-0.9-0.8
			C41,70.9,40.5,70.8,40.1,70.8 M43.6,70.5v7.4c0,0.1,0,0.3,0,0.5c0,0.2-0.1,0.4-0.1,0.7c-0.1,0.3-0.1,0.5-0.3,0.8
			c-0.1,0.3-0.4,0.5-0.6,0.7c-0.2,0.2-0.6,0.4-1,0.5c-0.4,0.1-0.8,0.2-1.4,0.1c-0.4,0-0.8,0-1.2-0.1c-0.4-0.1-0.7-0.2-1-0.4
			c-0.3-0.2-0.5-0.4-0.6-0.8c-0.1-0.3-0.3-0.7-0.3-1.1h0.6c0,0.4,0.1,0.6,0.3,0.9c0.1,0.2,0.4,0.4,0.6,0.6c0.2,0.1,0.5,0.3,0.8,0.4
			c0.3,0.1,0.6,0.1,0.9,0.1c0.4,0,0.8-0.1,1.2-0.1c0.3-0.1,0.6-0.3,0.8-0.4c0.2-0.1,0.4-0.4,0.5-0.6c0.1-0.2,0.2-0.4,0.3-0.6
			c0.1-0.2,0.1-0.4,0.1-0.6c0-0.1,0-0.3,0-0.4v-1.8l0,0c-0.3,0.6-0.6,1.1-1.1,1.3c-0.5,0.3-1.1,0.4-1.7,0.4c-0.6,0-1.1-0.1-1.5-0.3
			c-0.4-0.2-0.8-0.5-1.1-0.8c-0.3-0.4-0.5-0.8-0.6-1.2c-0.1-0.5-0.2-1-0.2-1.5c0-0.5,0.1-1,0.2-1.5s0.4-0.9,0.6-1.2
			c0.3-0.4,0.6-0.6,1.1-0.8c0.4-0.2,0.9-0.3,1.5-0.3c0.3,0,0.6,0,0.9,0.1c0.3,0.1,0.6,0.2,0.8,0.4c0.2,0.1,0.5,0.4,0.6,0.6
			c0.2,0.2,0.4,0.5,0.4,0.8l0,0v-1.6C43.1,70.5,43.6,70.5,43.6,70.5z M29.2,70.5h0.6v1.7l0,0c0.1-0.3,0.2-0.6,0.4-0.8
			s0.4-0.4,0.6-0.6c0.2-0.1,0.5-0.3,0.8-0.4c0.3-0.1,0.6-0.1,0.9-0.1c0.4,0,0.8,0.1,1.2,0.1c0.3,0.1,0.6,0.3,0.8,0.4
			c0.2,0.2,0.4,0.4,0.5,0.6c0.1,0.2,0.2,0.5,0.2,0.7c0.1,0.2,0.1,0.5,0.1,0.7c0,0.2,0,0.4,0,0.6v4.8h-0.6v-4.9c0-0.2,0-0.4-0.1-0.8
			c0-0.3-0.1-0.6-0.3-0.8c-0.1-0.3-0.4-0.5-0.7-0.7c-0.3-0.2-0.7-0.3-1.3-0.3c-0.4,0-0.8,0.1-1.2,0.2c-0.4,0.1-0.6,0.4-0.9,0.7
			c-0.2,0.3-0.4,0.6-0.6,1.1c-0.1,0.4-0.2,0.8-0.2,1.3v4.2h-0.6v-7.9H29.2z M28.2,77.8v0.6h-7.4V67.4h7.3V68h-6.7v4.4h6.3v0.6h-6.3
			v4.8L28.2,77.8L28.2,77.8z"/>
	</g>
	<rect x="0" class="st1" width="113.4" height="113.4"/>
</g>
</svg>
