<?xml version="1.0" encoding="utf-8"?>
<!-- Generator: Adobe Illustrator 19.2.1, SVG Export Plug-In . SVG Version: 6.00 Build 0)  -->
<!DOCTYPE svg PUBLIC "-//W3C//DTD SVG 1.1//EN" "http://www.w3.org/Graphics/SVG/1.1/DTD/svg11.dtd">
<svg version="1.1" id="Layer_1" xmlns="http://www.w3.org/2000/svg" xmlns:xlink="http://www.w3.org/1999/xlink" x="0px" y="0px"
	 viewBox="0 0 140.6 43.9" style="enable-background:new 0 0 140.6 43.9;" xml:space="preserve">
<style type="text/css">
	.st0{fill:#FFFFFF;}
</style>
<title>Create_Logo</title>
<g>
	<path class="st0" d="M98.8,39.5L98.8,39.5l-0.1-0.2L89.2,0.4h-8.6l-6.5,26.1L70,43.4h8.2L80.8,33l10.7,10.4l0.1,0.1h8.2L98.8,39.5z
		 M82.9,24.1l1.9-7.9L88,29L82.9,24.1z"/>
	<path class="st0" d="M23.9,0.8c3-0.5,6-0.8,9.1-0.8c4.6,0,8.7,0.6,11.5,3.2c2.6,2.4,3.4,5.3,3.4,9c0.2,4.6-2.5,8.9-6.6,10.9v0.1
		c2.9,1.2,4.4,3.9,5.2,8.5c0.8,4.8,2,10.1,2.8,11.8h-8.8c-1-3.4-1.7-6.8-2.1-10.3c-0.8-5.4-2.1-6.9-4.9-6.9h-1.2v17.3h-8.4
		C23.9,43.6,23.9,0.8,23.9,0.8z M32.2,19.7h1.5c3.6,0,5.8-3,5.8-6.8S38,6.7,34.2,6.6c-0.7,0-1.4,0.1-2,0.3V19.7L32.2,19.7z"/>
	<path class="st0" d="M69.3,25.6h-9.8v10H70l-2,7.8H51.1v-43h18.7v7.7H59.4v10.4h9.8L69.3,25.6L69.3,25.6z"/>
	<path class="st0" d="M102,8.1h-8.6l-1.9-7.7H119v7.7h-8.6v35.4H102V8.1L102,8.1z"/>
	<path class="st0" d="M139.2,25.6h-9.8v10.1h11.1v7.8H121V0.4h19.5v7.7h-11.1v10.2h9.8V25.6L139.2,25.6z"/>
	<path class="st0" d="M21.8,35.4c-1.3,0.4-2.6,0.6-3.9,0.6c-5.1,0-9.4-3.7-9.4-14c0-10.7,4.8-14.2,9.5-14.2c1.3,0,2.7,0.2,3.9,0.8
		V0.7c-1.4-0.4-2.9-0.6-4.4-0.5C9.1,0.2,0,6.1,0,22.4c0,12.2,5.2,21.2,16.2,21.2c1.9,0,3.7-0.2,5.5-0.7L21.8,35.4L21.8,35.4z"/>
</g>
</svg>
