<?xml version="1.0" encoding="utf-8"?>
<!-- Generator: Adobe Illustrator 19.2.1, SVG Export Plug-In . SVG Version: 6.00 Build 0)  -->
<svg version="1.1" id="Layer_1" xmlns="http://www.w3.org/2000/svg" xmlns:xlink="http://www.w3.org/1999/xlink" x="0px" y="0px"
	 viewBox="0 0 438 129" style="enable-background:new 0 0 438 129;" xml:space="preserve">
<style type="text/css">
	.st0{fill:#FFFFFF;}
</style>
<g>
	<path class="st0" d="M92.7,63.3c0.4,2.6,0.5,5.2,0.1,7.9c-0.9,7.1-4.5,13.5-10.2,17.8c-4.7,3.7-10.4,5.6-16.4,5.6c0,0,0,0,0,0
		c-8.4,0-16.1-3.8-21.3-10.4c-4.4-5.7-6.3-12.7-5.4-19.8c0.9-7.1,4.5-13.5,10.2-17.8c4.7-3.7,10.4-5.6,16.4-5.6
		c4.6,0,9.1,1.2,13,3.3l5.2-4.1c-5.3-3.5-11.6-5.5-18.3-5.5c-7.4,0-14.4,2.4-20.2,6.9c-7,5.4-11.4,13.2-12.5,22
		C32.3,72.4,34.7,81,40.1,88c6.3,8.1,15.8,12.8,26.2,12.8c0,0,0,0,0,0c7.4,0,14.4-2.4,20.2-6.9c7-5.4,11.4-13.2,12.5-22
		c0.6-4.4,0.2-8.7-0.9-12.9L92.7,63.3z"/>
	<rect x="72" y="49.6" transform="matrix(0.7907 -0.6122 0.6122 0.7907 -14.4587 64.4437)" class="st0" width="29.9" height="7.6"/>
	<polygon class="st0" points="209.7,99.1 216,99.1 216,73.6 238,99.1 245.4,99.1 222.3,72.2 244.4,51.1 236.6,51.1 216,70.8 
		216,35.7 209.7,35.7 	"/>
	<g>
		<path class="st0" d="M145.5,71.7H110c0.6-8.7,7.9-16.3,17.8-16.3C137.3,55.1,145.1,63.3,145.5,71.7 M144.6,56.6
			c-4.3-4.4-10.3-6.8-16.8-6.8c-13.7,0-24.1,11.3-24.1,25.4c0,11.9,8.3,25.2,24.2,25.2c4.7,0,9.2-1.3,13-3.9
			c3.9-2.6,7.2-6.5,9.3-11.7h-6.6c-3,6.2-8.7,9.9-15.8,9.9c-7.8,0.1-17.6-5.7-17.9-17.7h41.8C152.4,69.3,149.8,61.9,144.6,56.6"/>
		<path class="st0" d="M198.5,71.7h-35.5c0.6-8.7,7.9-16.3,17.8-16.3C190.4,55.1,198.1,63.3,198.5,71.7 M197.6,56.6
			c-4.3-4.4-10.3-6.8-16.8-6.8c-13.7,0-24.1,11.3-24.1,25.4c0,11.9,8.3,25.2,24.2,25.2c4.7,0,9.2-1.3,13-3.9
			c3.9-2.6,7.2-6.5,9.3-11.7h-6.6c-3,6.2-8.7,9.9-15.8,9.9C173.1,94.8,163.3,89,163,77h41.8C205.4,69.3,202.9,61.9,197.6,56.6"/>
		<path class="st0" d="M262.6,57.9v31.1c0,1.8,0.3,3.3,0.9,4.3c0.6,1,2,1.6,4.3,1.7c1.8,0,3.7-0.1,5.5-0.3v4.7c-1,0-1.9,0-2.9,0.1
			c-1,0.1-1.9,0.1-2.9,0.1c-4.3,0-7.3-0.7-9-2.2c-1.7-1.5-2.5-4.2-2.5-8.1V57.9H262.6z"/>
	</g>
	<polygon class="st0" points="256.4,56.1 247.1,56.1 247.1,51.3 256.4,51.3 262,51.3 273.2,51.3 273.2,56.1 262,56.1 	"/>
	<polyline class="st0" points="256.2,49.5 256.2,35.7 262.7,35.7 262.7,49.5 	"/>
	<rect x="277.4" y="51.3" class="st0" width="5.6" height="9"/>
	<rect x="277.4" y="62.1" class="st0" width="5.6" height="37.6"/>
	<rect x="287.1" y="51.4" class="st0" width="5.4" height="48.2"/>
	<g>
		<path class="st0" d="M322.8,59.5c-0.9-3.2-2.6-5.5-5.2-7.1c-2.6-1.6-5.5-2.3-8.6-2.3c-3.9,0-7.1,0.8-9.7,2.5
			c-2.5,1.7-4.3,3.7-5.9,6.7l-0.1,11.8c0-2.6,0.3-3.2,0.8-5.4c0.6-2.1,1.4-4,2.6-5.6c1.2-1.6,2.6-2.8,4.5-3.7c1.8-0.9,4-1.4,6.5-1.4
			c1.9,0,3.5,0.3,4.8,0.9c1.3,0.6,2.3,1.5,3.1,2.6c0.8,1.1,1.3,2.4,1.7,3.8c0.3,1.5,0.5,3,0.5,4.6l0,32.7h4.7"/>
		<path class="st0" d="M339.3,50c-3.2,0-6.2,0.8-9,2.3c-2.8,1.6-4.9,3.9-6.4,7.1c0,0,0,0,0,0l0,12.8c0-2.2,0.8-4.4,1.4-6.5
			c0.6-2,1.3-3.8,2.3-5.4c1-1.6,2.3-2.9,4-3.9c1.7-1,3.8-1.4,6.4-1.4c4.2,0,7.2,1,8.9,3.1c1.7,2.1,2.5,5.1,2.5,9.1l0,32.4h5.9
			l0-32.7C355.3,55.7,350,50,339.3,50"/>
		<path class="st0" d="M359.7,71.7c-0.1,1.1-0.2,2.3-0.2,3.5c0,11.9,8.3,25.2,24.2,25.2c4.7,0,9.2-1.3,13-3.9
			c3.9-2.6,7.2-6.5,9.3-11.7h-6.6c-3,6.2-8.7,9.9-15.8,9.9c-7.8,0.1-17.6-5.7-17.9-17.7h41.8c0.2-1.8,0.1-3.5-0.1-5.3H359.7z"/>
		<path class="st0" d="M407,70.4c-0.8-5.2-3.2-10.1-6.9-13.9c-4.3-4.4-10.3-6.8-16.8-6.8c-12.1,0-21.6,8.9-23.7,20.6h6.1
			c1.2-8.2,8.3-15,17.7-15c9-0.3,16.4,7.1,17.5,15H407z"/>
	</g>
</g>
</svg>
