<?xml version="1.0" encoding="utf-8"?>
<!-- Generator: Adobe Illustrator 19.2.1, SVG Export Plug-In . SVG Version: 6.00 Build 0)  -->
<svg version="1.1" id="Layer_1" xmlns="http://www.w3.org/2000/svg" xmlns:xlink="http://www.w3.org/1999/xlink" x="0px" y="0px"
	 viewBox="0 0 113.4 113.4" style="enable-background:new 0 0 113.4 113.4;" xml:space="preserve">
<style type="text/css">
	.st0{fill:#F0F1F2;}
	.st1{fill:none;}
</style>
<g>
	<g>
		<g>
			<g>
				<path class="st0" d="M37.9,46.2c0,0-9.7,3.5-15,6.2c1-2.8,2-5.6,2.6-7.7c0.7-2.1,1.1-3.6,1.1-3.6c-1.3,1.4-2.3,1.6-2.3,1.6
					l-2.9,10.2c-0.2,0.1-0.3,0.2-0.4,0.2c-1.3,0.7-2.9,1.7-3.6,2.9c-1.2,1.9,0.3,3.2,0.3,3.2s-0.8-1,0.8-2.4c0.4-0.4,1.2-1.1,2.4-2
					l-1.6,5.5l0.7,0.3c0.7-2.1,1.6-4.5,2.4-6.9c0.7-0.5,4.2-2.5,5.4-3.1C33.7,47.9,37.9,46.2,37.9,46.2z"/>
				<polygon class="st0" points="18.7,62.6 19.2,62.9 16,72.1 				"/>
			</g>
			<path class="st0" d="M17.3,55.8c0,0-2.3,1.7-1.3,4.2c0.9,2.5,6.4,4.2,8.8,4.8c3.1,0.7,11.1,2.2,25.2,2.3
				c20.6,0.2,36.7-0.9,47.7-3.8c0,0-9.4,2.5-36.5,2.5C44.2,66,34,65.1,26.9,63.4c-3.1-0.8-5.4-1.4-7.4-2.4
				C16.5,59.5,16,57.6,17.3,55.8z"/>
		</g>
		<g>
			<g>
				<path class="st0" d="M51.5,55.9c-0.3-0.2-0.6-0.4-1-0.5c-0.4-0.1-0.7-0.1-1-0.1c-0.7,0-1.2,0.1-1.7,0.4
					c-0.5,0.3-0.9,0.7-1.2,1.2h0c0-0.5,0-1,0.1-1.5c-0.2,0-0.3,0-0.4,0.1c-0.1,0-0.2,0-0.3,0c-0.2,0-0.5,0-0.8-0.1
					c0.1,0.5,0.1,1.1,0.1,1.7c0,0.6,0,1.2,0,1.7v1.9c0,0.6,0,1.1,0,1.7c0,0.6-0.1,1.2-0.1,1.6c0.3,0,0.6,0,0.8,0c0.3,0,0.5,0,0.8,0
					c-0.1-0.5-0.1-1-0.1-1.6c0-0.6,0-1.2,0-1.7v-1.6c0-1,0.2-1.7,0.6-2.2c0.4-0.5,1-0.8,1.9-0.8c0.6,0,1.1,0.2,1.5,0.7
					c0.4,0.5,0.5,1.2,0.5,2.1v1.1c0,0.7,0,1.4,0,2.1c0,0.7-0.1,1.3-0.1,2c0.2,0,0.5,0,0.8,0c0.3,0,0.5,0,0.8,0c0-0.2,0-0.4,0-0.5
					c0-0.2,0-0.4,0-0.6v-1.2c0-0.6,0-1.2,0-1.8c0-0.6,0-1.1,0-1.6c0-0.6-0.1-1.2-0.3-1.6C52,56.5,51.7,56.2,51.5,55.9z"/>
				<path class="st0" d="M58.6,59.6c-0.3-0.2-0.7-0.3-1-0.4c-0.4-0.1-0.7-0.2-1-0.3c-0.3-0.1-0.6-0.3-0.8-0.5
					c-0.2-0.2-0.3-0.5-0.3-0.9c0-0.3,0-0.5,0.1-0.7c0.1-0.2,0.2-0.4,0.4-0.5c0.1-0.1,0.3-0.2,0.5-0.3C56.6,56,56.8,56,57,56
					c0.4,0,0.8,0.1,1,0.3c0.3,0.2,0.5,0.5,0.6,0.8h0.2c0-0.1,0.1-0.4,0.2-0.6c0.1-0.3,0.2-0.5,0.3-0.7c-0.3-0.1-0.6-0.2-0.9-0.3
					c-0.3-0.1-0.7-0.2-1.1-0.2c-0.5,0-0.9,0.1-1.3,0.2c-0.4,0.1-0.7,0.3-1,0.6c-0.3,0.2-0.5,0.5-0.6,0.9c-0.1,0.3-0.2,0.7-0.2,1.1
					c0,0.5,0.1,0.9,0.3,1.2c0.2,0.3,0.5,0.5,0.8,0.7c0.3,0.2,0.7,0.3,1,0.4c0.4,0.1,0.7,0.2,1,0.3c0.3,0.1,0.6,0.3,0.8,0.5
					c0.2,0.2,0.3,0.5,0.3,0.9c0,0.3,0,0.5-0.1,0.7c-0.1,0.2-0.2,0.4-0.4,0.5c-0.2,0.1-0.4,0.2-0.6,0.3c-0.2,0.1-0.4,0.1-0.7,0.1
					c-0.3,0-0.5,0-0.7-0.1c-0.2-0.1-0.4-0.2-0.6-0.3c-0.2-0.1-0.3-0.3-0.5-0.4c-0.1-0.1-0.2-0.3-0.3-0.4h-0.2c0,0.2,0,0.4-0.1,0.7
					c-0.1,0.3-0.2,0.5-0.2,0.7c0.3,0.1,0.6,0.3,1,0.4c0.4,0.1,0.9,0.2,1.4,0.2c0.5,0,1-0.1,1.4-0.2c0.4-0.2,0.8-0.4,1-0.6
					c0.3-0.3,0.5-0.6,0.7-0.9c0.2-0.3,0.2-0.7,0.2-1c0-0.5-0.1-0.9-0.3-1.2C59.2,60,58.9,59.8,58.6,59.6z"/>
				<path class="st0" d="M67.9,55.9c-0.3-0.2-0.6-0.4-1-0.5c-0.4-0.1-0.7-0.1-1-0.1c-0.7,0-1.2,0.1-1.7,0.4
					c-0.5,0.3-0.9,0.7-1.2,1.2h0v-1.4c0-0.4,0-0.8,0-1.3c0-0.5,0-1,0-1.4c0-0.5,0-0.9,0-1.4c0-0.4,0.1-1.1,0.1-1.1s-0.6,0.7-1.6,0.7
					c0,0.6,0,1.1,0,1.1s0,0.1,0,0.6c0,0.5,0,1,0,1.5c0,0.5,0,0.9,0,1.4V59c0,0.4,0,0.9,0,1.4c0,0.5,0,1,0,1.5c0,0.5,0,0.9,0,1.4
					c0,0.4,0,0.8-0.1,1.1c0.3,0,0.6,0,0.8,0c0.3,0,0.5,0,0.8,0c0-0.3,0-0.6-0.1-1c0-0.4,0-0.9,0-1.3c0-0.5,0-0.9,0-1.4
					c0-0.5,0-0.9,0-1.2c0-1,0.2-1.7,0.6-2.2c0.4-0.5,1-0.8,1.9-0.8c0.6,0,1.1,0.2,1.5,0.7c0.4,0.5,0.5,1.2,0.5,2.1v1.1
					c0,0.7,0,1.4,0,2.1c0,0.7-0.1,1.3-0.1,2c0.2,0,0.5,0,0.8,0c0.3,0,0.5,0,0.8,0c0-0.2,0-0.4,0-0.5c0-0.2,0-0.4,0-0.6v-1.2
					c0-0.6,0-1.2,0-1.8c0-0.6,0-1.1,0-1.6c0-0.6-0.1-1.2-0.3-1.6C68.4,56.5,68.2,56.2,67.9,55.9z"/>
				<path class="st0" d="M77.9,56.3c-0.4-0.4-0.9-0.6-1.4-0.8c-0.5-0.2-1.1-0.2-1.6-0.2c-0.5,0-1.1,0.1-1.6,0.2
					c-0.5,0.2-1,0.4-1.4,0.8c-0.4,0.4-0.8,0.8-1,1.4c-0.3,0.6-0.4,1.3-0.4,2.1c0,0.8,0.1,1.5,0.4,2.1c0.3,0.6,0.6,1.1,1,1.4
					c0.4,0.4,0.9,0.6,1.4,0.8c0.5,0.1,1.1,0.2,1.6,0.2c0.5,0,1.1-0.1,1.6-0.2c0.5-0.1,1-0.4,1.4-0.8c0.4-0.4,0.8-0.8,1-1.4
					c0.3-0.6,0.4-1.3,0.4-2.1c0-0.8-0.1-1.5-0.4-2.1C78.7,57.2,78.4,56.7,77.9,56.3z M77.6,61.4c-0.1,0.5-0.2,0.9-0.5,1.3
					c-0.2,0.4-0.5,0.7-0.9,0.9c-0.4,0.2-0.8,0.3-1.4,0.3c-0.5,0-1-0.1-1.4-0.3c-0.4-0.2-0.7-0.5-0.9-0.9c-0.2-0.4-0.4-0.8-0.5-1.3
					c-0.1-0.5-0.1-1-0.1-1.5c0-0.5,0-1,0.1-1.5c0.1-0.5,0.2-0.9,0.5-1.3c0.2-0.4,0.5-0.7,0.9-0.9c0.4-0.2,0.8-0.3,1.4-0.3
					c0.5,0,1,0.1,1.4,0.3c0.4,0.2,0.7,0.5,0.9,0.9c0.2,0.4,0.4,0.8,0.5,1.3c0.1,0.5,0.1,1,0.1,1.5C77.8,60.4,77.7,60.9,77.6,61.4z"
					/>
				<path class="st0" d="M88.7,57.7c-0.3-0.6-0.6-1.1-1-1.4c-0.4-0.4-0.9-0.6-1.4-0.8c-0.5-0.2-1.1-0.2-1.6-0.2
					c-0.5,0-1.1,0.1-1.6,0.2c-0.5,0.2-1,0.4-1.4,0.8c-0.4,0.4-0.8,0.8-1,1.4c-0.3,0.6-0.4,1.3-0.4,2.1c0,0.8,0.1,1.5,0.4,2.1
					c0.3,0.6,0.6,1.1,1,1.4c0.4,0.4,0.9,0.6,1.4,0.8c0.5,0.1,1.1,0.2,1.6,0.2c0.5,0,1.1-0.1,1.6-0.2c0.5-0.1,1-0.4,1.4-0.8
					c0.4-0.4,0.8-0.8,1-1.4c0.3-0.6,0.4-1.3,0.4-2.1C89.1,59,89,58.3,88.7,57.7z M87.4,61.4c-0.1,0.5-0.2,0.9-0.5,1.3
					c-0.2,0.4-0.5,0.7-0.9,0.9c-0.4,0.2-0.8,0.3-1.4,0.3c-0.5,0-1-0.1-1.4-0.3c-0.4-0.2-0.7-0.5-0.9-0.9c-0.2-0.4-0.4-0.8-0.5-1.3
					c-0.1-0.5-0.1-1-0.1-1.5c0-0.5,0-1,0.1-1.5c0.1-0.5,0.2-0.9,0.5-1.3c0.2-0.4,0.5-0.7,0.9-0.9c0.4-0.2,0.8-0.3,1.4-0.3
					c0.5,0,1,0.1,1.4,0.3c0.4,0.2,0.7,0.5,0.9,0.9c0.2,0.4,0.4,0.8,0.5,1.3c0.1,0.5,0.1,1,0.1,1.5C87.5,60.4,87.5,60.9,87.4,61.4z"
					/>
				<path class="st0" d="M43.5,62.8c-0.2,0.2-0.4,0.3-0.7,0.4c-0.2,0.1-0.5,0.2-0.7,0.3c-0.2,0.1-0.5,0.1-0.7,0.1
					c-0.5,0-0.9-0.1-1.3-0.3c-0.4-0.2-0.7-0.4-1-0.7c-0.4-0.6-0.6-1.2-0.7-1.7c6.9-1.8,5.4-4,5.3-4.2c0,0-0.1-0.1-0.1-0.1
					c-0.3-0.3-0.6-0.6-1-0.8c-0.4-0.3-1.1-0.4-1.8-0.4c-2.5,0-3.9,1.8-4.1,3.1c-0.2,1.1-0.1,1.6,0,2.2c0,0,0,0.1,0,0.1
					c0,0,0,0.3,0.1,0.6c0.2,0.6,0.6,1.3,1.2,1.8c0.4,0.4,0.8,0.7,1.4,0.8c0.5,0.2,1.1,0.3,1.7,0.3c0.6,0,1.1-0.1,1.6-0.3
					c0.5-0.2,1-0.4,1.3-0.7l0.1-0.9L44,62.3C43.9,62.5,43.7,62.7,43.5,62.8z M38.3,59.7c0-0.2,0.1-0.7,0.1-0.7
					c0.3-1.8,0.8-2.3,0.9-2.3c0,0,0.1-0.1,0.1-0.1c0.2-0.2,0.5-0.4,0.9-0.5c0,0,0.9-0.3,1.6,0c0.8,0.3,1.3,1.1,0.4,2.2
					c0,0-0.8,0.8-1.9,1.2l-1.7,0.7c-0.1,0.1-0.2,0.1-0.4,0.2C38.3,60.2,38.3,60,38.3,59.7z"/>
				<path class="st0" d="M34.8,61.5c-0.2-0.2-0.4-0.5-0.6-0.7c-1-1.2-2-2.3-3-3.4c-0.1-0.1-0.1-0.1-0.1-0.2c0.5-0.4,1.1-0.9,1.3-1.2
					c0.5-0.5,1-1,1.5-1.5c0.5-0.5,1.1-1,1.6-1.5c0.5-0.5,1-0.9,1.4-1.3c-0.1,0-0.3,0-0.4,0.1c-0.1,0-0.3,0-0.4,0c-0.1,0-0.2,0-0.4,0
					c-0.1,0-0.2,0-0.4-0.1c-0.4,0.5-0.9,1-1.3,1.5c-0.5,0.5-0.9,1-1.4,1.5c-0.5,0.5-0.9,1-1.4,1.4c-0.5,0.5-0.9,0.9-1.3,1.2
					c-0.1,0.1-0.2,0.2-0.3,0.2c0,0,0,0,0,0c0,0,0-0.1,0-0.1v-1c0-0.8,0-1.6,0-2.4c0-0.8,0.1-3.1,0.1-3.1s-0.4,0.3-0.8,0.6
					c-0.4,0.3-0.9,0.5-0.9,0.5c0,0.8,0,1.3,0.1,2.1c0,0.8,0,1.6,0,2.4v3.2c0,0.8,0,1.6,0,2.4c0,0.5,0,1-0.1,1.4c0,0,0,0,0.1,0
					c0.6,0.1,1.1,0.2,1.7,0.3c0-0.6-0.1-1.2-0.1-1.8c0-0.8,0-1.6,0-2.4v-1.6c0-0.1,0-0.1,0.1-0.1c0,0,0.1,0,0.2,0.1
					c0.2,0.2,0.5,0.5,0.9,1c0.4,0.5,0.9,1,1.4,1.6c0.5,0.6,1,1.2,1.6,1.9c0.5,0.6,1,1.2,1.5,1.7c0.2,0,0.3,0,0.5,0
					c0.2,0,0.3,0,0.5,0c0.2,0,0.9,0,1.1,0c-0.7-0.8-1.5-1.6-2.2-2.5L34.8,61.5z"/>
			</g>
			<g>
				<path class="st0" d="M88.8,55.3v-0.8h-0.3v-0.1h0.7v0.1H89v0.8H88.8z"/>
				<path class="st0" d="M90.2,55.3v-0.8l-0.3,0.8h0l-0.3-0.8v0.8h-0.1v-0.9h0.2l0.3,0.7l0.3-0.7h0.2v0.9H90.2z"/>
			</g>
		</g>
	</g>
	<rect x="0" class="st1" width="113.4" height="113.4"/>
</g>
</svg>
