<?xml version="1.0" encoding="UTF-8" standalone="no"?>
<svg
   xmlns:dc="http://purl.org/dc/elements/1.1/"
   xmlns:cc="http://creativecommons.org/ns#"
   xmlns:rdf="http://www.w3.org/1999/02/22-rdf-syntax-ns#"
   xmlns:svg="http://www.w3.org/2000/svg"
   xmlns="http://www.w3.org/2000/svg"
   viewBox="0 0 1234.6667 465.58667"
   height="465.58667"
   width="1234.6667"
   xml:space="preserve"
   id="svg2"
   version="1.1"><metadata
     id="metadata8"><rdf:RDF><cc:Work
         rdf:about=""><dc:format>image/svg+xml</dc:format><dc:type
           rdf:resource="http://purl.org/dc/dcmitype/StillImage" /></cc:Work></rdf:RDF></metadata><defs
     id="defs6"><clipPath
       id="clipPath20"
       clipPathUnits="userSpaceOnUse"><path
         id="path18"
         d="M 0,0 H 9260 V 3491.9 H 0 Z" /></clipPath><clipPath
       id="clipPath32"
       clipPathUnits="userSpaceOnUse"><path
         id="path30"
         d="M 0,0 V 3492 H 9260 V 0 Z" /></clipPath><clipPath
       id="clipPath38"
       clipPathUnits="userSpaceOnUse"><path
         id="path36"
         d="m 175.793,1841.36 c 0,0 -254.3438,-191.01 -151.1602,-476.37 C 127.82,1079.64 745.379,891.309 1022.91,827.512 1376.05,746.328 2276.18,582.32 3873.63,566.488 c 2329.91,-23.078 4151.69,105.653 5386.38,424 0,0 -1059.69,-278.347 -4129.69,-285.847 C 3220.42,690.66 2069.07,795.891 1268.04,989.359 916.57,1074.49 662.82,1144.64 436.984,1261.31 89.2188,1430.51 29.1836,1639.02 175.793,1841.36 Z" /></clipPath><linearGradient
       id="linearGradient56"
       spreadMethod="pad"
       gradientTransform="matrix(9260.01,0,0,-9260.01,0,1202.62)"
       gradientUnits="userSpaceOnUse"
       y2="0"
       x2="1"
       y1="0"
       x1="0"><stop
         id="stop40"
         offset="0"
         style="stop-opacity:1;stop-color:#2b663e" /><stop
         id="stop42"
         offset="0.00317141"
         style="stop-opacity:1;stop-color:#2b663e" /><stop
         id="stop44"
         offset="0.07326152"
         style="stop-opacity:1;stop-color:#329d59" /><stop
         id="stop46"
         offset="0.090278"
         style="stop-opacity:1;stop-color:#329d59" /><stop
         id="stop48"
         offset="0.84513632"
         style="stop-opacity:1;stop-color:#b5dc17" /><stop
         id="stop50"
         offset="0.902264"
         style="stop-opacity:1;stop-color:#b5dc17" /><stop
         id="stop52"
         offset="0.98036361"
         style="stop-opacity:1;stop-color:#b5dc17" /><stop
         id="stop54"
         offset="1"
         style="stop-opacity:1;stop-color:#7ec16b" /></linearGradient><clipPath
       id="clipPath66"
       clipPathUnits="userSpaceOnUse"><path
         id="path64"
         d="M 0,0 V 3492 H 9260 V 0 Z" /></clipPath></defs><g
     transform="matrix(1.3333333,0,0,-1.3333333,0,465.58667)"
     id="g10"><g
       transform="scale(0.1)"
       id="g12"><g
         id="g14"><g
           clip-path="url(#clipPath20)"
           id="g16"><path
             id="path22"
             style="fill:#FFFFFF;fill-opacity:1;fill-rule:nonzero;stroke:none"
             d="m 2506.79,2929.18 c 0,0 -1091.17,-399.3 -1694.563,-704 110.664,317.83 221.173,635.42 298.093,864.46 81.02,241.23 125.94,402.26 125.94,402.26 C 1088.65,3338.71 976.41,3307.27 976.41,3307.27 L 645.699,2152.59 c -17.383,-9.26 -33.887,-18.27 -49.347,-27 -145.774,-82.29 -327.735,-189.33 -412.047,-324.11 -137.6995,-214.76 38.32,-355.98 38.32,-355.98 0,0 -95.73,107.48 87.426,267.75 45.332,39.66 135.98,128.11 273.621,222.96 l -178.465,-623.31 73.68,-38.46 c 84.418,237.46 176.535,504.33 271.433,775.8 80.293,62.07 475.42,280.3 613.71,350.08 665.18,335.64 1142.76,528.86 1142.76,528.86" /><path
             id="path24"
             style="fill:#FFFFFF;fill-opacity:1;fill-rule:nonzero;stroke:none"
             d="M 336.113,1074.49 396.496,1043.05 29.1836,0 336.113,1074.49" /></g></g><g
         id="g26"><g
           clip-path="url(#clipPath32)"
           id="g28"><g
             clip-path="url(#clipPath38)"
             id="g34"><path
               id="path58"
               style="fill:#FFFFFF;fill-opacity:1;fill-rule:nonzero;stroke:none"
               d="m 4292,563 v 1 h -231 v 1 h -126 v 1 h -101 v 1 h -77 v 1 h -63 v 1 h -52 v 1 h -53 v 1 h -41 v 1 h -40 v 1 h -40 v 1 h -37 v 1 h -32 v 1 h -31 v 1 h -32 v 1 h -32 v 1 h -26 v 1 h -27 v 1 h -26 v 1 h -27 v 1 h -26 v 1 h -23 v 1 h -22 v 1 h -23 v 1 h -23 v 1 h -23 v 1 h -21 v 1 h -20 v 1 h -20 v 1 h -19 v 1 h -20 v 1 h -20 v 1 h -19 v 1 h -18 v 1 h -18 v 1 h -17 v 1 h -18 v 1 h -17 v 1 h -18 v 1 h -17 v 1 h -16 v 1 h -16 v 1 h -15 v 1 h -16 v 1 h -16 v 1 h -16 v 1 h -15 v 1 h -15 v 1 h -14 v 1 h -14 v 1 h -15 v 1 h -14 v 1 h -14 v 1 h -15 v 1 h -14 v 1 h -13 v 1 h -13 v 1 h -13 v 1 h -13 v 1 h -13 v 1 h -13 v 1 h -14 v 1 h -13 v 1 h -12 v 1 h -12 v 1 h -12 v 1 h -12 v 1 h -12 v 1 h -12 v 1 h -12 v 1 h -12 v 1 h -12 v 1 h -11 v 1 h -11 v 1 h -11 v 1 h -12 v 1 h -11 v 1 h -11 v 1 h -11 v 1 h -11 v 1 h -11 v 1 h -10 v 1 h -11 v 1 h -10 v 1 h -11 v 1 h -10 v 1 h -10 v 1 h -11 v 1 h -10 v 1 h -11 v 1 h -9 v 1 h -10 v 1 h -10 v 1 h -9 v 1 h -10 v 1 h -10 v 1 h -10 v 1 h -9 v 1 h -10 v 1 h -9 v 1 h -10 v 1 h -9 v 1 h -9 v 1 h -9 v 1 h -9 v 1 h -9 v 1 h -9 v 1 h -9 v 1 h -9 v 1 h -9 v 1 h -9 v 1 h -8 v 1 h -9 v 1 h -8 v 1 h -9 v 1 h -9 v 1 h -8 v 1 h -9 v 1 h -8 v 1 h -9 v 1 h -8 v 1 h -8 v 1 h -8 v 1 h -8 v 1 h -8 v 1 h -8 v 1 h -8 v 1 h -8 v 1 h -8 v 1 h -8 v 1 h -8 v 1 h -8 v 1 h -7 v 1 h -8 v 1 h -8 v 1 h -7 v 1 h -8 v 1 h -8 v 1 h -7 v 1 h -8 v 1 h -7 v 1 h -7 v 1 h -8 v 1 h -7 v 1 h -7 v 1 h -8 v 1 h -7 v 1 h -7 v 1 h -7 v 1 h -8 v 1 h -7 v 1 h -7 v 1 h -6 v 1 h -7 v 1 h -7 v 1 h -7 v 1 h -7 v 1 h -7 v 1 h -7 v 1 h -7 v 1 h -7 v 1 h -6 v 1 h -7 v 1 h -6 v 1 h -7 v 1 h -7 v 1 h -6 v 1 h -7 v 1 h -6 v 1 h -7 v 1 h -6 v 1 h -7 v 1 h -6 v 1 h -6 v 1 h -7 v 1 h -6 v 1 h -6 v 1 h -6 v 1 h -7 v 1 h -6 v 1 h -6 v 1 h -6 v 1 h -6 v 1 h -7 v 1 h -6 v 1 h -6 v 1 h -6 v 1 h -6 v 1 h -6 v 1 h -6 v 1 h -6 v 1 h -6 v 1 h -5 v 1 h -6 v 1 h -6 v 1 h -6 v 1 h -5 v 1 h -6 v 1 h -6 v 1 h -6 v 1 h -5 v 1 h -6 v 1 h -6 v 1 h -5 v 1 h -6 v 1 h -5 v 1 h -6 v 1 h -5 v 1 h -6 v 1 h -5 v 1 h -6 v 1 h -5 v 1 h -6 v 1 h -5 v 1 h -5 v 1 h -5 v 1 h -6 v 1 h -5 v 1 h -5 v 1 h -6 v 1 h -5 v 1 h -5 v 1 h -5 v 1 h -5 v 1 h -5 v 1 h -6 v 1 h -5 v 1 h -5 v 1 h -5 v 1 h -5 v 1 h -5 v 1 h -5 v 1 h -5 v 1 h -5 v 1 h -5 v 1 h -5 v 1 h -5 v 1 h -4 v 1 h -5 v 1 h -5 v 1 h -5 v 1 h -5 v 1 h -4 v 1 h -5 v 1 h -5 v 1 h -5 v 1 h -4 v 1 h -5 v 1 h -5 v 1 h -4 v 1 h -5 v 1 h -5 v 1 h -4 v 1 h -5 v 1 h -4 v 1 h -5 v 1 h -4 v 1 h -5 v 1 h -4 v 1 h -5 v 1 h -4 v 1 h -4 v 1 h -5 v 1 h -4 v 1 h -5 v 1 h -4 v 1 h -4 v 1 h -4 v 1 h -5 v 1 h -4 v 1 h -4 v 1 h -4 v 1 h -4 v 1 h -4 v 1 h -4 v 1 h -5 v 1 h -4 v 1 h -4 v 1 h -4 v 1 h -4 v 1 h -3 v 1 h -4 v 1 h -4 v 1 h -4 v 1 h -4 v 1 h -4 v 1 h -4 v 1 h -3 v 1 h -4 v 1 h -4 v 1 h -4 v 1 h -4 v 1 h -3 v 1 h -4 v 1 h -4 v 1 h -3 v 1 h -4 v 1 h -4 v 1 h -3 v 1 h -4 v 1 h -4 v 1 h -3 v 1 h -4 v 1 h -3 v 1 h -4 v 1 h -3 v 1 h -4 v 1 h -3 v 1 h -4 v 1 h -3 v 1 h -4 v 1 h -3 v 1 h -4 v 1 h -3 v 1 h -3 v 1 h -4 v 1 h -3 v 1 h -4 v 1 h -3 v 1 h -3 v 1 h -4 v 1 h -3 v 1 h -3 v 1 h -4 v 1 h -3 v 1 h -3 v 1 h -3 v 1 h -4 v 1 h -3 v 1 h -3 v 1 h -3 v 1 h -4 v 1 h -3 v 1 h -3 v 1 h -3 v 1 h -3 v 1 h -3 v 1 h -4 v 1 h -3 v 1 h -3 v 1 h -3 v 1 h -3 v 1 h -3 v 1 h -3 v 1 h -3 v 1 h -3 v 1 h -4 v 1 h -3 v 1 h -3 v 1 h -3 v 1 h -3 v 1 h -3 v 1 h -3 v 1 h -2 v 1 h -3 v 1 h -3 v 1 h -3 v 1 h -3 v 1 h -3 v 1 h -3 v 1 h -3 v 1 h -3 v 1 h -3 v 1 h -3 v 1 h -3 v 1 h -3 v 1 h -2 v 1 h -3 v 1 h -3 v 1 h -3 v 1 h -3 v 1 h -3 v 1 h -3 v 1 h -2 v 1 h -3 v 1 h -3 v 1 h -3 v 1 h -2 v 1 h -3 v 1 h -3 v 1 h -3 v 1 h -2 v 1 h -3 v 1 h -3 v 1 h -3 v 1 h -2 v 1 h -3 v 1 h -3 v 1 h -2 v 1 h -3 v 1 h -3 v 1 h -2 v 1 h -3 v 1 h -3 v 1 h -2 v 1 h -3 v 1 h -3 v 1 h -2 v 1 h -3 v 1 h -2 v 1 h -3 v 1 h -3 v 1 h -2 v 1 h -3 v 1 h -2 v 1 h -3 v 1 h -2 v 1 h -3 v 1 h -2 v 1 h -3 v 1 h -2 v 1 h -3 v 1 h -2 v 1 h -3 v 1 h -2 v 1 h -3 v 1 h -2 v 1 h -3 v 1 h -2 v 1 h -3 v 1 h -2 v 1 h -2 v 1 h -3 v 1 h -2 v 1 h -3 v 1 h -2 v 1 h -2 v 1 h -3 v 1 h -2 v 1 h -3 v 1 h -2 v 1 h -2 v 1 h -3 v 1 h -2 v 1 h -2 v 1 h -3 v 1 h -2 v 1 h -2 v 1 h -3 v 1 h -2 v 1 h -2 v 1 h -2 v 1 h -3 v 1 h -2 v 1 h -2 v 1 h -3 v 1 h -2 v 1 h -2 v 1 h -2 v 1 h -3 v 1 h -2 v 1 h -2 v 1 h -2 v 1 h -2 v 1 h -3 v 1 h -2 v 1 h -2 v 1 h -2 v 1 h -2 v 1 h -2 v 1 h -3 v 1 h -2 v 1 h -2 v 1 h -2 v 1 h -2 v 1 h -2 v 1 h -3 v 1 h -2 v 1 h -2 v 1 h -2 v 1 h -2 v 1 h -2 v 1 h -2 v 1 h -2 v 1 h -2 v 1 h -2 v 1 h -2 v 1 h -2 v 1 h -2 v 1 h -2 v 1 h -2 v 1 h -2 v 1 h -3 v 1 h -2 v 1 h -2 v 1 h -2 v 1 h -2 v 1 h -1 v 1 h -2 v 1 h -2 v 1 h -2 v 1 h -2 v 1 h -2 v 1 h -2 v 1 h -2 v 1 h -2 v 1 h -2 v 1 h -2 v 1 h -2 v 1 h -2 v 1 h -2 v 1 h -2 v 1 h -2 v 1 h -2 v 1 h -1 v 1 h -2 v 1 h -2 v 1 h -2 v 1 h -2 v 1 h -1 v 1 h -2 v 1 h -2 v 1 h -2 v 1 h -2 v 1 h -2 v 1 h -1 v 1 h -2 v 1 h -2 v 1 h -2 v 1 h -2 v 1 h -2 v 1 h -1 v 1 h -2 v 1 h -2 v 1 h -2 v 1 h -1 v 1 h -2 v 1 h -2 v 1 h -1 v 1 h -2 v 1 h -2 v 1 h -2 v 1 h -1 v 1 h -2 v 1 h -2 v 1 h -1 v 1 h -2 v 1 h -2 v 1 h -2 v 1 h -1 v 1 h -2 v 1 h -2 v 1 h -1 v 1 h -2 v 1 h -2 v 1 h -1 v 1 h -2 v 1 h -1 v 1 h -2 v 1 h -2 v 1 h -1 v 1 h -2 v 1 h -1 v 1 h -2 v 1 h -2 v 1 h -1 v 1 h -2 v 1 h -1 v 1 h -2 v 1 h -2 v 1 h -1 v 1 h -2 v 1 h -1 v 1 h -2 v 1 h -1 v 1 h -2 v 1 h -1 v 1 h -2 v 1 h -1 v 1 h -2 v 1 h -1 v 1 h -2 v 1 h -1 v 1 h -2 v 1 h -1 v 1 h -2 v 1 h -1 v 1 h -2 v 1 h -1 v 1 h -2 v 1 h -1 v 1 h -2 v 1 h -1 v 1 h -1 v 1 h -2 v 1 h -1 v 1 h -2 v 1 h -1 v 1 h -1 v 1 h -2 v 1 h -1 v 1 h -1 v 1 h -2 v 1 h -1 v 1 h -2 v 1 h -1 v 1 h -1 v 1 h -2 v 1 h -1 v 1 h -1 v 1 h -2 v 1 h -1 v 1 h -1 v 1 h -2 v 1 h -1 v 1 h -2 v 1 h -1 v 1 h -1 v 1 h -1 v 1 h -2 v 1 h -1 v 1 h -1 v 1 h -1 v 1 h -2 v 1 h -1 v 1 h -1 v 1 h -1 v 1 h -2 v 1 h -1 v 1 h -1 v 1 h -1 v 1 h -2 v 1 h -1 v 1 h -1 v 1 h -1 v 1 h -2 v 1 h -1 v 1 h -1 v 1 h -1 v 1 h -1 v 1 h -2 v 1 h -1 v 1 h -1 v 1 h -1 v 1 h -1 v 1 h -1 v 1 h -1 v 1 h -1 v 1 h -2 v 1 h -1 v 1 h -1 v 1 h -1 v 1 h -1 v 1 h -1 v 1 h -1 v 1 h -2 v 1 h -1 v 1 h -1 v 1 h -1 v 1 h -1 v 1 h -1 v 1 h -1 v 1 h -1 v 1 h -1 v 1 h -1 v 1 h -1 v 1 h -1 v 1 h -1 v 1 h -1 v 1 h -1 v 1 h -1 v 1 h -1 v 1 h -1 v 1 h -1 v 1 h -1 v 1 h -2 v 1 h -1 v 1 h -1 v 1 h -1 v 1 h -1 v 1 h -1 v 1 h -1 v 1 h -1 v 1 h -1 v 1 h -1 v 1 h -1 v 2 h -1 v 1 h -1 v 1 h -1 v 1 h -1 v 1 h -1 v 1 h -1 v 1 h -1 v 1 h -1 v 1 h -1 v 2 h -1 v 1 h -1 v 1 h -1 v 1 h -1 v 1 h -1 v 1 h -1 v 1 h -1 v 1 h -1 v 1 h -1 v 2 h -1 v 1 h -1 v 1 h -1 v 1 h -1 v 1 h -1 v 2 h -1 v 1 h -1 v 1 h -1 v 2 h -1 v 1 h -1 v 1 h -1 v 1 h -1 v 2 h -1 v 1 h -1 v 1 h -1 v 1 h -1 v 2 h -1 v 1 h -1 v 1 h -1 v 2 h -1 v 1 h -1 v 1 h -1 v 2 h -1 v 1 h -1 v 2 h -1 v 1 h -1 v 2 h -1 v 1 h -1 v 2 h -1 v 1 h -1 v 2 h -1 v 1 h -1 v 2 h -1 v 1 h -1 v 2 h -1 v 1 h -1 v 2 h -1 v 1 h -1 v 2 h -1 v 2 h -1 v 1 h -1 v 2 h -1 v 2 h -1 v 2 h -1 v 2 h -1 v 2 h -1 v 2 h -1 v 1 h -1 v 2 h -1 v 2 h -1 v 2 h -1 v 2 h -1 v 2 h -1 v 2 h -1 v 2 h -1 v 3 h -1 v 2 h -1 v 2 h -1 v 3 h -1 v 2 h -1 v 3 h -1 v 2 h -1 v 2 h -1 v 3 h -1 v 2 h -1 v 4 h -1 v 3 h -1 v 3 h -1 v 3 h -1 v 3 h -1 v 3 h -1 v 3 h -1 v 3 h -1 v 4 h -1 v 4 h -1 v 4 h -1 v 3 h -1 v 4 h -1 v 4 H 9 v 5 H 8 v 5 H 7 v 5 H 6 v 5 H 5 v 6 H 4 v 7 H 3 v 8 H 2 v 8 H 1 v 13 H 0 v 50 h 1 v 13 h 1 v 8 h 1 v 8 h 1 v 7 h 1 v 5 h 1 v 5 h 1 v 5 h 1 v 6 h 1 v 4 h 1 v 4 h 1 v 4 h 1 v 4 h 1 v 4 h 1 v 3 h 1 v 3 h 1 v 3 h 1 v 4 h 1 v 3 h 1 v 3 h 1 v 3 h 1 v 3 h 1 v 2 h 1 v 3 h 1 v 3 h 1 v 3 h 1 v 2 h 1 v 3 h 1 v 2 h 1 v 2 h 1 v 3 h 1 v 2 h 1 v 3 h 1 v 2 h 1 v 2 h 1 v 2 h 1 v 3 h 1 v 2 h 1 v 2 h 1 v 2 h 1 v 2 h 1 v 2 h 1 v 2 h 1 v 2 h 1 v 2 h 1 v 2 h 1 v 2 h 1 v 2 h 1 v 2 h 1 v 1 h 1 v 2 h 1 v 2 h 1 v 2 h 1 v 2 h 1 v 1 h 1 v 2 h 1 v 2 h 1 v 2 h 1 v 1 h 1 v 2 h 1 v 2 h 1 v 1 h 1 v 2 h 1 v 2 h 1 v 1 h 1 v 2 h 1 v 1 h 1 v 2 h 1 v 1 h 1 v 2 h 1 v 2 h 1 v 1 h 1 v 2 h 1 v 1 h 1 v 2 h 1 v 1 h 1 v 1 h 1 v 2 h 1 v 1 h 1 v 2 h 1 v 1 h 1 v 2 h 1 v 1 h 1 v 1 h 1 v 2 h 1 v 1 h 1 v 1 h 1 v 2 h 1 v 1 h 1 v 2 h 1 v 1 h 1 v 1 h 1 v 1 h 1 v 2 h 1 v 1 h 1 v 1 h 1 v 2 h 1 v 1 h 1 v 1 h 1 v 1 h 1 v 2 h 1 v 1 h 1 v 1 h 1 v 1 h 1 v 1 h 1 v 2 h 1 v 1 h 1 v 1 h 1 v 1 h 1 v 1 h 1 v 2 h 1 v 1 h 1 v 1 h 1 v 1 h 1 v 1 h 1 v 1 h 1 v 1 h 1 v 2 h 1 v 1 h 1 v 1 h 1 v 1 h 1 v 1 h 1 v 1 h 1 v 1 h 1 v 1 h 1 v 1 h 1 v 1 h 1 v 2 h 1 v 1 h 1 v 1 h 1 v 1 h 1 v 1 h 1 v 1 h 1 v 1 h 1 v 1 h 1 v 1 h 1 v 1 h 1 v 1 h 1 v 1 h 1 v 1 h 1 v 1 h 1 v 1 h 1 v 1 h 1 v 1 h 1 v 1 h 1 v 1 h 1 v 1 h 1 v 1 h 1 v 1 h 1 v 1 h 2 v 1 h 1 v 1 h 1 v 1 h 1 v 1 h 1 v 1 h 1 v 1 h 1 v 1 h 1 v 1 h 1 v 1 h 1 v 1 h 2 v 1 h 1 v 1 h 1 v 1 h 1 v 1 h 1 v 1 h 1 v 1 h 2 v 1 h 1 v 1 h 1 v 1 h 1 v 1 h 2 v 1 h 1 v 1 h 1 v -2 h -1 v -2 h -1 v -1 h -1 v -2 h -1 v -1 h -1 v -2 h -1 v -1 h -1 v -2 h -1 v -1 h -1 v -2 h -1 v -2 h -1 v -1 h -1 v -2 h -1 v -1 h -1 v -2 h -1 v -1 h -1 v -2 h -1 v -1 h -1 v -2 h -1 v -1 h -1 v -2 h -1 v -1 h -1 v -2 h -1 v -1 h -1 v -2 h -1 v -2 h -1 v -1 h -1 v -2 h -1 v -2 h -1 v -2 h -1 v -2 h -1 v -2 h -1 v -2 h -1 v -2 h -1 v -2 h -1 v -2 h -1 v -1 h -1 v -2 h -1 v -2 h -1 v -2 h -1 v -2 h -1 v -2 h -1 v -2 h -1 v -2 h -1 v -2 h -1 v -2 h -1 v -2 h -1 v -3 h -1 v -2 h -1 v -3 h -1 v -3 h -1 v -2 h -1 v -3 h -1 v -2 h -1 v -3 h -1 v -2 h -1 v -3 h -1 v -2 h -1 v -3 h -1 v -2 h -1 v -4 h -1 v -4 h -1 v -4 h -1 v -3 h -1 v -4 h -1 v -4 h -1 v -4 h -1 v -4 h -1 v -4 h -1 v -4 h -1 v -7 h -1 v -9 h -1 v -8 h -1 v -9 h -1 v -30 h 1 v -16 h 1 v -6 h 1 v -5 h 1 v -6 h 1 v -6 h 1 v -6 h 1 v -5 h 1 v -3 h 1 v -3 h 1 v -3 h 1 v -3 h 1 v -3 h 1 v -3 h 1 v -3 h 1 v -3 h 1 v -3 h 1 v -4 h 1 v -3 h 1 v -3 h 1 v -2 h 1 v -2 h 1 v -2 h 1 v -2 h 1 v -2 h 1 v -2 h 1 v -2 h 1 v -2 h 1 v -2 h 1 v -2 h 1 v -2 h 1 v -2 h 1 v -2 h 1 v -2 h 1 v -2 h 1 v -2 h 1 v -2 h 1 v -2 h 1 v -2 h 1 v -1 h 1 v -2 h 1 v -1 h 1 v -2 h 1 v -2 h 1 v -1 h 1 v -2 h 1 v -1 h 1 v -2 h 1 v -1 h 1 v -2 h 1 v -1 h 1 v -2 h 1 v -1 h 1 v -2 h 1 v -1 h 1 v -2 h 1 v -1 h 1 v -2 h 1 v -1 h 1 v -2 h 1 v -1 h 1 v -2 h 1 v -1 h 1 v -1 h 1 v -1 h 1 v -2 h 1 v -1 h 1 v -1 h 1 v -1 h 1 v -1 h 1 v -2 h 1 v -1 h 1 v -1 h 1 v -1 h 1 v -1 h 1 v -2 h 1 v -1 h 1 v -1 h 1 v -1 h 1 v -1 h 1 v -2 h 1 v -1 h 1 v -1 h 1 v -1 h 1 v -1 h 1 v -2 h 1 v -1 h 1 v -1 h 1 v -1 h 1 v -1 h 1 v -2 h 1 v -1 h 1 v -1 h 1 v -1 h 1 v -1 h 1 v -1 h 1 v -1 h 1 v -1 h 2 v -1 h 1 v -1 h 1 v -1 h 1 v -1 h 1 v -1 h 1 v -1 h 1 v -1 h 1 v -1 h 1 v -1 h 1 v -1 h 1 v -1 h 1 v -1 h 1 v -1 h 1 v -1 h 1 v -1 h 1 v -1 h 1 v -1 h 1 v -1 h 1 v -1 h 1 v -1 h 1 v -1 h 1 v -1 h 1 v -1 h 1 v -1 h 1 v -1 h 1 v -1 h 1 v -1 h 1 v -1 h 1 v -1 h 1 v -1 h 2 v -1 h 1 v -1 h 1 v -1 h 1 v -1 h 2 v -1 h 1 v -1 h 1 v -1 h 1 v -1 h 1 v -1 h 2 v -1 h 1 v -1 h 1 v -1 h 1 v -1 h 2 v -1 h 1 v -1 h 1 v -1 h 1 v -1 h 1 v -1 h 2 v -1 h 1 v -1 h 1 v -1 h 1 v -1 h 2 v -1 h 1 v -1 h 1 v -1 h 1 v -1 h 1 v -1 h 2 v -1 h 1 v -1 h 1 v -1 h 1 v -1 h 2 v -1 h 1 v -1 h 1 v -1 h 2 v -1 h 1 v -1 h 1 v -1 h 2 v -1 h 1 v -1 h 2 v -1 h 1 v -1 h 2 v -1 h 1 v -1 h 2 v -1 h 1 v -1 h 1 v -1 h 2 v -1 h 1 v -1 h 2 v -1 h 1 v -1 h 2 v -1 h 1 v -1 h 2 v -1 h 1 v -1 h 1 v -1 h 2 v -1 h 1 v -1 h 2 v -1 h 1 v -1 h 2 v -1 h 1 v -1 h 1 v -1 h 2 v -1 h 1 v -1 h 2 v -1 h 1 v -1 h 2 v -1 h 1 v -1 h 2 v -1 h 2 v -1 h 1 v -1 h 2 v -1 h 2 v -1 h 1 v -1 h 2 v -1 h 2 v -1 h 1 v -1 h 2 v -1 h 2 v -1 h 1 v -1 h 2 v -1 h 2 v -1 h 1 v -1 h 2 v -1 h 2 v -1 h 1 v -1 h 2 v -1 h 2 v -1 h 1 v -1 h 2 v -1 h 2 v -1 h 1 v -1 h 2 v -1 h 2 v -1 h 1 v -1 h 2 v -1 h 2 v -1 h 1 v -1 h 2 v -1 h 2 v -1 h 2 v -1 h 1 v -1 h 2 v -1 h 2 v -1 h 2 v -1 h 2 v -1 h 2 v -1 h 2 v -1 h 2 v -1 h 2 v -1 h 2 v -1 h 2 v -1 h 2 v -1 h 2 v -1 h 1 v -1 h 2 v -1 h 2 v -1 h 2 v -1 h 2 v -1 h 2 v -1 h 2 v -1 h 2 v -1 h 2 v -1 h 2 v -1 h 2 v -1 h 2 v -1 h 2 v -1 h 1 v -1 h 2 v -1 h 2 v -1 h 2 v -1 h 2 v -1 h 2 v -1 h 2 v -1 h 2 v -1 h 2 v -1 h 2 v -1 h 2 v -1 h 2 v -1 h 2 v -1 h 2 v -1 h 2 v -1 h 2 v -1 h 2 v -1 h 2 v -1 h 2 v -1 h 2 v -1 h 2 v -1 h 2 v -1 h 2 v -1 h 2 v -1 h 2 v -1 h 2 v -1 h 2 v -1 h 2 v -1 h 2 v -1 h 2 v -1 h 3 v -1 h 2 v -1 h 2 v -1 h 2 v -1 h 2 v -1 h 2 v -1 h 2 v -1 h 3 v -1 h 2 v -1 h 2 v -1 h 2 v -1 h 2 v -1 h 2 v -1 h 2 v -1 h 3 v -1 h 2 v -1 h 2 v -1 h 2 v -1 h 2 v -1 h 3 v -1 h 2 v -1 h 2 v -1 h 2 v -1 h 3 v -1 h 2 v -1 h 2 v -1 h 3 v -1 h 2 v -1 h 2 v -1 h 2 v -1 h 3 v -1 h 2 v -1 h 2 v -1 h 2 v -1 h 3 v -1 h 2 v -1 h 2 v -1 h 3 v -1 h 2 v -1 h 3 v -1 h 2 v -1 h 3 v -1 h 2 v -1 h 2 v -1 h 3 v -1 h 2 v -1 h 3 v -1 h 2 v -1 h 3 v -1 h 2 v -1 h 2 v -1 h 3 v -1 h 2 v -1 h 3 v -1 h 2 v -1 h 3 v -1 h 2 v -1 h 3 v -1 h 2 v -1 h 3 v -1 h 3 v -1 h 2 v -1 h 3 v -1 h 2 v -1 h 3 v -1 h 3 v -1 h 2 v -1 h 3 v -1 h 2 v -1 h 3 v -1 h 3 v -1 h 2 v -1 h 3 v -1 h 2 v -1 h 3 v -1 h 3 v -1 h 3 v -1 h 2 v -1 h 3 v -1 h 3 v -1 h 3 v -1 h 2 v -1 h 3 v -1 h 3 v -1 h 3 v -1 h 2 v -1 h 3 v -1 h 3 v -1 h 3 v -1 h 2 v -1 h 3 v -1 h 3 v -1 h 3 v -1 h 3 v -1 h 3 v -1 h 3 v -1 h 3 v -1 h 3 v -1 h 3 v -1 h 3 v -1 h 2 v -1 h 3 v -1 h 3 v -1 h 3 v -1 h 3 v -1 h 3 v -1 h 3 v -1 h 3 v -1 h 3 v -1 h 3 v -1 h 3 v -1 h 3 v -1 h 3 v -1 h 4 v -1 h 3 v -1 h 3 v -1 h 3 v -1 h 3 v -1 h 3 v -1 h 3 v -1 h 3 v -1 h 3 v -1 h 3 v -1 h 4 v -1 h 3 v -1 h 3 v -1 h 3 v -1 h 4 v -1 h 3 v -1 h 3 v -1 h 3 v -1 h 4 v -1 h 3 v -1 h 3 v -1 h 3 v -1 h 4 v -1 h 3 v -1 h 3 v -1 h 3 v -1 h 4 v -1 h 3 v -1 h 3 v -1 h 4 v -1 h 3 v -1 h 4 v -1 h 3 v -1 h 4 v -1 h 3 v -1 h 3 v -1 h 4 v -1 h 3 v -1 h 4 v -1 h 3 v -1 h 3 v -1 h 4 v -1 h 3 v -1 h 4 v -1 h 4 v -1 h 3 v -1 h 4 v -1 h 3 v -1 h 4 v -1 h 3 v -1 h 4 v -1 h 3 v -1 h 4 v -1 h 4 v -1 h 3 v -1 h 4 v -1 h 3 v -1 h 4 v -1 h 4 v -1 h 3 v -1 h 4 v -1 h 4 v -1 h 3 v -1 h 4 v -1 h 4 v -1 h 4 v -1 h 3 v -1 h 4 v -1 h 4 v -1 h 3 v -1 h 4 v -1 h 4 v -1 h 4 v -1 h 3 v -1 h 4 v -1 h 4 v -1 h 4 v -1 h 4 v -1 h 3 v -1 h 4 v -1 h 4 v -1 h 4 v -1 h 4 v -1 h 4 v -1 h 3 v -1 h 4 v -1 h 4 v -1 h 4 v -1 h 4 v -1 h 4 v -1 h 4 v -1 h 4 v -1 h 4 v -1 h 4 v -1 h 4 v -1 h 3 v -1 h 4 v -1 h 4 v -1 h 4 v -1 h 4 v -1 h 4 v -1 h 4 v -1 h 4 v -1 h 4 v -1 h 4 v -1 h 4 v -1 h 4 v -1 h 4 v -1 h 4 v -1 h 4 v -1 h 4 v -1 h 4 v -1 h 4 v -1 h 4 v -1 h 4 v -1 h 4 v -1 h 4 v -1 h 4 v -1 h 4 v -1 h 5 v -1 h 4 v -1 h 4 v -1 h 4 v -1 h 4 v -1 h 4 v -1 h 4 v -1 h 4 v -1 h 4 v -1 h 4 v -1 h 5 v -1 h 4 v -1 h 4 v -1 h 4 v -1 h 4 v -1 h 4 v -1 h 4 v -1 h 5 v -1 h 4 v -1 h 4 v -1 h 4 v -1 h 5 v -1 h 4 v -1 h 4 v -1 h 4 v -1 h 5 v -1 h 4 v -1 h 4 v -1 h 4 v -1 h 5 v -1 h 4 v -1 h 4 v -1 h 4 v -1 h 5 v -1 h 4 v -1 h 5 v -1 h 4 v -1 h 5 v -1 h 4 v -1 h 5 v -1 h 4 v -1 h 5 v -1 h 4 v -1 h 5 v -1 h 4 v -1 h 5 v -1 h 4 v -1 h 5 v -1 h 4 v -1 h 5 v -1 h 5 v -1 h 4 v -1 h 5 v -1 h 5 v -1 h 5 v -1 h 4 v -1 h 5 v -1 h 5 v -1 h 5 v -1 h 5 v -1 h 4 v -1 h 5 v -1 h 5 v -1 h 5 v -1 h 4 v -1 h 5 v -1 h 5 v -1 h 5 v -1 h 5 v -1 h 5 v -1 h 5 v -1 h 5 v -1 h 5 v -1 h 5 v -1 h 5 v -1 h 6 v -1 h 5 v -1 h 5 v -1 h 5 v -1 h 5 v -1 h 5 v -1 h 5 v -1 h 5 v -1 h 5 v -1 h 6 v -1 h 5 v -1 h 5 v -1 h 6 v -1 h 5 v -1 h 6 v -1 h 5 v -1 h 5 v -1 h 6 v -1 h 5 v -1 h 6 v -1 h 5 v -1 h 5 v -1 h 6 v -1 h 5 v -1 h 6 v -1 h 5 v -1 h 6 v -1 h 6 v -1 h 6 v -1 h 5 v -1 h 6 v -1 h 6 v -1 h 6 v -1 h 5 v -1 h 6 v -1 h 6 v -1 h 6 v -1 h 5 v -1 h 6 v -1 h 6 v -1 h 6 v -1 h 6 v -1 h 6 v -1 h 7 v -1 h 6 v -1 h 6 v -1 h 6 v -1 h 6 v -1 h 6 v -1 h 6 v -1 h 7 v -1 h 6 v -1 h 6 v -1 h 6 v -1 h 6 v -1 h 7 v -1 h 6 v -1 h 7 v -1 h 7 v -1 h 6 v -1 h 7 v -1 h 6 v -1 h 7 v -1 h 6 v -1 h 7 v -1 h 7 v -1 h 6 v -1 h 7 v -1 h 6 v -1 h 7 v -1 h 7 v -1 h 7 v -1 h 8 v -1 h 7 v -1 h 7 v -1 h 7 v -1 h 7 v -1 h 7 v -1 h 7 v -1 h 7 v -1 h 7 v -1 h 7 v -1 h 7 v -1 h 8 v -1 h 7 v -1 h 8 v -1 h 7 v -1 h 8 v -1 h 8 v -1 h 7 v -1 h 8 v -1 h 7 v -1 h 8 v -1 h 7 v -1 h 8 v -1 h 8 v -1 h 8 v -1 h 8 v -1 h 8 v -1 h 8 v -1 h 9 v -1 h 8 v -1 h 8 v -1 h 8 v -1 h 8 v -1 h 8 v -1 h 8 v -1 h 9 v -1 h 8 v -1 h 9 v -1 h 9 v -1 h 9 v -1 h 9 v -1 h 8 v -1 h 9 v -1 h 9 v -1 h 9 v -1 h 8 v -1 h 9 v -1 h 9 v -1 h 10 v -1 h 9 v -1 h 10 v -1 h 9 v -1 h 10 v -1 h 9 v -1 h 10 v -1 h 9 v -1 h 10 v -1 h 9 v -1 h 10 v -1 h 10 v -1 h 11 v -1 h 10 v -1 h 10 v -1 h 11 v -1 h 10 v -1 h 10 v -1 h 10 v -1 h 11 v -1 h 10 v -1 h 11 v -1 h 11 v -1 h 11 v -1 h 12 v -1 h 11 v -1 h 11 v -1 h 11 v -1 h 12 v -1 h 11 v -1 h 11 v -1 h 12 v -1 h 12 v -1 h 12 v -1 h 13 v -1 h 12 v -1 h 12 v -1 h 13 v -1 h 12 v -1 h 12 v -1 h 13 v -1 h 13 v -1 h 14 v -1 h 13 v -1 h 14 v -1 h 13 v -1 h 14 v -1 h 13 v -1 h 14 v -1 h 14 v -1 h 14 v -1 h 15 v -1 h 15 v -1 h 15 v -1 h 15 v -1 h 15 v -1 h 15 v -1 h 15 v -1 h 16 v -1 h 17 v -1 h 17 v -1 h 16 v -1 h 17 v -1 h 16 v -1 h 17 v -1 h 17 v -1 h 19 v -1 h 19 v -1 h 18 v -1 h 19 v -1 h 18 v -1 h 19 v -1 h 20 v -1 h 21 v -1 h 20 v -1 h 21 v -1 h 21 v -1 h 21 v -1 h 22 v -1 h 24 v -1 h 24 v -1 h 24 v -1 h 23 v -1 h 24 v -1 h 26 v -1 h 28 v -1 h 28 v -1 h 27 v -1 h 28 v -1 h 30 v -1 h 32 v -1 h 33 v -1 h 32 v -1 h 33 v -1 h 39 v -1 h 40 v -1 h 39 v -1 h 41 v -1 h 49 v -1 h 49 v -1 h 51 v -1 h 64 v -1 h 63 v -1 h 82 v -1 h 90 v -1 h 145 v -1 h 425 v 1 h 211 v 1 h 171 v 1 h 110 v 1 h 91 v 1 h 80 v 1 h 67 v 1 h 65 v 1 h 56 v 1 h 54 v 1 h 50 v 1 h 47 v 1 h 47 v 1 h 42 v 1 h 41 v 1 h 42 v 1 h 37 v 1 h 36 v 1 h 37 v 1 h 34 v 1 h 33 v 1 h 33 v 1 h 32 v 1 h 30 v 1 h 30 v 1 h 30 v 1 h 29 v 1 h 27 v 1 h 28 v 1 h 27 v 1 h 27 v 1 h 25 v 1 h 25 v 1 h 25 v 1 h 25 v 1 h 24 v 1 h 23 v 1 h 23 v 1 h 24 v 1 h 23 v 1 h 21 v 1 h 22 v 1 h 21 v 1 h 22 v 1 h 21 v 1 h 20 v 1 h 20 v 1 h 21 v 1 h 20 v 1 h 19 v 1 h 19 v 1 h 19 v 1 h 19 v 1 h 19 v 1 h 19 v 1 h 18 v 1 h 17 v 1 h 18 v 1 h 18 v 1 h 18 v 1 h 17 v 1 h 16 v 1 h 17 v 1 h 17 v 1 h 17 v 1 h 16 v 1 h 16 v 1 h 16 v 1 h 16 v 1 h 16 v 1 h 16 v 1 h 15 v 1 h 15 v 1 h 15 v 1 h 15 v 1 h 16 v 1 h 15 v 1 h 14 v 1 h 14 v 1 h 15 v 1 h 14 v 1 h 14 v 1 h 15 v 1 h 13 v 1 h 14 v 1 h 14 v 1 h 13 v 1 h 14 v 1 h 13 v 1 h 14 v 1 h 13 v 1 h 13 v 1 h 13 v 1 h 13 v 1 h 13 v 1 h 12 v 1 h 13 v 1 h 12 v 1 h 13 v 1 h 12 v 1 h 12 v 1 h 13 v 1 h 12 v 1 h 12 v 1 h 11 v 1 h 12 v 1 h 12 v 1 h 12 v 1 h 12 v 1 h 11 v 1 h 11 v 1 h 12 v 1 h 11 v 1 h 11 v 1 h 12 v 1 h 11 v 1 h 10 v 1 h 11 v 1 h 11 v 1 h 11 v 1 h 11 v 1 h 11 v 1 h 10 v 1 h 11 v 1 h 10 v 1 h 11 v 1 h 10 v 1 h 11 v 1 h 10 v 1 h 10 v 1 h 10 v 1 h 10 v 1 h 10 v 1 h 10 v 1 h 10 v 1 h 10 v 1 h 9 v 1 h 10 v 1 h 10 v 1 h 10 v 1 h 9 v 1 h 10 v 1 h 9 v 1 h 9 v 1 h 10 v 1 h 9 v 1 h 9 v 1 h 10 v 1 h 9 v 1 h 9 v 1 h 9 v 1 h 9 v 1 h 9 v 1 h 9 v 1 h 8 v 1 h 9 v 1 h 9 v 1 h 9 v 1 h 8 v 1 h 9 v 1 h 9 v 1 h 8 v 1 h 9 v 1 h 8 v 1 h 8 v 1 h 9 v 1 h 8 v 1 h 8 v 1 h 9 v 1 h 8 v 1 h 8 v 1 h 8 v 1 h 8 v 1 h 8 v 1 h 8 v 1 h 8 v 1 h 8 v 1 h 8 v 1 h 8 v 1 h 8 v 1 h 7 v 1 h 8 v 1 h 7 v 1 h 8 v 1 h 8 v 1 h 7 v 1 h 8 v 1 h 7 v 1 h 8 v 1 h 7 v 1 h 7 v 1 h 8 v 1 h 7 v 1 h 7 v 1 h 8 v 1 h 7 v 1 h 7 v 1 h 7 v 1 h 7 v 1 h 7 v 1 h 7 v 1 h 7 v 1 h 7 v 1 h 7 v 1 h 7 v 1 h 7 v 1 h 6 v 1 h 7 v 1 h 7 v 1 h 7 v 1 h 6 v 1 h 7 v 1 h 7 v 1 h 6 v 1 h 7 v 1 h 6 v 1 h 7 v 1 h 6 v 1 h 6 v 1 h 7 v 1 h 6 v 1 h 7 v 1 h 6 v 1 h 6 v 1 h 6 v 1 h 6 v 1 h 7 v 1 h 6 v 1 h 6 v 1 h 6 v 1 h 6 v 1 h 6 v 1 h 6 v 1 h 6 v 1 h 6 v 1 h 6 v 1 h 6 v 1 h 5 v 1 h 6 v 1 h 6 v 1 h 6 v 1 h 5 v 1 h 6 v 1 h 6 v 1 h 5 v 1 h 6 v 1 h 5 v 1 h 6 v 1 h 5 v 1 h 6 v 1 h 5 v 1 h 6 v 1 h 5 v 1 h 5 v 1 h 6 v 1 h 5 v 1 h 5 v 1 h 5 v 1 h 5 v 1 h 6 v 1 h 5 v 1 h 5 v 1 h 5 v 1 h 5 v 1 h 5 v 1 h 5 v 1 h 5 v 1 h 4 v 1 h 5 v 1 h 5 v 1 h 5 v 1 h 5 v 1 h 4 v 1 h 5 v 1 h 5 v 1 h 4 v 1 h 5 v 1 h 4 v 1 h 5 v 1 h 4 v 1 h 5 v 1 h 4 v 1 h 4 v 1 h 4 v 1 h 5 v 1 h 4 v 1 h 4 v 1 h 2 v -1 h -1 v -1 h -4 v -1 h -4 v -1 h -4 v -1 h -5 v -1 h -4 v -1 h -4 v -1 h -4 v -1 h -4 v -1 h -4 v -1 h -4 v -1 h -4 v -1 h -4 v -1 h -4 v -1 h -4 v -1 h -4 v -1 h -4 v -1 h -4 v -1 h -4 v -1 h -4 v -1 h -4 v -1 h -4 v -1 h -4 v -1 h -4 v -1 h -4 v -1 h -4 v -1 h -4 v -1 h -4 v -1 h -4 v -1 h -4 v -1 h -4 v -1 h -4 v -1 h -5 v -1 h -4 v -1 h -4 v -1 h -5 v -1 h -4 v -1 h -4 v -1 h -4 v -1 h -5 v -1 h -4 v -1 h -4 v -1 h -5 v -1 h -4 v -1 h -4 v -1 h -4 v -1 h -5 v -1 h -4 v -1 h -4 v -1 h -5 v -1 h -4 v -1 h -4 v -1 h -4 v -1 h -5 v -1 h -4 v -1 h -4 v -1 h -5 v -1 h -4 v -1 h -4 v -1 h -5 v -1 h -5 v -1 h -4 v -1 h -5 v -1 h -4 v -1 h -5 v -1 h -5 v -1 h -4 v -1 h -5 v -1 h -4 v -1 h -5 v -1 h -5 v -1 h -4 v -1 h -5 v -1 h -4 v -1 h -5 v -1 h -5 v -1 h -4 v -1 h -5 v -1 h -4 v -1 h -5 v -1 h -4 v -1 h -5 v -1 h -5 v -1 h -4 v -1 h -5 v -1 h -5 v -1 h -5 v -1 h -5 v -1 h -4 v -1 h -5 v -1 h -5 v -1 h -5 v -1 h -5 v -1 h -5 v -1 h -5 v -1 h -5 v -1 h -5 v -1 h -5 v -1 h -5 v -1 h -4 v -1 h -5 v -1 h -5 v -1 h -5 v -1 h -5 v -1 h -5 v -1 h -5 v -1 h -5 v -1 h -5 v -1 h -5 v -1 h -5 v -1 h -4 v -1 h -6 v -1 h -5 v -1 h -5 v -1 h -6 v -1 h -5 v -1 h -5 v -1 h -5 v -1 h -6 v -1 h -5 v -1 h -5 v -1 h -5 v -1 h -6 v -1 h -5 v -1 h -5 v -1 h -5 v -1 h -6 v -1 h -5 v -1 h -5 v -1 h -5 v -1 h -6 v -1 h -5 v -1 h -5 v -1 h -5 v -1 h -6 v -1 h -5 v -1 h -6 v -1 h -5 v -1 h -6 v -1 h -6 v -1 h -5 v -1 h -6 v -1 h -5 v -1 h -6 v -1 h -6 v -1 h -5 v -1 h -6 v -1 h -6 v -1 h -5 v -1 h -6 v -1 h -6 v -1 h -5 v -1 h -6 v -1 h -6 v -1 h -5 v -1 h -6 v -1 h -5 v -1 h -6 v -1 h -6 v -1 h -5 v -1 h -6 v -1 h -7 v -1 h -6 v -1 h -6 v -1 h -6 v -1 h -6 v -1 h -6 v -1 h -6 v -1 h -6 v -1 h -6 v -1 h -6 v -1 h -6 v -1 h -6 v -1 h -6 v -1 h -6 v -1 h -6 v -1 h -6 v -1 h -6 v -1 h -6 v -1 h -6 v -1 h -7 v -1 h -6 v -1 h -6 v -1 h -6 v -1 h -7 v -1 h -6 v -1 h -7 v -1 h -6 v -1 h -7 v -1 h -6 v -1 h -7 v -1 h -6 v -1 h -7 v -1 h -6 v -1 h -7 v -1 h -6 v -1 h -7 v -1 h -6 v -1 h -7 v -1 h -6 v -1 h -7 v -1 h -6 v -1 h -7 v -1 h -6 v -1 h -7 v -1 h -7 v -1 h -7 v -1 h -7 v -1 h -7 v -1 h -7 v -1 h -7 v -1 h -7 v -1 h -7 v -1 h -7 v -1 h -7 v -1 h -7 v -1 h -7 v -1 h -7 v -1 h -7 v -1 h -7 v -1 h -7 v -1 h -7 v -1 h -7 v -1 h -7 v -1 h -7 v -1 h -8 v -1 h -7 v -1 h -8 v -1 h -7 v -1 h -8 v -1 h -7 v -1 h -8 v -1 h -7 v -1 h -8 v -1 h -8 v -1 h -7 v -1 h -8 v -1 h -7 v -1 h -8 v -1 h -7 v -1 h -8 v -1 h -7 v -1 h -8 v -1 h -7 v -1 h -8 v -1 h -8 v -1 h -8 v -1 h -9 v -1 h -8 v -1 h -8 v -1 h -8 v -1 h -8 v -1 h -8 v -1 h -8 v -1 h -9 v -1 h -8 v -1 h -8 v -1 h -8 v -1 h -8 v -1 h -8 v -1 h -8 v -1 h -9 v -1 h -8 v -1 h -8 v -1 h -9 v -1 h -9 v -1 h -9 v -1 h -9 v -1 h -8 v -1 h -9 v -1 h -9 v -1 h -9 v -1 h -9 v -1 h -8 v -1 h -9 v -1 h -9 v -1 h -9 v -1 h -9 v -1 h -9 v -1 h -8 v -1 h -9 v -1 h -10 v -1 h -9 v -1 h -10 v -1 h -10 v -1 h -9 v -1 h -10 v -1 h -9 v -1 h -10 v -1 h -9 v -1 h -10 v -1 h -9 v -1 h -10 v -1 h -10 v -1 h -9 v -1 h -10 v -1 h -9 v -1 h -11 v -1 h -10 v -1 h -10 v -1 h -11 v -1 h -10 v -1 h -10 v -1 h -11 v -1 h -10 v -1 h -11 v -1 h -10 v -1 h -10 v -1 h -11 v -1 h -10 v -1 h -11 v -1 h -10 v -1 h -11 v -1 h -11 v -1 h -11 v -1 h -12 v -1 h -11 v -1 h -12 v -1 h -11 v -1 h -11 v -1 h -12 v -1 h -11 v -1 h -11 v -1 h -12 v -1 h -11 v -1 h -11 v -1 h -12 v -1 h -12 v -1 h -12 v -1 h -13 v -1 h -12 v -1 h -13 v -1 h -12 v -1 h -13 v -1 h -12 v -1 h -12 v -1 h -13 v -1 h -12 v -1 h -13 v -1 h -12 v -1 h -13 v -1 h -14 v -1 h -14 v -1 h -13 v -1 h -14 v -1 h -14 v -1 h -13 v -1 h -14 v -1 h -14 v -1 h -13 v -1 h -14 v -1 h -14 v -1 h -14 v -1 h -15 v -1 h -15 v -1 h -15 v -1 h -15 v -1 h -15 v -1 h -15 v -1 h -16 v -1 h -15 v -1 h -15 v -1 h -15 v -1 h -15 v -1 h -16 v -1 h -17 v -1 h -17 v -1 h -17 v -1 h -17 v -1 h -17 v -1 h -17 v -1 h -17 v -1 h -16 v -1 h -17 v -1 h -17 v -1 h -19 v -1 h -19 v -1 h -19 v -1 h -19 v -1 h -19 v -1 h -19 v -1 h -19 v -1 h -19 v -1 h -19 v -1 h -20 v -1 h -22 v -1 h -21 v -1 h -22 v -1 h -21 v -1 h -22 v -1 h -21 v -1 h -22 v -1 h -22 v -1 h -24 v -1 h -25 v -1 h -25 v -1 h -24 v -1 h -25 v -1 h -24 v -1 h -25 v -1 h -27 v -1 h -28 v -1 h -29 v -1 h -29 v -1 h -29 v -1 h -28 v -1 h -29 v -1 h -33 v -1 h -35 v -1 h -34 v -1 h -34 v -1 h -34 v -1 h -36 v -1 h -41 v -1 h -42 v -1 h -42 v -1 h -41 v -1 h -48 v -1 h -53 v -1 h -52 v -1 h -53 v -1 h -67 v -1 h -71 v -1 h -72 v -1 h -105 v -1 h -110 v -1 h -292 v -1" /></g></g></g><g
         id="g60"><g
           clip-path="url(#clipPath66)"
           id="g62"><path
             id="path68"
             style="fill:#FFFFFF;fill-opacity:1;fill-rule:nonzero;stroke:none"
             d="m 4038.06,1830.5 c -31.96,27.01 -67.75,46.05 -107.35,57.17 -39.63,11.06 -78.89,16.63 -117.79,16.63 -75.07,0 -139.71,-16.32 -193.91,-48.85 -54.2,-32.56 -100.76,-78.64 -139.66,-138.21 h -4.16 c 0,55.41 2.07,110.83 6.23,166.27 -18.02,-2.8 -33.61,-5.2 -46.76,-7.27 -13.18,-2.09 -25.29,-3.11 -36.38,-3.11 -23.56,0 -54.74,3.42 -93.52,10.38 6.93,-59.6 11.43,-123.67 13.52,-192.24 2.07,-68.6 3.11,-134.06 3.11,-196.4 v -216.15 c 0,-62.35 -1.04,-127.83 -3.11,-196.4 -2.09,-68.6 -6.59,-130.609 -13.52,-186.019 31.85,2.801 63.03,4.148 93.52,4.148 30.47,0 61.64,-1.347 93.52,-4.148 -6.93,55.41 -11.43,117.419 -13.49,186.019 -2.1,68.57 -3.12,134.05 -3.12,196.4 v 176.66 c 0,108.05 22.49,191.87 67.56,251.47 45,59.55 116,89.36 213,89.36 70.67,0 126.08,-26.7 166.28,-80.02 40.17,-53.35 60.28,-131.96 60.28,-235.89 v -126.76 c 0,-80.39 -1.75,-158.67 -5.21,-234.87 -3.48,-76.21 -6.59,-150.35 -9.36,-222.369 28.03,2.801 56.77,4.148 86.25,4.148 30.86,0 60.28,-1.347 88.34,-4.148 -1.38,19.371 -2.43,39.801 -3.11,61.301 -0.73,21.468 -1.05,43.298 -1.05,65.478 v 135.08 c 0,70.66 1.36,137.5 4.16,200.56 2.77,63.05 4.16,124.35 4.16,183.95 0,72.02 -10.1,131.26 -30.24,177.68 -20.17,46.42 -46.25,83.13 -78.19,110.15" /><path
             id="path70"
             style="fill:#FFFFFF;fill-opacity:1;fill-rule:nonzero;stroke:none"
             d="m 4848.96,1412.77 c -36.04,18.7 -75.53,33.24 -118.47,43.65 -42.97,10.38 -82.46,22.49 -118.47,36.35 -36.04,13.83 -66.16,32.9 -90.41,57.17 -24.24,24.22 -36.37,58.5 -36.37,102.88 0,30.44 5.54,56.78 16.63,78.95 11.09,22.15 24.95,40.2 41.58,54.06 16.61,13.84 35.33,24.22 56.1,31.18 20.79,6.9 41.58,10.38 62.37,10.38 47.07,0 86.56,-13.18 118.44,-39.49 31.88,-26.34 53.33,-56.13 64.44,-89.36 h 24.95 c 2.75,16.63 9,40.17 18.7,70.66 9.68,30.47 20.06,56.12 31.17,76.89 -31.88,11.08 -65.45,23.56 -100.79,37.42 -35.33,13.83 -78.66,20.79 -129.89,20.79 -55.45,0 -104.64,-8 -147.58,-23.9 -42.97,-15.96 -78.98,-37.77 -108.06,-65.49 -29.11,-27.72 -51.29,-60.62 -66.5,-98.72 -15.28,-38.11 -22.89,-80 -22.89,-125.74 0,-58.19 12.14,-103.9 36.38,-137.17 24.24,-33.24 54.37,-59.94 90.41,-80 36.01,-20.11 75.5,-35.7 118.47,-46.76 42.94,-11.11 82.43,-23.9 118.46,-38.47 36.02,-14.54 66.14,-33.23 90.41,-56.09 24.22,-22.89 36.38,-55.81 36.38,-98.73 0,-30.49 -5.57,-57.5 -16.63,-81.07 -11.12,-23.56 -26,-42.94 -44.7,-58.191 -18.7,-15.239 -40.19,-27.008 -64.41,-35.328 -24.27,-8.313 -49.56,-12.469 -75.87,-12.469 -29.1,0 -56.46,4.828 -82.09,14.566 -25.65,9.672 -48.51,21.813 -68.59,36.352 -20.09,14.56 -37.4,30.15 -51.94,46.78 -14.57,16.61 -25.32,31.86 -32.22,45.72 h -24.95 c 0,-20.79 -4.53,-46.76 -13.52,-77.94 -9.03,-31.17 -17.65,-55.81 -25.97,-73.798 29.11,-16.602 65.12,-31.172 108.09,-43.622 42.91,-12.468 96.26,-18.73 160.02,-18.73 58.19,0 110.15,8.691 155.87,26 45.74,17.309 84.86,41.559 117.42,72.73 32.56,31.17 57.48,66.16 74.82,104.97 17.31,38.76 26,78.25 26,118.45 0,58.21 -12.17,103.92 -36.38,137.16 -24.27,33.27 -54.4,59.24 -90.41,77.96" /><path
             id="path72"
             style="fill:#FFFFFF;fill-opacity:1;fill-rule:nonzero;stroke:none"
             d="m 5898.15,1830.5 c -31.96,27.01 -67.75,46.05 -107.35,57.17 -39.63,11.06 -78.89,16.63 -117.79,16.63 -75.07,0 -139.71,-16.32 -193.91,-48.85 -54.2,-32.56 -100.76,-78.64 -139.66,-138.21 h -4.16 v 157.95 c 0,45.72 0.32,95.62 1.02,149.65 0.71,54.03 1.73,107.72 3.14,161.07 1.36,53.32 3.11,104.24 5.18,152.75 2.09,48.49 7.27,124.69 7.27,124.69 0,0 -72.09,-74.24 -180.49,-84.28 2.14,-64.85 4.66,-127.82 4.66,-127.82 0,0 -0.12,-14.43 1.26,-68.46 1.36,-54.05 2.41,-108.79 3.12,-164.21 0.68,-55.41 1.04,-106.7 1.04,-153.77 v -376.2 c 0,-47.1 -0.36,-98.38 -1.04,-153.8 -0.71,-55.41 -1.76,-110.12 -3.12,-164.18 -1.38,-54.03 -3.11,-105.31 -5.2,-153.8 -2.07,-48.51 -4.5,-88.682 -7.27,-120.529 31.85,2.801 63.03,4.148 93.52,4.148 30.47,0 61.64,-1.347 93.52,-4.148 -2.77,30.461 -5.18,69.949 -7.27,118.459 -2.07,48.49 -3.82,98.73 -5.18,150.69 -1.41,51.94 -2.43,103.57 -3.14,154.82 -0.7,51.26 -1.02,96.29 -1.02,135.11 0,108.05 22.49,191.87 67.56,251.47 45,59.55 116,89.36 213,89.36 70.66,0 126.08,-26.7 166.28,-80.02 40.17,-53.35 60.28,-131.96 60.28,-235.89 v -126.76 c 0,-80.39 -1.76,-158.67 -5.21,-234.87 -3.48,-76.21 -6.59,-150.35 -9.36,-222.369 28.03,2.801 56.77,4.148 86.25,4.148 30.86,0 60.28,-1.347 88.34,-4.148 -1.38,19.371 -2.43,39.801 -3.11,61.301 -0.74,21.468 -1.05,43.298 -1.05,65.478 v 135.08 c 0,70.66 1.36,137.5 4.16,200.56 2.77,63.05 4.16,124.35 4.16,183.95 0,72.02 -10.1,131.26 -30.24,177.68 -20.17,46.42 -46.25,83.13 -78.19,110.15" /><path
             id="path74"
             style="fill:#FFFFFF;fill-opacity:1;fill-rule:nonzero;stroke:none"
             d="m 6994.84,1218.44 c -10.41,-54.03 -28.06,-102.21 -53.01,-144.44 -24.92,-42.29 -58.19,-75.871 -99.74,-100.82 -41.59,-24.918 -92.84,-37.391 -153.8,-37.391 -60.99,0 -112.25,12.473 -153.8,37.391 -41.59,24.949 -74.83,58.53 -99.78,100.82 -24.92,42.23 -42.6,90.41 -52.98,144.44 -10.41,54.03 -15.58,110.15 -15.58,168.34 0,58.19 5.17,114.31 15.58,168.34 10.38,54.06 28.06,102.17 52.98,144.46 24.95,42.24 58.19,75.84 99.78,100.79 41.55,24.95 92.81,37.43 153.8,37.43 60.96,0 112.21,-12.48 153.8,-37.43 41.55,-24.95 74.82,-58.55 99.74,-100.79 24.95,-42.29 42.6,-90.4 53.01,-144.46 10.38,-54.03 15.59,-110.15 15.59,-168.34 0,-58.19 -5.21,-114.31 -15.59,-168.34 z m 36.35,568.41 c -48.51,40.88 -102.54,70.66 -162.09,89.39 -59.6,18.7 -119.85,28.06 -180.81,28.06 -59.61,0 -119.52,-9.36 -179.8,-28.06 -60.25,-18.73 -114.65,-48.51 -163.14,-89.39 -48.51,-40.87 -87.63,-94.23 -117.42,-160.02 -29.81,-65.83 -44.69,-145.83 -44.69,-240.05 0,-94.23 14.88,-174.26 44.69,-240.05 29.79,-65.83 68.91,-119.18 117.42,-160.031 48.49,-40.867 102.89,-69.609 163.14,-86.25 60.28,-16.629 120.19,-24.949 179.8,-24.949 60.96,0 121.21,8.32 180.81,24.949 59.55,16.641 113.58,45.383 162.09,86.25 48.49,40.851 87.64,94.201 117.45,160.031 29.76,65.79 44.67,145.82 44.67,240.05 0,94.22 -14.91,174.22 -44.67,240.05 -29.81,65.79 -68.96,119.15 -117.45,160.02" /><path
             id="path76"
             style="fill:#FFFFFF;fill-opacity:1;fill-rule:nonzero;stroke:none"
             d="m 8098.43,1218.44 c -10.41,-54.03 -28.06,-102.21 -53.01,-144.44 -24.92,-42.29 -58.19,-75.871 -99.74,-100.82 -41.59,-24.918 -92.84,-37.391 -153.8,-37.391 -60.99,0 -112.25,12.473 -153.8,37.391 -41.59,24.949 -74.82,58.53 -99.77,100.82 -24.93,42.23 -42.61,90.41 -52.99,144.44 -10.41,54.03 -15.58,110.15 -15.58,168.34 0,58.19 5.17,114.31 15.58,168.34 10.38,54.06 28.06,102.17 52.99,144.46 24.95,42.24 58.18,75.84 99.77,100.79 41.55,24.95 92.81,37.43 153.8,37.43 60.96,0 112.21,-12.48 153.8,-37.43 41.55,-24.95 74.82,-58.55 99.74,-100.79 24.95,-42.29 42.6,-90.4 53.01,-144.46 10.38,-54.03 15.59,-110.15 15.59,-168.34 0,-58.19 -5.21,-114.31 -15.59,-168.34 z m 153.8,408.39 c -29.81,65.79 -68.96,119.15 -117.45,160.02 -48.51,40.88 -102.54,70.66 -162.09,89.39 -59.6,18.7 -119.85,28.06 -180.81,28.06 -59.61,0 -119.52,-9.36 -179.8,-28.06 -60.25,-18.73 -114.65,-48.51 -163.14,-89.39 -48.51,-40.87 -87.63,-94.23 -117.42,-160.02 -29.81,-65.83 -44.69,-145.83 -44.69,-240.05 0,-94.23 14.88,-174.26 44.69,-240.05 29.79,-65.83 68.91,-119.18 117.42,-160.031 48.49,-40.867 102.89,-69.609 163.14,-86.25 60.28,-16.629 120.19,-24.949 179.8,-24.949 60.96,0 121.21,8.32 180.81,24.949 59.55,16.641 113.58,45.383 162.09,86.25 48.49,40.851 87.64,94.201 117.45,160.031 29.76,65.79 44.67,145.82 44.67,240.05 0,94.22 -14.91,174.22 -44.67,240.05" /><path
             id="path78"
             style="fill:#FFFFFF;fill-opacity:1;fill-rule:nonzero;stroke:none"
             d="m 2555.89,1408.02 c 0.99,18.99 9.39,80.87 9.94,84.43 30.28,198.87 93.26,255.39 96.88,259.32 3.82,4.13 7.76,7.93 11.76,11.57 26.29,27.83 58.27,48.47 97.23,57.49 0,0 100.06,32.86 180.6,-1.85 84.83,-36.56 142.36,-128.79 42.49,-243.49 0,0 -87.84,-87.61 -212.21,-137.31 l -186.82,-75.8 c -13.77,-6.39 -27.57,-12.68 -41.33,-18.85 -0.03,0.7 -0.53,26.51 1.46,64.49 z m 584.07,-352.99 c -23.32,-17.33 -48.27,-32.28 -74.86,-44.92 -26.66,-12.68 -53.93,-22.649 -81.85,-29.95 -27.94,-7.34 -55.27,-11 -81.85,-11 -55.9,0 -105.15,9.66 -147.74,28.988 -42.59,19.242 -81.34,42.872 -107.79,77.832 -47.37,62.62 -71.92,130.33 -83.34,192.87 775.84,203.97 611.36,454.48 597.37,473.68 -2.99,5.18 -6.5,10.54 -10.95,16.19 -31.2,39.55 -62.82,63.24 -111.35,90.67 -50.4,28.48 -128.8,49.34 -199.32,50.45 -284.49,4.46 -437,-204.58 -468.35,-353.41 -21.52,-119.36 -11.32,-183.14 -5.2,-244.63 0.55,-5.54 1.31,-11.15 2.21,-16.81 0.38,-2.13 5.59,-30.2 16.8,-63.98 25.33,-71.73 72.57,-145.44 131.39,-200.94 46.24,-43.629 94.49,-73.859 153.71,-95.808 59.21,-21.961 124.78,-32.953 196.62,-32.953 63.9,0 125.42,11.332 184.66,33.929 59.2,22.653 108.77,49.934 148.73,81.842 l 11.96,97.84 -9.97,6 c -17.32,-19.95 -37.61,-38.65 -60.88,-55.89" /><path
             id="path80"
             style="fill:#FFFFFF;fill-opacity:1;fill-rule:nonzero;stroke:none"
             d="m 2155.85,1208.26 c -23.96,27.31 -47.88,54.61 -71.69,81.89 -114.31,130.94 -229.93,257.37 -339.82,385.53 -6.91,8.06 -11.97,15.05 -15.93,21.22 59.26,48.34 120.28,103.56 146.45,130.37 55.17,56.5 113.03,114.07 173.68,172.65 60.57,58.55 120.86,115.77 180.82,171.64 59.93,55.84 113.72,104.23 161.42,145.09 -16.36,-2.74 -32.69,-5.11 -49.05,-7.16 -16.34,-2.05 -32.67,-3.06 -49.03,-3.06 -13.62,0 -27.27,1.01 -40.86,3.06 -13.62,2.05 -27.94,4.42 -42.91,7.16 -47.7,-54.51 -97.42,-110.69 -149.16,-168.58 -51.8,-57.91 -104.2,-114.76 -157.33,-170.6 -53.12,-55.89 -105.93,-109.68 -158.36,-161.42 -52.46,-51.8 -102.53,-98.08 -150.17,-138.94 -13.65,-12.27 -23.2,-18.41 -28.62,-18.41 -1.97,0 -3.66,0.35 -5.16,0.97 -1.83,2.76 -2.83,6.63 -2.83,11.85 v 114.31 c 0,91.43 1.73,181.13 5.21,269.13 3.42,87.98 11.43,355.24 11.43,355.24 0,0 -42.44,-38.54 -90.97,-70.28 -46.27,-30.27 -98.52,-53.83 -107.3,-52.47 4.16,-91.45 2.54,-144.51 6.02,-232.49 3.42,-88 5.18,-177.7 5.18,-269.13 v -357.47 c 0,-91.45 -1.76,-181.55 -5.18,-270.2 -2.13,-54.41 -4.43,-108.11 -6.81,-161.469 2.14,-0.453 4.21,-0.921 6.36,-1.371 62.95,-13.32 126.37,-25.961 189.88,-37.98 -3.06,66.2 -5.99,132.97 -8.61,200.82 -3.48,88.65 -5.21,178.75 -5.21,270.2 v 180.82 c 0,8.31 3.45,12.44 10.38,12.44 5.55,0 13.84,-5.54 24.95,-16.6 22.15,-22.18 56.44,-60.65 102.89,-115.36 46.39,-54.74 98.35,-116.38 155.86,-184.97 57.48,-68.57 116.41,-139.6 176.66,-213.04 60.28,-73.43 115.36,-138.548 165.23,-195.349 19.4,2.801 38.44,4.148 57.17,4.148 18.69,0 37.73,0 57.14,0 20.79,0 103.93,-1.347 124.69,-4.148 -82.83,92.578 -164.8,184.979 -245.92,277.229 l -30.5,34.73" /><path
             id="path82"
             style="fill:#FFFFFF;fill-opacity:1;fill-rule:nonzero;stroke:none"
             d="m 8262.75,1902.09 v 94.34 h -33.56 v 11.76 h 80.48 v -11.76 h -33.71 v -94.34 h -13.21" /><path
             id="path84"
             style="fill:#FFFFFF;fill-opacity:1;fill-rule:nonzero;stroke:none"
             d="m 8417.89,1902.09 v 87.33 l -36.11,-87.33 h -5.4 l -35.96,87.33 v -87.33 h -13.2 v 106.1 h 18.93 l 32.94,-79.85 33.07,79.85 h 18.94 v -106.1 h -13.21" /></g></g></g></g></svg>
