<?xml version="1.0" encoding="utf-8"?>
<!-- Generator: Adobe Illustrator 19.2.1, SVG Export Plug-In . SVG Version: 6.00 Build 0)  -->
<svg version="1.1" id="Layer_1" xmlns="http://www.w3.org/2000/svg" xmlns:xlink="http://www.w3.org/1999/xlink" x="0px" y="0px"
	 viewBox="0 0 113.4 113.4" style="enable-background:new 0 0 113.4 113.4;" xml:space="preserve">
<style type="text/css">
	.st0{fill:none;}
	.st1{fill:#F0F1F2;}
</style>
<g>
	<rect x="0" class="st0" width="113.4" height="113.4"/>
	<g id="Klarna">
		<path class="st1" d="M38.3,46.1h-3.4c-0.2,0-0.5,0.2-0.5,0.4v20.1c0,0.2,0.2,0.5,0.5,0.5h3.4c0.2,0,0.4-0.2,0.4-0.5V46.5
			C38.7,46.2,38.5,46.1,38.3,46.1z M74.4,51.2c-1.8,0-3,0.4-4.4,1.4l-0.2,0.1v-0.9c0-0.2-0.2-0.4-0.4-0.4h-3.1
			c-0.2,0-0.4,0.2-0.4,0.4v14.7c0,0.2,0.2,0.5,0.5,0.5h3.4c0.2,0,0.4-0.2,0.4-0.5v-11l0.1,0c1-0.5,1.9-0.9,2.7-0.9
			c1.9,0,2.2,0.8,2.2,2.7v9.2c0,0.2,0.2,0.5,0.4,0.5h3.4c0.2,0,0.5-0.2,0.5-0.5v-9.2C79.2,53.1,77.8,51.2,74.4,51.2z M92,52.5
			c-1.1-0.8-2.6-1.3-4.7-1.3c-1.8,0-3.7,0.3-4.8,0.6c-0.3,0.1-0.4,0.2-0.4,0.5v2.2c0,0.3,0.1,0.4,0.4,0.4h0.1
			c0.8-0.1,2.8-0.2,4.6-0.2c1.3,0,2.2,0.3,2.2,2v1.1h-1.6c-2.4,0-4,0.4-5.1,1.1c-1.1,0.7-1.6,1.9-1.6,3.5v0.3c0,4,2.9,4.6,4.6,4.6
			c1.5,0,2.6-0.4,3.8-1.2l0.2-0.1v0.7c0,0.2,0.2,0.4,0.4,0.4h3.1c0.2,0,0.4-0.2,0.4-0.4v-9.9C93.6,54.8,93.1,53.4,92,52.5z
			 M89.5,63.5L89.5,63.5c-0.9,0.5-1.7,0.7-2.4,0.7c-1.2,0-1.9-0.2-1.9-1.5v-0.3c0-1.6,0.7-2.1,2.6-2.1h1.7V63.5z M63.8,51.2
			c-1.3,0-2.7,0.5-3.7,1.3l-0.2,0.2v-0.8c0-0.2-0.2-0.4-0.4-0.4h-3.3c-0.2,0-0.4,0.2-0.4,0.4v14.7c0,0.2,0.2,0.5,0.5,0.5h3.4
			c0.2,0,0.4-0.2,0.4-0.5V55.7l0.1,0c1.2-0.7,2.4-1,3.6-1h0.2c0.2,0,0.3-0.2,0.3-0.4v-2.6C64.2,51.4,64,51.2,63.8,51.2z M51.5,52.5
			c-1.1-0.8-2.6-1.3-4.7-1.3c-1.8,0-3.7,0.3-4.8,0.6c-0.3,0.1-0.4,0.2-0.4,0.5v2.2c0,0.3,0.1,0.4,0.4,0.4h0.1
			c0.8-0.1,2.8-0.2,4.6-0.2c1.3,0,2.2,0.3,2.2,2v1.1h-1.6c-2.4,0-4,0.4-5.1,1.1c-1.1,0.7-1.6,1.9-1.6,3.5v0.3c0,4,2.9,4.6,4.6,4.6
			c1.5,0,2.6-0.4,3.8-1.2l0.2-0.1v0.7c0,0.2,0.2,0.4,0.4,0.4h3.1c0.2,0,0.4-0.2,0.4-0.4v-9.9C53.2,54.8,52.7,53.4,51.5,52.5z
			 M49.1,63.5L49.1,63.5c-0.9,0.5-1.7,0.7-2.4,0.7c-1.2,0-1.9-0.2-1.9-1.5v-0.3c0-1.6,0.7-2.1,2.6-2.1h1.7V63.5z"/>
		<g>
			<path class="st1" d="M95.5,53c-0.6,0-1.1-0.5-1.1-1.1c0-0.6,0.5-1.1,1.1-1.1c0.6,0,1.1,0.5,1.1,1.1C96.5,52.5,96.1,53,95.5,53z
				 M95.5,51c-0.5,0-0.9,0.4-0.9,0.9c0,0.5,0.4,0.9,0.9,0.9c0.5,0,0.9-0.4,0.9-0.9C96.4,51.4,96,51,95.5,51z M95.9,52.6h-0.1
				c0,0,0,0,0,0L95.4,52l0,0h-0.2v0.5c0,0,0,0.1-0.1,0.1h-0.1c0,0-0.1,0-0.1-0.1v-1.2c0-0.1,0-0.1,0.1-0.1c0.1,0,0.2,0,0.3,0
				c0.3,0,0.5,0.1,0.5,0.4v0c0,0.2-0.1,0.3-0.3,0.4L95.9,52.6C96,52.5,96,52.5,95.9,52.6C96,52.5,96,52.6,95.9,52.6z M95.7,51.6
				c0-0.2-0.1-0.2-0.3-0.2c0,0-0.1,0-0.1,0c0,0,0,0-0.1,0v0.4c0,0,0.1,0,0.2,0C95.6,51.8,95.7,51.8,95.7,51.6L95.7,51.6z"/>
		</g>
		<path class="st1" d="M22.6,55.9c3.5,0,6.8-2,8.5-5c0.9-1.5,1.3-3.2,1.3-4.9c-1.7,0-3.4,0.5-4.9,1.3C24.5,49.2,22.6,52.4,22.6,55.9
			z"/>
		<path class="st1" d="M20.9,46.1h-2.8c-0.7,0-1.2,0.6-1.2,1.2v19.3c0,0.2,0.2,0.5,0.5,0.5h2.8c0.7,0,1.2-0.6,1.2-1.2V46.5
			C21.4,46.2,21.2,46.1,20.9,46.1z"/>
		<path class="st1" d="M22.6,57.2c0,3.5,2,6.8,5,8.5c1.5,0.9,3.2,1.3,4.9,1.3c0-1.7-0.5-3.4-1.3-4.9C29.4,59.1,26.1,57.2,22.6,57.2z
			"/>
	</g>
</g>
</svg>
