<?xml version="1.0" encoding="utf-8"?>
<!-- Generator: Adobe Illustrator 19.1.0, SVG Export Plug-In . SVG Version: 6.00 Build 0)  -->
<svg version="1.1" id="Horizontal_logo" xmlns="http://www.w3.org/2000/svg" xmlns:xlink="http://www.w3.org/1999/xlink" x="0px"
	 y="0px" viewBox="0 0 180.411087 95.5548019" style="enable-background:new 0 0 180.411087 95.5548019;" xml:space="preserve">
<style type="text/css">
	.st0{fill:#FFFFFF;}
	.st1{fill:none;}
</style>
<g id="Klarna">
	<path class="st0" d="M64.4559937,31.8526001h-5.1444969c-0.3652,0-0.6908989,0.3046989-0.6908989,0.6495018v30.5790977
		c0,0.3554001,0.3353996,0.6972008,0.6908989,0.6972008h5.1444969c0.3716049,0,0.610405-0.3613014,0.610405-0.6972008V32.5021019
		C65.0663986,32.1310005,64.8013,31.8526001,64.4559937,31.8526001z M119.3168945,39.6885986
		c-2.710495,0-4.5401001,0.5752029-6.7593002,2.1543007l-0.296402,0.2060013v-1.375
		c0-0.3613014-0.2914963-0.6543007-0.6488953-0.6543007h-4.7158051c-0.3652954,0-0.6611938,0.2929993-0.6611938,0.6543007v22.407299
		c0,0.3554001,0.3417969,0.6972008,0.699295,0.6972008h5.0918045c0.355896,0,0.6610947-0.3270988,0.6610947-0.6972008v-16.705101
		l0.0991058-0.0497971c1.5522995-0.8233032,2.835495-1.3731003,4.0478973-1.3731003
		c2.8237,0,3.3012009,1.2636986,3.3012009,4.1044998v14.0234985c0,0.3701019,0.3071976,0.6972008,0.6542969,0.6972008h5.091301
		c0.3643036,0,0.7041092-0.3418007,0.7041092-0.6972008V49.0577011
		C126.5854034,42.4912987,124.4081955,39.6885986,119.3168945,39.6885986z M145.9804993,41.6329002
		c-1.6011047-1.2900009-3.9820099-1.9443016-7.0865021-1.9443016c-2.6717987,0-5.574707,0.4707031-7.2416992,0.8768997
		c-0.4204102,0.1026001-0.6533051,0.3692017-0.6533051,0.7432022v3.4101982c0,0.3837013,0.1846008,0.5683022,0.5679016,0.5683022
		h0.2104034c1.2490997-0.1211014,4.2608032-0.2938995,6.9916992-0.2938995c2.0088043,0,3.3451996,0.5243988,3.3451996,3.0926971
		v1.7041016h-2.4624023c-3.5937042,0-6.1322937,0.5537987-7.7695007,1.6817017
		c-1.6147003,1.1112976-2.4033051,2.8300972-2.4033051,5.2489967v0.3818016c0,6.1386986,4.3926086,7.0557022,7.0156097,7.0557022
		c2.2416992,0,3.9008942-0.5410042,5.7422028-1.8594017l0.3007965-0.217701v1.0400009
		c0,0.3623009,0.293396,0.6571999,0.6493988,0.6571999h4.7191925c0.3643036,0,0.6529083-0.294899,0.6529083-0.6571999v-15.035202
		C148.5590973,45.1896019,147.6898956,43.0167007,145.9804993,41.6329002z M142.2451019,58.3965988l-0.1108093,0.0527
		c-1.2680969,0.6366997-2.4257965,0.9453011-3.5375977,0.9453011c-1.7944946,0-2.8359985-0.3720016-2.8359985-2.2919998v-0.3818016
		c0-2.3768997,1.0513-3.2645988,3.891098-3.2645988h2.5933075V58.3965988z M103.1288986,39.6885986
		c-2.0293045,0-4.0644989,0.7158012-5.5601044,1.9765015l-0.3070984,0.2548981v-1.2460976
		c0-0.3613014-0.2997971-0.6543007-0.6552963-0.6543007h-5.0161057c-0.3554993,0-0.6512985,0.2929993-0.6512985,0.6543007v22.407299
		c0,0.3554001,0.3377991,0.6972008,0.6938019,0.6972008h5.0971985c0.3500977,0,0.658699-0.3270988,0.658699-0.6972008V46.5000992
		l0.0957031-0.0487976c1.8651962-1.0108032,3.6722946-1.4981003,5.5195007-1.4981003h0.3412933
		c0.2568054,0,0.4453049-0.3252029,0.4453049-0.6161995v-4.0019035
		C103.7904968,39.9785995,103.4931946,39.6885986,103.1288986,39.6885986z M84.5765991,41.6329002
		c-1.5991058-1.2900009-3.9858017-1.9443016-7.0883026-1.9443016c-2.6753006,0-5.5723038,0.4707031-7.2397995,0.8768997
		c-0.4208984,0.1026001-0.6567001,0.3692017-0.6567001,0.7432022v3.4101982c0,0.3837013,0.185997,0.5683022,0.5718002,0.5683022
		h0.2084961c1.2490005-0.1211014,4.2627029-0.2938995,6.9906998-0.2938995c2.0073013,0,3.3511047,0.5243988,3.3511047,3.0926971
		v1.7041016h-2.4698029c-3.5853958,0-6.1302948,0.5537987-7.7733994,1.6817017
		c-1.6049957,1.1112976-2.3949966,2.8300972-2.3949966,5.2489967v0.3818016c0,6.1386986,4.3920975,7.0557022,7.0135956,7.0557022
		c2.2393036,0,3.9073029-0.5410042,5.7442017-1.8594017l0.3013-0.217701v1.0400009
		c0,0.3623009,0.2884979,0.6571999,0.6508026,0.6571999h4.7192993c0.357399,0,0.6528015-0.294899,0.6528015-0.6571999v-15.035202
		C87.1576996,45.1896019,86.2841949,43.0167007,84.5765991,41.6329002z M80.8348999,58.3965988l-0.1025009,0.0527
		c-1.2714996,0.6366997-2.4331055,0.9453011-3.5371017,0.9453011c-1.8027039,0-2.8418045-0.3720016-2.8418045-2.2919998v-0.3818016
		c0-2.3768997,1.0552063-3.2645988,3.8906021-3.2645988h2.5908051V58.3965988z"/>
	<g>
		<path class="st0" d="M151.334198,42.3316002c-0.8883057,0-1.6038055-0.7094994-1.6038055-1.5978012
			c0-0.8883972,0.7154999-1.6037979,1.6038055-1.6037979c0.8883972,0,1.6098022,0.7154007,1.6098022,1.6037979
			C152.9440002,41.6221008,152.2225952,42.3316002,151.334198,42.3316002z M151.334198,39.3684006
			c-0.7510986,0-1.3534088,0.6142006-1.3534088,1.3653984c0,0.7511024,0.6023102,1.3534012,1.3534088,1.3534012
			c0.7512054,0,1.3654022-0.6022987,1.3654022-1.3534012C152.6996002,39.9826012,152.0854034,39.3684006,151.334198,39.3684006z
			 M152.0139008,41.7235985h-0.1669006c-0.0297089,0-0.0597076-0.0239983-0.0715027-0.047699l-0.4830017-0.7631989
			l-0.0715027-0.0180016h-0.2385864v0.7394028c0,0.0417976-0.0357056,0.0894966-0.0835114,0.0894966H150.75
			c-0.047699,0-0.0774994-0.047699-0.0774994-0.0894966v-1.8007011c0-0.0774002,0.0357971-0.1252022,0.107193-0.1311989
			c0.0895081-0.0117035,0.3218994-0.0177002,0.4530945-0.0177002c0.4950104,0,0.7811127,0.1488991,0.7811127,0.6021996v0.0237999
			c0,0.3041-0.1492004,0.4650002-0.3996124,0.536499l0.4594116,0.7453995
			c0.0057068,0.012001,0.0117035,0.0357018,0.0117035,0.0536995
			C152.0854034,41.6879005,152.067688,41.7235985,152.0139008,41.7235985z M151.7157898,40.2867012
			c0-0.2386017-0.1371918-0.3221016-0.4649963-0.3221016c-0.0478058,0-0.1251984,0-0.1909943,0
			c-0.0357056,0-0.0653992,0-0.0834045,0v0.6677017c0.0657043,0,0.226593,0.0060005,0.2743988,0.0060005
			c0.3338013,0,0.4649963-0.0894012,0.4649963-0.3278008V40.2867012z"/>
	</g>
	<path class="st0" d="M40.553196,46.8731003c5.3358994-0.0663986,10.2998009-2.9687004,12.9844017-7.6092987
		c1.3013-2.2432022,2.0004997-4.802803,2.0312004-7.4112015c-2.607399,0.032299-5.1645012,0.7364006-7.4121017,2.0351982
		C43.5204964,36.5694008,40.6161957,41.5313988,40.553196,46.8731003z"/>
	<path class="st0" d="M37.9755974,31.8526001h-4.2416992c-1.0346985,0-1.8818989,0.8456993-1.8818989,1.8809013v29.2763977
		c0,0.3300018,0.2911015,0.6943016,0.7558994,0.6943016h4.2445984c1.036602,0,1.8833008-0.8389015,1.8833008-1.8857002V32.5021019
		C38.7357979,32.1310005,38.408699,31.8526001,37.9755974,31.8526001z"/>
	<path class="st0" d="M40.553196,48.7569008c0.0629997,5.339901,2.9673004,10.3066978,7.6035004,12.9883003
		c2.2476006,1.2997971,4.8047028,1.9990005,7.4121017,2.0331993c-0.0307007-2.6113014-0.7299004-5.1719017-2.0312004-7.4169998
		C50.8529968,51.7247009,45.8890953,48.8213997,40.553196,48.7569008z"/>
</g>
<rect id="minimum_x5F_clear_x5F_space" class="st1" width="180.4099884" height="95.5500031"/>
</svg>
