<?xml version="1.0" encoding="utf-8"?>
<!-- Generator: Adobe Illustrator 19.2.1, SVG Export Plug-In . SVG Version: 6.00 Build 0)  -->
<svg version="1.1" id="Layer_1" xmlns="http://www.w3.org/2000/svg" xmlns:xlink="http://www.w3.org/1999/xlink" x="0px" y="0px"
	 viewBox="0 0 113.4 113.4" style="enable-background:new 0 0 113.4 113.4;" xml:space="preserve">
<style type="text/css">
	.st0{fill:#F0F1F2;}
	.st1{fill:none;}
</style>
<g>
	<g>
		<path class="st0" d="M20.1,87.3h2.1v1.3h-3.6V81h1.5V87.3z M26.5,88.6H25V81h1.5V88.6z M32.6,85.5L32.6,85.5l1.8-4.5h1.6l-3.4,8h0
			l-3.3-8h1.6L32.6,85.5z M40.2,82.3v1.7h2.3v1.3h-2.3v2.1h2.5v1.3h-3.9V81h3.9v1.3L40.2,82.3L40.2,82.3z M47.4,88.6h-0.9V81h1.3
			c0.7,0,1.4,0,2,0.4c0.6,0.4,0.9,1.1,0.9,1.7c0,0.6-0.3,1.2-0.8,1.6c-0.5,0.4-1.2,0.5-1.9,0.5h-0.7V88.6z M47.4,84.5H48
			c1,0,1.8-0.3,1.8-1.4c0-1.2-1-1.3-2.1-1.3h-0.3V84.5z M53.8,81h4.1v0.8h-3.2V84h3.1v0.8h-3.1v3h3.2v0.8h-4.1V81z M62.2,88.6h-0.9
			V81h1.1c1.5,0,2.9,0.4,2.9,2.1c0,1.2-0.8,2-2,2.1l2.5,3.4h-1.1l-2.4-3.3h-0.2L62.2,88.6L62.2,88.6z M62.2,84.5h0.3
			c1,0,2-0.2,2-1.4c0-1.3-1-1.4-2-1.4h-0.3L62.2,84.5L62.2,84.5z M72.4,82.5c-0.3-0.5-0.7-0.8-1.4-0.8c-0.7,0-1.3,0.5-1.3,1.2
			c0,0.7,0.7,1,1.2,1.2l0.5,0.2c1,0.4,1.9,0.9,1.9,2.1c0,1.3-1.1,2.3-2.5,2.3c-1.3,0-2.2-0.8-2.5-2l0.9-0.2c0.1,0.8,0.7,1.4,1.6,1.4
			c0.9,0,1.6-0.6,1.6-1.5c0-0.9-0.7-1.2-1.5-1.5l-0.5-0.2c-0.9-0.4-1.7-0.9-1.7-1.9c0-1.2,1-1.9,2.2-1.9c0.9,0,1.6,0.4,2,1.2
			L72.4,82.5z M84.3,84.8c0,2.2-1.9,3.9-4.1,3.9c-2.2,0-4.1-1.7-4.1-3.9s1.9-3.9,4.1-3.9C82.5,80.9,84.3,82.6,84.3,84.8z M77,84.8
			c0,1.7,1.4,3.1,3.2,3.1c1.8,0,3.2-1.4,3.2-3.1c0-1.7-1.4-3.1-3.2-3.1C78.4,81.6,77,83,77,84.8z M87.7,80.7l6.2,6.2V81h0.9v7.9
			l-6.2-6.2v5.8h-0.9V80.7z"/>
		<path class="st0" d="M72.3,36.9l3.8-3.4l-4-4l-3.4,3.8c-0.7-0.5-1.4-1-2.2-1.5l2.3-4.6l-5.2-2.1l-1.7,4.8
			c-0.9-0.2-1.7-0.4-2.6-0.5l0.3-5.1h-5.7l0.3,5.1c-0.9,0.1-1.7,0.3-2.6,0.5L50,25.2l-5.2,2.1l2.2,4.6c-0.7,0.4-1.5,0.9-2.2,1.5
			l-3.4-3.8l-4,4l3.8,3.4c-0.5,0.7-1,1.4-1.5,2.1L35,36.8L32.8,42l4.9,1.6c-0.2,0.9-0.4,1.7-0.5,2.6l-5.1-0.3v5.6l5.1-0.3
			c0.1,0.9,0.3,1.7,0.5,2.6l-4.9,1.6l2.2,5.2l4.6-2.2c0.4,0.7,0.9,1.5,1.5,2.1l-3.9,3.4l4,4l3.4-3.8c0.7,0.5,1.4,1,2.2,1.5l-2.3,4.6
			l5.2,2.1l1.7-4.8c0.9,0.2,1.7,0.4,2.6,0.5l-0.3,5.1h5.7L59.2,68c0.9-0.1,1.7-0.3,2.6-0.5l1.7,4.8l5.2-2.1l-2.3-4.6
			c0.7-0.4,1.5-0.9,2.2-1.5l3.4,3.8l4-4l-3.8-3.4c0.5-0.7,1-1.4,1.5-2.1l4.6,2.2l2.2-5.2l-4.8-1.6c0.2-0.9,0.4-1.7,0.5-2.6l5.1,0.3
			V46l-5.1,0.3c-0.1-0.9-0.3-1.7-0.5-2.6l4.8-1.6l-2.2-5.2l-4.6,2.2C73.4,38.3,72.9,37.6,72.3,36.9z M68.7,48.8
			c0,6.5-5.4,11.8-11.9,11.8s-11.9-5.2-11.9-11.8S50.1,37,56.7,37S68.7,42.2,68.7,48.8z"/>
	</g>
	<rect x="0" class="st1" width="113.4" height="113.4"/>
</g>
</svg>
