<svg xmlns="http://www.w3.org/2000/svg" viewBox="300 -100 750 750" height="300" width="500">
  <defs>
    <clipPath id="a">
      <path d="M0 743h989V0H0z"/>
    </clipPath>
    <clipPath id="b">
      <path d="M0 635.328h989V0H0z"/>
    </clipPath>
  </defs>
  <g clip-path="url(#a)" transform="matrix(1.33333 0 0 -1.33333 0 990.667)">
    <g clip-path="url(#b)">
      <path d="M235.596 562.68c-.382 38.798-31.452 70.25-70.25 70.25s-70.25-31.45-70.25-70.25c0-33.92 24.037-62.222 55.81-68.626 10.63-2.14 12.097 24.917 9.187 42.86-.05.003-3.205.185-4.26.228-2.18.09-4.242-2.407-5.577-2.893-2.272-.828-2.703 1.434-4.345 1.434-1.436 0-3.364-2.235-8.67-1.23-5.365 1.02-7.102 5.873-7.102 5.873l-1.612.848c-5.475 1.364-5.772 7.347-5.808 7.688-.31 2.926 4.802 5.137 3.363 6.05-6.198 3.926-4.198 7.017-4.14 7.176.79 2.082 3.798 6.582 2.695 7.284-3.04 1.938 1.95 13.204 6.337 16.336.666 3.567 4.51 9.4 8.228 10.633-.205 4.046 5.45 6.34 5.45 6.34 3.96 1.273 1.187 4.547 8.78 4.027 1.776-.12 1.723 1.896 6.13 1.996 1.275.028 2.675 1.022 6.575 1.022 6.842.3 6.526-4.327 8.817-3.54 2.893.992 12.53-3.74 13.528-13.467 4.328.336 15.685-12.17 15.353-21.4 7.466-8.387-2.71-16.33-3.117-17.866.29-.87 1.794-4.68 1.194-7.634-.703-3.457-5.083-7.23-5.262-7.36-3.073-2.208-5.344-4.707-8.997-4.02-3.773.705-3.056 4.18-4.178 5.025-2.425-2.156-6.075-3.985-10.747-3.607-.55.092-2.582.3-2.845.326-2.24-13.21-1.922-42.728 7.436-42.714 28.216 4.31 58.653 31.482 58.28 69.21m-146.197 0c0 37.404 29.228 70.07 66.09 72.22-52.844 4.876-86.437-32.644-86.437-72.22 0-39.573 34.377-77.83 86.44-72.218-36.865 2.15-66.094 34.817-66.094 72.218M175.2 634.9c36.863-2.15 66.09-34.816 66.09-72.22 0-37.4-29.227-70.067-66.09-72.218 53.402-4.7 86.437 32.645 86.437 72.218 0 39.576-32.906 76.836-86.438 72.22m410.08-78.184h-22.955v.29c0 5.225 1.036 9.216 3.11 11.974 2.074 2.76 4.985 4.138 8.74 4.138 3.85 0 6.76-1.452 8.737-4.355.888-1.356 1.504-2.855 1.85-4.5.346-1.647.52-3.872.52-6.676zm18.145 9.796c-1.63 5.176-4.173 9.508-7.627 12.992-2.47 2.514-5.628 4.45-9.48 5.806-3.85 1.354-7.998 2.032-12.44 2.032-5.036 0-9.48-.823-13.33-2.468-3.852-1.647-7.357-4.16-10.517-7.548-3.358-3.678-5.776-7.838-7.257-12.482-1.482-4.645-2.222-10.306-2.222-16.982 0-5.806.838-11.08 2.518-15.822 1.677-4.742 4.074-8.782 7.184-12.12 3.11-3.338 6.887-5.928 11.33-7.765 4.443-1.837 9.38-2.758 14.812-2.758 9.78 0 18.742 3 26.886 9 1.192.79 1.35 1.974.54 3.056-1.348 2.03-3.573 5.382-5.047 7.607-1.25 1.988-2.48 1.47-3.493.74-5.518-3.925-11.27-5.888-17.258-5.888-5.135 0-9.086 1.546-11.848 4.645-2.766 3.095-4.147 7.548-4.147 13.354v.58h40.81c3.516 0 3.03 4.5 3.03 4.5 0 7.84-.813 14.345-2.443 19.522m296.06-9.506c0 5.225 1.036 9.216 3.11 11.974 2.074 2.76 4.985 4.138 8.74 4.138 3.85 0 6.76-1.452 8.738-4.355.887-1.356 1.504-2.855 1.85-4.5.345-1.647.52-3.872.52-6.676v-.87h-22.96zM940 542.49c3.517 0 3.03 4.5 3.03 4.5 0 7.84-.814 14.345-2.442 19.522-1.63 5.176-4.173 9.508-7.628 12.992-2.47 2.514-5.628 4.45-9.48 5.806-3.85 1.354-7.997 2.032-12.44 2.032-5.037 0-9.48-.823-13.33-2.468-3.85-1.647-7.358-4.16-10.516-7.548-3.36-3.678-5.776-7.838-7.258-12.482-1.48-4.645-2.222-10.306-2.222-16.982 0-5.806.84-11.08 2.52-15.822 1.677-4.742 4.07-8.782 7.182-12.12 3.11-3.338 6.887-5.928 11.33-7.765 4.444-1.837 9.38-2.758 14.81-2.758 9.782 0 18.745 3 26.888 9 1.193.79 1.35 1.974.538 3.056-1.345 2.03-3.57 5.382-5.046 7.607-1.247 1.988-2.48 1.47-3.49.74-5.52-3.925-11.272-5.888-17.26-5.888-5.134 0-9.085 1.546-11.848 4.645-2.766 3.095-4.148 7.548-4.148 13.354v.58zm-103.754 8.71c-3.458 0-6.27.82-8.443 2.467-2.172 1.644-3.258 4.355-3.258 8.128 0 3.485 1.037 6.193 3.11 8.13 2.074 1.934 4.985 2.903 8.74 2.903 3.75 0 6.687-.97 8.81-2.904 2.124-1.936 3.186-4.644 3.186-8.13 0-7.063-4.05-10.593-12.144-10.593m33.325 20.902c2.764 0 5.233.435 7.407 1.305 1.55.622 3.1 1.515 4.65 2.68 1.285.87 1.43 2.376.453 3.632-1.366 2.03-3.444 5.123-4.96 7.378-1.124 1.86-2.075 2.414-4.08 1.112-1.668-1.21-3.44-2.202-5.32-2.973-2.718-1.114-5.458-1.67-8.22-1.67-1.285 0-2.644.146-4.073.436-1.433.29-3.185.676-5.26 1.162-2.764.675-5.183 1.16-7.257 1.45-2.072.292-4.198.437-6.368.437-4.84 0-9.234-.606-13.182-1.815-3.95-1.212-7.308-2.903-10.072-5.08-2.764-2.177-4.912-4.816-6.442-7.91-1.532-3.1-2.295-6.532-2.295-10.306 0-11.03 5.43-17.902 16.292-20.61-3.16-.776-5.653-1.647-7.48-2.613-1.828-.967-3.208-1.984-4.146-3.047-.94-1.067-1.556-2.178-1.852-3.34-.296-1.16-.444-2.322-.444-3.482 0-2.52.518-4.598 1.555-6.243 1.037-1.646 2.445-2.807 4.22-3.483 3.457-1.45 9.53-2.226 18.22-2.323l8.44-.146c3.95-.097 7.26-.75 9.925-1.958 2.665-1.212 4-3.507 4-6.894 0-1.55-.446-2.977-1.335-4.283-.89-1.308-2.074-2.397-3.554-3.266-1.58-.968-3.406-1.62-5.48-1.96-2.072-.338-4.394-.508-6.96-.508-4.642 0-8.172.775-10.59 2.323-2.42 1.547-3.63 3.822-3.63 6.82 0 1.066.05 1.91.15 2.54.097.63.344 2.482-1.468 2.25h-16.157c-.397-.774-.793-1.717-1.186-2.83-.396-1.112-.593-2.685-.593-4.718 0-5.03 2.074-9.435 6.22-13.208 3.455-3.096 7.75-5.2 12.886-6.314 5.133-1.11 10.417-1.67 15.848-1.67 5.925 0 11.552.727 16.886 2.178 5.33 1.45 9.675 3.92 13.033 7.403 4.046 4.26 6.07 9.387 6.07 15.387 0 6.58-2.172 11.85-6.515 15.82-2.667 2.417-5.728 4.112-9.184 5.08-3.456.967-8.047 1.5-13.773 1.596l-10.663.145c-2.173 0-3.26.58-3.26 1.743 0 1.064.668 2.055 2 2.977 1.334.918 3.282 1.96 5.85 3.12.79-.098 1.334-.146 1.63-.146h1.334c4.047 0 7.776.557 11.18 1.67 3.41 1.112 6.37 2.636 8.888 4.572 2.52 1.935 4.467 4.258 5.85 6.97 1.383 2.706 2.074 5.66 2.074 8.852 0 2.515-.37 4.74-1.11 6.676-.74 1.935-1.852 3.775-3.334 5.517.593-.098 1.357-.195 2.296-.29.938-.098 1.9-.145 2.89-.145m-93.753-44.125c-1.482-1.648-3.112-2.904-4.888-3.775-1.778-.87-3.606-1.306-5.48-1.306-2.57 0-4.666.894-6.296 2.685-1.63 1.79-2.442 4.137-2.442 7.04 0 4.45 1.355 7.45 4.072 9 2.714 1.547 7.528 2.323 14.44 2.323h.89zm22.882-4.864c-.94 1.113-1.654 2.298-2.148 3.557-.494 1.256-.79 2.636-.888 4.136-.1 1.5-.15 3.267-.15 5.3l.446 24.964v5.08c0 1.355-.074 2.515-.222 3.484-.15.966-.297 1.814-.445 2.54-.148.726-.37 1.474-.666 2.25-1.483 4.16-4.32 7.353-8.518 9.58-4.197 2.224-9.503 3.338-15.92 3.338-3.458 0-6.84-.34-10.147-1.016-3.31-.678-6.838-1.792-10.59-3.34-2.665-1.064-4.887-2.032-6.665-2.9-1.033-.508-2.1-1.08-3.198-1.717-1.803-1.12-1.61-2.474-1.107-3.66 1.524-2.518 4.025-6.647 5.622-9.28 1.163-1.792 2.53-1.64 4.037-.875 3.208 1.943 6.262 3.492 9.16 4.643 3.652 1.452 7.06 2.178 10.22 2.178 3.652 0 6.048-.8 7.184-2.396 1.133-1.597 1.704-4.476 1.704-8.636v-3.047c-.793.094-1.532.145-2.222.145h-2.222c-12.145 0-21.254-2.058-27.326-6.17-6.073-4.114-9.11-10.573-9.11-19.377 0-7.45 2.223-13.186 6.665-17.2 4.445-4.014 10.91-6.024 19.404-6.024 6.32 0 11.405 1.358 15.256 4.066.788.483 1.554 1.064 2.295 1.742.742.676 1.506 1.402 2.297 2.176.987-1.936 2.444-3.678 4.37-5.225 1.133-.912 2.34-1.698 3.58-2.433 1.938-1.15 3.297-.727 4.8.918 2.04 2.24 5.096 5.634 6.82 7.82.716.91 1.124 2.17-.164 3.242-.87.724-1.574 1.452-2.15 2.136m-67.554-.11c-.29 1.257-1.555 1.31-2.392 1.09-.853-.223-1.582-.404-2.185-.544-1.037-.243-2-.364-2.89-.364-3.456 0-5.75.798-6.886 2.395-1.136 1.598-1.703 4.767-1.703 9.51v37.302h12.738l4.037 10.706c.72 2.05-.53 2.647-1.64 2.647h-15.136c0 3.773.098 7.62.296 11.54.12 2.394.278 4.69.473 6.887.366 3.603-2.175 3.34-3.775 3.045-5.902-1.448-15.952-3.91-15.952-3.91-.395-2.807-.618-5.515-.666-8.127-.05-2.613-.074-5.76-.074-9.435h-7.554v-13.353h7.554V532.04c0-1.742.023-3.17.074-4.28.048-1.115.097-2.06.148-2.832.05-.775.172-1.5.37-2.178.197-.677.445-1.403.74-2.176 1.186-3.292 3.63-5.928 7.332-7.91 3.702-1.983 8.072-2.977 13.108-2.977 4.79 0 9.707.935 14.748 2.8.738.314 1.267.84 1.085 1.975-.47 2.167-1.358 6.262-1.85 8.54m-60.932 95.256c-3.458 0-6.394-1.162-8.813-3.483-2.42-2.323-3.628-5.178-3.628-8.564 0-3.387 1.185-6.24 3.554-8.563 2.37-2.323 5.233-3.483 8.59-3.483 3.456 0 6.37 1.16 8.74 3.483 2.37 2.323 3.554 5.176 3.554 8.564 0 3.387-1.16 6.242-3.48 8.565-2.32 2.32-5.16 3.483-8.516 3.483m7.768-31.056c-3.76-.586-12.24-1.885-16.058-2.47-1.82-.317-1.93-.875-1.93-2.047v-69.238c0-1.598.954-2.018 2.11-2.018h15.99c1.387 0 1.747.38 1.747 1.903v72.25c0 1.786-.622 1.81-1.86 1.62m-25.282-.006c-.94.193-2.148.29-3.628.29-3.754 0-7.11-1.066-10.072-3.193-2.963-2.13-5.53-4.597-7.702-7.403-.295 3.968-1.332 7.498-3.11 10.597l-17.772-4.645c.79-2.13 1.456-5.033 2-8.71.54-3.678.813-8.032.813-13.062v-47.473c0-.996.502-2.168 2.115-2.168h15.54c1.27 0 2.194.368 2.194 2.167v50.376c3.65 4.16 7.7 6.24 12.144 6.24 1.026 0 2.038-.017 3.038-.242 1.83-.273 2.983-.562 3.63 1.573 1.008 3.147 2.64 8.237 3.635 11.35.88 2.78-.485 3.703-2.824 4.304m-120.457 25.11H515.35c-1.98 0-2.274-.587-2.274-2.304v-36.885h-29.622v36.885c0 2.13-1 2.38-2.985 2.304H465.34c-2.17 0-2.476-.713-2.476-2.378v-96.182c0-1.775.83-2.32 1.91-2.32h16.446c1.208 0 2.232.27 2.232 2.244v42.753h29.622V513.71c0-1.572 1.035-2.28 2.313-2.28h16.707c1.4 0 2.01.782 2.01 2.167v96.482c0 1.84-.62 2.227-1.86 2.227m-76.05-26.562h-16.32c-1.778 0-2.146-.28-2.607-1.865-2.478-7.693-10.82-33.55-10.82-33.55-.593-1.743-1.162-3.583-1.703-5.517-.544-1.936-.963-3.533-1.26-4.79-.2-.87-.444-1.983-.74-3.337-.296-1.357-.57-2.638-.815-3.847-.247-1.212-.444-2.275-.592-3.194-.148-.92-.222-1.43-.222-1.524l-4 15.386-12.543 41.295c-.512 1.637-1.596 1.966-2.956 1.84-3.883-.446-11.656-1.336-15.584-1.785-1.87-.215-2.147-1.173-1.65-2.432 4.14-12.105 24.29-70.997 24.29-70.997h5.037c-.496-1.064-.89-1.983-1.185-2.76-.297-.772-.593-1.473-.89-2.103-.296-.628-.617-1.234-.962-1.814-.347-.58-.766-1.256-1.26-2.033-1.678-2.61-3.553-4.644-5.627-6.096-1.482-1.063-3.36-2.007-5.63-2.83-1.45-.524-2.88-1-4.29-1.427-1.56-.538-1.79-1.785-1.15-2.97 1.34-2.513 3.46-6.486 4.666-8.75.67-1.342 1.998-1.617 3.22-1.358 2.62.485 5.14 1.16 7.552 2.02 3.11 1.115 5.948 2.59 8.517 4.43 1.38.966 2.666 2.128 3.85 3.482 1.185 1.357 2.345 2.976 3.48 4.862 1.135 1.887 2.297 4.163 3.482 6.822 1.184 2.663 2.418 5.783 3.702 9.362 0 0 22.164 60.724 26.73 73.24.752 2.117-.405 2.237-1.723 2.237m-79.55 24.36c-.226 1.77-.88 2.202-2.684 2.202H352.29c-1.288 0-2.337-.336-2.837-2.262L336.16 562.23c-1.58-5.902-2.814-11.37-3.703-16.4-.2 1.255-.42 2.467-.666 3.628-.247 1.162-.494 2.345-.74 3.556-.247 1.21-.544 2.515-.888 3.92-.348 1.4-.767 3.022-1.26 4.86 0 0-10.303 38.62-12.893 48.322-.705 2.168-1.924 2.19-3.345 2.19h-21.712c-1.742 0-2.154-.95-2.264-2.343l-9.187-96.252c-.14-1.686.836-2.244 2.493-2.28h15.128c1.596 0 2.662.33 2.895 2.167l3.408 50.52c.196 3.097.344 6.145.444 9.146.196 2.804.297 5.61.297 8.417.49-2.71 1.132-5.613 1.923-8.707.79-3.194 1.53-6.05 2.223-8.564l14.065-50.82c.46-1.488 1.126-2.16 2.74-2.16h12.907c2.08.075 2.596.318 3.194 2.093 2.977 10.072 15.675 53.062 15.675 53.062.89 3.096 1.604 5.734 2.148 7.91.542 2.178 1.11 4.72 1.703 7.62 0-2.71.074-5.394.222-8.055.148-2.662.32-5.588.52-8.78 0 0 3.187-42.704 3.72-52.058.097-1.676.955-1.793 2.17-1.793h16.256c1.04 0 1.985.48 1.797 2.17-1.472 13.226-7.57 83.16-8.784 96.505" fill="#fff" fill-rule="evenodd"/>
    </g>
  </g>
</svg>
