<?xml version="1.0" encoding="UTF-8" standalone="no"?>
<svg
   xmlns:dc="http://purl.org/dc/elements/1.1/"
   xmlns:cc="http://creativecommons.org/ns#"
   xmlns:rdf="http://www.w3.org/1999/02/22-rdf-syntax-ns#"
   xmlns:svg="http://www.w3.org/2000/svg"
   xmlns="http://www.w3.org/2000/svg"
   viewBox="300 -100 750 750"
   height="300"
   width="500"
   xml:space="preserve"
   id="svg2"
   version="1.1"><metadata
     id="metadata8"><rdf:RDF><cc:Work
         rdf:about=""><dc:format>image/svg+xml</dc:format><dc:type
           rdf:resource="http://purl.org/dc/dcmitype/StillImage" /></cc:Work></rdf:RDF></metadata><defs
     id="defs6"><clipPath
       id="clipPath18"
       clipPathUnits="userSpaceOnUse"><path
         id="path16"
         d="M 0,743 H 989 V 0 H 0 Z" /></clipPath><clipPath
       id="clipPath26"
       clipPathUnits="userSpaceOnUse"><path
         id="path24"
         d="M 0,635.328 H 989 V 0 H 0 Z" /></clipPath></defs><g
     transform="matrix(1.3333333,0,0,-1.3333333,0,990.66667)"
     id="g10"><g
       id="g12"><g
         clip-path="url(#clipPath18)"
         id="g14"><g
           id="g20"><g
             id="g40"><g
               id="g38"
               clip-path="url(#clipPath26)"><g
                 id="g32"
                 transform="translate(235.5959,562.6799)"><path
                   id="path30"
                   style="fill:white;fill-opacity:1;fill-rule:evenodd;stroke:none"
                   d="m 0,0 c -0.382,38.798 -31.452,70.251 -70.25,70.251 -38.798,0 -70.25,-31.452 -70.25,-70.251 0,-33.92 24.037,-62.222 55.811,-68.626 10.628,-2.14 12.096,24.917 9.186,42.86 -0.051,0.003 -3.205,0.185 -4.259,0.228 -2.182,0.089 -4.243,-2.407 -5.578,-2.893 -2.272,-0.827 -2.703,1.435 -4.345,1.435 -1.437,0 -3.365,-2.235 -8.672,-1.229 -5.364,1.019 -7.101,5.872 -7.101,5.872 l -1.612,0.848 c -5.475,1.364 -5.772,7.347 -5.808,7.688 -0.31,2.926 4.802,5.137 3.363,6.049 -6.199,3.927 -4.199,7.018 -4.14,7.177 0.79,2.083 3.797,6.583 2.694,7.285 -3.039,1.938 1.951,13.204 6.337,16.336 0.666,3.567 4.51,9.401 8.228,10.633 -0.205,4.046 5.451,6.339 5.451,6.339 3.96,1.274 1.186,4.548 8.778,4.028 1.777,-0.121 1.724,1.896 6.13,1.996 1.276,0.028 2.676,1.022 6.576,1.022 6.842,0.299 6.526,-4.327 8.817,-3.541 2.893,0.993 12.529,-3.738 13.528,-13.466 4.328,0.335 15.685,-12.172 15.353,-21.401 7.466,-8.387 -2.711,-16.329 -3.117,-17.866 0.291,-0.87 1.794,-4.68 1.194,-7.634 -0.703,-3.457 -5.083,-7.229 -5.262,-7.359 -3.073,-2.209 -5.344,-4.708 -8.997,-4.022 -3.774,0.706 -3.057,4.182 -4.179,5.026 -2.425,-2.156 -6.075,-3.985 -10.747,-3.607 -0.551,0.092 -2.582,0.299 -2.845,0.326 -2.239,-13.211 -1.922,-42.728 7.436,-42.714 C -30.064,-64.899 0.373,-37.728 0,0 m -146.197,0 c 0,37.404 29.229,70.069 66.091,72.22 -52.844,4.876 -86.437,-32.644 -86.437,-72.22 0,-39.573 34.377,-77.831 86.439,-72.218 -36.864,2.151 -66.093,34.817 -66.093,72.218 m 85.803,72.22 C -23.531,70.069 5.697,37.404 5.697,0 c 0,-37.401 -29.228,-70.067 -66.092,-72.218 53.403,-4.699 86.438,32.645 86.438,72.218 0,39.576 -32.905,76.836 -86.437,72.22 M 349.687,-5.964 h -22.956 v 0.29 c 0,5.225 1.036,9.216 3.11,11.974 2.074,2.759 4.985,4.138 8.739,4.138 3.85,0 6.761,-1.452 8.738,-4.355 0.888,-1.356 1.504,-2.855 1.851,-4.499 0.345,-1.648 0.518,-3.873 0.518,-6.677 z m 18.144,9.796 c -1.629,5.176 -4.173,9.508 -7.627,12.992 -2.47,2.514 -5.628,4.449 -9.48,5.806 -3.85,1.354 -7.998,2.032 -12.441,2.032 -5.035,0 -9.479,-0.823 -13.329,-2.468 -3.852,-1.647 -7.357,-4.161 -10.517,-7.548 -3.358,-3.678 -5.776,-7.838 -7.257,-12.482 -1.482,-4.645 -2.222,-10.306 -2.222,-16.982 0,-5.806 0.838,-11.081 2.518,-15.822 1.677,-4.742 4.074,-8.782 7.184,-12.119 3.11,-3.339 6.887,-5.929 11.331,-7.766 4.442,-1.837 9.378,-2.758 14.811,-2.758 9.78,0 18.742,3 26.886,9.001 1.192,0.79 1.351,1.973 0.539,3.055 -1.347,2.029 -3.572,5.382 -5.046,7.607 -1.249,1.988 -2.48,1.471 -3.493,0.74 -5.518,-3.925 -11.27,-5.888 -17.258,-5.888 -5.135,0 -9.086,1.546 -11.848,4.645 -2.766,3.095 -4.147,7.548 -4.147,13.354 v 0.58 h 40.81 c 3.515,0 3.029,4.499 3.029,4.499 0,7.839 -0.813,14.345 -2.443,19.522 M 663.89,-5.674 c 0,5.225 1.037,9.216 3.111,11.974 2.074,2.759 4.985,4.138 8.739,4.138 3.85,0 6.761,-1.452 8.739,-4.355 0.887,-1.356 1.504,-2.855 1.85,-4.499 0.345,-1.648 0.519,-3.873 0.519,-6.677 V -5.964 H 663.89 Z m 40.514,-14.515 c 3.517,0 3.031,4.499 3.031,4.499 0,7.839 -0.815,14.345 -2.443,19.522 -1.63,5.176 -4.173,9.508 -7.628,12.992 -2.469,2.514 -5.628,4.449 -9.479,5.806 -3.851,1.354 -7.998,2.032 -12.441,2.032 -5.037,0 -9.48,-0.823 -13.33,-2.468 -3.851,-1.647 -7.358,-4.161 -10.516,-7.548 -3.359,-3.678 -5.776,-7.838 -7.258,-12.482 -1.481,-4.645 -2.222,-10.306 -2.222,-16.982 0,-5.806 0.839,-11.081 2.519,-15.822 1.678,-4.742 4.072,-8.782 7.183,-12.119 3.111,-3.339 6.887,-5.929 11.331,-7.766 4.443,-1.837 9.379,-2.758 14.81,-2.758 9.781,0 18.744,3 26.887,9.001 1.193,0.79 1.351,1.973 0.538,3.055 -1.345,2.029 -3.57,5.382 -5.046,7.607 -1.247,1.988 -2.48,1.471 -3.491,0.74 -5.519,-3.925 -11.271,-5.888 -17.259,-5.888 -5.134,0 -9.085,1.546 -11.848,4.645 -2.766,3.095 -4.148,7.548 -4.148,13.354 v 0.58 z m -103.754,8.71 c -3.458,0 -6.271,0.82 -8.443,2.466 -2.172,1.644 -3.258,4.355 -3.258,8.128 0,3.485 1.037,6.193 3.11,8.129 2.074,1.935 4.985,2.904 8.739,2.904 3.752,0 6.688,-0.969 8.812,-2.904 2.123,-1.936 3.185,-4.644 3.185,-8.129 0,-7.064 -4.05,-10.594 -12.145,-10.594 m 33.325,20.901 c 2.763,0 5.232,0.435 7.406,1.305 1.549,0.622 3.1,1.515 4.651,2.68 1.284,0.871 1.43,2.376 0.452,3.632 -1.366,2.031 -3.444,5.124 -4.961,7.379 -1.123,1.859 -2.074,2.414 -4.079,1.112 -1.668,-1.211 -3.441,-2.202 -5.321,-2.973 -2.717,-1.114 -5.457,-1.669 -8.22,-1.669 -1.284,0 -2.643,0.145 -4.072,0.435 -1.433,0.291 -3.185,0.676 -5.259,1.162 -2.765,0.675 -5.184,1.161 -7.258,1.451 -2.072,0.291 -4.198,0.436 -6.368,0.436 -4.839,0 -9.234,-0.606 -13.182,-1.815 -3.951,-1.212 -7.308,-2.903 -10.072,-5.08 -2.764,-2.177 -4.912,-4.816 -6.442,-7.91 -1.532,-3.099 -2.295,-6.532 -2.295,-10.306 0,-11.031 5.429,-17.903 16.291,-20.611 -3.161,-0.776 -5.653,-1.647 -7.48,-2.613 -1.828,-0.967 -3.208,-1.984 -4.146,-3.047 -0.939,-1.067 -1.556,-2.178 -1.852,-3.339 -0.296,-1.162 -0.444,-2.323 -0.444,-3.483 0,-2.519 0.518,-4.598 1.555,-6.243 1.037,-1.646 2.445,-2.807 4.221,-3.483 3.456,-1.451 9.528,-2.226 18.218,-2.323 l 8.442,-0.145 c 3.948,-0.097 7.258,-0.749 9.924,-1.958 2.665,-1.212 3.999,-3.507 3.999,-6.894 0,-1.549 -0.445,-2.977 -1.334,-4.283 -0.889,-1.307 -2.074,-2.396 -3.554,-3.265 -1.58,-0.968 -3.407,-1.621 -5.481,-1.96 -2.072,-0.338 -4.394,-0.508 -6.961,-0.508 -4.641,0 -8.171,0.775 -10.589,2.323 -2.42,1.548 -3.629,3.823 -3.629,6.821 0,1.066 0.049,1.911 0.148,2.54 0.098,0.631 0.345,2.482 -1.467,2.25 h -16.157 c -0.397,-0.774 -0.793,-1.717 -1.186,-2.831 -0.395,-1.111 -0.592,-2.684 -0.592,-4.717 0,-5.031 2.074,-9.435 6.22,-13.208 3.455,-3.096 7.751,-5.201 12.886,-6.314 5.133,-1.111 10.417,-1.669 15.848,-1.669 5.924,0 11.551,0.726 16.885,2.177 5.331,1.451 9.675,3.919 13.033,7.403 4.047,4.259 6.072,9.386 6.072,15.386 0,6.579 -2.173,11.851 -6.516,15.82 -2.667,2.417 -5.728,4.112 -9.184,5.081 -3.457,0.966 -8.048,1.499 -13.774,1.595 l -10.663,0.145 c -2.173,0 -3.259,0.581 -3.259,1.743 0,1.063 0.667,2.054 2,2.976 1.333,0.918 3.281,1.959 5.85,3.12 0.79,-0.098 1.333,-0.146 1.63,-0.146 h 1.333 c 4.047,0 7.776,0.556 11.181,1.67 3.408,1.111 6.369,2.635 8.887,4.571 2.519,1.935 4.467,4.258 5.85,6.969 1.383,2.707 2.074,5.66 2.074,8.853 0,2.515 -0.37,4.74 -1.111,6.676 -0.74,1.935 -1.851,3.775 -3.333,5.517 0.593,-0.098 1.357,-0.195 2.296,-0.29 0.938,-0.098 1.901,-0.145 2.889,-0.145 m -93.752,-44.125 c -1.481,-1.648 -3.111,-2.904 -4.887,-3.775 -1.778,-0.871 -3.606,-1.306 -5.481,-1.306 -2.569,0 -4.665,0.894 -6.295,2.685 -1.629,1.79 -2.442,4.136 -2.442,7.04 0,4.45 1.355,7.45 4.072,8.999 2.714,1.547 7.528,2.323 14.441,2.323 h 0.889 z m 22.883,-4.864 c -0.94,1.113 -1.654,2.298 -2.148,3.557 -0.494,1.256 -0.791,2.636 -0.888,4.136 -0.1,1.499 -0.149,3.267 -0.149,5.299 l 0.445,24.965 v 5.081 c 0,1.354 -0.074,2.514 -0.222,3.483 -0.149,0.966 -0.297,1.814 -0.445,2.54 -0.148,0.726 -0.37,1.474 -0.666,2.249 -1.482,4.16 -4.32,7.354 -8.517,9.58 -4.197,2.225 -9.503,3.339 -15.921,3.339 -3.457,0 -6.839,-0.34 -10.146,-1.016 -3.309,-0.678 -6.838,-1.792 -10.59,-3.339 -2.665,-1.065 -4.887,-2.033 -6.665,-2.902 -1.033,-0.507 -2.099,-1.079 -3.198,-1.716 -1.803,-1.118 -1.609,-2.473 -1.107,-3.66 1.524,-2.517 4.025,-6.646 5.622,-9.279 1.163,-1.792 2.53,-1.641 4.037,-0.875 3.208,1.943 6.262,3.492 9.161,4.643 3.651,1.452 7.059,2.178 10.22,2.178 3.651,0 6.047,-0.799 7.183,-2.396 1.133,-1.597 1.704,-4.476 1.704,-8.636 v -3.047 c -0.793,0.094 -1.532,0.145 -2.222,0.145 h -2.222 c -12.145,0 -21.254,-2.058 -27.326,-6.169 -6.073,-4.115 -9.109,-10.574 -9.109,-19.378 0,-7.451 2.222,-13.186 6.664,-17.199 4.445,-4.015 10.911,-6.025 19.404,-6.025 6.318,0 11.404,1.357 15.255,4.065 0.788,0.483 1.554,1.064 2.295,1.742 0.741,0.676 1.505,1.402 2.296,2.176 0.987,-1.936 2.444,-3.678 4.369,-5.225 1.134,-0.911 2.342,-1.697 3.582,-2.432 1.937,-1.15 3.296,-0.727 4.798,0.918 2.041,2.239 5.097,5.634 6.82,7.821 0.717,0.908 1.125,2.169 -0.163,3.241 -0.869,0.724 -1.574,1.452 -2.151,2.136 m -67.553,-0.111 c -0.289,1.258 -1.554,1.311 -2.391,1.092 -0.853,-0.224 -1.582,-0.405 -2.185,-0.545 -1.037,-0.242 -2,-0.363 -2.889,-0.363 -3.457,0 -5.752,0.798 -6.887,2.395 -1.136,1.597 -1.703,4.766 -1.703,9.508 V 9.712 h 12.738 c 0,0 2.569,6.813 4.037,10.706 0.722,2.05 -0.53,2.647 -1.64,2.647 h -15.135 c 0,3.773 0.098,7.621 0.296,11.539 0.12,2.395 0.278,4.691 0.473,6.888 0.366,3.603 -2.175,3.341 -3.775,3.045 -5.902,-1.448 -15.952,-3.91 -15.952,-3.91 -0.395,-2.807 -0.618,-5.515 -0.666,-8.127 -0.051,-2.613 -0.074,-5.759 -0.074,-9.435 h -7.554 V 9.712 H 459.8 V -30.64 c 0,-1.742 0.023,-3.17 0.074,-4.281 0.048,-1.114 0.097,-2.058 0.148,-2.831 0.049,-0.775 0.172,-1.501 0.37,-2.178 0.197,-0.677 0.445,-1.403 0.741,-2.176 1.185,-3.292 3.628,-5.928 7.331,-7.91 3.702,-1.983 8.072,-2.977 13.108,-2.977 4.79,0 9.707,0.935 14.748,2.8 0.738,0.314 1.267,0.84 1.085,1.975 -0.471,2.167 -1.359,6.262 -1.852,8.54 m -60.931,95.256 c -3.458,0 -6.394,-1.162 -8.813,-3.483 -2.421,-2.323 -3.628,-5.178 -3.628,-8.564 0,-3.388 1.185,-6.241 3.554,-8.564 2.37,-2.323 5.232,-3.483 8.59,-3.483 3.455,0 6.369,1.16 8.739,3.483 2.369,2.323 3.554,5.176 3.554,8.564 0,3.386 -1.161,6.241 -3.48,8.564 -2.321,2.321 -5.161,3.483 -8.516,3.483 m 7.768,-31.056 c -3.76,-0.586 -12.239,-1.885 -16.058,-2.469 -1.821,-0.318 -1.931,-0.876 -1.931,-2.048 v -69.238 c 0,-1.598 0.955,-2.018 2.11,-2.018 h 15.992 c 1.386,0 1.746,0.381 1.746,1.904 v 72.249 c 0,1.787 -0.622,1.812 -1.859,1.62 m -25.283,-0.005 c -0.939,0.193 -2.148,0.29 -3.628,0.29 -3.754,0 -7.111,-1.066 -10.072,-3.193 -2.963,-2.131 -5.531,-4.597 -7.702,-7.403 -0.296,3.967 -1.333,7.497 -3.111,10.596 l -17.772,-4.645 c 0.79,-2.129 1.456,-5.033 2,-8.709 0.541,-3.679 0.813,-8.033 0.813,-13.063 v -47.473 c 0,-0.996 0.501,-2.168 2.114,-2.168 h 15.54 c 1.27,0 2.194,0.369 2.194,2.168 V 1.293 c 3.652,4.16 7.702,6.241 12.145,6.241 1.026,0 2.038,-0.018 3.038,-0.243 1.829,-0.274 2.983,-0.563 3.629,1.572 1.009,3.147 2.64,8.237 3.636,11.351 0.881,2.779 -0.485,3.702 -2.824,4.303 M 296.65,49.627 h -16.895 c -1.98,0 -2.275,-0.587 -2.275,-2.304 V 10.438 h -29.622 v 36.885 c 0,2.13 -0.999,2.379 -2.985,2.304 h -15.127 c -2.171,0 -2.476,-0.713 -2.476,-2.378 v -96.181 c 0,-1.775 0.831,-2.319 1.911,-2.319 h 16.445 c 1.208,0 2.232,0.269 2.232,2.243 v 42.753 h 29.622 v -42.716 c 0,-1.571 1.035,-2.28 2.313,-2.28 h 16.708 c 1.401,0 2.01,0.783 2.01,2.168 v 96.482 c 0,1.841 -0.621,2.228 -1.861,2.228 M 220.601,23.065 h -16.319 c -1.779,0 -2.147,-0.281 -2.608,-1.865 -2.478,-7.693 -10.82,-33.55 -10.82,-33.55 -0.593,-1.743 -1.162,-3.583 -1.703,-5.517 -0.544,-1.936 -0.963,-3.533 -1.259,-4.79 -0.2,-0.871 -0.445,-1.983 -0.741,-3.337 -0.296,-1.357 -0.57,-2.638 -0.815,-3.847 -0.247,-1.211 -0.444,-2.274 -0.592,-3.193 -0.148,-0.921 -0.222,-1.429 -0.222,-1.524 l -3.999,15.386 c 0,0 -9.906,32.613 -12.544,41.295 -0.512,1.637 -1.596,1.966 -2.956,1.839 -3.882,-0.445 -11.655,-1.335 -15.583,-1.784 -1.87,-0.215 -2.147,-1.173 -1.651,-2.432 4.142,-12.105 24.292,-70.997 24.292,-70.997 h 5.036 c -0.496,-1.063 -0.889,-1.982 -1.185,-2.758 -0.297,-0.773 -0.593,-1.474 -0.889,-2.104 -0.297,-0.628 -0.618,-1.234 -0.963,-1.814 -0.347,-0.581 -0.766,-1.256 -1.259,-2.033 -1.679,-2.611 -3.554,-4.644 -5.628,-6.096 -1.481,-1.063 -3.358,-2.007 -5.628,-2.831 -1.451,-0.523 -2.881,-1 -4.29,-1.426 -1.561,-0.538 -1.792,-1.785 -1.152,-2.97 1.34,-2.513 3.46,-6.486 4.667,-8.751 0.67,-1.341 1.998,-1.616 3.219,-1.357 2.622,0.486 5.14,1.16 7.553,2.022 3.11,1.114 5.948,2.59 8.517,4.428 1.381,0.967 2.666,2.129 3.851,3.483 1.184,1.357 2.344,2.976 3.48,4.862 1.134,1.887 2.296,4.163 3.481,6.822 1.184,2.663 2.418,5.783 3.702,9.362 0,0 22.165,60.724 26.732,73.239 0.751,2.118 -0.406,2.238 -1.724,2.238 m -79.551,24.36 c -0.225,1.769 -0.878,2.202 -2.683,2.202 h -21.674 c -1.287,0 -2.336,-0.336 -2.836,-2.262 -2.714,-9.764 -13.293,-47.814 -13.293,-47.814 -1.581,-5.903 -2.814,-11.371 -3.703,-16.402 -0.199,1.256 -0.421,2.468 -0.666,3.629 -0.248,1.162 -0.495,2.345 -0.741,3.556 -0.247,1.209 -0.544,2.515 -0.888,3.92 -0.348,1.401 -0.767,3.022 -1.259,4.861 0,0 -10.304,38.618 -12.894,48.321 -0.704,2.168 -1.923,2.191 -3.344,2.191 H 55.357 c -1.742,0 -2.154,-0.95 -2.264,-2.344 -1.303,-13.652 -7.899,-82.771 -9.186,-96.252 -0.139,-1.687 0.836,-2.245 2.493,-2.282 h 15.128 c 1.596,0 2.662,0.331 2.895,2.168 0.67,9.922 3.409,50.521 3.409,50.521 0.196,3.096 0.344,6.144 0.444,9.145 0.196,2.804 0.297,5.61 0.297,8.417 0.492,-2.709 1.133,-5.613 1.924,-8.707 0.79,-3.194 1.53,-6.049 2.223,-8.564 0,0 11.313,-40.879 14.065,-50.82 0.458,-1.487 1.125,-2.16 2.739,-2.16 h 12.907 c 2.08,0.076 2.596,0.319 3.194,2.094 2.976,10.072 15.674,53.062 15.674,53.062 0.889,3.096 1.604,5.734 2.148,7.911 0.542,2.177 1.11,4.718 1.703,7.62 0,-2.71 0.074,-5.395 0.222,-8.056 0.148,-2.662 0.32,-5.588 0.519,-8.78 0,0 3.188,-42.704 3.722,-52.058 0.096,-1.676 0.954,-1.793 2.169,-1.793 h 16.256 c 1.041,0 1.985,0.482 1.797,2.171 -1.473,13.226 -7.57,83.161 -8.785,96.505" /></g></g></g></g></g></g></g></svg>
