<?xml version="1.0" encoding="utf-8"?>
<!-- Generator: Adobe Illustrator 19.2.1, SVG Export Plug-In . SVG Version: 6.00 Build 0)  -->
<svg version="1.1" id="LOGO_PROTOTYP" xmlns="http://www.w3.org/2000/svg" xmlns:xlink="http://www.w3.org/1999/xlink" x="0px"
	 y="0px" viewBox="0 0 449.6 140.4" style="enable-background:new 0 0 449.6 140.4;" xml:space="preserve">
<style type="text/css">
	.st0{display:none;fill:#929395;}
	.st1{font-family:'HelveticaNeueCE-Light';}
	.st2{font-size:32.5px;}
	.st3{letter-spacing:6;}
	.st4{display:none;}
	.st5{display:inline;}
	.st6{fill:#929395;}
	.st7{clip-path:url(#SVGID_2_);}
	.st8{fill:#E6442D;}
	.st9{display:inline;fill:#FFFFFF;}
	.st10{clip-path:url(#SVGID_6_);fill:#E53B2C;}
	.st11{clip-path:url(#SVGID_6_);fill:#E95C33;}
	.st12{fill:#D6D4D2;}
	.st13{fill:none;stroke:#87847F;stroke-width:0.222;}
	.st14{fill:#D6D4D2;stroke:#87847F;stroke-width:0.222;}
	.st15{fill:#ECEDED;}
	.st16{fill:none;stroke:#87847F;stroke-width:0.444;}
	.st17{fill:#78B41E;}
	.st18{fill:#FECB00;}
	.st19{fill:#294388;}
	.st20{fill:#4B4B4D;stroke:#87847F;stroke-width:0.444;}
	.st21{clip-path:url(#SVGID_8_);}
	.st22{fill:none;stroke:#6A6863;stroke-width:0.222;}
	.st23{fill:none;stroke:#BDBBB7;stroke-width:0.222;}
	.st24{clip-path:url(#SVGID_10_);}
	.st25{fill:#E53B2C;}
	.st26{fill:#E95C33;}
	.st27{opacity:0.65;clip-path:url(#SVGID_12_);fill:url(#SVGID_13_);}
	.st28{opacity:0.3;clip-path:url(#SVGID_12_);fill:url(#SVGID_14_);}
	.st29{fill:#FFFFFF;}
	.st30{fill:none;stroke:#E5392A;stroke-width:1.776;}
	.st31{opacity:0.65;clip-path:url(#SVGID_16_);}
	.st32{filter:url(#Adobe_OpacityMaskFilter);}
	.st33{mask:url(#SVGID_17_);}
	.st34{fill:#1A171B;}
	.st35{clip-path:url(#SVGID_16_);}
	.st36{fill:#B9BBBC;}
	.st37{fill:none;stroke:#58585A;stroke-width:0.222;}
	.st38{fill:#4B4B4D;}
	.st39{display:inline;fill:#929395;}
	.st40{display:none;clip-path:url(#SVGID_19_);}
	.st41{clip-path:url(#SVGID_21_);}
	.st42{clip-path:url(#SVGID_23_);}
	.st43{clip-path:url(#SVGID_26_);}
	.st44{clip-path:url(#SVGID_27_);}
</style>
<text id="Text_als_Schrift_für_weitere_Bereiche" transform="matrix(1 0 0 1 155.2002 112.8838)" class="st0 st1 st2 st3">JOBS</text>
<g id="Directory_Logo_1_" class="st4">
	<g id="Text_DIRECTORY" class="st5">
		<path class="st6" d="M155.9,92.6h8c7,0,10.7,4,10.7,11.6c0,7.6-3.7,11.6-10.7,11.6h-8V92.6z M158.1,113.9h4.7
			c6.7,0,9.6-2.8,9.6-9.7c0-6.9-2.9-9.7-9.6-9.7h-4.7V113.9z"/>
		<path class="st6" d="M185.1,92.6h2.2v23.2h-2.2V92.6z"/>
		<path class="st6" d="M198.9,92.6h10.6c3.8,0,7.1,1.9,7.1,6c0,2.9-1.5,5.3-4.5,5.9v0.1c3,0.4,3.9,2.5,4.1,5.2
			c0.1,1.6,0.1,4.8,1.1,5.9h-2.4c-0.6-0.9-0.6-2.6-0.6-3.6c-0.2-3.2-0.5-6.9-4.6-6.7h-8.4v10.3h-2.2V92.6z M201.1,103.6h8.3
			c2.7,0,5-1.7,5-4.5c0-2.8-1.7-4.6-5-4.6h-8.3V103.6z"/>
		<path class="st6" d="M227.3,92.6h16v1.9h-13.8v8.4h12.9v1.9h-12.9v9.2h14v1.9h-16.2V92.6z"/>
		<path class="st6" d="M270.3,99.6c-0.8-3.6-3.7-5.6-7.1-5.6c-6.1,0-8.7,5.1-8.7,10.2c0,5.1,2.6,10.2,8.7,10.2c4.3,0,7-3.3,7.4-7.4
			h2.2c-0.6,5.7-4.2,9.3-9.7,9.3c-7.3,0-11-5.8-11-12.1c0-6.3,3.6-12.1,11-12.1c4.4,0,8.7,2.6,9.3,7.5H270.3z"/>
		<path class="st6" d="M280.5,92.6h18.4v1.9h-8.1v21.3h-2.2V94.4h-8.1V92.6z"/>
		<path class="st6" d="M317.6,92.1c7.3,0,10.9,5.8,10.9,12.1c0,6.3-3.6,12.1-10.9,12.1c-7.3,0-11-5.8-11-12.1
			C306.6,97.8,310.2,92.1,317.6,92.1z M317.6,114.4c6.1,0,8.7-5.1,8.7-10.2c0-5.1-2.6-10.2-8.7-10.2c-6.1,0-8.7,5.1-8.7,10.2
			C308.8,109.2,311.4,114.4,317.6,114.4z"/>
		<path class="st6" d="M338.7,92.6h10.6c3.8,0,7.1,1.9,7.1,6c0,2.9-1.5,5.3-4.5,5.9v0.1c3,0.4,3.9,2.5,4.1,5.2
			c0.1,1.6,0.1,4.8,1.1,5.9h-2.4c-0.6-0.9-0.6-2.6-0.6-3.6c-0.2-3.2-0.5-6.9-4.6-6.7h-8.4v10.3h-2.2V92.6z M340.9,103.6h8.3
			c2.7,0,5-1.7,5-4.5c0-2.8-1.7-4.6-5-4.6h-8.3V103.6z"/>
		<path class="st6" d="M373.6,106.2l-9.1-13.7h2.6l7.6,11.8l7.6-11.8h2.6l-9.2,13.7v9.6h-2.2V106.2z"/>
	</g>
	<g id="S_Directory">
		<g class="st5">
			<defs>
				
					<rect id="SVGID_1_" x="22.7" y="21.8" transform="matrix(0.975 -0.2221 0.2221 0.975 -13.7318 19.157)" width="111.3" height="97.7"/>
			</defs>
			<clipPath id="SVGID_2_">
				<use xlink:href="#SVGID_1_"  style="overflow:visible;"/>
			</clipPath>
			<g class="st7">
				<defs>
					
						<rect id="SVGID_3_" x="22.7" y="21.8" transform="matrix(0.975 -0.2221 0.2221 0.975 -13.7298 19.1551)" width="111.3" height="97.7"/>
				</defs>
				<clipPath id="SVGID_4_">
					<use xlink:href="#SVGID_3_"  style="overflow:visible;"/>
				</clipPath>
				<g transform="matrix(1 -1.490116e-08 -1.490116e-08 1 9.536743e-07 0)" style="clip-path:url(#SVGID_4_);">
					
						<image style="overflow:visible;" width="465" height="536" xlink:href="E52044BDEDD8744B.png"  transform="matrix(0.2334 -5.316000e-02 4.048900e-02 0.1778 13.1972 35.3496)">
					</image>
				</g>
			</g>
		</g>
		<g class="st5">
			<path class="st8" d="M55.2,125.3l72.8-16.8c0,0,4.3-2.2,4.3-4.4c0-2.2,0-2.9,0-2.9l-18-77.2c0,0-1.2-5.2-13.8-1.7
				c-12.6,3.4-52.5,12-52.5,12l-12.8,2.9"/>
		</g>
		<polygon class="st9" points="49.9,33.5 50.6,98.6 50.2,107.2 53.6,121.7 56.9,124.9 126.1,109 117.2,30.5 109.7,24 100,22.1 		"/>
		<g class="st5">
			<defs>
				<polygon id="SVGID_5_" points="29,19.2 57.5,137.7 147.6,112.3 136,21.1 113.7,1.8 				"/>
			</defs>
			<clipPath id="SVGID_6_">
				<use xlink:href="#SVGID_5_"  style="overflow:visible;"/>
			</clipPath>
			<path class="st10" d="M66.3,122.3c-3.9-1-9-3.2-15.1-6.5l8.2-18.3c6.9,5.4,14.6,8.2,23.2,8.2c8.9,0,13.4-3.2,13.4-9.5
				c0-3.7-1.3-6.8-4-9.2c-2.7-2.4-7.9-5.2-15.7-8.4c-16.9-7-25.4-16.9-25.4-29.5c0-7.2,2.3-13,7-17.5l-19.1,4.4
				c-5.5,1.3-9,6.8-7.7,12.3l15.8,68.3c1.3,5.5,6.8,9,12.4,7.7l7.8-1.8C66.7,122.4,66.5,122.4,66.3,122.3"/>
			<path class="st10" d="M135.1,96.2l-15.8-68.3c-1.3-5.5-6.8-9-12.4-7.7l-11.4,2.6c6.5,1,12.7,3.1,18.7,6.1l-6.6,17.8
				c-5-4.3-12-6.4-20.9-6.4c-8,0-12,3.2-12,9.5c0,2.5,1.3,4.8,3.9,6.8c2.6,2,8.3,4.7,16.9,8.2c8.6,3.4,14.8,7.5,18.6,12.3
				c3.8,4.8,5.7,10.7,5.7,17.5c0,6.7-1.8,12.3-5.5,16.9l13-3C132.9,107.2,136.4,101.7,135.1,96.2"/>
			<path class="st11" d="M50.8,49c0-6.1,1.7-11.2,5-15.4l-15,3.5c-5.5,1.3-9,6.8-7.7,12.4l8.7,37.8C47,81.1,55,74.7,64.2,72.1
				C55.3,65.9,50.8,58.2,50.8,49 M118.2,29.8c-1.3-5.5-6.8-9-12.4-7.7l-6.4,1.5c5.1,1.1,10,2.9,14.8,5.3l-6.6,17.8
				c-5-4.3-12-6.4-20.9-6.4c-8,0-12,3.2-12,9.5c0,2.5,1.3,4.8,3.9,6.8c2.6,2,8.3,4.7,16.9,8.2c5.9,2.3,10.6,4.9,14.3,7.9
				c7.1-4.9,11.9-12.9,14.2-17.7L118.2,29.8z"/>
		</g>
	</g>
	<g id="S_mit_Notizbuch" class="st5">
		<g id="BG_oberer_Buchrand">
			<path class="st12" d="M91,22.3l10.8-2.8c0,0,6-2.4,7.3,6.8l-12.2,1.8"/>
			<g>
				<path class="st12" d="M109.2,26.3L21.1,47.7c-1.3,0.3-2.7-0.5-3.1-1.8l-0.9-3.7c-0.3-1.3,0.5-2.7,1.8-3L91,22"/>
			</g>
		</g>
		<g id="Striche_oberer_Buchrand">
			<line class="st13" x1="103.1" y1="24.2" x2="19.9" y2="44"/>
			<line class="st13" x1="102.7" y1="23.1" x2="19.6" y2="42.8"/>
			<line class="st14" x1="101.8" y1="22" x2="19.3" y2="41.7"/>
		</g>
		<g id="Oberer_Buchrand">
			<path class="st15" d="M100,19.9c0,0,4.4,4.6,3.9,7.7c0,0,2.4-1.7,4.2-1.4C108.2,26.2,103.7,19.5,100,19.9z"/>
			<g>
				<path class="st16" d="M18.2,46.9l-1.1-4.6c-0.3-1.3,0.5-2.7,1.9-3l5-1.2"/>
			</g>
			<g>
				<path class="st16" d="M24,38.1l78.3-18.7c2.7-0.6,5.4,1,6.1,3.7l1.7,7.3"/>
			</g>
			<path class="st16" d="M17.6,44.4c0.3,1.3,1.7,2.2,3,1.9l5.6-1.3"/>
		</g>
		<g id="Reiter">
			<g>
				<path class="st17" d="M119.6,56c-0.3,0.1-0.6,0-0.7-0.4l-5.3-22.1c-0.1-0.3,0.1-0.6,0.5-0.6l9-0.5c0.3,0,0.7,0.2,0.8,0.6
					l4.4,18.5c0.1,0.3-0.1,0.7-0.4,0.9L119.6,56z"/>
				<path class="st13" d="M119.6,56c-0.3,0.1-0.6,0-0.7-0.4l-5.3-22.1c-0.1-0.3,0.1-0.6,0.5-0.6l9-0.5c0.3,0,0.7,0.2,0.8,0.6
					l4.4,18.5c0.1,0.3-0.1,0.7-0.4,0.9L119.6,56z"/>
			</g>
			<g>
				<path class="st18" d="M124.9,78.3c-0.3,0.1-0.6,0-0.7-0.4l-5.3-22.1c-0.1-0.3,0.1-0.6,0.5-0.6l9-0.5c0.3,0,0.7,0.2,0.8,0.6
					l4.4,18.5c0.1,0.3-0.1,0.7-0.4,0.9L124.9,78.3z"/>
				<path class="st13" d="M124.9,78.3c-0.3,0.1-0.6,0-0.7-0.4l-5.3-22.1c-0.1-0.3,0.1-0.6,0.5-0.6l9-0.5c0.3,0,0.7,0.2,0.8,0.6
					l4.4,18.5c0.1,0.3-0.1,0.7-0.4,0.9L124.9,78.3z"/>
			</g>
			<g>
				<path class="st19" d="M130.2,100.6c-0.3,0.1-0.6,0-0.7-0.4l-5.3-22.1c-0.1-0.3,0.1-0.6,0.5-0.6l9-0.5c0.3,0,0.7,0.2,0.8,0.6
					l4.4,18.5c0.1,0.3-0.1,0.7-0.4,0.9L130.2,100.6z"/>
				<path class="st13" d="M130.2,100.6c-0.3,0.1-0.6,0-0.7-0.4l-5.3-22.1c-0.1-0.3,0.1-0.6,0.5-0.6l9-0.5c0.3,0,0.7,0.2,0.8,0.6
					l4.4,18.5c0.1,0.3-0.1,0.7-0.4,0.9L130.2,100.6z"/>
			</g>
		</g>
		<path id="Buchrücken" class="st20" d="M55.8,128.1l-6.9,1.6c-5.7,1.4-11.4-2.2-12.8-7.8l-17.9-75l1.6-0.4l15.6-3.7"/>
		<g id="Striche_Buchrücken">
			<defs>
				<path id="SVGID_7_" d="M55.8,128.1l-6.9,1.6c-5.7,1.4-11.4-2.2-12.8-7.8l-17.9-75l17.2-4.1"/>
			</defs>
			<clipPath id="SVGID_8_">
				<use xlink:href="#SVGID_7_"  style="overflow:visible;"/>
			</clipPath>
			<g class="st21">
				<line class="st22" x1="27.3" y1="44.8" x2="47.6" y2="129.8"/>
				<line class="st23" x1="29.6" y1="44.2" x2="50" y2="129.3"/>
			</g>
			<use xlink:href="#SVGID_7_"  style="overflow:visible;fill:none;stroke:#87847F;stroke-width:0.444;"/>
		</g>
		<g id="Das_S">
			<defs>
				<path id="SVGID_9_" d="M35.4,42.5l68.3-16.3c5.7-1.3,11.4,2.2,12.7,7.8L132,99.3c1.3,5.7-2.2,11.4-7.8,12.7l-68.3,16.3"/>
			</defs>
			<clipPath id="SVGID_10_">
				<use xlink:href="#SVGID_9_"  style="overflow:visible;"/>
			</clipPath>
			<g id="S_1_" class="st24">
				<g id="Kasten_1_">
					<path class="st25" d="M133.8,100.3l-16.4-69c-1.3-5.6-6.9-9.1-12.5-7.7l-11.6,2.8c1.3,0.2,2.7,0.4,4,0.7l6.5-1.5
						c5.6-1.3,11.2,2.1,12.5,7.7l6,25.5c-2.3,4.9-7.1,13-14.3,18c1.7,1.4,3.2,2.9,4.4,4.4c3.9,4.9,5.8,10.8,5.9,17.7
						c0,6.8-1.8,12.5-5.4,17.1l13.1-3.1C131.7,111.5,135.1,105.9,133.8,100.3z"/>
					<path class="st25" d="M49,120.7l8.2-18.5c7,5.5,14.8,8.2,23.5,8.1c9-0.1,13.5-3.3,13.5-9.7c0-3.8-1.4-6.9-4.1-9.3
						c-2.7-2.4-8-5.2-15.9-8.4c-4.7-1.9-8.7-4.1-12.1-6.4c-9.4,2.7-17.4,9.1-22.6,15.4l-9.1-38.2c-1.3-5.6,2.1-11.2,7.7-12.5
						l15.1-3.6c0.6-0.7,1.2-1.5,1.9-2.1l-19.3,4.6c-5.6,1.3-9.1,6.9-7.8,12.5l16.4,69c1.3,5.6,6.9,9.1,12.5,7.7l7.9-1.9
						c-0.2,0-0.4-0.1-0.6-0.1C60.4,126.1,55.3,124,49,120.7z"/>
					<path class="st26" d="M48.3,53.1c0-6.2,1.6-11.4,5-15.6l-15.1,3.6c-7.1,1.7-9.1,6.6-7.7,12.5l9.1,38.2
						c5.2-6.3,13.2-12.7,22.6-15.4C52.9,70.2,48.3,62.4,48.3,53.1z"/>
					<path class="st26" d="M105.7,50.4c-5.1-4.3-12.2-6.4-21.2-6.4c-8.1,0-12.1,3.3-12.1,9.7c0,2.5,1.4,4.8,4,6.8
						c2.7,2,8.4,4.8,17.1,8.2c6,2.3,10.8,4.9,14.5,7.9c7.2-5,11.9-13.1,14.3-18l-6-25.5c-1.2-5.2-5.5-9.4-12.5-7.7l-6.5,1.5
						c5.2,1.1,10.2,2.9,15,5.3L105.7,50.4z"/>
				</g>
				<g id="Blendeneffekt_1_">
					<defs>
						<path id="SVGID_11_" d="M29.3,53c-1.3-5.5,2.1-11,7.6-12.3l67.7-16c5.5-1.3,11,2.1,12.3,7.6l16.1,67.7
							c1.3,5.5-2.1,11-7.6,12.3l-67.7,16c-5.5,1.3-11-2.1-12.3-7.6L29.3,53L29.3,53z"/>
					</defs>
					<clipPath id="SVGID_12_">
						<use xlink:href="#SVGID_11_"  style="overflow:visible;"/>
					</clipPath>
					
						<radialGradient id="SVGID_13_" cx="87.4324" cy="48.6496" r="54.6646" gradientTransform="matrix(1.1702 -6.800000e-03 6.800000e-03 1.1702 -28.0632 -0.1467)" gradientUnits="userSpaceOnUse">
						<stop  offset="0" style="stop-color:#FFFFFF"/>
						<stop  offset="0.106" style="stop-color:#FEFAF9;stop-opacity:0.894"/>
						<stop  offset="0.2448" style="stop-color:#FDECE9;stop-opacity:0.7552"/>
						<stop  offset="0.4018" style="stop-color:#F9D5CE;stop-opacity:0.5982"/>
						<stop  offset="0.5723" style="stop-color:#F5B6A8;stop-opacity:0.4277"/>
						<stop  offset="0.7536" style="stop-color:#F08D77;stop-opacity:0.2464"/>
						<stop  offset="0.9412" style="stop-color:#E95C3D;stop-opacity:5.883729e-02"/>
						<stop  offset="1" style="stop-color:#E74B29;stop-opacity:0"/>
					</radialGradient>
					<path class="st27" d="M138.5,55.8c0.2,35.3-28.3,64.1-63.6,64.3c-35.3,0.2-64.1-28.3-64.3-63.6C10.4,21.2,38.9-7.6,74.2-7.8
						C109.5-8,138.3,20.5,138.5,55.8z"/>
					
						<radialGradient id="SVGID_14_" cx="87.4324" cy="48.6496" r="54.6646" gradientTransform="matrix(1.1702 -6.800000e-03 6.800000e-03 1.1702 -28.0632 -0.1467)" gradientUnits="userSpaceOnUse">
						<stop  offset="0" style="stop-color:#FABD3A"/>
						<stop  offset="0.1567" style="stop-color:#F9B739;stop-opacity:0.8433"/>
						<stop  offset="0.3617" style="stop-color:#F6A737;stop-opacity:0.6383"/>
						<stop  offset="0.5936" style="stop-color:#F28C33;stop-opacity:0.4064"/>
						<stop  offset="0.8433" style="stop-color:#EC662D;stop-opacity:0.1567"/>
						<stop  offset="1" style="stop-color:#E74B29;stop-opacity:0"/>
					</radialGradient>
					<path class="st28" d="M138.5,55.8c0.2,35.3-28.3,64.1-63.6,64.3c-35.3,0.2-64.1-28.3-64.3-63.6C10.4,21.2,38.9-7.6,74.2-7.8
						C109.5-8,138.3,20.5,138.5,55.8z"/>
				</g>
				<g id="ausgespartes_S_1_">
					<path class="st29" d="M53.3,37.5l44-10.4c-1.3-0.3-2.6-0.5-4-0.7l-38.1,9C54.5,36,53.9,36.8,53.3,37.5z"/>
					<path class="st29" d="M112.5,81.1c-1.2-1.5-2.7-3-4.4-4.4c-6.2,4.2-14.1,6.1-23.9,1.5c-7.7-3.7-15.3-3.7-22.1-1.8
						c3.4,2.4,7.4,4.5,12.1,6.4c7.9,3.2,13.2,6,15.9,8.4c2.7,2.4,4.1,5.5,4.1,9.3c0,6.4-4.5,9.7-13.5,9.7c-8.7,0-16.6-2.7-23.5-8.1
						L49,120.7c6.3,3.3,11.4,5.5,15.4,6.5c0.2,0.1,0.4,0.1,0.6,0.1l47.9-11.4c3.7-4.7,5.5-10.4,5.4-17.1
						C118.3,91.9,116.3,86,112.5,81.1z"/>
					<path class="st29" d="M48.3,53.1c0.1,9.3,4.6,17.1,13.7,23.3c6.8-1.9,14.4-1.9,22.1,1.8c9.8,4.6,17.7,2.8,23.9-1.5
						c-3.7-3-8.5-5.6-14.5-7.9c-8.7-3.4-14.4-6.1-17.1-8.2c-2.7-2-4-4.3-4-6.8c0-6.4,4-9.7,12.1-9.7c9-0.1,16.1,2.1,21.2,6.4
						l6.6-18.1c-4.8-2.4-9.9-4.2-15-5.3l-44,10.4C49.9,41.7,48.3,46.9,48.3,53.1z"/>
				</g>
			</g>
		</g>
		<g id="Ränder">
			<path class="st30" d="M35.3,43.5l68.2-16.3c5.7-1.4,10.9,1.9,12.2,7.5l8.4,35.8"/>
			<path class="st16" d="M18.2,46.9l85.2-20.8c2-0.5,3.9-0.4,5.7,0.1"/>
		</g>
		<g id="Banner">
			<defs>
				<path id="SVGID_15_" d="M68.9,124.9L47.7,130c-17.3,4.2-32.6,3-33.9-2.7L-4.5,52.1l4.9-1.2l47.7-11.6"/>
			</defs>
			<clipPath id="SVGID_16_">
				<use xlink:href="#SVGID_15_"  style="overflow:visible;"/>
			</clipPath>
			<g class="st31">
				<defs>
					<filter id="Adobe_OpacityMaskFilter" filterUnits="userSpaceOnUse" x="25.8" y="40.2" width="18.2" height="80.2">
						<feFlood  style="flood-color:white;flood-opacity:1" result="back"/>
						<feBlend  in="SourceGraphic" in2="back" mode="normal"/>
					</filter>
				</defs>
				<mask maskUnits="userSpaceOnUse" x="25.8" y="40.2" width="18.2" height="80.2" id="SVGID_17_">
					<g class="st32">
						
							<image style="overflow:visible;" width="23" height="85" xlink:href="E52044BDEDD87449.jpg"  transform="matrix(1 0 0 1 23.5449 37.9375)">
						</image>
					</g>
				</mask>
				<g class="st33">
					<path class="st34" d="M44,120.5c-4.7-6.1-8.3-12.1-11.4-18.2c-2.4,2.6-4.6,5.3-6.7,7.9c-1.2-21.8,7.4-43.6,4.4-65.4
						c3.7-1.5,7.4-3.1,11-4.6C48.8,67,36.5,93.7,44,120.5z"/>
				</g>
			</g>
			<g class="st35">
				<path class="st36" d="M37.9,113.9c-3.1-2.9-5.9-5.9-8.4-8.8c-2.2,2.8-4.2,5.6-5.9,8.4c-5.3-23.1,6.7-46.1,2.8-69.2
					c4.6-1.1,9.1-2.2,13.6-3.3C45.8,65.3,32.1,89.6,37.9,113.9z"/>
				<path class="st37" d="M37.9,113.9c-3.1-2.9-5.9-5.9-8.4-8.8c-2.2,2.8-4.2,5.6-5.9,8.4c-5.3-23.1,6.7-46.1,2.8-69.2
					c4.6-1.1,9.1-2.2,13.6-3.3C45.8,65.3,32.1,89.6,37.9,113.9z"/>
			</g>
		</g>
		<path id="Abdecker_für_Buchwölbung" class="st38" d="M18.5,47.1l2.1-0.6c0,0-1.4,0.3-2.5-0.7L18.5,47.1z"/>
	</g>
</g>
<g id="Text_NEWSLETTER" class="st4">
	<path class="st39" d="M155.9,92.6h2.5l13.5,19.6h0.1V92.6h2.2v23.2h-2.5l-13.5-19.6h-0.1v19.6h-2.2V92.6z"/>
	<path class="st39" d="M186,92.6h16v1.9h-13.8v8.4h12.9v1.9h-12.9v9.2h14v1.9H186V92.6z"/>
	<path class="st39" d="M210.1,92.6h2.4l5.3,20.3h0.1l5.7-20.3h2.8l5.7,20.3h0.1l5.3-20.3h2.2l-6.4,23.2h-2.3L224.8,95h-0.1
		l-5.8,20.8h-2.4L210.1,92.6z"/>
	<path class="st39" d="M250.1,108.1c-0.1,4.8,3.3,6.2,7.6,6.2c2.4,0,6.1-1.3,6.1-4.7c0-2.6-2.6-3.7-4.8-4.2l-5.2-1.3
		c-2.7-0.7-5.2-2-5.2-5.6c0-2.3,1.5-6.5,8-6.5c4.6,0,8.6,2.5,8.6,7.2H263c-0.1-3.5-3.1-5.3-6.3-5.3c-3,0-5.8,1.2-5.8,4.6
		c0,2.2,1.6,3.1,3.5,3.5l5.7,1.4c3.3,0.9,6,2.3,6,6.1c0,1.6-0.7,6.6-8.9,6.6c-5.5,0-9.5-2.5-9.3-8.1H250.1z"/>
	<path class="st39" d="M276.7,92.6h2.2v21.3h13v1.9h-15.2V92.6z"/>
	<path class="st39" d="M301.3,92.6h16v1.9h-13.8v8.4h12.9v1.9h-12.9v9.2h14v1.9h-16.2V92.6z"/>
	<path class="st39" d="M325.2,92.6h18.4v1.9h-8.1v21.3h-2.2V94.4h-8.1V92.6z"/>
	<path class="st39" d="M350.4,92.6h18.4v1.9h-8.1v21.3h-2.2V94.4h-8.1V92.6z"/>
	<path class="st39" d="M378.1,92.6h16v1.9h-13.8v8.4h12.9v1.9h-12.9v9.2h14v1.9h-16.2V92.6z"/>
	<path class="st39" d="M404.6,92.6h10.6c3.8,0,7.1,1.9,7.1,6c0,2.9-1.5,5.3-4.5,5.9v0.1c3,0.4,3.9,2.5,4.1,5.2
		c0.1,1.6,0.1,4.8,1.1,5.9h-2.4c-0.6-0.9-0.6-2.6-0.6-3.6c-0.2-3.2-0.5-6.9-4.6-6.7h-8.4v10.3h-2.2V92.6z M406.8,103.6h8.3
		c2.7,0,5-1.7,5-4.5c0-2.8-1.7-4.6-5-4.6h-8.3V103.6z"/>
</g>
<g id="Text_JOBS" class="st4">
	<path class="st39" d="M165.3,92.6h2.2v16.7c0,4.7-1.8,7-6.8,7c-5.3,0-6.5-3.9-6.5-7.9h2.2c0.1,2-0.1,6,4.5,6c3.4,0,4.4-1.8,4.4-6
		V92.6z"/>
	<path class="st39" d="M188.7,92.1c7.3,0,10.9,5.8,10.9,12.1s-3.6,12.1-10.9,12.1c-7.3,0-11-5.8-11-12.1S181.4,92.1,188.7,92.1z
		 M188.7,114.4c6.1,0,8.7-5.1,8.7-10.2S194.8,94,188.7,94c-6.1,0-8.7,5.1-8.7,10.2S182.6,114.4,188.7,114.4z"/>
	<path class="st39" d="M209.8,92.6h9.8c3.9,0,7.4,1.4,7.4,5.7c0,2.4-1.6,4.7-4,5.2v0.1c3,0.4,4.9,2.6,4.9,5.7c0,2.2-0.8,6.6-8.3,6.6
		h-9.8V92.6z M212,102.7h7.6c3.5,0,5.2-1.8,5.2-3.9c0-2.9-1.8-4.4-5.2-4.4H212V102.7z M212,113.9h7.6c3.3,0,6.1-1.1,6.1-4.8
		c0-3-2.2-4.5-6.1-4.5H212V113.9z"/>
	<path class="st39" d="M239.3,108.1c-0.1,4.8,3.3,6.2,7.6,6.2c2.4,0,6.1-1.3,6.1-4.7c0-2.6-2.6-3.7-4.8-4.2l-5.2-1.3
		c-2.7-0.7-5.2-2-5.2-5.6c0-2.3,1.5-6.5,8-6.5c4.6,0,8.6,2.5,8.6,7.2h-2.2c-0.1-3.5-3.1-5.3-6.3-5.3c-3,0-5.8,1.2-5.8,4.6
		c0,2.2,1.6,3.1,3.5,3.5l5.7,1.4c3.3,0.9,6,2.3,6,6.1c0,1.6-0.7,6.6-8.9,6.6c-5.5,0-9.5-2.5-9.3-8.1H239.3z"/>
</g>
<g id="Text_SHOP" class="st4">
	<path class="st39" d="M157,108.1c-0.1,4.8,3.3,6.2,7.6,6.2c2.4,0,6.1-1.3,6.1-4.7c0-2.6-2.6-3.7-4.8-4.2l-5.2-1.3
		c-2.7-0.7-5.2-2-5.2-5.6c0-2.3,1.5-6.5,8-6.5c4.6,0,8.6,2.5,8.6,7.2h-2.2c-0.1-3.5-3.1-5.3-6.3-5.3c-3,0-5.8,1.2-5.8,4.6
		c0,2.2,1.6,3.1,3.5,3.5l5.7,1.4c3.3,0.9,6,2.3,6,6.1c0,1.6-0.6,6.6-8.9,6.6c-5.5,0-9.5-2.5-9.3-8.1H157z"/>
	<path class="st39" d="M182.8,92.6h2.2v10.1h13.8V92.6h2.2v23.2h-2.2v-11.2H185v11.2h-2.2V92.6z"/>
	<path class="st39" d="M221.7,92.1c7.3,0,10.9,5.8,10.9,12.1s-3.6,12.1-10.9,12.1c-7.3,0-11-5.8-11-12.1S214.4,92.1,221.7,92.1z
		 M221.7,114.4c6.1,0,8.7-5.1,8.7-10.2S227.8,94,221.7,94c-6.1,0-8.7,5.1-8.7,10.2S215.6,114.4,221.7,114.4z"/>
	<path class="st39" d="M242.4,92.6h10.3c4.2,0,6.9,2.4,6.9,6.6c0,4.2-2.7,6.6-6.9,6.6h-8.1v9.9h-2.2V92.6z M244.6,103.9h7.6
		c3.1,0,5.2-1.6,5.2-4.7c0-3.2-2.1-4.7-5.2-4.7h-7.6V103.9z"/>
</g>
<g id="Text_MEDIA" class="st4">
	<path class="st39" d="M155.9,92.1h3.3l8,20.3l8-20.3h3.2v23.2h-2.2V95.2h-0.1l-7.9,20.1h-2.1l-8-20.1h-0.1v20.1h-2.2V92.1z"/>
	<path class="st39" d="M189.7,92.1h16V94h-13.8v8.4h12.9v1.9h-12.9v9.2h14v1.9h-16.2V92.1z"/>
	<path class="st39" d="M215.6,92.1h8c7,0,10.7,4,10.7,11.6c0,7.6-3.7,11.6-10.7,11.6h-8V92.1z M217.9,113.4h4.7
		c6.7,0,9.6-2.8,9.6-9.7c0-6.9-2.9-9.7-9.6-9.7h-4.7V113.4z"/>
	<path class="st39" d="M244.7,92.1h2.2v23.2h-2.2V92.1z"/>
	<path class="st39" d="M265.2,92.1h2.5l9.1,23.2h-2.4l-2.8-7.2H261l-2.8,7.2h-2.4L265.2,92.1z M261.7,106.2h9.1l-4.5-11.9
		L261.7,106.2z"/>
</g>
<g>
	<g id="Text_MAGAZINE">
		<path class="st29" d="M142.6,88.9h3.2l8,20.3l8-20.3h3.2v23.2h-2.2V92.1h-0.1l-7.9,20.1h-2.1l-8-20.1h-0.1v20.1h-2.2V88.9z"/>
		<path class="st29" d="M183,88.9h2.5l9.1,23.2h-2.4l-2.8-7.2h-10.6l-2.8,7.2h-2.4L183,88.9z M179.5,103h9.1l-4.5-11.9L179.5,103z"
			/>
		<path class="st29" d="M223,112.1h-1.6l-0.3-4.2H221c-1.6,3.3-4.7,4.7-8,4.7c-7.3,0-11-5.8-11-12.1c0-6.3,3.6-12.1,11-12.1
			c4.9,0,8.8,2.6,9.7,7.7h-2.2c-0.3-2.7-3.1-5.8-7.5-5.8c-6.1,0-8.7,5.1-8.7,10.2c0,5.1,2.6,10.2,8.7,10.2c5.1,0,8.1-3.6,8-8.5h-7.9
			v-1.9h9.8V112.1z"/>
		<path class="st29" d="M240.5,88.9h2.5l9.1,23.2h-2.4l-2.8-7.2h-10.6l-2.8,7.2h-2.4L240.5,88.9z M237,103h9.1l-4.5-11.9L237,103z"
			/>
		<path class="st29" d="M259.6,88.9h16.7v1.9L261,110.3h15.6v1.9h-18.1v-1.9l15.3-19.4h-14.2V88.9z"/>
		<path class="st29" d="M286,88.9h2.2v23.2H286V88.9z"/>
		<path class="st29" d="M299.6,88.9h2.5l13.5,19.6h0.1V88.9h2.2v23.2h-2.5l-13.5-19.6h-0.1v19.6h-2.2V88.9z"/>
		<path class="st29" d="M329,88.9h16v1.9h-13.8v8.4h12.9v1.9h-12.9v9.2h14v1.9H329V88.9z"/>
	</g>
	<g id="SMASHING_SCHRIFTZUG">
		<g id="Backup_Verlauf_Smashing" class="st4">
			<g class="st5">
				<g>
					<defs>
						<path id="SVGID_18_" d="M145.8,62.5c0,1.3,0.2,2.5,0.7,3.4c0.5,0.9,1.1,1.7,1.9,2.3c0.8,0.6,1.8,1,2.9,1.3
							c1.1,0.3,2.2,0.4,3.4,0.4c0.8,0,1.6-0.1,2.5-0.2c0.9-0.1,1.7-0.4,2.5-0.8c0.8-0.4,1.4-0.9,2-1.5c0.5-0.7,0.8-1.5,0.8-2.5
							c0-1.1-0.4-2-1.1-2.6c-0.7-0.7-1.6-1.2-2.7-1.7c-1.1-0.4-2.4-0.8-3.8-1.2c-1.4-0.3-2.9-0.7-4.3-1.1c-1.5-0.4-2.9-0.8-4.4-1.3
							c-1.4-0.6-2.7-1.3-3.8-2.1c-1.1-0.9-2-1.9-2.7-3.2c-0.7-1.3-1-2.9-1-4.7c0-2.1,0.4-3.8,1.3-5.3c0.9-1.5,2.1-2.8,3.5-3.8
							c1.4-1,3-1.8,4.8-2.2c1.8-0.5,3.6-0.7,5.4-0.7c2.1,0,4.1,0.2,6,0.7c1.9,0.4,3.7,1.2,5.2,2.2c1.5,1,2.7,2.4,3.5,4
							c0.9,1.6,1.3,3.6,1.3,5.9h-8.5c-0.1-1.2-0.3-2.2-0.8-3c-0.4-0.8-1-1.4-1.7-1.8c-0.7-0.4-1.5-0.8-2.5-1c-0.9-0.2-1.9-0.3-3-0.3
							c-0.7,0-1.4,0.1-2.1,0.2c-0.7,0.1-1.4,0.4-2,0.8c-0.6,0.4-1,0.8-1.4,1.4c-0.4,0.6-0.6,1.3-0.6,2.1c0,0.8,0.1,1.4,0.4,1.9
							c0.3,0.5,0.9,0.9,1.7,1.3c0.9,0.4,2.1,0.8,3.6,1.2l6.1,1.6c0.7,0.1,1.8,0.4,3.1,0.8c1.3,0.4,2.7,1,4,1.8
							c1.3,0.9,2.4,2,3.4,3.5c1,1.4,1.5,3.3,1.5,5.5c0,1.8-0.4,3.5-1.1,5.1c-0.7,1.6-1.8,2.9-3.2,4.1c-1.4,1.1-3.1,2-5.2,2.6
							c-2.1,0.6-4.4,1-7.2,1c-2.2,0-4.4-0.3-6.4-0.8c-2.1-0.5-3.9-1.4-5.5-2.5c-1.6-1.2-2.8-2.6-3.8-4.4c-0.9-1.8-1.4-3.9-1.3-6.4
							H145.8z M229.6,60.4H240l-5-14.7L229.6,60.4z M230.5,35.8h9l15,40h-9.1l-3-8.9h-15l-3.1,8.9h-8.7h-8.2V47.5l-9.9,28.3h-6.8
							l-9.8-28.1l-0.1,28.1h-8.2v-40h12.4l9.4,27.5l9-27.5h12.4v39.5L230.5,35.8z M260.2,62.5c0,1.3,0.2,2.5,0.7,3.4
							c0.5,0.9,1.1,1.7,1.9,2.3c0.8,0.6,1.8,1,2.9,1.3c1.1,0.3,2.2,0.4,3.4,0.4c0.8,0,1.6-0.1,2.5-0.2c0.9-0.1,1.7-0.4,2.5-0.8
							c0.8-0.4,1.4-0.9,2-1.5c0.5-0.7,0.8-1.5,0.8-2.5c0-1.1-0.4-2-1.1-2.6c-0.7-0.7-1.6-1.2-2.7-1.7c-1.1-0.4-2.4-0.8-3.8-1.2
							c-1.4-0.3-2.9-0.7-4.3-1.1c-1.5-0.4-2.9-0.8-4.4-1.3c-1.4-0.6-2.7-1.3-3.8-2.1c-1.1-0.9-2-1.9-2.7-3.2c-0.7-1.3-1-2.9-1-4.7
							c0-2.1,0.4-3.8,1.3-5.3c0.9-1.5,2.1-2.8,3.5-3.8c1.4-1,3-1.8,4.8-2.2c1.8-0.5,3.6-0.7,5.4-0.7c2.1,0,4.1,0.2,6,0.7
							c1.9,0.4,3.7,1.2,5.2,2.2c1.5,1,2.7,2.4,3.5,4c0.9,1.6,1.3,3.6,1.3,5.9h-8.5c-0.1-1.2-0.3-2.2-0.8-3c-0.4-0.8-1-1.4-1.7-1.8
							c-0.7-0.4-1.5-0.8-2.5-1c-0.9-0.2-1.9-0.3-3-0.3c-0.7,0-1.4,0.1-2.1,0.2c-0.7,0.1-1.4,0.4-2,0.8c-0.6,0.4-1,0.8-1.4,1.4
							c-0.4,0.6-0.6,1.3-0.6,2.1c0,0.8,0.1,1.4,0.4,1.9c0.3,0.5,0.9,0.9,1.7,1.3c0.9,0.4,2.1,0.8,3.6,1.2l6.1,1.6
							c0.7,0.1,1.8,0.4,3.1,0.8c1.3,0.4,2.7,1,4,1.8c1.3,0.9,2.4,2,3.4,3.5c1,1.4,1.5,3.3,1.5,5.5c0,1.8-0.4,3.5-1.1,5.1
							c-0.7,1.6-1.8,2.9-3.2,4.1c-1.4,1.1-3.1,2-5.2,2.6c-2.1,0.6-4.4,1-7.2,1c-2.2,0-4.3-0.3-6.4-0.8c-2.1-0.5-3.9-1.4-5.5-2.5
							c-1.6-1.2-2.8-2.6-3.8-4.4c-0.9-1.8-1.4-3.9-1.3-6.4H260.2z M286.8,35.8h8.8v15.4h16.2V35.8h8.8v40h-8.8V58.6h-16.2v17.3h-8.8
							V35.8z M324.6,35.8h8.8v40h-8.8V35.8z M337.4,35.8h8.7l16.7,26.8l0.1-26.8h8.2v40h-8.8L345.8,49l-0.1,26.8h-8.2V35.8z"/>
					</defs>
					<use xlink:href="#SVGID_18_"  style="overflow:visible;fill:#FFFFFF;"/>
					<clipPath id="SVGID_19_">
						<use xlink:href="#SVGID_18_"  style="overflow:visible;"/>
					</clipPath>
					<g class="st40">
						<g class="st5">
							<defs>
								<polygon id="SVGID_20_" points="377.1,45.2 389,66.6 196,173.6 184.1,152.2 377.1,45.2 								"/>
							</defs>
							<use xlink:href="#SVGID_20_"  style="overflow:visible;fill:#FFFFFF;"/>
							<clipPath id="SVGID_21_">
								<use xlink:href="#SVGID_20_"  style="overflow:visible;"/>
							</clipPath>
							<g class="st41">
								<polygon class="st29" points="377,45.2 383,56 190,162.9 184.1,152.2 377,45.2 								"/>
								<polygon class="st29" points="383,56 388.9,66.7 196,173.6 190,162.9 383,56 								"/>
							</g>
						</g>
						<g class="st5">
							<defs>
								<polygon id="SVGID_22_" points="318.7,-60.1 377.6,46.2 184.7,153.2 125.7,46.9 318.7,-60.1 								"/>
							</defs>
							<use xlink:href="#SVGID_22_"  style="overflow:visible;fill:#FFFFFF;"/>
							<clipPath id="SVGID_23_">
								<use xlink:href="#SVGID_22_"  style="overflow:visible;"/>
							</clipPath>
							<g class="st42">
								<polygon class="st29" points="318.7,-60.1 326,-46.8 133.1,60.2 125.7,46.9 318.7,-60.1 								"/>
								<polygon class="st29" points="326,-46.8 333.4,-33.5 140.4,73.5 133.1,60.2 326,-46.8 								"/>
								<polygon class="st29" points="333.4,-33.5 340.8,-20.2 147.8,86.8 140.4,73.5 333.4,-33.5 								"/>
								<polygon class="st29" points="340.8,-20.2 348.1,-6.9 155.2,100.1 147.8,86.8 340.8,-20.2 								"/>
								<polygon class="st29" points="348.1,-6.9 355.5,6.4 162.5,113.3 155.2,100.1 348.1,-6.9 								"/>
								<polygon class="st29" points="355.5,6.4 362.9,19.7 169.9,126.6 162.5,113.3 355.5,6.4 								"/>
								<polygon class="st29" points="362.9,19.7 370.2,33 177.3,139.9 169.9,126.6 362.9,19.7 								"/>
								<polygon class="st29" points="370.2,33 377.6,46.2 184.6,153.2 177.3,139.9 370.2,33 								"/>
							</g>
						</g>
					</g>
				</g>
				<path class="st29" d="M145.8,62.5c0,1.3,0.2,2.5,0.7,3.4c0.5,0.9,1.1,1.7,1.9,2.3c0.8,0.6,1.8,1,2.9,1.3
					c1.1,0.3,2.2,0.4,3.4,0.4c0.8,0,1.6-0.1,2.5-0.2c0.9-0.1,1.7-0.4,2.5-0.8c0.8-0.4,1.4-0.9,2-1.5c0.5-0.7,0.8-1.5,0.8-2.5
					c0-1.1-0.4-2-1.1-2.6c-0.7-0.7-1.6-1.2-2.7-1.7c-1.1-0.4-2.4-0.8-3.8-1.2c-1.4-0.3-2.9-0.7-4.3-1.1c-1.5-0.4-2.9-0.8-4.4-1.3
					c-1.4-0.6-2.7-1.3-3.8-2.1c-1.1-0.9-2-1.9-2.7-3.2c-0.7-1.3-1-2.9-1-4.7c0-2.1,0.4-3.8,1.3-5.3c0.9-1.5,2.1-2.8,3.5-3.8
					c1.4-1,3-1.8,4.8-2.2c1.8-0.5,3.6-0.7,5.4-0.7c2.1,0,4.1,0.2,6,0.7c1.9,0.4,3.7,1.2,5.2,2.2c1.5,1,2.7,2.4,3.5,4
					c0.9,1.6,1.3,3.6,1.3,5.9h-8.5c-0.1-1.2-0.3-2.2-0.8-3c-0.4-0.8-1-1.4-1.7-1.8c-0.7-0.4-1.5-0.8-2.5-1c-0.9-0.2-1.9-0.3-3-0.3
					c-0.7,0-1.4,0.1-2.1,0.2c-0.7,0.1-1.4,0.4-2,0.8c-0.6,0.4-1,0.8-1.4,1.4c-0.4,0.6-0.6,1.3-0.6,2.1c0,0.8,0.1,1.4,0.4,1.9
					c0.3,0.5,0.9,0.9,1.7,1.3c0.9,0.4,2.1,0.8,3.6,1.2l6.1,1.6c0.7,0.1,1.8,0.4,3.1,0.8c1.3,0.4,2.7,1,4,1.8c1.3,0.9,2.4,2,3.4,3.5
					c1,1.4,1.5,3.3,1.5,5.5c0,1.8-0.4,3.5-1.1,5.1c-0.7,1.6-1.8,2.9-3.2,4.1c-1.4,1.1-3.1,2-5.2,2.6c-2.1,0.6-4.4,1-7.2,1
					c-2.2,0-4.4-0.3-6.4-0.8c-2.1-0.5-3.9-1.4-5.5-2.5c-1.6-1.2-2.8-2.6-3.8-4.4c-0.9-1.8-1.4-3.9-1.3-6.4H145.8z"/>
				<polygon class="st29" points="229.6,60.4 240,60.4 234.9,45.7 				"/>
				<polygon class="st29" points="230.5,35.8 239.5,35.8 254.4,75.8 245.3,75.8 242.3,66.9 227.3,66.9 224.2,75.8 215.5,75.8 
					207.3,75.8 207.3,47.5 197.4,75.8 190.6,75.8 180.8,47.8 180.7,75.8 172.4,75.8 172.4,35.8 184.8,35.8 194.2,63.3 203.1,35.8 
					215.5,35.8 215.5,75.3 				"/>
				<path class="st29" d="M260.2,62.5c0,1.3,0.2,2.5,0.7,3.4c0.5,0.9,1.1,1.7,1.9,2.3c0.8,0.6,1.8,1,2.9,1.3
					c1.1,0.3,2.2,0.4,3.4,0.4c0.8,0,1.6-0.1,2.5-0.2c0.9-0.1,1.7-0.4,2.5-0.8c0.8-0.4,1.4-0.9,2-1.5c0.5-0.7,0.8-1.5,0.8-2.5
					c0-1.1-0.4-2-1.1-2.6c-0.7-0.7-1.6-1.2-2.7-1.7c-1.1-0.4-2.4-0.8-3.8-1.2c-1.4-0.3-2.9-0.7-4.3-1.1c-1.5-0.4-2.9-0.8-4.4-1.3
					c-1.4-0.6-2.7-1.3-3.8-2.1c-1.1-0.9-2-1.9-2.7-3.2c-0.7-1.3-1-2.9-1-4.7c0-2.1,0.4-3.8,1.3-5.3c0.9-1.5,2.1-2.8,3.5-3.8
					c1.4-1,3-1.8,4.8-2.2c1.8-0.5,3.6-0.7,5.4-0.7c2.1,0,4.1,0.2,6,0.7c1.9,0.4,3.7,1.2,5.2,2.2c1.5,1,2.7,2.4,3.5,4
					c0.9,1.6,1.3,3.6,1.3,5.9h-8.5c-0.1-1.2-0.3-2.2-0.8-3c-0.4-0.8-1-1.4-1.7-1.8c-0.7-0.4-1.5-0.8-2.5-1c-0.9-0.2-1.9-0.3-3-0.3
					c-0.7,0-1.4,0.1-2.1,0.2c-0.7,0.1-1.4,0.4-2,0.8c-0.6,0.4-1,0.8-1.4,1.4c-0.4,0.6-0.6,1.3-0.6,2.1c0,0.8,0.1,1.4,0.4,1.9
					c0.3,0.5,0.9,0.9,1.7,1.3c0.9,0.4,2.1,0.8,3.6,1.2l6.1,1.6c0.7,0.1,1.8,0.4,3.1,0.8c1.3,0.4,2.7,1,4,1.8c1.3,0.9,2.4,2,3.4,3.5
					c1,1.4,1.5,3.3,1.5,5.5c0,1.8-0.4,3.5-1.1,5.1c-0.7,1.6-1.8,2.9-3.2,4.1c-1.4,1.1-3.1,2-5.2,2.6c-2.1,0.6-4.4,1-7.2,1
					c-2.2,0-4.3-0.3-6.4-0.8c-2.1-0.5-3.9-1.4-5.5-2.5c-1.6-1.2-2.8-2.6-3.8-4.4c-0.9-1.8-1.4-3.9-1.3-6.4H260.2z"/>
				<polygon class="st29" points="286.8,35.8 295.6,35.8 295.6,51.2 311.8,51.2 311.8,35.8 320.6,35.8 320.6,75.8 311.8,75.8 
					311.8,58.6 295.6,58.6 295.6,75.8 286.8,75.8 				"/>
				<rect x="324.6" y="35.8" class="st29" width="8.8" height="40"/>
				<polygon class="st29" points="337.4,35.8 346.2,35.8 362.9,62.7 363,35.8 371.2,35.8 371.2,75.8 362.4,75.8 345.8,49 
					345.7,75.8 337.4,75.8 				"/>
			</g>
		</g>
		<g id="Backup_Verlauf_G" class="st4">
			<g class="st5">
				<defs>
					<polygon id="SVGID_24_" points="399.6,93.4 364.9,54.9 396.2,26.7 430.9,65.2 399.6,93.4 					"/>
				</defs>
				<defs>
					<path id="SVGID_25_" d="M374.2,56.4c0-11.3,9.2-20.5,20.5-20.5c7.9,0,14.7,4.4,18.1,10.9l-7.5,2.4c-2.3-3.4-6.2-5.6-10.6-5.6
						c-7,0-12.8,5.7-12.8,12.8c0,7.1,5.7,12.8,12.8,12.8c3.9,0,7.4-1.8,9.8-4.5l-4.5,0.7l-5.4-5.4l11.7-1.9l11.7-1.9L416,67.8
						l-1.9,11.7l-5.4-5.4l0.5-3.2c-3.7,3.7-8.8,6-14.5,6C383.4,76.9,374.2,67.8,374.2,56.4z"/>
				</defs>
				<use xlink:href="#SVGID_24_"  style="overflow:visible;fill:#FFFFFF;"/>
				<use xlink:href="#SVGID_25_"  style="overflow:visible;fill:#FFFFFF;"/>
				<clipPath id="SVGID_26_">
					<use xlink:href="#SVGID_24_"  style="overflow:visible;"/>
				</clipPath>
				<clipPath id="SVGID_27_" class="st43">
					<use xlink:href="#SVGID_25_"  style="overflow:visible;"/>
				</clipPath>
				<g class="st44">
					<polygon class="st29" points="399.6,93.4 394.7,87.9 426,59.7 430.9,65.2 399.6,93.4 					"/>
					<polygon class="st29" points="394.7,87.9 389.7,82.4 421,54.2 426,59.7 394.7,87.9 					"/>
					<polygon class="st29" points="389.7,82.4 384.8,76.9 416.1,48.7 421,54.2 389.7,82.4 					"/>
					<polygon class="st29" points="384.8,76.9 379.8,71.4 411.1,43.2 416.1,48.7 384.8,76.9 					"/>
					<polygon class="st29" points="379.8,71.4 374.8,65.9 406.2,37.7 411.1,43.2 379.8,71.4 					"/>
					<polygon class="st29" points="374.8,65.9 369.9,60.4 401.2,32.2 406.2,37.7 374.8,65.9 					"/>
					<polygon class="st29" points="369.9,60.4 364.9,54.9 396.3,26.7 401.2,32.2 369.9,60.4 					"/>
				</g>
			</g>
		</g>
		<path id="SMASHING_1_" class="st29" d="M374.2,56.4c0-11.3,9.2-20.5,20.5-20.5c7.9,0,14.7,4.4,18.1,10.9l-7.5,2.4
			c-2.3-3.4-6.2-5.6-10.6-5.6c-7,0-12.8,5.7-12.8,12.8c0,7.1,5.7,12.8,12.8,12.8c3.9,0,7.4-1.8,9.8-4.5l-4.5,0.7l-5.4-5.4l11.7-1.9
			l11.7-1.9L416,67.8l-1.9,11.7l-5.4-5.4l0.5-3.2c-3.7,3.7-8.8,6-14.5,6C383.4,76.9,374.2,67.8,374.2,56.4z M137.3,62.5
			c0,2.5,0.4,4.6,1.3,6.4c0.9,1.8,2.2,3.3,3.8,4.4c1.6,1.2,3.4,2,5.5,2.5c2.1,0.6,4.2,0.8,6.4,0.8c2.7,0,5.1-0.3,7.2-1
			c2.1-0.6,3.8-1.5,5.2-2.6c1.4-1.2,2.5-2.5,3.2-4.1c0.7-1.6,1.1-3.3,1.1-5.1c0-2.2-0.5-4.1-1.5-5.5c-0.9-1.5-2.1-2.6-3.4-3.5
			c-1.3-0.9-2.6-1.5-4-1.8c-1.3-0.4-2.3-0.7-3.1-0.8l-6.1-1.6c-1.5-0.4-2.7-0.8-3.6-1.2c-0.9-0.4-1.4-0.9-1.7-1.3
			c-0.3-0.5-0.4-1.1-0.4-1.9c0-0.9,0.2-1.6,0.6-2.1c0.4-0.6,0.8-1,1.4-1.4c0.6-0.4,1.3-0.6,2-0.8c0.7-0.2,1.4-0.2,2.1-0.2
			c1.1,0,2.1,0.1,3,0.3c0.9,0.2,1.8,0.5,2.5,1c0.7,0.4,1.3,1.1,1.7,1.8c0.4,0.8,0.7,1.8,0.8,3h8.5c0-2.3-0.4-4.3-1.3-5.9
			c-0.9-1.6-2-3-3.5-4c-1.5-1-3.2-1.8-5.2-2.2c-1.9-0.5-3.9-0.7-6-0.7c-1.8,0-3.6,0.2-5.4,0.7c-1.8,0.5-3.4,1.2-4.8,2.2
			c-1.4,1-2.6,2.3-3.5,3.8c-0.9,1.5-1.3,3.3-1.3,5.3c0,1.8,0.3,3.4,1,4.7c0.7,1.3,1.6,2.3,2.7,3.2c1.1,0.9,2.4,1.6,3.8,2.1
			c1.4,0.5,2.9,1,4.4,1.3c1.5,0.4,2.9,0.8,4.3,1.1c1.4,0.3,2.7,0.7,3.8,1.2c1.1,0.4,2,1,2.7,1.7c0.7,0.7,1.1,1.5,1.1,2.6
			c0,1-0.3,1.8-0.8,2.5c-0.5,0.6-1.2,1.1-2,1.5c-0.8,0.4-1.6,0.6-2.5,0.8c-0.9,0.1-1.7,0.2-2.5,0.2c-1.2,0-2.3-0.1-3.4-0.4
			c-1.1-0.3-2-0.7-2.9-1.3c-0.8-0.6-1.4-1.4-1.9-2.3c-0.5-0.9-0.7-2.1-0.7-3.4H137.3z M234.9,45.7l5,14.7h-10.4L234.9,45.7z
			 M215.5,75.3V35.8h-12.4l-9,27.5l-9.4-27.5h-12.4v40h8.2l0.1-28.1l9.8,28.1h6.8l9.9-28.3v28.3h8.2h8.7l3.1-8.9h15l3,8.9h9.1
			l-15-40h-9L215.5,75.3z M251.7,62.5c0,2.5,0.4,4.6,1.3,6.4c0.9,1.8,2.2,3.3,3.8,4.4c1.6,1.2,3.4,2,5.5,2.5
			c2.1,0.6,4.2,0.8,6.4,0.8c2.7,0,5.1-0.3,7.2-1c2.1-0.6,3.8-1.5,5.2-2.6c1.4-1.2,2.5-2.5,3.2-4.1c0.7-1.6,1.1-3.3,1.1-5.1
			c0-2.2-0.5-4.1-1.5-5.5c-0.9-1.5-2.1-2.6-3.4-3.5c-1.3-0.9-2.6-1.5-4-1.8c-1.3-0.4-2.3-0.7-3.1-0.8l-6.1-1.6
			c-1.5-0.4-2.7-0.8-3.6-1.2c-0.9-0.4-1.4-0.9-1.7-1.3c-0.3-0.5-0.4-1.1-0.4-1.9c0-0.9,0.2-1.6,0.6-2.1c0.4-0.6,0.8-1,1.4-1.4
			c0.6-0.4,1.3-0.6,2-0.8c0.7-0.2,1.4-0.2,2.1-0.2c1.1,0,2.1,0.1,3,0.3c0.9,0.2,1.8,0.5,2.5,1c0.7,0.4,1.3,1.1,1.7,1.8
			c0.4,0.8,0.7,1.8,0.8,3h8.5c0-2.3-0.4-4.3-1.3-5.9c-0.9-1.6-2-3-3.5-4c-1.5-1-3.2-1.8-5.2-2.2c-1.9-0.5-3.9-0.7-6-0.7
			c-1.8,0-3.6,0.2-5.4,0.7c-1.8,0.5-3.4,1.2-4.8,2.2c-1.4,1-2.6,2.3-3.5,3.8c-0.9,1.5-1.3,3.3-1.3,5.3c0,1.8,0.3,3.4,1,4.7
			c0.7,1.3,1.6,2.3,2.7,3.2c1.1,0.9,2.4,1.6,3.8,2.1c1.4,0.5,2.9,1,4.4,1.3c1.5,0.4,2.9,0.8,4.3,1.1c1.4,0.3,2.7,0.7,3.8,1.2
			c1.1,0.4,2,1,2.7,1.7c0.7,0.7,1.1,1.5,1.1,2.6c0,1-0.3,1.8-0.8,2.5c-0.5,0.6-1.2,1.1-2,1.5c-0.8,0.4-1.6,0.6-2.5,0.8
			c-0.9,0.1-1.7,0.2-2.5,0.2c-1.2,0-2.3-0.1-3.4-0.4c-1.1-0.3-2-0.7-2.9-1.3c-0.8-0.6-1.4-1.4-1.9-2.3c-0.5-0.9-0.7-2.1-0.7-3.4
			H251.7z M286.8,75.8h8.8V58.6h16.2v17.3h8.8v-40h-8.8v15.4h-16.2V35.8h-8.8V75.8z M324.6,75.8h8.8v-40h-8.8V75.8z M337.4,75.8h8.2
			l0.1-26.8l16.6,26.8h8.8v-40H363l-0.1,26.8l-16.7-26.8h-8.7V75.8z"/>
	</g>
	<g id="Kasten">
		<path class="st29" d="M122.1,93.9l-15.6-67.6c-1.3-5.5-6.7-8.9-12.2-7.6l-11.4,2.6c1.3,0.2,2.6,0.4,3.9,0.7l6.4-1.5
			c5.5-1.3,11,2.2,12.2,7.6l5.8,25c-2.3,4.7-7,12.7-14.1,17.5c1.7,1.4,3.1,2.8,4.3,4.3c3.8,4.8,5.6,10.6,5.6,17.4
			c0,6.6-1.8,12.2-5.4,16.8l12.9-3C119.9,104.9,123.4,99.4,122.1,93.9z"/>
		<path class="st29" d="M39,113.4l8.1-18.1c6.8,5.4,14.5,8.1,23,8.1c8.9,0,13.3-3.2,13.3-9.5c0-3.7-1.3-6.7-4-9.1
			c-2.7-2.4-7.8-5.2-15.6-8.4c-4.6-1.9-8.5-4-11.9-6.3c-9.2,2.5-17.1,8.8-22.2,14.9l-8.6-37.4c-1.3-5.5,2.2-11,7.7-12.2L43.6,32
			c0.6-0.7,1.2-1.4,1.9-2.1l-18.9,4.4c-5.5,1.3-8.9,6.7-7.7,12.2l15.6,67.6c1.3,5.5,6.7,8.9,12.2,7.7l7.8-1.8
			c-0.2-0.1-0.4-0.1-0.6-0.2C50.1,118.8,45.1,116.7,39,113.4z"/>
		<path class="st29" d="M38.6,47.2c0-6,1.7-11.1,5-15.2l-14.8,3.4c-6.9,1.6-9,6.4-7.7,12.2l8.6,37.4c5.1-6.1,13-12.4,22.2-14.9
			C43.1,64,38.6,56.3,38.6,47.2z"/>
		<path class="st29" d="M94.9,45c-5-4.2-11.9-6.4-20.7-6.4c-7.9,0-11.9,3.2-11.9,9.5c0,2.5,1.3,4.7,3.9,6.7c2.6,2,8.2,4.7,16.7,8.1
			c5.8,2.3,10.5,4.9,14.1,7.8c7.1-4.8,11.8-12.8,14.1-17.5l-5.8-25c-1.2-5.1-5.3-9.2-12.2-7.6L86.7,22c5.1,1.1,10,2.9,14.7,5.3
			L94.9,45z"/>
	</g>
	<g id="Blendeneffekt">
		<defs>
			<path id="SVGID_28_" d="M20,47.1c-1.2-5.4,2.1-10.8,7.5-12l66.4-15.3c5.4-1.2,10.8,2.1,12,7.5l15.3,66.4c1.2,5.4-2.1,10.8-7.5,12
				l-66.4,15.3c-5.4,1.2-10.8-2.1-12-7.5L20,47.1L20,47.1z"/>
		</defs>
		<clipPath id="SVGID_29_">
			<use xlink:href="#SVGID_28_"  style="overflow:visible;"/>
		</clipPath>
	</g>
</g>
</svg>
