<?xml version="1.0" encoding="utf-8"?>
<!-- Generator: Adobe Illustrator 15.0.1, SVG Export Plug-In . SVG Version: 6.00 Build 0)  -->
<!DOCTYPE svg PUBLIC "-//W3C//DTD SVG 1.1//EN" "http://www.w3.org/Graphics/SVG/1.1/DTD/svg11.dtd">
<svg version="1.1" id="Layer_1" xmlns="http://www.w3.org/2000/svg" xmlns:xlink="http://www.w3.org/1999/xlink" x="0px" y="0px"
	 width="71px" height="71px" viewBox="0 0 71 71" enable-background="new 0 0 71 71" xml:space="preserve">
<g>
	<g>
		<path fill="#FFFFFF" d="M23.154,10.957c0,1.389,1.124,2.513,2.512,2.513v-0.656v-0.658c-0.661,0-1.198-0.537-1.198-1.198
			s0.537-1.197,1.198-1.197c0.66,0,1.198,0.536,1.199,1.197c-0.001,0.662-0.539,1.198-1.199,1.198v0.658v0.656
			c1.388,0,2.511-1.124,2.513-2.513c-0.002-1.39-1.125-2.512-2.513-2.512C24.279,8.445,23.154,9.567,23.154,10.957 M14.35,21.58
			c0,2.457,1.995,4.454,4.457,4.454v-0.656v-0.657c-1.736-0.004-3.14-1.408-3.145-3.141c0.005-1.738,1.409-3.144,3.145-3.146
			c1.735,0.002,3.141,1.408,3.144,3.146c-0.003,1.733-1.409,3.136-3.144,3.141v0.657v0.656c2.461,0,4.457-1.997,4.457-4.454
			c0-2.466-1.995-4.459-4.457-4.459C16.345,17.121,14.35,19.114,14.35,21.58 M47.94,25.813L47.94,25.813
			c0.002-1.733,1.402-3.134,3.134-3.136c1.73,0.002,3.131,1.403,3.135,3.136c-0.004,1.73-1.404,3.131-3.135,3.132
			C49.343,28.944,47.942,27.544,47.94,25.813 M46.627,25.813c0,2.454,1.992,4.446,4.447,4.446c2.459,0,4.446-1.992,4.448-4.446
			c-0.002-2.458-1.989-4.449-4.448-4.451C48.619,21.364,46.627,23.355,46.627,25.813 M46.925,33.444
			c0,1.418,1.148,2.568,2.566,2.568v-0.657v-0.659c-0.691,0-1.251-0.56-1.251-1.252c0-0.694,0.56-1.254,1.251-1.254
			c0.694,0,1.255,0.56,1.255,1.254c0,0.692-0.561,1.252-1.255,1.252v0.659v0.657c1.421,0,2.568-1.15,2.568-2.568
			c0-1.42-1.147-2.569-2.568-2.569C48.073,30.875,46.925,32.024,46.925,33.444 M30.517,11.572c0.004-2.34,1.894-4.23,4.232-4.232
			c2.337,0.002,4.227,1.893,4.232,4.232c-0.005,2.337-1.895,4.229-4.232,4.232v0.658v0.026v-0.026v-0.658
			C32.411,15.802,30.521,13.909,30.517,11.572 M24.652,17.751L24.652,17.751c0.002-1.165,0.946-2.109,2.112-2.111
			c1.165,0.002,2.109,0.947,2.111,2.111c-0.002,1.166-0.946,2.108-2.111,2.11C25.598,19.86,24.654,18.917,24.652,17.751
			 M39.694,15.156L39.694,15.156c0.004-2.98,2.414-5.392,5.395-5.396c2.98,0.004,5.393,2.416,5.396,5.396
			c-0.004,2.979-2.416,5.39-5.396,5.395C42.108,20.545,39.698,18.135,39.694,15.156 M35.444,17.145c0-0.023-0.002-0.046-0.003-0.07
			c1.129-0.14,2.151-0.622,2.964-1.334c0.094,1.104,0.456,2.129,1.022,3.014l-3.983,2.34V17.145z M20.949,30.569L20.949,30.569
			c0.004-2.139,1.733-3.87,3.871-3.873c2.137,0.002,3.866,1.734,3.869,3.873c-0.003,2.134-1.732,3.864-3.869,3.869
			C22.682,34.434,20.953,32.703,20.949,30.569 M34.13,50.432c0,0.362,0.294,0.657,0.659,0.657c0.361,0,0.655-0.295,0.655-0.657
			V35.883l4.891-2.867c0.71,0.821,1.761,1.339,2.933,1.34V33.7v-0.658c-1.419-0.003-2.568-1.151-2.568-2.569
			c0-1.415,1.149-2.562,2.568-2.565c1.415,0.002,2.562,1.15,2.564,2.565c-0.002,1.418-1.149,2.566-2.564,2.569V33.7v0.656
			c2.14-0.003,3.878-1.738,3.88-3.882c-0.002-2.143-1.74-3.88-3.88-3.88c-2.144,0-3.884,1.737-3.884,3.88
			c0,0.501,0.096,0.981,0.269,1.421l-4.208,2.464V22.616l4.801-2.818c1.22,1.272,2.939,2.065,4.844,2.065
			c3.705,0,6.71-3.001,6.71-6.708s-3.005-6.711-6.71-6.711c-1.928,0-3.665,0.813-4.887,2.114c-0.477-2.58-2.737-4.532-5.454-4.533
			c-3.062,0.001-5.544,2.483-5.545,5.547c0.001,2.854,2.158,5.204,4.93,5.512c-0.002,0.02-0.003,0.04-0.003,0.061v3.674
			l-4.073-2.125c0.085-0.3,0.13-0.615,0.13-0.942c0-1.891-1.531-3.424-3.423-3.425c-1.892,0.001-3.423,1.534-3.423,3.425
			s1.532,3.423,3.423,3.424c1.094,0,2.067-0.514,2.694-1.311l4.672,2.436v11.916l-4.317-2.258c0.125-0.442,0.188-0.908,0.19-1.389
			c-0.002-2.863-2.322-5.185-5.184-5.185c-2.863,0-5.183,2.322-5.185,5.185c0.002,2.86,2.322,5.181,5.185,5.181
			c1.913,0,3.583-1.037,4.48-2.579l4.83,2.527V50.432z"/>
	</g>
	<polygon fill="#FFFFFF" points="8.213,59.725 6.386,59.725 6.386,58.742 11.229,58.742 11.229,59.725 9.383,59.725 9.383,65.155 
		8.213,65.155 	"/>
	<g>
		<path fill="#FFFFFF" d="M11.98,60.521h1.17v4.631h-1.17V60.521z M13.226,59.228c0,0.341-0.257,0.628-0.666,0.628
			c-0.391,0-0.647-0.287-0.647-0.628c0-0.362,0.266-0.637,0.657-0.637C12.969,58.591,13.217,58.865,13.226,59.228"/>
		<path fill="#FFFFFF" d="M14.577,61.901c0-0.534-0.019-0.982-0.037-1.382h0.998l0.057,0.688h0.029
			c0.218-0.362,0.636-0.789,1.426-0.789c0.608,0,1.084,0.341,1.283,0.855h0.02c0.163-0.259,0.352-0.445,0.562-0.581
			c0.266-0.181,0.561-0.274,0.952-0.274c0.761,0,1.541,0.522,1.541,2.004v2.733h-1.142v-2.562c0-0.768-0.267-1.226-0.827-1.226
			c-0.399,0-0.694,0.285-0.819,0.618c-0.037,0.105-0.058,0.258-0.058,0.389v2.781h-1.14v-2.684c0-0.646-0.258-1.104-0.801-1.104
			c-0.436,0-0.732,0.341-0.846,0.657c-0.038,0.125-0.057,0.256-0.057,0.392v2.739h-1.142V61.901z"/>
		<path fill="#FFFFFF" d="M25.461,62.35c0.009-0.432-0.181-1.135-0.962-1.135c-0.723,0-1.027,0.655-1.075,1.135H25.461z
			 M23.424,63.165c0.028,0.839,0.676,1.199,1.427,1.199c0.542,0,0.923-0.086,1.284-0.211l0.172,0.802
			c-0.399,0.171-0.951,0.293-1.618,0.293c-1.503,0-2.387-0.922-2.387-2.339c0-1.286,0.78-2.491,2.264-2.491
			c1.502,0,1.997,1.234,1.997,2.252c0,0.219-0.018,0.392-0.038,0.495H23.424z"/>
	</g>
	<polygon fill="#FFFFFF" points="30.921,59.725 29.094,59.725 29.094,58.742 33.937,58.742 33.937,59.725 32.091,59.725 
		32.091,65.155 30.921,65.155 	"/>
	<path fill="#FFFFFF" d="M35.088,62.843c0,0.895,0.448,1.569,1.151,1.569c0.666,0,1.132-0.647,1.132-1.588
		c0-0.723-0.324-1.56-1.121-1.56C35.422,61.265,35.088,62.072,35.088,62.843 M38.578,62.793c0,1.704-1.199,2.464-2.377,2.464
		c-1.303,0-2.321-0.893-2.321-2.385c0-1.521,0.999-2.454,2.396-2.454C37.656,60.418,38.578,61.386,38.578,62.793"/>
	<path fill="#FFFFFF" d="M41.386,58.742h1.162v2.949h0.026c0.154-0.245,0.314-0.475,0.467-0.695l1.684-2.254h1.437l-2.207,2.73
		l2.351,3.683h-1.372l-1.805-2.941l-0.58,0.685v2.257h-1.162V58.742z"/>
	<path fill="#FFFFFF" d="M47.085,61.901c0-0.534-0.019-0.982-0.038-1.382h1.019l0.056,0.695h0.027
		c0.21-0.36,0.714-0.797,1.486-0.797c0.808,0,1.644,0.522,1.644,1.987v2.75h-1.169v-2.616c0-0.669-0.246-1.172-0.885-1.172
		c-0.467,0-0.791,0.335-0.914,0.687c-0.037,0.096-0.056,0.237-0.056,0.368v2.733h-1.17V61.901z"/>
	<path fill="#FFFFFF" d="M53.447,62.843c0,0.895,0.447,1.569,1.153,1.569c0.666,0,1.13-0.647,1.13-1.588
		c0-0.723-0.322-1.56-1.122-1.56C53.782,61.265,53.447,62.072,53.447,62.843 M56.942,62.793c0,1.704-1.201,2.464-2.382,2.464
		c-1.301,0-2.318-0.893-2.318-2.385c0-1.521,0.997-2.454,2.396-2.454C56.018,60.418,56.942,61.386,56.942,62.793"/>
	<path fill="#FFFFFF" d="M58.615,60.521l0.475,2.103c0.114,0.495,0.221,0.999,0.306,1.503h0.019
		c0.094-0.504,0.248-1.018,0.371-1.495l0.607-2.11h0.951l0.581,2.055c0.146,0.543,0.269,1.047,0.37,1.551h0.021
		c0.065-0.504,0.18-1.008,0.305-1.551l0.514-2.055h1.148l-1.454,4.634h-1.083l-0.551-1.884c-0.144-0.487-0.25-0.922-0.354-1.484
		h-0.019c-0.104,0.57-0.219,1.026-0.35,1.484l-0.591,1.884h-1.095l-1.372-4.634H58.615z"/>
	<path fill="#FFFFFF" d="M6.876,54.973h57.25c0.361,0,0.655-0.295,0.655-0.657c0-0.366-0.294-0.66-0.655-0.66H6.876
		c-0.365,0-0.659,0.294-0.659,0.66C6.218,54.678,6.511,54.973,6.876,54.973"/>
	<path fill="#FFFFFF" d="M54.455,8.468h0.272c0.339,0,0.578-0.119,0.578-0.375c0-0.236-0.187-0.375-0.526-0.375
		c-0.138,0-0.256,0.018-0.324,0.018V8.468z M54.438,10.035h-0.752V7.292c0.225-0.05,0.614-0.101,1.143-0.101
		c0.579,0,0.835,0.084,1.022,0.221c0.171,0.102,0.289,0.306,0.289,0.58c0,0.306-0.254,0.545-0.596,0.647v0.035
		c0.29,0.102,0.443,0.323,0.527,0.698c0.087,0.393,0.137,0.562,0.189,0.664h-0.818c-0.085-0.102-0.138-0.34-0.204-0.63
		c-0.052-0.291-0.204-0.409-0.512-0.409h-0.289V10.035z M52.7,8.622c0,1.227,0.918,2.214,2.146,2.214
		c1.227,0.018,2.13-0.988,2.13-2.214c0-1.244-0.903-2.215-2.161-2.215C53.618,6.406,52.7,7.377,52.7,8.622 M57.793,8.604
		c0,1.618-1.294,2.896-2.947,2.896c-1.634,0-2.961-1.277-2.961-2.896c0-1.584,1.327-2.861,2.98-2.861
		C56.499,5.743,57.793,7.02,57.793,8.604"/>
</g>
</svg>
