<?xml version="1.0" encoding="utf-8"?>
<!-- Generator: Adobe Illustrator 19.2.0, SVG Export Plug-In . SVG Version: 6.00 Build 0)  -->
<svg version="1.1" id="Layer_1" xmlns="http://www.w3.org/2000/svg" xmlns:xlink="http://www.w3.org/1999/xlink" x="0px" y="0px"
	 viewBox="0 0 28 21.5" style="enable-background:new 0 0 28 21.5;" xml:space="preserve">
<style type="text/css">
	.st0{fill:#FFFFFF;}
</style>
<path class="st0" d="M19.4,18.5H7.7v0c-2.5-0.2-4.4-2.3-4.4-4.8c0-2.5,1.9-4.6,4.4-4.8c0,0,0,0,0,0c0-3.2,2.6-5.8,5.8-5.8
	c2.9,0,5.3,2.1,5.8,4.9c0,0,0.1,0,0.1,0c3,0,5.4,2.4,5.4,5.4S22.3,18.5,19.4,18.5z M19.4,8.8c-0.2,0-0.3,0-0.5,0l0,0c0,0,0,0,0,0
	c-0.3,0-0.5-0.2-0.5-0.5l0,0c-0.2-2.5-2.3-4.4-4.8-4.4c-2.7,0-4.9,2.2-4.9,4.9c0,0.1,0,0.3,0,0.4l0,0c0,0,0,0,0,0.1
	c0,0.3-0.2,0.5-0.5,0.5l0,0c0,0,0,0,0,0c-2.2,0-3.9,1.7-3.9,3.9c0,2,1.5,3.6,3.4,3.9v0h11.7c2.4,0,4.4-2,4.4-4.4S21.8,8.8,19.4,8.8z
	"/>
</svg>
