<svg xmlns="http://www.w3.org/2000/svg" viewBox="0 0 21.2 22.1" enable-background="new 0 0 21.2 22.1"><style type="text/css">.st0{fill:#06D09D;}</style><g id="XMLID_714_"><path id="XMLID_722_" class="st0" d="M.7 7.9h4v13h-4z"/><path id="XMLID_729_" class="st0" d="M2.9 1.1C1.4 1.1.4 2.1.4 3.4s1 2.5 2.4 2.5c1.5 0 2.5-1.2 2.5-2.5s-.9-2.3-2.4-2.3z"/><path id="XMLID_847_" class="st0" d="M15.6 7.2c-2.4 0-2.9 1.4-3.9 2.3V7.9H8c.1 1 0 13 0 13h3.7v-7.4c0-.4.2-.8.3-1.1.3-.8.9-1.6 2.1-1.6 1.6 0 2.6 1.2 2.6 3v7.1h4v-7.6c0-4.1-2.2-6.1-5.1-6.1z"/></g></svg>