<?xml version="1.0" encoding="utf-8"?>
<!-- Generator: Adobe Illustrator 19.2.0, SVG Export Plug-In . SVG Version: 6.00 Build 0)  -->
<svg version="1.1" id="Layer_1" xmlns="http://www.w3.org/2000/svg" xmlns:xlink="http://www.w3.org/1999/xlink" x="0px" y="0px"
	 viewBox="0 0 21.2 22.1" style="enable-background:new 0 0 21.2 22.1;" xml:space="preserve">
<style type="text/css">
	.st0{fill:#06D09D;}
</style>
<g id="XMLID_714_">
	<rect id="XMLID_722_" x="0.7" y="7.9" class="st0" width="4" height="13"/>
	<path id="XMLID_729_" class="st0" d="M2.9,1.1c-1.5,0-2.5,1-2.5,2.3s1,2.5,2.4,2.5l0,0c1.5,0,2.5-1.2,2.5-2.5S4.4,1.1,2.9,1.1z"/>
	<path id="XMLID_847_" class="st0" d="M15.6,7.2c-2.4,0-2.9,1.4-3.9,2.3V7.9H8c0.1,1,0,13,0,13h3.7v-7.4c0-0.4,0.2-0.8,0.3-1.1
		c0.3-0.8,0.9-1.6,2.1-1.6c1.6,0,2.6,1.2,2.6,3v7.1h4v-7.6C20.7,9.2,18.5,7.2,15.6,7.2z"/>
</g>
</svg>
