<svg xmlns="http://www.w3.org/2000/svg" viewBox="0 0 120 82" enable-background="new 0 0 120 82"><style type="text/css">.st0{fill:#FFFFFF;}</style><path class="st0" d="M99.6 27l13.9-20.6s-5.8-1-8.8 1.7c-1.9 1.7-3.9 4.7-3.9 4.7l-5.1 7.4c-.3.4-.6.8-1.1.8-.5 0-.9-.4-1.1-.8l-5.2-7.4s-2.1-3.1-3.9-4.7c-2.9-2.7-8.8-1.7-8.8-1.7L89.5 27 75.7 47.5s6.1.8 9-1.9c1.9-1.7 3.7-4.4 3.7-4.4l5.1-7.4c.3-.4.6-.8 1.1-.8.5 0 .9.4 1.1.8l5.1 7.4s1.9 2.7 3.8 4.4c2.9 2.7 8.9 1.9 8.9 1.9L99.6 27zM72.3 12.9s-.7 1.1-2.3 1.9c-1 .5-2 .9-3 1.5-1.7.9-2.2 1.7-2.2 3.2v28.1s2.8.3 4.6-.6c2.3-1.2 2.9-2.3 2.9-7.5V12.9zM55.2 8.1c-1.7 1.5-2.3 4-2.3 4l-5.7 22.2-4.8-18.1c-.5-1.9-1.3-4.3-2.6-5.9C38.2 8.1 34.7 8 34.4 8c-.3 0-3.8.1-5.4 2.2-1.3 1.6-2.1 4-2.6 5.9l-4.8 18.1L15.8 12s-.5-2.5-2.3-4c-2.9-2.5-7-1.9-7-1.9l11 41.4s3.6.3 5.4-.7c2.4-1.2 3.5-2.1 4.9-7.8 1.3-5 4.8-19.8 5.2-20.8.1-.5.4-1.8 1.3-1.8s1.1 1.3 1.3 1.8c.3 1.1 3.9 15.8 5.2 20.8 1.5 5.6 2.6 6.6 4.9 7.8 1.8.9 5.4.7 5.4.7L62.2 6.1s-4.3-.5-7 2m12.5-1.2c-2.1 1.1-2.9 3-2.9 8.2 0 0 1.1-1.1 2.7-1.6 1.1-.4 2.1-1.1 2.7-1.5 1.8-1.3 2.1-3 2.1-5.8 0-.1-2.9-.2-4.6.7"/><path class="st0" d="M106.2 61c-.7 0-1.3.1-1.8.4-.5.3-.9.6-1.2 1.1-.3.4-.6 1-.7 1.5-.2.6-.2 1.2-.2 1.7 0 .6.1 1.3.2 1.8.2.6.4 1.1.8 1.5.3.4.8.8 1.3 1 .5.2 1.1.4 1.7.4.7 0 1.3-.1 1.8-.4.5-.3.9-.6 1.3-1.1.3-.4.6-1 .8-1.5.2-.6.2-1.2.2-1.8 0-.6-.1-1.2-.2-1.8-.2-.6-.4-1.1-.8-1.5-.3-.4-.8-.8-1.3-1.1-.6-.1-1.2-.2-1.9-.2m4.9-.5v11.2c0 .3-.1.6-.1 1-.1.4-.2.7-.4 1.1-.2.4-.5.7-.8 1-.3.3-.8.6-1.4.7-.6.2-1.2.3-2 .2-.6 0-1.2 0-1.7-.2-.5-.1-1-.3-1.4-.6-.4-.3-.7-.6-.9-1.1-.2-.4-.4-1-.4-1.6h.8c0 .5.2.9.4 1.3.2.3.5.6.8.9.3.2.7.4 1.1.5.4.1.8.1 1.3.1.6 0 1.2-.1 1.6-.2.4-.1.8-.4 1.1-.6.3-.2.5-.5.7-.8.1-.3.3-.6.4-.9.1-.3.1-.5.1-.8v-3.1c-.4.8-.9 1.5-1.6 1.9-.7.4-1.5.6-2.4.6-.8 0-1.5-.1-2.1-.4-.6-.3-1.1-.7-1.5-1.2-.4-.5-.7-1.1-.9-1.7-.2-.7-.3-1.4-.3-2.2 0-.7.1-1.4.3-2.1.2-.7.5-1.3.9-1.7.4-.5.9-.9 1.5-1.2.6-.3 1.3-.4 2.1-.4.4 0 .9 0 1.3.2.4.1.8.3 1.2.5.3.2.7.5.9.8.3.3.5.7.6 1.1v-2.3h.8zm-20.4 0h.8v2.4c.1-.4.3-.8.6-1.1.3-.3.6-.6.9-.8.3-.2.7-.4 1.2-.5.4-.1.8-.2 1.3-.2.6 0 1.2.1 1.7.2.4.1.8.4 1.1.6.3.3.5.5.7.9.2.3.3.7.3 1 .1.3.1.7.1 1v7.7h-.8v-7c0-.3 0-.6-.1-1.1 0-.4-.2-.8-.4-1.2-.2-.4-.5-.7-1-1-.4-.3-1-.4-1.8-.4-.6 0-1.2.1-1.7.3-.5.2-.9.5-1.3 1-.3.4-.6.9-.8 1.5-.2.6-.3 1.2-.3 1.9v6h-.8V60.5zm-3.5 0h.8v11.1h-.8V60.5zm0-4.3h.8v2.2h-.8v-2.2zM81.8 63c.2-.4.4-.7.6-1 .3-.3.6-.6 1-.8.4-.2.8-.4 1.3-.5.5-.1 1-.2 1.5-.2v.8c-.4 0-.9 0-1.5.1s-1.1.5-1.6 1c-.2.2-.4.4-.5.6-.1.2-.3.4-.4.7-.1.2-.2.5-.2.8 0 .3-.1.7-.1 1.1v6.1H81V60.5h.8V63zm-3.5 2.5c0-.6-.1-1.1-.3-1.7-.2-.5-.4-1-.8-1.4-.3-.4-.8-.7-1.3-1-.5-.2-1.1-.4-1.7-.4-.6 0-1.2.1-1.7.4-.5.3-.9.6-1.3 1-.3.4-.6.9-.8 1.5-.2.5-.3 1.1-.4 1.6h8.3zm-8.2.7c0 .6 0 1.3.2 1.9.2.6.4 1.1.8 1.6.3.5.8.8 1.3 1.1.5.3 1.1.4 1.8.4 1.1 0 1.9-.3 2.6-.9.7-.6 1.2-1.4 1.4-2.4h.8c-.2 1.3-.7 2.3-1.6 3-.8.7-1.9 1-3.2 1-.8 0-1.5-.1-2.1-.4-.6-.3-1.1-.7-1.6-1.2-.4-.5-.7-1.1-.9-1.8-.2-.7-.3-1.4-.3-2.2 0-.8.1-1.5.3-2.2.2-.7.5-1.4.9-1.9.4-.6.9-1 1.6-1.4.6-.3 1.4-.5 2.2-.5.9 0 1.6.1 2.2.5.6.3 1.2.7 1.6 1.3.4.5.7 1.2.9 1.9.2.7.2 1.5.2 2.3l-9.1-.1zm-3.1-.7c0-.6-.1-1.1-.3-1.7-.2-.5-.4-1-.8-1.4-.3-.4-.8-.7-1.3-1-.4-.3-1-.4-1.6-.4-.6 0-1.2.1-1.7.4-.5.3-.9.6-1.3 1-.3.4-.6.9-.8 1.5-.2.5-.3 1.1-.4 1.6H67zm-8.1.7c0 .6 0 1.3.2 1.9.2.6.4 1.1.8 1.6.3.5.8.8 1.3 1.1.5.3 1.1.4 1.8.4 1.1 0 1.9-.3 2.6-.9.7-.6 1.2-1.4 1.4-2.4h.8c-.2 1.3-.7 2.3-1.6 3-.8.7-1.9 1-3.2 1-.8 0-1.5-.1-2.1-.4-.6-.3-1.1-.7-1.6-1.2-.4-.5-.7-1.1-.9-1.8-.2-.7-.3-1.4-.3-2.2 0-.8.1-1.5.3-2.2.2-.7.5-1.4.9-1.9.4-.6.9-1 1.6-1.4.6-.3 1.4-.5 2.2-.5.9 0 1.6.1 2.2.5.6.3 1.2.7 1.6 1.3.4.5.7 1.2.9 1.9.2.7.2 1.5.2 2.3l-9.1-.1zm-11.6-5.7h.8v2.4c.1-.4.3-.8.6-1.1.3-.3.6-.6.9-.8.3-.2.7-.4 1.2-.5.4-.1.8-.2 1.3-.2.6 0 1.2.1 1.7.2.4.1.8.4 1.1.6.3.3.5.5.7.9.2.3.3.7.3 1 .1.3.1.7.1 1v7.7h-.8v-7c0-.3 0-.6-.1-1.1 0-.4-.2-.8-.4-1.2-.2-.4-.5-.7-1-1-.4-.3-1-.4-1.8-.4-.6 0-1.2.1-1.7.3-.5.2-.9.5-1.3 1-.3.4-.6.9-.8 1.5-.2.6-.3 1.2-.3 1.9v6H47V60.5zm-3.4 0h.8v11.1h-.8V60.5zm0-4.3h.8v2.2h-.8v-2.2zM36.4 61c-.7 0-1.3.1-1.8.4-.5.3-.9.6-1.2 1.1-.3.4-.6 1-.7 1.5-.2.6-.2 1.2-.2 1.7 0 .6.1 1.3.2 1.8.2.6.4 1.1.8 1.5.3.4.8.8 1.3 1 .5.2 1.1.4 1.7.4.7 0 1.3-.1 1.8-.4.5-.3.9-.6 1.3-1.1.3-.4.6-1 .8-1.5.2-.6.2-1.2.2-1.8 0-.6-.1-1.2-.2-1.8-.2-.6-.4-1.1-.8-1.5-.3-.4-.8-.8-1.3-1.1-.7-.1-1.3-.2-1.9-.2m4.9-.5v11.2c0 .3-.1.6-.1 1-.1.4-.2.7-.4 1.1-.2.4-.5.7-.8 1-.3.3-.8.6-1.4.7-.6.2-1.2.3-2 .2-.6 0-1.2 0-1.7-.2-.5-.1-1-.3-1.4-.6-.4-.3-.7-.6-.9-1.1-.2-.4-.4-1-.4-1.6h.8c0 .5.2.9.4 1.3.2.3.5.6.8.9.3.2.7.4 1.1.5.4.1.8.1 1.3.1.6 0 1.2-.1 1.7-.2.4-.1.8-.4 1.1-.6.3-.2.5-.5.7-.8.1-.3.3-.6.4-.9.1-.3.1-.5.1-.8v-3.1c-.4.8-.9 1.5-1.6 1.9-.7.4-1.5.6-2.4.6-.8 0-1.5-.1-2.1-.4-.6-.3-1.1-.7-1.5-1.2-.4-.5-.7-1.1-.9-1.7-.2-.7-.3-1.4-.3-2.2 0-.7.1-1.4.3-2.1.2-.7.5-1.3.9-1.7.4-.5.9-.9 1.5-1.2.6-.3 1.3-.4 2.1-.4.4 0 .9 0 1.3.2.4.1.8.3 1.2.5.3.2.7.5.9.8.3.3.5.7.6 1.1v-2.3h.7zm-20.5 0h.8v2.4c.1-.4.3-.8.6-1.1.3-.3.6-.6.9-.8.3-.2.7-.4 1.2-.5.4-.1.8-.2 1.3-.2.6 0 1.2.1 1.7.2.4.1.8.4 1.1.6.3.3.5.5.7.9.2.3.3.7.3 1 .1.3.1.7.1 1v7.7h-.8v-7c0-.3 0-.6-.1-1.1 0-.4-.2-.8-.4-1.2-.2-.4-.5-.7-1-1-.4-.3-1-.4-1.8-.4-.6 0-1.2.1-1.7.3-.5.2-.9.5-1.3 1-.3.4-.6.9-.8 1.5-.2.6-.3 1.2-.3 1.9v6h-.8V60.5zm-1.4 10.4v.8H8.9V56.2h10.4v.8H9.8v6.2h8.9v.8H9.8v6.8l9.6.1z"/></svg>