<?xml version="1.0" encoding="utf-8"?>
<!-- Generator: Adobe Illustrator 19.2.0, SVG Export Plug-In . SVG Version: 6.00 Build 0)  -->
<svg version="1.1" id="Layer_1" xmlns="http://www.w3.org/2000/svg" xmlns:xlink="http://www.w3.org/1999/xlink" x="0px" y="0px"
	 viewBox="0 0 120 82" style="enable-background:new 0 0 120 82;" xml:space="preserve">
<style type="text/css">
	.st0{fill:#FFFFFF;}
</style>
<g>
	<path class="st0" d="M99.6,27l13.9-20.6c0,0-5.8-1-8.8,1.7c-1.9,1.7-3.9,4.7-3.9,4.7l-5.1,7.4c-0.3,0.4-0.6,0.8-1.1,0.8
		c-0.5,0-0.9-0.4-1.1-0.8l-5.2-7.4c0,0-2.1-3.1-3.9-4.7c-2.9-2.7-8.8-1.7-8.8-1.7l13.9,20.6L75.7,47.5c0,0,6.1,0.8,9-1.9
		c1.9-1.7,3.7-4.4,3.7-4.4l5.1-7.4c0.3-0.4,0.6-0.8,1.1-0.8c0.5,0,0.9,0.4,1.1,0.8l5.1,7.4c0,0,1.9,2.7,3.8,4.4
		c2.9,2.7,8.9,1.9,8.9,1.9L99.6,27z M72.3,12.9c0,0-0.7,1.1-2.3,1.9c-1,0.5-2,0.9-3,1.5c-1.7,0.9-2.2,1.7-2.2,3.2v28.1
		c0,0,2.8,0.3,4.6-0.6c2.3-1.2,2.9-2.3,2.9-7.5V12.9z M55.2,8.1c-1.7,1.5-2.3,4-2.3,4l-5.7,22.2l-4.8-18.1c-0.5-1.9-1.3-4.3-2.6-5.9
		C38.2,8.1,34.7,8,34.4,8c-0.3,0-3.8,0.1-5.4,2.2c-1.3,1.6-2.1,4-2.6,5.9l-4.8,18.1L15.8,12c0,0-0.5-2.5-2.3-4c-2.9-2.5-7-1.9-7-1.9
		l11,41.4c0,0,3.6,0.3,5.4-0.7c2.4-1.2,3.5-2.1,4.9-7.8c1.3-5,4.8-19.8,5.2-20.8c0.1-0.5,0.4-1.8,1.3-1.8c0.9,0,1.1,1.3,1.3,1.8
		c0.3,1.1,3.9,15.8,5.2,20.8c1.5,5.6,2.6,6.6,4.9,7.8c1.8,0.9,5.4,0.7,5.4,0.7L62.2,6.1C62.2,6.1,57.9,5.6,55.2,8.1 M67.7,6.9
		c-2.1,1.1-2.9,3-2.9,8.2c0,0,1.1-1.1,2.7-1.6c1.1-0.4,2.1-1.1,2.7-1.5c1.8-1.3,2.1-3,2.1-5.8C72.3,6.1,69.4,6,67.7,6.9"/>
	<path class="st0" d="M106.2,61c-0.7,0-1.3,0.1-1.8,0.4c-0.5,0.3-0.9,0.6-1.2,1.1c-0.3,0.4-0.6,1-0.7,1.5c-0.2,0.6-0.2,1.2-0.2,1.7
		c0,0.6,0.1,1.3,0.2,1.8c0.2,0.6,0.4,1.1,0.8,1.5c0.3,0.4,0.8,0.8,1.3,1c0.5,0.2,1.1,0.4,1.7,0.4c0.7,0,1.3-0.1,1.8-0.4
		c0.5-0.3,0.9-0.6,1.3-1.1c0.3-0.4,0.6-1,0.8-1.5c0.2-0.6,0.2-1.2,0.2-1.8c0-0.6-0.1-1.2-0.2-1.8c-0.2-0.6-0.4-1.1-0.8-1.5
		c-0.3-0.4-0.8-0.8-1.3-1.1C107.5,61.1,106.9,61,106.2,61 M111.1,60.5v10.5c0,0.1,0,0.4,0,0.7c0,0.3-0.1,0.6-0.1,1
		c-0.1,0.4-0.2,0.7-0.4,1.1c-0.2,0.4-0.5,0.7-0.8,1c-0.3,0.3-0.8,0.6-1.4,0.7c-0.6,0.2-1.2,0.3-2,0.2c-0.6,0-1.2,0-1.7-0.2
		c-0.5-0.1-1-0.3-1.4-0.6c-0.4-0.3-0.7-0.6-0.9-1.1c-0.2-0.4-0.4-1-0.4-1.6h0.8c0,0.5,0.2,0.9,0.4,1.3c0.2,0.3,0.5,0.6,0.8,0.9
		c0.3,0.2,0.7,0.4,1.1,0.5c0.4,0.1,0.8,0.1,1.3,0.1c0.6,0,1.2-0.1,1.6-0.2c0.4-0.1,0.8-0.4,1.1-0.6c0.3-0.2,0.5-0.5,0.7-0.8
		c0.1-0.3,0.3-0.6,0.4-0.9c0.1-0.3,0.1-0.5,0.1-0.8s0-0.4,0-0.5v-2.6h0c-0.4,0.8-0.9,1.5-1.6,1.9c-0.7,0.4-1.5,0.6-2.4,0.6
		c-0.8,0-1.5-0.1-2.1-0.4c-0.6-0.3-1.1-0.7-1.5-1.2c-0.4-0.5-0.7-1.1-0.9-1.7c-0.2-0.7-0.3-1.4-0.3-2.2c0-0.7,0.1-1.4,0.3-2.1
		c0.2-0.7,0.5-1.3,0.9-1.7c0.4-0.5,0.9-0.9,1.5-1.2c0.6-0.3,1.3-0.4,2.1-0.4c0.4,0,0.9,0,1.3,0.2c0.4,0.1,0.8,0.3,1.2,0.5
		c0.3,0.2,0.7,0.5,0.9,0.8c0.3,0.3,0.5,0.7,0.6,1.1h0v-2.3H111.1z M90.7,60.5h0.8v2.4h0c0.1-0.4,0.3-0.8,0.6-1.1
		c0.3-0.3,0.6-0.6,0.9-0.8c0.3-0.2,0.7-0.4,1.2-0.5c0.4-0.1,0.8-0.2,1.3-0.2c0.6,0,1.2,0.1,1.7,0.2c0.4,0.1,0.8,0.4,1.1,0.6
		c0.3,0.3,0.5,0.5,0.7,0.9c0.2,0.3,0.3,0.7,0.3,1c0.1,0.3,0.1,0.7,0.1,1c0,0.3,0,0.6,0,0.8v6.9h-0.8v-7c0-0.3,0-0.6-0.1-1.1
		c0-0.4-0.2-0.8-0.4-1.2c-0.2-0.4-0.5-0.7-1-1c-0.4-0.3-1-0.4-1.8-0.4c-0.6,0-1.2,0.1-1.7,0.3c-0.5,0.2-0.9,0.5-1.3,1
		c-0.3,0.4-0.6,0.9-0.8,1.5c-0.2,0.6-0.3,1.2-0.3,1.9v6h-0.8V60.5z M87.2,60.5h0.8v11.1h-0.8V60.5z M87.2,56.2h0.8v2.2h-0.8V56.2z
		 M81.8,63L81.8,63c0.2-0.4,0.4-0.7,0.6-1c0.3-0.3,0.6-0.6,1-0.8c0.4-0.2,0.8-0.4,1.3-0.5c0.5-0.1,1-0.2,1.5-0.2v0.8
		c-0.4,0-0.9,0-1.5,0.1c-0.6,0.1-1.1,0.5-1.6,1c-0.2,0.2-0.4,0.4-0.5,0.6c-0.1,0.2-0.3,0.4-0.4,0.7c-0.1,0.2-0.2,0.5-0.2,0.8
		c0,0.3-0.1,0.7-0.1,1.1v6.1H81V60.5h0.8V63z M78.3,65.5c0-0.6-0.1-1.1-0.3-1.7c-0.2-0.5-0.4-1-0.8-1.4c-0.3-0.4-0.8-0.7-1.3-1
		c-0.5-0.2-1.1-0.4-1.7-0.4c-0.6,0-1.2,0.1-1.7,0.4c-0.5,0.3-0.9,0.6-1.3,1c-0.3,0.4-0.6,0.9-0.8,1.5c-0.2,0.5-0.3,1.1-0.4,1.6
		L78.3,65.5L78.3,65.5z M70.1,66.2c0,0.6,0,1.3,0.2,1.9c0.2,0.6,0.4,1.1,0.8,1.6c0.3,0.5,0.8,0.8,1.3,1.1c0.5,0.3,1.1,0.4,1.8,0.4
		c1.1,0,1.9-0.3,2.6-0.9c0.7-0.6,1.2-1.4,1.4-2.4H79c-0.2,1.3-0.7,2.3-1.6,3c-0.8,0.7-1.9,1-3.2,1c-0.8,0-1.5-0.1-2.1-0.4
		c-0.6-0.3-1.1-0.7-1.6-1.2c-0.4-0.5-0.7-1.1-0.9-1.8c-0.2-0.7-0.3-1.4-0.3-2.2c0-0.8,0.1-1.5,0.3-2.2c0.2-0.7,0.5-1.4,0.9-1.9
		c0.4-0.6,0.9-1,1.6-1.4c0.6-0.3,1.4-0.5,2.2-0.5c0.9,0,1.6,0.1,2.2,0.5c0.6,0.3,1.2,0.7,1.6,1.3c0.4,0.5,0.7,1.2,0.9,1.9
		c0.2,0.7,0.2,1.5,0.2,2.3L70.1,66.2L70.1,66.2z M67,65.5c0-0.6-0.1-1.1-0.3-1.7c-0.2-0.5-0.4-1-0.8-1.4c-0.3-0.4-0.8-0.7-1.3-1
		C64.2,61.1,63.6,61,63,61c-0.6,0-1.2,0.1-1.7,0.4c-0.5,0.3-0.9,0.6-1.3,1c-0.3,0.4-0.6,0.9-0.8,1.5c-0.2,0.5-0.3,1.1-0.4,1.6
		L67,65.5L67,65.5z M58.9,66.2c0,0.6,0,1.3,0.2,1.9c0.2,0.6,0.4,1.1,0.8,1.6c0.3,0.5,0.8,0.8,1.3,1.1c0.5,0.3,1.1,0.4,1.8,0.4
		c1.1,0,1.9-0.3,2.6-0.9c0.7-0.6,1.2-1.4,1.4-2.4h0.8c-0.2,1.3-0.7,2.3-1.6,3c-0.8,0.7-1.9,1-3.2,1c-0.8,0-1.5-0.1-2.1-0.4
		c-0.6-0.3-1.1-0.7-1.6-1.2c-0.4-0.5-0.7-1.1-0.9-1.8c-0.2-0.7-0.3-1.4-0.3-2.2c0-0.8,0.1-1.5,0.3-2.2c0.2-0.7,0.5-1.4,0.9-1.9
		c0.4-0.6,0.9-1,1.6-1.4c0.6-0.3,1.4-0.5,2.2-0.5c0.9,0,1.6,0.1,2.2,0.5c0.6,0.3,1.2,0.7,1.6,1.3c0.4,0.5,0.7,1.2,0.9,1.9
		c0.2,0.7,0.2,1.5,0.2,2.3L58.9,66.2L58.9,66.2z M47.3,60.5h0.8v2.4h0c0.1-0.4,0.3-0.8,0.6-1.1c0.3-0.3,0.6-0.6,0.9-0.8
		c0.3-0.2,0.7-0.4,1.2-0.5c0.4-0.1,0.8-0.2,1.3-0.2c0.6,0,1.2,0.1,1.7,0.2c0.4,0.1,0.8,0.4,1.1,0.6c0.3,0.3,0.5,0.5,0.7,0.9
		c0.2,0.3,0.3,0.7,0.3,1c0.1,0.3,0.1,0.7,0.1,1c0,0.3,0,0.6,0,0.8v6.9h-0.8v-7c0-0.3,0-0.6-0.1-1.1c0-0.4-0.2-0.8-0.4-1.2
		c-0.2-0.4-0.5-0.7-1-1c-0.4-0.3-1-0.4-1.8-0.4c-0.6,0-1.2,0.1-1.7,0.3c-0.5,0.2-0.9,0.5-1.3,1c-0.3,0.4-0.6,0.9-0.8,1.5
		c-0.2,0.6-0.3,1.2-0.3,1.9v6h-0.8V60.5z M43.9,60.5h0.8v11.1h-0.8V60.5z M43.9,56.2h0.8v2.2h-0.8V56.2z M36.4,61
		c-0.7,0-1.3,0.1-1.8,0.4c-0.5,0.3-0.9,0.6-1.2,1.1c-0.3,0.4-0.6,1-0.7,1.5c-0.2,0.6-0.2,1.2-0.2,1.7c0,0.6,0.1,1.3,0.2,1.8
		c0.2,0.6,0.4,1.1,0.8,1.5c0.3,0.4,0.8,0.8,1.3,1c0.5,0.2,1.1,0.4,1.7,0.4c0.7,0,1.3-0.1,1.8-0.4c0.5-0.3,0.9-0.6,1.3-1.1
		c0.3-0.4,0.6-1,0.8-1.5c0.2-0.6,0.2-1.2,0.2-1.8c0-0.6-0.1-1.2-0.2-1.8c-0.2-0.6-0.4-1.1-0.8-1.5c-0.3-0.4-0.8-0.8-1.3-1.1
		C37.6,61.1,37,61,36.4,61 M41.3,60.5v10.5c0,0.1,0,0.4,0,0.7c0,0.3-0.1,0.6-0.1,1c-0.1,0.4-0.2,0.7-0.4,1.1c-0.2,0.4-0.5,0.7-0.8,1
		c-0.3,0.3-0.8,0.6-1.4,0.7c-0.6,0.2-1.2,0.3-2,0.2c-0.6,0-1.2,0-1.7-0.2c-0.5-0.1-1-0.3-1.4-0.6c-0.4-0.3-0.7-0.6-0.9-1.1
		c-0.2-0.4-0.4-1-0.4-1.6h0.8c0,0.5,0.2,0.9,0.4,1.3c0.2,0.3,0.5,0.6,0.8,0.9c0.3,0.2,0.7,0.4,1.1,0.5c0.4,0.1,0.8,0.1,1.3,0.1
		c0.6,0,1.2-0.1,1.7-0.2c0.4-0.1,0.8-0.4,1.1-0.6c0.3-0.2,0.5-0.5,0.7-0.8c0.1-0.3,0.3-0.6,0.4-0.9c0.1-0.3,0.1-0.5,0.1-0.8
		c0-0.2,0-0.4,0-0.5v-2.6h0c-0.4,0.8-0.9,1.5-1.6,1.9c-0.7,0.4-1.5,0.6-2.4,0.6c-0.8,0-1.5-0.1-2.1-0.4c-0.6-0.3-1.1-0.7-1.5-1.2
		c-0.4-0.5-0.7-1.1-0.9-1.7c-0.2-0.7-0.3-1.4-0.3-2.2c0-0.7,0.1-1.4,0.3-2.1c0.2-0.7,0.5-1.3,0.9-1.7c0.4-0.5,0.9-0.9,1.5-1.2
		c0.6-0.3,1.3-0.4,2.1-0.4c0.4,0,0.9,0,1.3,0.2c0.4,0.1,0.8,0.3,1.2,0.5c0.3,0.2,0.7,0.5,0.9,0.8c0.3,0.3,0.5,0.7,0.6,1.1h0v-2.3
		H41.3z M20.8,60.5h0.8v2.4h0c0.1-0.4,0.3-0.8,0.6-1.1c0.3-0.3,0.6-0.6,0.9-0.8c0.3-0.2,0.7-0.4,1.2-0.5c0.4-0.1,0.8-0.2,1.3-0.2
		c0.6,0,1.2,0.1,1.7,0.2c0.4,0.1,0.8,0.4,1.1,0.6c0.3,0.3,0.5,0.5,0.7,0.9c0.2,0.3,0.3,0.7,0.3,1c0.1,0.3,0.1,0.7,0.1,1
		c0,0.3,0,0.6,0,0.8v6.9h-0.8v-7c0-0.3,0-0.6-0.1-1.1c0-0.4-0.2-0.8-0.4-1.2c-0.2-0.4-0.5-0.7-1-1c-0.4-0.3-1-0.4-1.8-0.4
		c-0.6,0-1.2,0.1-1.7,0.3c-0.5,0.2-0.9,0.5-1.3,1c-0.3,0.4-0.6,0.9-0.8,1.5c-0.2,0.6-0.3,1.2-0.3,1.9v6h-0.8V60.5z M19.4,70.9v0.8
		H8.9V56.2h10.4V57H9.8v6.2h8.9V64H9.8v6.8L19.4,70.9L19.4,70.9z"/>
</g>
</svg>
